%TF.GenerationSoftware,KiCad,Pcbnew,(5.1.9)-1*%
%TF.CreationDate,2021-05-08T20:51:41+01:00*%
%TF.ProjectId,TSDZ2-ESP32-Alt,5453445a-322d-4455-9350-33322d416c74,A*%
%TF.SameCoordinates,Original*%
%TF.FileFunction,Legend,Bot*%
%TF.FilePolarity,Positive*%
%FSLAX46Y46*%
G04 Gerber Fmt 4.6, Leading zero omitted, Abs format (unit mm)*
G04 Created by KiCad (PCBNEW (5.1.9)-1) date 2021-05-08 20:51:41*
%MOMM*%
%LPD*%
G01*
G04 APERTURE LIST*
%ADD10C,0.200000*%
%ADD11C,0.150000*%
%ADD12C,0.120000*%
G04 APERTURE END LIST*
D10*
X167898571Y-94792857D02*
X168298571Y-94221428D01*
X168584285Y-94792857D02*
X168584285Y-93592857D01*
X168127142Y-93592857D01*
X168012857Y-93650000D01*
X167955714Y-93707142D01*
X167898571Y-93821428D01*
X167898571Y-93992857D01*
X167955714Y-94107142D01*
X168012857Y-94164285D01*
X168127142Y-94221428D01*
X168584285Y-94221428D01*
X166927142Y-94735714D02*
X167041428Y-94792857D01*
X167270000Y-94792857D01*
X167384285Y-94735714D01*
X167441428Y-94621428D01*
X167441428Y-94164285D01*
X167384285Y-94050000D01*
X167270000Y-93992857D01*
X167041428Y-93992857D01*
X166927142Y-94050000D01*
X166870000Y-94164285D01*
X166870000Y-94278571D01*
X167441428Y-94392857D01*
X166470000Y-93992857D02*
X166184285Y-94792857D01*
X165898571Y-93992857D01*
X164584285Y-94450000D02*
X164012857Y-94450000D01*
X164698571Y-94792857D02*
X164298571Y-93592857D01*
X163898571Y-94792857D01*
X168584285Y-92792857D02*
X168584285Y-91592857D01*
X168012857Y-91992857D02*
X168012857Y-92792857D01*
X168012857Y-92107142D02*
X167955714Y-92050000D01*
X167841428Y-91992857D01*
X167670000Y-91992857D01*
X167555714Y-92050000D01*
X167498571Y-92164285D01*
X167498571Y-92792857D01*
X166984285Y-92735714D02*
X166870000Y-92792857D01*
X166641428Y-92792857D01*
X166527142Y-92735714D01*
X166470000Y-92621428D01*
X166470000Y-92564285D01*
X166527142Y-92450000D01*
X166641428Y-92392857D01*
X166812857Y-92392857D01*
X166927142Y-92335714D01*
X166984285Y-92221428D01*
X166984285Y-92164285D01*
X166927142Y-92050000D01*
X166812857Y-91992857D01*
X166641428Y-91992857D01*
X166527142Y-92050000D01*
X165955714Y-91992857D02*
X165955714Y-93192857D01*
X165955714Y-92050000D02*
X165841428Y-91992857D01*
X165612857Y-91992857D01*
X165498571Y-92050000D01*
X165441428Y-92107142D01*
X165384285Y-92221428D01*
X165384285Y-92564285D01*
X165441428Y-92678571D01*
X165498571Y-92735714D01*
X165612857Y-92792857D01*
X165841428Y-92792857D01*
X165955714Y-92735714D01*
X164870000Y-92792857D02*
X164870000Y-91992857D01*
X164870000Y-91592857D02*
X164927142Y-91650000D01*
X164870000Y-91707142D01*
X164812857Y-91650000D01*
X164870000Y-91592857D01*
X164870000Y-91707142D01*
X164298571Y-92792857D02*
X164298571Y-91992857D01*
X164298571Y-92221428D02*
X164241428Y-92107142D01*
X164184285Y-92050000D01*
X164070000Y-91992857D01*
X163955714Y-91992857D01*
X163098571Y-92735714D02*
X163212857Y-92792857D01*
X163441428Y-92792857D01*
X163555714Y-92735714D01*
X163612857Y-92621428D01*
X163612857Y-92164285D01*
X163555714Y-92050000D01*
X163441428Y-91992857D01*
X163212857Y-91992857D01*
X163098571Y-92050000D01*
X163041428Y-92164285D01*
X163041428Y-92278571D01*
X163612857Y-92392857D01*
X162012857Y-92792857D02*
X162012857Y-91592857D01*
X162012857Y-92735714D02*
X162127142Y-92792857D01*
X162355714Y-92792857D01*
X162470000Y-92735714D01*
X162527142Y-92678571D01*
X162584285Y-92564285D01*
X162584285Y-92221428D01*
X162527142Y-92107142D01*
X162470000Y-92050000D01*
X162355714Y-91992857D01*
X162127142Y-91992857D01*
X162012857Y-92050000D01*
X160527142Y-92792857D02*
X160527142Y-91592857D01*
X160527142Y-92050000D02*
X160412857Y-91992857D01*
X160184285Y-91992857D01*
X160070000Y-92050000D01*
X160012857Y-92107142D01*
X159955714Y-92221428D01*
X159955714Y-92564285D01*
X160012857Y-92678571D01*
X160070000Y-92735714D01*
X160184285Y-92792857D01*
X160412857Y-92792857D01*
X160527142Y-92735714D01*
X159555714Y-91992857D02*
X159270000Y-92792857D01*
X158984285Y-91992857D02*
X159270000Y-92792857D01*
X159384285Y-93078571D01*
X159441428Y-93135714D01*
X159555714Y-93192857D01*
X157612857Y-92792857D02*
X157612857Y-91592857D01*
X157212857Y-92450000D01*
X156812857Y-91592857D01*
X156812857Y-92792857D01*
X156298571Y-92735714D02*
X156127142Y-92792857D01*
X155841428Y-92792857D01*
X155727142Y-92735714D01*
X155670000Y-92678571D01*
X155612857Y-92564285D01*
X155612857Y-92450000D01*
X155670000Y-92335714D01*
X155727142Y-92278571D01*
X155841428Y-92221428D01*
X156070000Y-92164285D01*
X156184285Y-92107142D01*
X156241428Y-92050000D01*
X156298571Y-91935714D01*
X156298571Y-91821428D01*
X156241428Y-91707142D01*
X156184285Y-91650000D01*
X156070000Y-91592857D01*
X155784285Y-91592857D01*
X155612857Y-91650000D01*
X155098571Y-91992857D02*
X155098571Y-93192857D01*
X155098571Y-92050000D02*
X154984285Y-91992857D01*
X154755714Y-91992857D01*
X154641428Y-92050000D01*
X154584285Y-92107142D01*
X154527142Y-92221428D01*
X154527142Y-92564285D01*
X154584285Y-92678571D01*
X154641428Y-92735714D01*
X154755714Y-92792857D01*
X154984285Y-92792857D01*
X155098571Y-92735714D01*
X154012857Y-92792857D02*
X154012857Y-91992857D01*
X154012857Y-91592857D02*
X154070000Y-91650000D01*
X154012857Y-91707142D01*
X153955714Y-91650000D01*
X154012857Y-91592857D01*
X154012857Y-91707142D01*
X152927142Y-92792857D02*
X152927142Y-91592857D01*
X152927142Y-92735714D02*
X153041428Y-92792857D01*
X153270000Y-92792857D01*
X153384285Y-92735714D01*
X153441428Y-92678571D01*
X153498571Y-92564285D01*
X153498571Y-92221428D01*
X153441428Y-92107142D01*
X153384285Y-92050000D01*
X153270000Y-91992857D01*
X153041428Y-91992857D01*
X152927142Y-92050000D01*
X151898571Y-92735714D02*
X152012857Y-92792857D01*
X152241428Y-92792857D01*
X152355714Y-92735714D01*
X152412857Y-92621428D01*
X152412857Y-92164285D01*
X152355714Y-92050000D01*
X152241428Y-91992857D01*
X152012857Y-91992857D01*
X151898571Y-92050000D01*
X151841428Y-92164285D01*
X151841428Y-92278571D01*
X152412857Y-92392857D01*
X151327142Y-92792857D02*
X151327142Y-91992857D01*
X151327142Y-92221428D02*
X151270000Y-92107142D01*
X151212857Y-92050000D01*
X151098571Y-91992857D01*
X150984285Y-91992857D01*
X150070000Y-91592857D02*
X150298571Y-91592857D01*
X150412857Y-91650000D01*
X150470000Y-91707142D01*
X150584285Y-91878571D01*
X150641428Y-92107142D01*
X150641428Y-92564285D01*
X150584285Y-92678571D01*
X150527142Y-92735714D01*
X150412857Y-92792857D01*
X150184285Y-92792857D01*
X150070000Y-92735714D01*
X150012857Y-92678571D01*
X149955714Y-92564285D01*
X149955714Y-92278571D01*
X150012857Y-92164285D01*
X150070000Y-92107142D01*
X150184285Y-92050000D01*
X150412857Y-92050000D01*
X150527142Y-92107142D01*
X150584285Y-92164285D01*
X150641428Y-92278571D01*
X148870000Y-91592857D02*
X149441428Y-91592857D01*
X149498571Y-92164285D01*
X149441428Y-92107142D01*
X149327142Y-92050000D01*
X149041428Y-92050000D01*
X148927142Y-92107142D01*
X148870000Y-92164285D01*
X148812857Y-92278571D01*
X148812857Y-92564285D01*
X148870000Y-92678571D01*
X148927142Y-92735714D01*
X149041428Y-92792857D01*
X149327142Y-92792857D01*
X149441428Y-92735714D01*
X149498571Y-92678571D01*
X168755714Y-89592857D02*
X168070000Y-89592857D01*
X168412857Y-90792857D02*
X168412857Y-89592857D01*
X167727142Y-90735714D02*
X167555714Y-90792857D01*
X167270000Y-90792857D01*
X167155714Y-90735714D01*
X167098571Y-90678571D01*
X167041428Y-90564285D01*
X167041428Y-90450000D01*
X167098571Y-90335714D01*
X167155714Y-90278571D01*
X167270000Y-90221428D01*
X167498571Y-90164285D01*
X167612857Y-90107142D01*
X167670000Y-90050000D01*
X167727142Y-89935714D01*
X167727142Y-89821428D01*
X167670000Y-89707142D01*
X167612857Y-89650000D01*
X167498571Y-89592857D01*
X167212857Y-89592857D01*
X167041428Y-89650000D01*
X166527142Y-90792857D02*
X166527142Y-89592857D01*
X166241428Y-89592857D01*
X166070000Y-89650000D01*
X165955714Y-89764285D01*
X165898571Y-89878571D01*
X165841428Y-90107142D01*
X165841428Y-90278571D01*
X165898571Y-90507142D01*
X165955714Y-90621428D01*
X166070000Y-90735714D01*
X166241428Y-90792857D01*
X166527142Y-90792857D01*
X165441428Y-89592857D02*
X164641428Y-89592857D01*
X165441428Y-90792857D01*
X164641428Y-90792857D01*
X164241428Y-89707142D02*
X164184285Y-89650000D01*
X164070000Y-89592857D01*
X163784285Y-89592857D01*
X163670000Y-89650000D01*
X163612857Y-89707142D01*
X163555714Y-89821428D01*
X163555714Y-89935714D01*
X163612857Y-90107142D01*
X164298571Y-90792857D01*
X163555714Y-90792857D01*
X163041428Y-90335714D02*
X162127142Y-90335714D01*
X161555714Y-90164285D02*
X161155714Y-90164285D01*
X160984285Y-90792857D02*
X161555714Y-90792857D01*
X161555714Y-89592857D01*
X160984285Y-89592857D01*
X160527142Y-90735714D02*
X160355714Y-90792857D01*
X160070000Y-90792857D01*
X159955714Y-90735714D01*
X159898571Y-90678571D01*
X159841428Y-90564285D01*
X159841428Y-90450000D01*
X159898571Y-90335714D01*
X159955714Y-90278571D01*
X160070000Y-90221428D01*
X160298571Y-90164285D01*
X160412857Y-90107142D01*
X160470000Y-90050000D01*
X160527142Y-89935714D01*
X160527142Y-89821428D01*
X160470000Y-89707142D01*
X160412857Y-89650000D01*
X160298571Y-89592857D01*
X160012857Y-89592857D01*
X159841428Y-89650000D01*
X159327142Y-90792857D02*
X159327142Y-89592857D01*
X158870000Y-89592857D01*
X158755714Y-89650000D01*
X158698571Y-89707142D01*
X158641428Y-89821428D01*
X158641428Y-89992857D01*
X158698571Y-90107142D01*
X158755714Y-90164285D01*
X158870000Y-90221428D01*
X159327142Y-90221428D01*
X158241428Y-89592857D02*
X157498571Y-89592857D01*
X157898571Y-90050000D01*
X157727142Y-90050000D01*
X157612857Y-90107142D01*
X157555714Y-90164285D01*
X157498571Y-90278571D01*
X157498571Y-90564285D01*
X157555714Y-90678571D01*
X157612857Y-90735714D01*
X157727142Y-90792857D01*
X158070000Y-90792857D01*
X158184285Y-90735714D01*
X158241428Y-90678571D01*
X157041428Y-89707142D02*
X156984285Y-89650000D01*
X156870000Y-89592857D01*
X156584285Y-89592857D01*
X156470000Y-89650000D01*
X156412857Y-89707142D01*
X156355714Y-89821428D01*
X156355714Y-89935714D01*
X156412857Y-90107142D01*
X157098571Y-90792857D01*
X156355714Y-90792857D01*
X154984285Y-90450000D02*
X154412857Y-90450000D01*
X155098571Y-90792857D02*
X154698571Y-89592857D01*
X154298571Y-90792857D01*
X153727142Y-90792857D02*
X153841428Y-90735714D01*
X153898571Y-90621428D01*
X153898571Y-89592857D01*
X153441428Y-89992857D02*
X152984285Y-89992857D01*
X153270000Y-89592857D02*
X153270000Y-90621428D01*
X153212857Y-90735714D01*
X153098571Y-90792857D01*
X152984285Y-90792857D01*
D11*
X158161904Y-106740595D02*
X157780952Y-106473928D01*
X158161904Y-106283452D02*
X157361904Y-106283452D01*
X157361904Y-106588214D01*
X157400000Y-106664404D01*
X157438095Y-106702500D01*
X157514285Y-106740595D01*
X157628571Y-106740595D01*
X157704761Y-106702500D01*
X157742857Y-106664404D01*
X157780952Y-106588214D01*
X157780952Y-106283452D01*
X157361904Y-107007261D02*
X158161904Y-107540595D01*
X157361904Y-107540595D02*
X158161904Y-107007261D01*
X158161904Y-108226309D02*
X158161904Y-107845357D01*
X157361904Y-107845357D01*
X155661904Y-106588214D02*
X155280952Y-106321547D01*
X155661904Y-106131071D02*
X154861904Y-106131071D01*
X154861904Y-106435833D01*
X154900000Y-106512023D01*
X154938095Y-106550119D01*
X155014285Y-106588214D01*
X155128571Y-106588214D01*
X155204761Y-106550119D01*
X155242857Y-106512023D01*
X155280952Y-106435833D01*
X155280952Y-106131071D01*
X154861904Y-106854880D02*
X155661904Y-107388214D01*
X154861904Y-107388214D02*
X155661904Y-106854880D01*
X155585714Y-108150119D02*
X155623809Y-108112023D01*
X155661904Y-107997738D01*
X155661904Y-107921547D01*
X155623809Y-107807261D01*
X155547619Y-107731071D01*
X155471428Y-107692976D01*
X155319047Y-107654880D01*
X155204761Y-107654880D01*
X155052380Y-107692976D01*
X154976190Y-107731071D01*
X154900000Y-107807261D01*
X154861904Y-107921547D01*
X154861904Y-107997738D01*
X154900000Y-108112023D01*
X154938095Y-108150119D01*
X152261904Y-106359642D02*
X152261904Y-106816785D01*
X153061904Y-106588214D02*
X152261904Y-106588214D01*
X152261904Y-107007261D02*
X153061904Y-107540595D01*
X152261904Y-107540595D02*
X153061904Y-107007261D01*
X153061904Y-108226309D02*
X153061904Y-107845357D01*
X152261904Y-107845357D01*
X149761904Y-106207261D02*
X149761904Y-106664404D01*
X150561904Y-106435833D02*
X149761904Y-106435833D01*
X149761904Y-106854880D02*
X150561904Y-107388214D01*
X149761904Y-107388214D02*
X150561904Y-106854880D01*
X150485714Y-108150119D02*
X150523809Y-108112023D01*
X150561904Y-107997738D01*
X150561904Y-107921547D01*
X150523809Y-107807261D01*
X150447619Y-107731071D01*
X150371428Y-107692976D01*
X150219047Y-107654880D01*
X150104761Y-107654880D01*
X149952380Y-107692976D01*
X149876190Y-107731071D01*
X149800000Y-107807261D01*
X149761904Y-107921547D01*
X149761904Y-107997738D01*
X149800000Y-108112023D01*
X149838095Y-108150119D01*
X146061904Y-106407261D02*
X146061904Y-106902500D01*
X146366666Y-106635833D01*
X146366666Y-106750119D01*
X146404761Y-106826309D01*
X146442857Y-106864404D01*
X146519047Y-106902500D01*
X146709523Y-106902500D01*
X146785714Y-106864404D01*
X146823809Y-106826309D01*
X146861904Y-106750119D01*
X146861904Y-106521547D01*
X146823809Y-106445357D01*
X146785714Y-106407261D01*
X146061904Y-107131071D02*
X146861904Y-107397738D01*
X146061904Y-107664404D01*
X146061904Y-107854880D02*
X146061904Y-108350119D01*
X146366666Y-108083452D01*
X146366666Y-108197738D01*
X146404761Y-108273928D01*
X146442857Y-108312023D01*
X146519047Y-108350119D01*
X146709523Y-108350119D01*
X146785714Y-108312023D01*
X146823809Y-108273928D01*
X146861904Y-108197738D01*
X146861904Y-107969166D01*
X146823809Y-107892976D01*
X146785714Y-107854880D01*
X144361904Y-105607261D02*
X143561904Y-105607261D01*
X143561904Y-105797738D01*
X143600000Y-105912023D01*
X143676190Y-105988214D01*
X143752380Y-106026309D01*
X143904761Y-106064404D01*
X144019047Y-106064404D01*
X144171428Y-106026309D01*
X144247619Y-105988214D01*
X144323809Y-105912023D01*
X144361904Y-105797738D01*
X144361904Y-105607261D01*
X144323809Y-106369166D02*
X144361904Y-106483452D01*
X144361904Y-106673928D01*
X144323809Y-106750119D01*
X144285714Y-106788214D01*
X144209523Y-106826309D01*
X144133333Y-106826309D01*
X144057142Y-106788214D01*
X144019047Y-106750119D01*
X143980952Y-106673928D01*
X143942857Y-106521547D01*
X143904761Y-106445357D01*
X143866666Y-106407261D01*
X143790476Y-106369166D01*
X143714285Y-106369166D01*
X143638095Y-106407261D01*
X143600000Y-106445357D01*
X143561904Y-106521547D01*
X143561904Y-106712023D01*
X143600000Y-106826309D01*
X144361904Y-107588214D02*
X144361904Y-107131071D01*
X144361904Y-107359642D02*
X143561904Y-107359642D01*
X143676190Y-107283452D01*
X143752380Y-107207261D01*
X143790476Y-107131071D01*
X143904761Y-108045357D02*
X143866666Y-107969166D01*
X143828571Y-107931071D01*
X143752380Y-107892976D01*
X143714285Y-107892976D01*
X143638095Y-107931071D01*
X143600000Y-107969166D01*
X143561904Y-108045357D01*
X143561904Y-108197738D01*
X143600000Y-108273928D01*
X143638095Y-108312023D01*
X143714285Y-108350119D01*
X143752380Y-108350119D01*
X143828571Y-108312023D01*
X143866666Y-108273928D01*
X143904761Y-108197738D01*
X143904761Y-108045357D01*
X143942857Y-107969166D01*
X143980952Y-107931071D01*
X144057142Y-107892976D01*
X144209523Y-107892976D01*
X144285714Y-107931071D01*
X144323809Y-107969166D01*
X144361904Y-108045357D01*
X144361904Y-108197738D01*
X144323809Y-108273928D01*
X144285714Y-108312023D01*
X144209523Y-108350119D01*
X144057142Y-108350119D01*
X143980952Y-108312023D01*
X143942857Y-108273928D01*
X143904761Y-108197738D01*
X141000000Y-106573928D02*
X140961904Y-106497738D01*
X140961904Y-106383452D01*
X141000000Y-106269166D01*
X141076190Y-106192976D01*
X141152380Y-106154880D01*
X141304761Y-106116785D01*
X141419047Y-106116785D01*
X141571428Y-106154880D01*
X141647619Y-106192976D01*
X141723809Y-106269166D01*
X141761904Y-106383452D01*
X141761904Y-106459642D01*
X141723809Y-106573928D01*
X141685714Y-106612023D01*
X141419047Y-106612023D01*
X141419047Y-106459642D01*
X141761904Y-106954880D02*
X140961904Y-106954880D01*
X141761904Y-107412023D01*
X140961904Y-107412023D01*
X141761904Y-107792976D02*
X140961904Y-107792976D01*
X140961904Y-107983452D01*
X141000000Y-108097738D01*
X141076190Y-108173928D01*
X141152380Y-108212023D01*
X141304761Y-108250119D01*
X141419047Y-108250119D01*
X141571428Y-108212023D01*
X141647619Y-108173928D01*
X141723809Y-108097738D01*
X141761904Y-107983452D01*
X141761904Y-107792976D01*
X136900000Y-106373928D02*
X136861904Y-106297738D01*
X136861904Y-106183452D01*
X136900000Y-106069166D01*
X136976190Y-105992976D01*
X137052380Y-105954880D01*
X137204761Y-105916785D01*
X137319047Y-105916785D01*
X137471428Y-105954880D01*
X137547619Y-105992976D01*
X137623809Y-106069166D01*
X137661904Y-106183452D01*
X137661904Y-106259642D01*
X137623809Y-106373928D01*
X137585714Y-106412023D01*
X137319047Y-106412023D01*
X137319047Y-106259642D01*
X137661904Y-106754880D02*
X136861904Y-106754880D01*
X137661904Y-107212023D01*
X136861904Y-107212023D01*
X137661904Y-107592976D02*
X136861904Y-107592976D01*
X136861904Y-107783452D01*
X136900000Y-107897738D01*
X136976190Y-107973928D01*
X137052380Y-108012023D01*
X137204761Y-108050119D01*
X137319047Y-108050119D01*
X137471428Y-108012023D01*
X137547619Y-107973928D01*
X137623809Y-107897738D01*
X137661904Y-107783452D01*
X137661904Y-107592976D01*
X134857142Y-104864404D02*
X134857142Y-105473928D01*
X135161904Y-105169166D02*
X134552380Y-105169166D01*
X134742857Y-106121547D02*
X134780952Y-106235833D01*
X134819047Y-106273928D01*
X134895238Y-106312023D01*
X135009523Y-106312023D01*
X135085714Y-106273928D01*
X135123809Y-106235833D01*
X135161904Y-106159642D01*
X135161904Y-105854880D01*
X134361904Y-105854880D01*
X134361904Y-106121547D01*
X134400000Y-106197738D01*
X134438095Y-106235833D01*
X134514285Y-106273928D01*
X134590476Y-106273928D01*
X134666666Y-106235833D01*
X134704761Y-106197738D01*
X134742857Y-106121547D01*
X134742857Y-105854880D01*
X135161904Y-106997738D02*
X134742857Y-106997738D01*
X134666666Y-106959642D01*
X134628571Y-106883452D01*
X134628571Y-106731071D01*
X134666666Y-106654880D01*
X135123809Y-106997738D02*
X135161904Y-106921547D01*
X135161904Y-106731071D01*
X135123809Y-106654880D01*
X135047619Y-106616785D01*
X134971428Y-106616785D01*
X134895238Y-106654880D01*
X134857142Y-106731071D01*
X134857142Y-106921547D01*
X134819047Y-106997738D01*
X134628571Y-107264404D02*
X134628571Y-107569166D01*
X134361904Y-107378690D02*
X135047619Y-107378690D01*
X135123809Y-107416785D01*
X135161904Y-107492976D01*
X135161904Y-107569166D01*
X134628571Y-107721547D02*
X134628571Y-108026309D01*
X134361904Y-107835833D02*
X135047619Y-107835833D01*
X135123809Y-107873928D01*
X135161904Y-107950119D01*
X135161904Y-108026309D01*
X132257142Y-105154880D02*
X132257142Y-105764404D01*
X132561904Y-105459642D02*
X131952380Y-105459642D01*
X132561904Y-106526309D02*
X132561904Y-106145357D01*
X131761904Y-106145357D01*
X132485714Y-107250119D02*
X132523809Y-107212023D01*
X132561904Y-107097738D01*
X132561904Y-107021547D01*
X132523809Y-106907261D01*
X132447619Y-106831071D01*
X132371428Y-106792976D01*
X132219047Y-106754880D01*
X132104761Y-106754880D01*
X131952380Y-106792976D01*
X131876190Y-106831071D01*
X131800000Y-106907261D01*
X131761904Y-107021547D01*
X131761904Y-107097738D01*
X131800000Y-107212023D01*
X131838095Y-107250119D01*
X132561904Y-107592976D02*
X131761904Y-107592976D01*
X131761904Y-107783452D01*
X131800000Y-107897738D01*
X131876190Y-107973928D01*
X131952380Y-108012023D01*
X132104761Y-108050119D01*
X132219047Y-108050119D01*
X132371428Y-108012023D01*
X132447619Y-107973928D01*
X132523809Y-107897738D01*
X132561904Y-107783452D01*
X132561904Y-107592976D01*
D12*
%TO.C,JP2*%
X138350000Y-92850000D02*
X139750000Y-92850000D01*
X140450000Y-92150000D02*
X140450000Y-91550000D01*
X139750000Y-90850000D02*
X138350000Y-90850000D01*
X137650000Y-91550000D02*
X137650000Y-92150000D01*
X137650000Y-92150000D02*
G75*
G03*
X138350000Y-92850000I700000J0D01*
G01*
X138350000Y-90850000D02*
G75*
G03*
X137650000Y-91550000I0J-700000D01*
G01*
X140450000Y-91550000D02*
G75*
G03*
X139750000Y-90850000I-700000J0D01*
G01*
X139750000Y-92850000D02*
G75*
G03*
X140450000Y-92150000I0J700000D01*
G01*
D11*
X139833333Y-93202380D02*
X139833333Y-93916666D01*
X139880952Y-94059523D01*
X139976190Y-94154761D01*
X140119047Y-94202380D01*
X140214285Y-94202380D01*
X139357142Y-94202380D02*
X139357142Y-93202380D01*
X138976190Y-93202380D01*
X138880952Y-93250000D01*
X138833333Y-93297619D01*
X138785714Y-93392857D01*
X138785714Y-93535714D01*
X138833333Y-93630952D01*
X138880952Y-93678571D01*
X138976190Y-93726190D01*
X139357142Y-93726190D01*
X138404761Y-93297619D02*
X138357142Y-93250000D01*
X138261904Y-93202380D01*
X138023809Y-93202380D01*
X137928571Y-93250000D01*
X137880952Y-93297619D01*
X137833333Y-93392857D01*
X137833333Y-93488095D01*
X137880952Y-93630952D01*
X138452380Y-94202380D01*
X137833333Y-94202380D01*
%TD*%
M02*
