%TF.GenerationSoftware,KiCad,Pcbnew,(5.1.9)-1*%
%TF.CreationDate,2021-05-08T20:51:41+01:00*%
%TF.ProjectId,TSDZ2-ESP32-Alt,5453445a-322d-4455-9350-33322d416c74,A*%
%TF.SameCoordinates,Original*%
%TF.FileFunction,Copper,L2,Inr*%
%TF.FilePolarity,Positive*%
%FSLAX46Y46*%
G04 Gerber Fmt 4.6, Leading zero omitted, Abs format (unit mm)*
G04 Created by KiCad (PCBNEW (5.1.9)-1) date 2021-05-08 20:51:41*
%MOMM*%
%LPD*%
G01*
G04 APERTURE LIST*
%TA.AperFunction,ComponentPad*%
%ADD10O,1.700000X1.700000*%
%TD*%
%TA.AperFunction,ComponentPad*%
%ADD11R,1.700000X1.700000*%
%TD*%
%TA.AperFunction,ViaPad*%
%ADD12C,0.800000*%
%TD*%
%TA.AperFunction,ViaPad*%
%ADD13C,0.600000*%
%TD*%
%TA.AperFunction,Conductor*%
%ADD14C,0.254000*%
%TD*%
%TA.AperFunction,Conductor*%
%ADD15C,0.100000*%
%TD*%
G04 APERTURE END LIST*
D10*
%TO.N,+3V3*%
%TO.C,J2*%
X175500000Y-106300000D03*
%TO.N,/~RST*%
X175500000Y-103760000D03*
%TO.N,/GPIO0*%
X175500000Y-101220000D03*
%TO.N,/RXD*%
X175500000Y-98680000D03*
%TO.N,/TXD*%
X175500000Y-96140000D03*
D11*
%TO.N,GND*%
X175500000Y-93600000D03*
%TD*%
D10*
%TO.N,GND*%
%TO.C,J4*%
X137280000Y-110000000D03*
%TO.N,+48V*%
X134740000Y-110000000D03*
D11*
%TO.N,/PSU_EN*%
X132200000Y-110000000D03*
%TD*%
D10*
%TO.N,/RXL*%
%TO.C,J3*%
X157800000Y-110100000D03*
%TO.N,/RXC*%
X155260000Y-110100000D03*
%TO.N,/TXL*%
X152720000Y-110100000D03*
D11*
%TO.N,/TXC*%
X150180000Y-110100000D03*
%TD*%
D10*
%TO.N,+3V3*%
%TO.C,U6*%
X146480000Y-110100000D03*
%TO.N,/DS18B20_DQ*%
X143940000Y-110100000D03*
D11*
%TO.N,GND*%
X141400000Y-110100000D03*
%TD*%
D12*
%TO.N,GND*%
X164920000Y-98300000D03*
X167000000Y-100400000D03*
X167000000Y-96200000D03*
X162800000Y-96200000D03*
X162800000Y-100400000D03*
X138600000Y-99500000D03*
X140200000Y-99500000D03*
X140800000Y-96400000D03*
X140800000Y-97600000D03*
X168200000Y-93800000D03*
X169400000Y-92100000D03*
X166300000Y-92100000D03*
X166400000Y-93100000D03*
X165400000Y-92800000D03*
X165100000Y-91800000D03*
X167800000Y-90300000D03*
X168800000Y-92900000D03*
X169300000Y-94100000D03*
X167800000Y-89100000D03*
X165100000Y-90900000D03*
X165100000Y-90000000D03*
X165100000Y-89100000D03*
X139000000Y-106300000D03*
X139000000Y-107200000D03*
X139000000Y-108100000D03*
X139900000Y-107800000D03*
X139900000Y-106900000D03*
X139900000Y-106000000D03*
X139300000Y-110000000D03*
X137400000Y-108400000D03*
X130500000Y-110700000D03*
X138700000Y-111000000D03*
X148300000Y-110900000D03*
X159600000Y-110900000D03*
X169200000Y-110700000D03*
X130600000Y-90300000D03*
X130600000Y-89400000D03*
X134600000Y-89100000D03*
X134600000Y-90400000D03*
X149350000Y-104450000D03*
X159900000Y-101500000D03*
X155750000Y-99299998D03*
X141100000Y-89700000D03*
X148000000Y-90400000D03*
X165000000Y-103800000D03*
X166600000Y-105300000D03*
X151900000Y-105300000D03*
X151600000Y-89000000D03*
X151600000Y-95200000D03*
X154000000Y-95300000D03*
X155100000Y-89200000D03*
X159700000Y-91400000D03*
X161400000Y-93600000D03*
X150600000Y-97700000D03*
X148700000Y-92600000D03*
X146300000Y-88900000D03*
X140000000Y-100700000D03*
X130900000Y-106650000D03*
X134250000Y-92750000D03*
X134250000Y-94500000D03*
X137000000Y-94500000D03*
X140000000Y-94500000D03*
X143500000Y-95250000D03*
X145500000Y-95000000D03*
X147750000Y-94000000D03*
X158400000Y-105800000D03*
X160600000Y-103500000D03*
X162300000Y-102900000D03*
X161100000Y-105600000D03*
X158500000Y-107400000D03*
X161300000Y-108800000D03*
X164200000Y-106500000D03*
X169600000Y-105200000D03*
X169300000Y-107700000D03*
X164300000Y-111000000D03*
X166300000Y-108900000D03*
X143100000Y-108400000D03*
X143700000Y-105700000D03*
X147000000Y-105400000D03*
X145600000Y-100200000D03*
X145700000Y-97400000D03*
X142800000Y-100300000D03*
X143300000Y-97900000D03*
X145300000Y-104600000D03*
X133400000Y-104400000D03*
X133800000Y-108400000D03*
X133700000Y-111200000D03*
X156400000Y-94600000D03*
X157500000Y-95600000D03*
X158900000Y-94800000D03*
X154100000Y-108200000D03*
X156500000Y-108700000D03*
X156500000Y-111200000D03*
X154000000Y-111200000D03*
X151700000Y-111300000D03*
X151600000Y-108600000D03*
X149800000Y-107800000D03*
X147000000Y-108600000D03*
X143100000Y-111300000D03*
X145200000Y-108400000D03*
X145200000Y-111200000D03*
X141500000Y-104300000D03*
%TO.N,+5V*%
X139200000Y-104200000D03*
X135600000Y-98300000D03*
X158400000Y-104500000D03*
%TO.N,+3V3*%
X140700000Y-92300000D03*
X140700000Y-91400000D03*
X141600000Y-92300000D03*
X141600000Y-91400000D03*
X149300000Y-100050006D03*
X169400044Y-103800000D03*
X169600000Y-97700000D03*
X169600000Y-96600000D03*
X152500000Y-98200000D03*
X158900000Y-98900000D03*
D13*
X164999992Y-93699992D03*
D12*
X153400000Y-89200000D03*
X155900000Y-93500000D03*
X159847503Y-89695005D03*
X148300000Y-107900000D03*
D13*
%TO.N,/SCL*%
X156700000Y-97300000D03*
X156400000Y-92300000D03*
X155700002Y-96300000D03*
%TO.N,/SDA*%
X158100000Y-92300000D03*
X157400000Y-96900000D03*
X156400000Y-95700000D03*
%TO.N,/DS18B20_DQ*%
X154000000Y-106600000D03*
X150099998Y-106600002D03*
%TO.N,/~RST*%
X173350000Y-100150000D03*
X163650000Y-93800000D03*
X147000000Y-101750000D03*
X160249995Y-90499995D03*
%TO.N,/GPIO0*%
X160393007Y-100567439D03*
%TO.N,/GPIO26*%
X152900000Y-99300000D03*
X160024994Y-97202234D03*
%TO.N,/GPIO27*%
X151000000Y-99300000D03*
X160100000Y-98000000D03*
%TO.N,/GPIO33*%
X156800000Y-99499998D03*
X160199143Y-95496990D03*
X149300000Y-95800000D03*
%TO.N,/~PSU_RST*%
X139900000Y-101800000D03*
X142750000Y-101750000D03*
D12*
%TO.N,Net-(JP2-Pad1)*%
X136250000Y-91250000D03*
X136250000Y-92250000D03*
X137250000Y-92250000D03*
X137250000Y-91250000D03*
%TD*%
D14*
%TO.N,GND*%
X153031952Y-88511431D02*
X152904691Y-88596464D01*
X152796464Y-88704691D01*
X152711431Y-88831952D01*
X152652859Y-88973357D01*
X152623000Y-89123472D01*
X152623000Y-89276528D01*
X152652859Y-89426643D01*
X152711431Y-89568048D01*
X152796464Y-89695309D01*
X152904691Y-89803536D01*
X153031952Y-89888569D01*
X153173357Y-89947141D01*
X153323472Y-89977000D01*
X153476528Y-89977000D01*
X153626643Y-89947141D01*
X153768048Y-89888569D01*
X153895309Y-89803536D01*
X154003536Y-89695309D01*
X154054873Y-89618477D01*
X159070503Y-89618477D01*
X159070503Y-89771533D01*
X159100362Y-89921648D01*
X159158934Y-90063053D01*
X159243967Y-90190314D01*
X159352194Y-90298541D01*
X159479455Y-90383574D01*
X159575016Y-90423157D01*
X159572995Y-90433316D01*
X159572995Y-90566674D01*
X159599011Y-90697469D01*
X159650045Y-90820675D01*
X159724135Y-90931558D01*
X159818432Y-91025855D01*
X159929315Y-91099945D01*
X160052521Y-91150979D01*
X160183316Y-91176995D01*
X160316674Y-91176995D01*
X160447469Y-91150979D01*
X160570675Y-91099945D01*
X160681558Y-91025855D01*
X160775855Y-90931558D01*
X160849945Y-90820675D01*
X160900979Y-90697469D01*
X160926995Y-90566674D01*
X160926995Y-90433316D01*
X160900979Y-90302521D01*
X160849945Y-90179315D01*
X160775855Y-90068432D01*
X160681558Y-89974135D01*
X160595625Y-89916716D01*
X160624503Y-89771533D01*
X160624503Y-89618477D01*
X160594644Y-89468362D01*
X160536072Y-89326957D01*
X160451039Y-89199696D01*
X160342812Y-89091469D01*
X160215551Y-89006436D01*
X160074146Y-88947864D01*
X159924031Y-88918005D01*
X159770975Y-88918005D01*
X159620860Y-88947864D01*
X159479455Y-89006436D01*
X159352194Y-89091469D01*
X159243967Y-89199696D01*
X159158934Y-89326957D01*
X159100362Y-89468362D01*
X159070503Y-89618477D01*
X154054873Y-89618477D01*
X154088569Y-89568048D01*
X154147141Y-89426643D01*
X154177000Y-89276528D01*
X154177000Y-89123472D01*
X154147141Y-88973357D01*
X154088569Y-88831952D01*
X154003536Y-88704691D01*
X153895309Y-88596464D01*
X153768048Y-88511431D01*
X153684924Y-88477000D01*
X168976666Y-88477000D01*
X169198261Y-88498727D01*
X169388961Y-88556303D01*
X169564855Y-88649828D01*
X169719227Y-88775731D01*
X169846208Y-88929224D01*
X169940957Y-89104459D01*
X169999865Y-89294758D01*
X170023001Y-89514888D01*
X170023000Y-95948149D01*
X169968048Y-95911431D01*
X169826643Y-95852859D01*
X169676528Y-95823000D01*
X169523472Y-95823000D01*
X169373357Y-95852859D01*
X169231952Y-95911431D01*
X169104691Y-95996464D01*
X168996464Y-96104691D01*
X168911431Y-96231952D01*
X168852859Y-96373357D01*
X168823000Y-96523472D01*
X168823000Y-96676528D01*
X168852859Y-96826643D01*
X168911431Y-96968048D01*
X168996464Y-97095309D01*
X169051155Y-97150000D01*
X168996464Y-97204691D01*
X168911431Y-97331952D01*
X168852859Y-97473357D01*
X168823000Y-97623472D01*
X168823000Y-97776528D01*
X168852859Y-97926643D01*
X168911431Y-98068048D01*
X168996464Y-98195309D01*
X169104691Y-98303536D01*
X169231952Y-98388569D01*
X169373357Y-98447141D01*
X169523472Y-98477000D01*
X169673000Y-98477000D01*
X169673000Y-98561754D01*
X169697095Y-98682889D01*
X169744360Y-98796996D01*
X169812977Y-98899689D01*
X169900311Y-98987023D01*
X170003004Y-99055640D01*
X170117111Y-99102905D01*
X170123000Y-99104076D01*
X170123000Y-99445924D01*
X170117111Y-99447095D01*
X170003004Y-99494360D01*
X169900311Y-99562977D01*
X169812977Y-99650311D01*
X169744360Y-99753004D01*
X169697095Y-99867111D01*
X169673000Y-99988246D01*
X169673000Y-100111754D01*
X169697095Y-100232889D01*
X169744360Y-100346996D01*
X169812977Y-100449689D01*
X169900311Y-100537023D01*
X170003004Y-100605640D01*
X170117111Y-100652905D01*
X170123000Y-100654076D01*
X170123000Y-100895924D01*
X170117111Y-100897095D01*
X170003004Y-100944360D01*
X169900311Y-101012977D01*
X169812977Y-101100311D01*
X169744360Y-101203004D01*
X169697095Y-101317111D01*
X169673000Y-101438246D01*
X169673000Y-101561754D01*
X169697095Y-101682889D01*
X169744360Y-101796996D01*
X169812977Y-101899689D01*
X169900311Y-101987023D01*
X170003004Y-102055640D01*
X170062609Y-102080329D01*
X170060499Y-102087319D01*
X170052098Y-102129746D01*
X170043112Y-102172019D01*
X170042416Y-102178643D01*
X170025276Y-102353454D01*
X170025276Y-102353470D01*
X170023000Y-102376578D01*
X170023000Y-103333755D01*
X170003580Y-103304691D01*
X169895353Y-103196464D01*
X169768092Y-103111431D01*
X169626687Y-103052859D01*
X169476572Y-103023000D01*
X169323516Y-103023000D01*
X169173401Y-103052859D01*
X169031996Y-103111431D01*
X168904735Y-103196464D01*
X168796508Y-103304691D01*
X168711475Y-103431952D01*
X168652903Y-103573357D01*
X168623044Y-103723472D01*
X168623044Y-103876528D01*
X168652903Y-104026643D01*
X168711475Y-104168048D01*
X168796508Y-104295309D01*
X168904735Y-104403536D01*
X169031996Y-104488569D01*
X169173401Y-104547141D01*
X169323516Y-104577000D01*
X169476572Y-104577000D01*
X169626687Y-104547141D01*
X169768092Y-104488569D01*
X169895353Y-104403536D01*
X170003580Y-104295309D01*
X170023000Y-104266245D01*
X170023001Y-110476656D01*
X170001273Y-110698261D01*
X169943696Y-110888963D01*
X169850172Y-111064855D01*
X169724269Y-111219227D01*
X169570776Y-111346208D01*
X169395541Y-111440957D01*
X169205242Y-111499865D01*
X168985122Y-111523000D01*
X142525053Y-111523000D01*
X142604494Y-111480537D01*
X142701185Y-111401185D01*
X142780537Y-111304494D01*
X142839502Y-111194180D01*
X142875812Y-111074482D01*
X142888072Y-110950000D01*
X142886888Y-110732447D01*
X142986927Y-110882167D01*
X143157833Y-111053073D01*
X143358798Y-111187353D01*
X143582097Y-111279847D01*
X143819151Y-111327000D01*
X144060849Y-111327000D01*
X144297903Y-111279847D01*
X144521202Y-111187353D01*
X144722167Y-111053073D01*
X144893073Y-110882167D01*
X145027353Y-110681202D01*
X145119847Y-110457903D01*
X145167000Y-110220849D01*
X145167000Y-109979151D01*
X145253000Y-109979151D01*
X145253000Y-110220849D01*
X145300153Y-110457903D01*
X145392647Y-110681202D01*
X145526927Y-110882167D01*
X145697833Y-111053073D01*
X145898798Y-111187353D01*
X146122097Y-111279847D01*
X146359151Y-111327000D01*
X146600849Y-111327000D01*
X146837903Y-111279847D01*
X147061202Y-111187353D01*
X147262167Y-111053073D01*
X147433073Y-110882167D01*
X147567353Y-110681202D01*
X147659847Y-110457903D01*
X147707000Y-110220849D01*
X147707000Y-109979151D01*
X147659847Y-109742097D01*
X147567353Y-109518798D01*
X147433073Y-109317833D01*
X147365240Y-109250000D01*
X148951176Y-109250000D01*
X148951176Y-110950000D01*
X148958455Y-111023905D01*
X148980012Y-111094970D01*
X149015019Y-111160463D01*
X149062131Y-111217869D01*
X149119537Y-111264981D01*
X149185030Y-111299988D01*
X149256095Y-111321545D01*
X149330000Y-111328824D01*
X151030000Y-111328824D01*
X151103905Y-111321545D01*
X151174970Y-111299988D01*
X151240463Y-111264981D01*
X151297869Y-111217869D01*
X151344981Y-111160463D01*
X151379988Y-111094970D01*
X151401545Y-111023905D01*
X151408824Y-110950000D01*
X151408824Y-109979151D01*
X151493000Y-109979151D01*
X151493000Y-110220849D01*
X151540153Y-110457903D01*
X151632647Y-110681202D01*
X151766927Y-110882167D01*
X151937833Y-111053073D01*
X152138798Y-111187353D01*
X152362097Y-111279847D01*
X152599151Y-111327000D01*
X152840849Y-111327000D01*
X153077903Y-111279847D01*
X153301202Y-111187353D01*
X153502167Y-111053073D01*
X153673073Y-110882167D01*
X153807353Y-110681202D01*
X153899847Y-110457903D01*
X153947000Y-110220849D01*
X153947000Y-109979151D01*
X154033000Y-109979151D01*
X154033000Y-110220849D01*
X154080153Y-110457903D01*
X154172647Y-110681202D01*
X154306927Y-110882167D01*
X154477833Y-111053073D01*
X154678798Y-111187353D01*
X154902097Y-111279847D01*
X155139151Y-111327000D01*
X155380849Y-111327000D01*
X155617903Y-111279847D01*
X155841202Y-111187353D01*
X156042167Y-111053073D01*
X156213073Y-110882167D01*
X156347353Y-110681202D01*
X156439847Y-110457903D01*
X156487000Y-110220849D01*
X156487000Y-109979151D01*
X156573000Y-109979151D01*
X156573000Y-110220849D01*
X156620153Y-110457903D01*
X156712647Y-110681202D01*
X156846927Y-110882167D01*
X157017833Y-111053073D01*
X157218798Y-111187353D01*
X157442097Y-111279847D01*
X157679151Y-111327000D01*
X157920849Y-111327000D01*
X158157903Y-111279847D01*
X158381202Y-111187353D01*
X158582167Y-111053073D01*
X158753073Y-110882167D01*
X158887353Y-110681202D01*
X158979847Y-110457903D01*
X159027000Y-110220849D01*
X159027000Y-109979151D01*
X158979847Y-109742097D01*
X158887353Y-109518798D01*
X158753073Y-109317833D01*
X158582167Y-109146927D01*
X158381202Y-109012647D01*
X158157903Y-108920153D01*
X157920849Y-108873000D01*
X157679151Y-108873000D01*
X157442097Y-108920153D01*
X157218798Y-109012647D01*
X157017833Y-109146927D01*
X156846927Y-109317833D01*
X156712647Y-109518798D01*
X156620153Y-109742097D01*
X156573000Y-109979151D01*
X156487000Y-109979151D01*
X156439847Y-109742097D01*
X156347353Y-109518798D01*
X156213073Y-109317833D01*
X156042167Y-109146927D01*
X155841202Y-109012647D01*
X155617903Y-108920153D01*
X155380849Y-108873000D01*
X155139151Y-108873000D01*
X154902097Y-108920153D01*
X154678798Y-109012647D01*
X154477833Y-109146927D01*
X154306927Y-109317833D01*
X154172647Y-109518798D01*
X154080153Y-109742097D01*
X154033000Y-109979151D01*
X153947000Y-109979151D01*
X153899847Y-109742097D01*
X153807353Y-109518798D01*
X153673073Y-109317833D01*
X153502167Y-109146927D01*
X153301202Y-109012647D01*
X153077903Y-108920153D01*
X152840849Y-108873000D01*
X152599151Y-108873000D01*
X152362097Y-108920153D01*
X152138798Y-109012647D01*
X151937833Y-109146927D01*
X151766927Y-109317833D01*
X151632647Y-109518798D01*
X151540153Y-109742097D01*
X151493000Y-109979151D01*
X151408824Y-109979151D01*
X151408824Y-109250000D01*
X151401545Y-109176095D01*
X151379988Y-109105030D01*
X151344981Y-109039537D01*
X151297869Y-108982131D01*
X151240463Y-108935019D01*
X151174970Y-108900012D01*
X151103905Y-108878455D01*
X151030000Y-108871176D01*
X149330000Y-108871176D01*
X149256095Y-108878455D01*
X149185030Y-108900012D01*
X149119537Y-108935019D01*
X149062131Y-108982131D01*
X149015019Y-109039537D01*
X148980012Y-109105030D01*
X148958455Y-109176095D01*
X148951176Y-109250000D01*
X147365240Y-109250000D01*
X147262167Y-109146927D01*
X147061202Y-109012647D01*
X146837903Y-108920153D01*
X146600849Y-108873000D01*
X146359151Y-108873000D01*
X146122097Y-108920153D01*
X145898798Y-109012647D01*
X145697833Y-109146927D01*
X145526927Y-109317833D01*
X145392647Y-109518798D01*
X145300153Y-109742097D01*
X145253000Y-109979151D01*
X145167000Y-109979151D01*
X145119847Y-109742097D01*
X145027353Y-109518798D01*
X144893073Y-109317833D01*
X144722167Y-109146927D01*
X144521202Y-109012647D01*
X144297903Y-108920153D01*
X144060849Y-108873000D01*
X143819151Y-108873000D01*
X143582097Y-108920153D01*
X143358798Y-109012647D01*
X143157833Y-109146927D01*
X142986927Y-109317833D01*
X142886888Y-109467553D01*
X142888072Y-109250000D01*
X142875812Y-109125518D01*
X142839502Y-109005820D01*
X142780537Y-108895506D01*
X142701185Y-108798815D01*
X142604494Y-108719463D01*
X142494180Y-108660498D01*
X142374482Y-108624188D01*
X142250000Y-108611928D01*
X141685750Y-108615000D01*
X141527000Y-108773750D01*
X141527000Y-109973000D01*
X141547000Y-109973000D01*
X141547000Y-110227000D01*
X141527000Y-110227000D01*
X141527000Y-110247000D01*
X141273000Y-110247000D01*
X141273000Y-110227000D01*
X140073750Y-110227000D01*
X139915000Y-110385750D01*
X139911928Y-110950000D01*
X139924188Y-111074482D01*
X139960498Y-111194180D01*
X140019463Y-111304494D01*
X140098815Y-111401185D01*
X140195506Y-111480537D01*
X140274947Y-111523000D01*
X131023333Y-111523000D01*
X130801739Y-111501273D01*
X130611037Y-111443696D01*
X130435145Y-111350172D01*
X130280773Y-111224269D01*
X130153792Y-111070776D01*
X130059043Y-110895541D01*
X130000135Y-110705242D01*
X129977000Y-110485122D01*
X129977000Y-109150000D01*
X130971176Y-109150000D01*
X130971176Y-110850000D01*
X130978455Y-110923905D01*
X131000012Y-110994970D01*
X131035019Y-111060463D01*
X131082131Y-111117869D01*
X131139537Y-111164981D01*
X131205030Y-111199988D01*
X131276095Y-111221545D01*
X131350000Y-111228824D01*
X133050000Y-111228824D01*
X133123905Y-111221545D01*
X133194970Y-111199988D01*
X133260463Y-111164981D01*
X133317869Y-111117869D01*
X133364981Y-111060463D01*
X133399988Y-110994970D01*
X133421545Y-110923905D01*
X133428824Y-110850000D01*
X133428824Y-109879151D01*
X133513000Y-109879151D01*
X133513000Y-110120849D01*
X133560153Y-110357903D01*
X133652647Y-110581202D01*
X133786927Y-110782167D01*
X133957833Y-110953073D01*
X134158798Y-111087353D01*
X134382097Y-111179847D01*
X134619151Y-111227000D01*
X134860849Y-111227000D01*
X135097903Y-111179847D01*
X135321202Y-111087353D01*
X135522167Y-110953073D01*
X135693073Y-110782167D01*
X135827353Y-110581202D01*
X135876231Y-110463202D01*
X135935843Y-110631252D01*
X136084822Y-110881355D01*
X136279731Y-111097588D01*
X136513080Y-111271641D01*
X136775901Y-111396825D01*
X136923110Y-111441476D01*
X137153000Y-111320155D01*
X137153000Y-110127000D01*
X137407000Y-110127000D01*
X137407000Y-111320155D01*
X137636890Y-111441476D01*
X137784099Y-111396825D01*
X138046920Y-111271641D01*
X138280269Y-111097588D01*
X138475178Y-110881355D01*
X138624157Y-110631252D01*
X138721481Y-110356891D01*
X138600814Y-110127000D01*
X137407000Y-110127000D01*
X137153000Y-110127000D01*
X137133000Y-110127000D01*
X137133000Y-109873000D01*
X137153000Y-109873000D01*
X137153000Y-108679845D01*
X137407000Y-108679845D01*
X137407000Y-109873000D01*
X138600814Y-109873000D01*
X138721481Y-109643109D01*
X138624157Y-109368748D01*
X138553423Y-109250000D01*
X139911928Y-109250000D01*
X139915000Y-109814250D01*
X140073750Y-109973000D01*
X141273000Y-109973000D01*
X141273000Y-108773750D01*
X141114250Y-108615000D01*
X140550000Y-108611928D01*
X140425518Y-108624188D01*
X140305820Y-108660498D01*
X140195506Y-108719463D01*
X140098815Y-108798815D01*
X140019463Y-108895506D01*
X139960498Y-109005820D01*
X139924188Y-109125518D01*
X139911928Y-109250000D01*
X138553423Y-109250000D01*
X138475178Y-109118645D01*
X138280269Y-108902412D01*
X138046920Y-108728359D01*
X137784099Y-108603175D01*
X137636890Y-108558524D01*
X137407000Y-108679845D01*
X137153000Y-108679845D01*
X136923110Y-108558524D01*
X136775901Y-108603175D01*
X136513080Y-108728359D01*
X136279731Y-108902412D01*
X136084822Y-109118645D01*
X135935843Y-109368748D01*
X135876231Y-109536798D01*
X135827353Y-109418798D01*
X135693073Y-109217833D01*
X135522167Y-109046927D01*
X135321202Y-108912647D01*
X135097903Y-108820153D01*
X134860849Y-108773000D01*
X134619151Y-108773000D01*
X134382097Y-108820153D01*
X134158798Y-108912647D01*
X133957833Y-109046927D01*
X133786927Y-109217833D01*
X133652647Y-109418798D01*
X133560153Y-109642097D01*
X133513000Y-109879151D01*
X133428824Y-109879151D01*
X133428824Y-109150000D01*
X133421545Y-109076095D01*
X133399988Y-109005030D01*
X133364981Y-108939537D01*
X133317869Y-108882131D01*
X133260463Y-108835019D01*
X133194970Y-108800012D01*
X133123905Y-108778455D01*
X133050000Y-108771176D01*
X131350000Y-108771176D01*
X131276095Y-108778455D01*
X131205030Y-108800012D01*
X131139537Y-108835019D01*
X131082131Y-108882131D01*
X131035019Y-108939537D01*
X131000012Y-109005030D01*
X130978455Y-109076095D01*
X130971176Y-109150000D01*
X129977000Y-109150000D01*
X129977000Y-107823472D01*
X147523000Y-107823472D01*
X147523000Y-107976528D01*
X147552859Y-108126643D01*
X147611431Y-108268048D01*
X147696464Y-108395309D01*
X147804691Y-108503536D01*
X147931952Y-108588569D01*
X148073357Y-108647141D01*
X148223472Y-108677000D01*
X148376528Y-108677000D01*
X148526643Y-108647141D01*
X148668048Y-108588569D01*
X148795309Y-108503536D01*
X148903536Y-108395309D01*
X148988569Y-108268048D01*
X149047141Y-108126643D01*
X149077000Y-107976528D01*
X149077000Y-107823472D01*
X149047141Y-107673357D01*
X148988569Y-107531952D01*
X148903536Y-107404691D01*
X148795309Y-107296464D01*
X148668048Y-107211431D01*
X148526643Y-107152859D01*
X148376528Y-107123000D01*
X148223472Y-107123000D01*
X148073357Y-107152859D01*
X147931952Y-107211431D01*
X147804691Y-107296464D01*
X147696464Y-107404691D01*
X147611431Y-107531952D01*
X147552859Y-107673357D01*
X147523000Y-107823472D01*
X129977000Y-107823472D01*
X129977000Y-106533323D01*
X149422998Y-106533323D01*
X149422998Y-106666681D01*
X149449014Y-106797476D01*
X149500048Y-106920682D01*
X149574138Y-107031565D01*
X149668435Y-107125862D01*
X149779318Y-107199952D01*
X149902524Y-107250986D01*
X150033319Y-107277002D01*
X150166677Y-107277002D01*
X150297472Y-107250986D01*
X150420678Y-107199952D01*
X150531561Y-107125862D01*
X150625858Y-107031565D01*
X150699948Y-106920682D01*
X150750982Y-106797476D01*
X150776998Y-106666681D01*
X150776998Y-106533323D01*
X150776998Y-106533321D01*
X153323000Y-106533321D01*
X153323000Y-106666679D01*
X153349016Y-106797474D01*
X153400050Y-106920680D01*
X153474140Y-107031563D01*
X153568437Y-107125860D01*
X153679320Y-107199950D01*
X153802526Y-107250984D01*
X153933321Y-107277000D01*
X154066679Y-107277000D01*
X154197474Y-107250984D01*
X154320680Y-107199950D01*
X154431563Y-107125860D01*
X154525860Y-107031563D01*
X154599950Y-106920680D01*
X154650984Y-106797474D01*
X154677000Y-106666679D01*
X154677000Y-106533321D01*
X154650984Y-106402526D01*
X154599950Y-106279320D01*
X154525860Y-106168437D01*
X154431563Y-106074140D01*
X154320680Y-106000050D01*
X154197474Y-105949016D01*
X154066679Y-105923000D01*
X153933321Y-105923000D01*
X153802526Y-105949016D01*
X153679320Y-106000050D01*
X153568437Y-106074140D01*
X153474140Y-106168437D01*
X153400050Y-106279320D01*
X153349016Y-106402526D01*
X153323000Y-106533321D01*
X150776998Y-106533321D01*
X150750982Y-106402528D01*
X150699948Y-106279322D01*
X150625858Y-106168439D01*
X150531561Y-106074142D01*
X150420678Y-106000052D01*
X150297472Y-105949018D01*
X150166677Y-105923002D01*
X150033319Y-105923002D01*
X149902524Y-105949018D01*
X149779318Y-106000052D01*
X149668435Y-106074142D01*
X149574138Y-106168439D01*
X149500048Y-106279322D01*
X149449014Y-106402528D01*
X149422998Y-106533323D01*
X129977000Y-106533323D01*
X129977000Y-104123472D01*
X138423000Y-104123472D01*
X138423000Y-104276528D01*
X138452859Y-104426643D01*
X138511431Y-104568048D01*
X138596464Y-104695309D01*
X138704691Y-104803536D01*
X138831952Y-104888569D01*
X138973357Y-104947141D01*
X139123472Y-104977000D01*
X139276528Y-104977000D01*
X139426643Y-104947141D01*
X139568048Y-104888569D01*
X139695309Y-104803536D01*
X139803536Y-104695309D01*
X139888569Y-104568048D01*
X139947141Y-104426643D01*
X139947771Y-104423472D01*
X157623000Y-104423472D01*
X157623000Y-104576528D01*
X157652859Y-104726643D01*
X157711431Y-104868048D01*
X157796464Y-104995309D01*
X157904691Y-105103536D01*
X158031952Y-105188569D01*
X158173357Y-105247141D01*
X158323472Y-105277000D01*
X158476528Y-105277000D01*
X158626643Y-105247141D01*
X158768048Y-105188569D01*
X158895309Y-105103536D01*
X159003536Y-104995309D01*
X159088569Y-104868048D01*
X159147141Y-104726643D01*
X159177000Y-104576528D01*
X159177000Y-104423472D01*
X159147141Y-104273357D01*
X159088569Y-104131952D01*
X159003536Y-104004691D01*
X158895309Y-103896464D01*
X158768048Y-103811431D01*
X158626643Y-103752859D01*
X158476528Y-103723000D01*
X158323472Y-103723000D01*
X158173357Y-103752859D01*
X158031952Y-103811431D01*
X157904691Y-103896464D01*
X157796464Y-104004691D01*
X157711431Y-104131952D01*
X157652859Y-104273357D01*
X157623000Y-104423472D01*
X139947771Y-104423472D01*
X139977000Y-104276528D01*
X139977000Y-104123472D01*
X139947141Y-103973357D01*
X139888569Y-103831952D01*
X139803536Y-103704691D01*
X139695309Y-103596464D01*
X139568048Y-103511431D01*
X139426643Y-103452859D01*
X139276528Y-103423000D01*
X139123472Y-103423000D01*
X138973357Y-103452859D01*
X138831952Y-103511431D01*
X138704691Y-103596464D01*
X138596464Y-103704691D01*
X138511431Y-103831952D01*
X138452859Y-103973357D01*
X138423000Y-104123472D01*
X129977000Y-104123472D01*
X129977000Y-101733321D01*
X139223000Y-101733321D01*
X139223000Y-101866679D01*
X139249016Y-101997474D01*
X139300050Y-102120680D01*
X139374140Y-102231563D01*
X139468437Y-102325860D01*
X139579320Y-102399950D01*
X139702526Y-102450984D01*
X139833321Y-102477000D01*
X139966679Y-102477000D01*
X140097474Y-102450984D01*
X140220680Y-102399950D01*
X140331563Y-102325860D01*
X140425860Y-102231563D01*
X140499950Y-102120680D01*
X140550984Y-101997474D01*
X140577000Y-101866679D01*
X140577000Y-101733321D01*
X140567055Y-101683321D01*
X142073000Y-101683321D01*
X142073000Y-101816679D01*
X142099016Y-101947474D01*
X142150050Y-102070680D01*
X142224140Y-102181563D01*
X142318437Y-102275860D01*
X142429320Y-102349950D01*
X142552526Y-102400984D01*
X142683321Y-102427000D01*
X142816679Y-102427000D01*
X142947474Y-102400984D01*
X143070680Y-102349950D01*
X143181563Y-102275860D01*
X143275860Y-102181563D01*
X143349950Y-102070680D01*
X143400984Y-101947474D01*
X143427000Y-101816679D01*
X143427000Y-101683321D01*
X146323000Y-101683321D01*
X146323000Y-101816679D01*
X146349016Y-101947474D01*
X146400050Y-102070680D01*
X146474140Y-102181563D01*
X146568437Y-102275860D01*
X146679320Y-102349950D01*
X146802526Y-102400984D01*
X146933321Y-102427000D01*
X147066679Y-102427000D01*
X147197474Y-102400984D01*
X147320680Y-102349950D01*
X147431563Y-102275860D01*
X147525860Y-102181563D01*
X147599950Y-102070680D01*
X147650984Y-101947474D01*
X147677000Y-101816679D01*
X147677000Y-101683321D01*
X147650984Y-101552526D01*
X147599950Y-101429320D01*
X147525860Y-101318437D01*
X147431563Y-101224140D01*
X147320680Y-101150050D01*
X147197474Y-101099016D01*
X147066679Y-101073000D01*
X146933321Y-101073000D01*
X146802526Y-101099016D01*
X146679320Y-101150050D01*
X146568437Y-101224140D01*
X146474140Y-101318437D01*
X146400050Y-101429320D01*
X146349016Y-101552526D01*
X146323000Y-101683321D01*
X143427000Y-101683321D01*
X143400984Y-101552526D01*
X143349950Y-101429320D01*
X143275860Y-101318437D01*
X143181563Y-101224140D01*
X143070680Y-101150050D01*
X142947474Y-101099016D01*
X142816679Y-101073000D01*
X142683321Y-101073000D01*
X142552526Y-101099016D01*
X142429320Y-101150050D01*
X142318437Y-101224140D01*
X142224140Y-101318437D01*
X142150050Y-101429320D01*
X142099016Y-101552526D01*
X142073000Y-101683321D01*
X140567055Y-101683321D01*
X140550984Y-101602526D01*
X140499950Y-101479320D01*
X140425860Y-101368437D01*
X140331563Y-101274140D01*
X140220680Y-101200050D01*
X140097474Y-101149016D01*
X139966679Y-101123000D01*
X139833321Y-101123000D01*
X139702526Y-101149016D01*
X139579320Y-101200050D01*
X139468437Y-101274140D01*
X139374140Y-101368437D01*
X139300050Y-101479320D01*
X139249016Y-101602526D01*
X139223000Y-101733321D01*
X129977000Y-101733321D01*
X129977000Y-99973478D01*
X148523000Y-99973478D01*
X148523000Y-100126534D01*
X148552859Y-100276649D01*
X148611431Y-100418054D01*
X148696464Y-100545315D01*
X148804691Y-100653542D01*
X148931952Y-100738575D01*
X149073357Y-100797147D01*
X149223472Y-100827006D01*
X149376528Y-100827006D01*
X149526643Y-100797147D01*
X149668048Y-100738575D01*
X149795309Y-100653542D01*
X149903536Y-100545315D01*
X149933306Y-100500760D01*
X159716007Y-100500760D01*
X159716007Y-100634118D01*
X159742023Y-100764913D01*
X159793057Y-100888119D01*
X159867147Y-100999002D01*
X159961444Y-101093299D01*
X160072327Y-101167389D01*
X160195533Y-101218423D01*
X160326328Y-101244439D01*
X160459686Y-101244439D01*
X160590481Y-101218423D01*
X160713687Y-101167389D01*
X160824570Y-101093299D01*
X160918867Y-100999002D01*
X160992957Y-100888119D01*
X161043991Y-100764913D01*
X161070007Y-100634118D01*
X161070007Y-100500760D01*
X161043991Y-100369965D01*
X160992957Y-100246759D01*
X160918867Y-100135876D01*
X160824570Y-100041579D01*
X160713687Y-99967489D01*
X160590481Y-99916455D01*
X160459686Y-99890439D01*
X160326328Y-99890439D01*
X160195533Y-99916455D01*
X160072327Y-99967489D01*
X159961444Y-100041579D01*
X159867147Y-100135876D01*
X159793057Y-100246759D01*
X159742023Y-100369965D01*
X159716007Y-100500760D01*
X149933306Y-100500760D01*
X149988569Y-100418054D01*
X150047141Y-100276649D01*
X150077000Y-100126534D01*
X150077000Y-99973478D01*
X150047141Y-99823363D01*
X149988569Y-99681958D01*
X149903536Y-99554697D01*
X149795309Y-99446470D01*
X149668048Y-99361437D01*
X149526643Y-99302865D01*
X149376528Y-99273006D01*
X149223472Y-99273006D01*
X149073357Y-99302865D01*
X148931952Y-99361437D01*
X148804691Y-99446470D01*
X148696464Y-99554697D01*
X148611431Y-99681958D01*
X148552859Y-99823363D01*
X148523000Y-99973478D01*
X129977000Y-99973478D01*
X129977000Y-99233321D01*
X150323000Y-99233321D01*
X150323000Y-99366679D01*
X150349016Y-99497474D01*
X150400050Y-99620680D01*
X150474140Y-99731563D01*
X150568437Y-99825860D01*
X150679320Y-99899950D01*
X150802526Y-99950984D01*
X150933321Y-99977000D01*
X151066679Y-99977000D01*
X151197474Y-99950984D01*
X151320680Y-99899950D01*
X151431563Y-99825860D01*
X151525860Y-99731563D01*
X151599950Y-99620680D01*
X151650984Y-99497474D01*
X151677000Y-99366679D01*
X151677000Y-99233321D01*
X151650984Y-99102526D01*
X151599950Y-98979320D01*
X151525860Y-98868437D01*
X151431563Y-98774140D01*
X151320680Y-98700050D01*
X151197474Y-98649016D01*
X151066679Y-98623000D01*
X150933321Y-98623000D01*
X150802526Y-98649016D01*
X150679320Y-98700050D01*
X150568437Y-98774140D01*
X150474140Y-98868437D01*
X150400050Y-98979320D01*
X150349016Y-99102526D01*
X150323000Y-99233321D01*
X129977000Y-99233321D01*
X129977000Y-98223472D01*
X134823000Y-98223472D01*
X134823000Y-98376528D01*
X134852859Y-98526643D01*
X134911431Y-98668048D01*
X134996464Y-98795309D01*
X135104691Y-98903536D01*
X135231952Y-98988569D01*
X135373357Y-99047141D01*
X135523472Y-99077000D01*
X135676528Y-99077000D01*
X135826643Y-99047141D01*
X135968048Y-98988569D01*
X136095309Y-98903536D01*
X136203536Y-98795309D01*
X136288569Y-98668048D01*
X136347141Y-98526643D01*
X136377000Y-98376528D01*
X136377000Y-98223472D01*
X136357110Y-98123472D01*
X151723000Y-98123472D01*
X151723000Y-98276528D01*
X151752859Y-98426643D01*
X151811431Y-98568048D01*
X151896464Y-98695309D01*
X152004691Y-98803536D01*
X152131952Y-98888569D01*
X152273357Y-98947141D01*
X152315898Y-98955603D01*
X152300050Y-98979320D01*
X152249016Y-99102526D01*
X152223000Y-99233321D01*
X152223000Y-99366679D01*
X152249016Y-99497474D01*
X152300050Y-99620680D01*
X152374140Y-99731563D01*
X152468437Y-99825860D01*
X152579320Y-99899950D01*
X152702526Y-99950984D01*
X152833321Y-99977000D01*
X152966679Y-99977000D01*
X153097474Y-99950984D01*
X153220680Y-99899950D01*
X153331563Y-99825860D01*
X153425860Y-99731563D01*
X153499950Y-99620680D01*
X153550984Y-99497474D01*
X153563744Y-99433319D01*
X156123000Y-99433319D01*
X156123000Y-99566677D01*
X156149016Y-99697472D01*
X156200050Y-99820678D01*
X156274140Y-99931561D01*
X156368437Y-100025858D01*
X156479320Y-100099948D01*
X156602526Y-100150982D01*
X156733321Y-100176998D01*
X156866679Y-100176998D01*
X156997474Y-100150982D01*
X157120680Y-100099948D01*
X157231563Y-100025858D01*
X157325860Y-99931561D01*
X157399950Y-99820678D01*
X157450984Y-99697472D01*
X157477000Y-99566677D01*
X157477000Y-99433319D01*
X157450984Y-99302524D01*
X157399950Y-99179318D01*
X157325860Y-99068435D01*
X157231563Y-98974138D01*
X157120680Y-98900048D01*
X156997474Y-98849014D01*
X156869063Y-98823472D01*
X158123000Y-98823472D01*
X158123000Y-98976528D01*
X158152859Y-99126643D01*
X158211431Y-99268048D01*
X158296464Y-99395309D01*
X158404691Y-99503536D01*
X158531952Y-99588569D01*
X158673357Y-99647141D01*
X158823472Y-99677000D01*
X158976528Y-99677000D01*
X159126643Y-99647141D01*
X159268048Y-99588569D01*
X159395309Y-99503536D01*
X159503536Y-99395309D01*
X159588569Y-99268048D01*
X159647141Y-99126643D01*
X159677000Y-98976528D01*
X159677000Y-98823472D01*
X159647141Y-98673357D01*
X159588569Y-98531952D01*
X159503536Y-98404691D01*
X159395309Y-98296464D01*
X159268048Y-98211431D01*
X159126643Y-98152859D01*
X158976528Y-98123000D01*
X158823472Y-98123000D01*
X158673357Y-98152859D01*
X158531952Y-98211431D01*
X158404691Y-98296464D01*
X158296464Y-98404691D01*
X158211431Y-98531952D01*
X158152859Y-98673357D01*
X158123000Y-98823472D01*
X156869063Y-98823472D01*
X156866679Y-98822998D01*
X156733321Y-98822998D01*
X156602526Y-98849014D01*
X156479320Y-98900048D01*
X156368437Y-98974138D01*
X156274140Y-99068435D01*
X156200050Y-99179318D01*
X156149016Y-99302524D01*
X156123000Y-99433319D01*
X153563744Y-99433319D01*
X153577000Y-99366679D01*
X153577000Y-99233321D01*
X153550984Y-99102526D01*
X153499950Y-98979320D01*
X153425860Y-98868437D01*
X153331563Y-98774140D01*
X153220680Y-98700050D01*
X153126449Y-98661018D01*
X153188569Y-98568048D01*
X153247141Y-98426643D01*
X153277000Y-98276528D01*
X153277000Y-98123472D01*
X153247141Y-97973357D01*
X153188569Y-97831952D01*
X153103536Y-97704691D01*
X152995309Y-97596464D01*
X152868048Y-97511431D01*
X152726643Y-97452859D01*
X152576528Y-97423000D01*
X152423472Y-97423000D01*
X152273357Y-97452859D01*
X152131952Y-97511431D01*
X152004691Y-97596464D01*
X151896464Y-97704691D01*
X151811431Y-97831952D01*
X151752859Y-97973357D01*
X151723000Y-98123472D01*
X136357110Y-98123472D01*
X136347141Y-98073357D01*
X136288569Y-97931952D01*
X136203536Y-97804691D01*
X136095309Y-97696464D01*
X135968048Y-97611431D01*
X135826643Y-97552859D01*
X135676528Y-97523000D01*
X135523472Y-97523000D01*
X135373357Y-97552859D01*
X135231952Y-97611431D01*
X135104691Y-97696464D01*
X134996464Y-97804691D01*
X134911431Y-97931952D01*
X134852859Y-98073357D01*
X134823000Y-98223472D01*
X129977000Y-98223472D01*
X129977000Y-97233321D01*
X156023000Y-97233321D01*
X156023000Y-97366679D01*
X156049016Y-97497474D01*
X156100050Y-97620680D01*
X156174140Y-97731563D01*
X156268437Y-97825860D01*
X156379320Y-97899950D01*
X156502526Y-97950984D01*
X156633321Y-97977000D01*
X156766679Y-97977000D01*
X156897474Y-97950984D01*
X157020680Y-97899950D01*
X157131563Y-97825860D01*
X157225860Y-97731563D01*
X157299950Y-97620680D01*
X157319206Y-97574192D01*
X157333321Y-97577000D01*
X157466679Y-97577000D01*
X157597474Y-97550984D01*
X157720680Y-97499950D01*
X157831563Y-97425860D01*
X157925860Y-97331563D01*
X157999950Y-97220680D01*
X158035210Y-97135555D01*
X159347994Y-97135555D01*
X159347994Y-97268913D01*
X159374010Y-97399708D01*
X159425044Y-97522914D01*
X159499134Y-97633797D01*
X159517917Y-97652580D01*
X159500050Y-97679320D01*
X159449016Y-97802526D01*
X159423000Y-97933321D01*
X159423000Y-98066679D01*
X159449016Y-98197474D01*
X159500050Y-98320680D01*
X159574140Y-98431563D01*
X159668437Y-98525860D01*
X159779320Y-98599950D01*
X159902526Y-98650984D01*
X160033321Y-98677000D01*
X160166679Y-98677000D01*
X160297474Y-98650984D01*
X160420680Y-98599950D01*
X160531563Y-98525860D01*
X160625860Y-98431563D01*
X160699950Y-98320680D01*
X160750984Y-98197474D01*
X160777000Y-98066679D01*
X160777000Y-97933321D01*
X160750984Y-97802526D01*
X160699950Y-97679320D01*
X160625860Y-97568437D01*
X160607077Y-97549654D01*
X160624944Y-97522914D01*
X160675978Y-97399708D01*
X160701994Y-97268913D01*
X160701994Y-97135555D01*
X160675978Y-97004760D01*
X160624944Y-96881554D01*
X160550854Y-96770671D01*
X160456557Y-96676374D01*
X160345674Y-96602284D01*
X160222468Y-96551250D01*
X160091673Y-96525234D01*
X159958315Y-96525234D01*
X159827520Y-96551250D01*
X159704314Y-96602284D01*
X159593431Y-96676374D01*
X159499134Y-96770671D01*
X159425044Y-96881554D01*
X159374010Y-97004760D01*
X159347994Y-97135555D01*
X158035210Y-97135555D01*
X158050984Y-97097474D01*
X158077000Y-96966679D01*
X158077000Y-96833321D01*
X158050984Y-96702526D01*
X157999950Y-96579320D01*
X157925860Y-96468437D01*
X157831563Y-96374140D01*
X157720680Y-96300050D01*
X157597474Y-96249016D01*
X157466679Y-96223000D01*
X157333321Y-96223000D01*
X157202526Y-96249016D01*
X157079320Y-96300050D01*
X156968437Y-96374140D01*
X156874140Y-96468437D01*
X156800050Y-96579320D01*
X156780794Y-96625808D01*
X156766679Y-96623000D01*
X156633321Y-96623000D01*
X156502526Y-96649016D01*
X156379320Y-96700050D01*
X156268437Y-96774140D01*
X156174140Y-96868437D01*
X156100050Y-96979320D01*
X156049016Y-97102526D01*
X156023000Y-97233321D01*
X129977000Y-97233321D01*
X129977000Y-95733321D01*
X148623000Y-95733321D01*
X148623000Y-95866679D01*
X148649016Y-95997474D01*
X148700050Y-96120680D01*
X148774140Y-96231563D01*
X148868437Y-96325860D01*
X148979320Y-96399950D01*
X149102526Y-96450984D01*
X149233321Y-96477000D01*
X149366679Y-96477000D01*
X149497474Y-96450984D01*
X149620680Y-96399950D01*
X149731563Y-96325860D01*
X149824102Y-96233321D01*
X155023002Y-96233321D01*
X155023002Y-96366679D01*
X155049018Y-96497474D01*
X155100052Y-96620680D01*
X155174142Y-96731563D01*
X155268439Y-96825860D01*
X155379322Y-96899950D01*
X155502528Y-96950984D01*
X155633323Y-96977000D01*
X155766681Y-96977000D01*
X155897476Y-96950984D01*
X156020682Y-96899950D01*
X156131565Y-96825860D01*
X156225862Y-96731563D01*
X156299952Y-96620680D01*
X156350986Y-96497474D01*
X156374949Y-96377000D01*
X156466679Y-96377000D01*
X156597474Y-96350984D01*
X156720680Y-96299950D01*
X156831563Y-96225860D01*
X156925860Y-96131563D01*
X156999950Y-96020680D01*
X157050984Y-95897474D01*
X157077000Y-95766679D01*
X157077000Y-95633321D01*
X157050984Y-95502526D01*
X157021072Y-95430311D01*
X159522143Y-95430311D01*
X159522143Y-95563669D01*
X159548159Y-95694464D01*
X159599193Y-95817670D01*
X159673283Y-95928553D01*
X159767580Y-96022850D01*
X159878463Y-96096940D01*
X160001669Y-96147974D01*
X160132464Y-96173990D01*
X160265822Y-96173990D01*
X160396617Y-96147974D01*
X160519823Y-96096940D01*
X160630706Y-96022850D01*
X160725003Y-95928553D01*
X160799093Y-95817670D01*
X160850127Y-95694464D01*
X160876143Y-95563669D01*
X160876143Y-95430311D01*
X160850127Y-95299516D01*
X160799093Y-95176310D01*
X160725003Y-95065427D01*
X160630706Y-94971130D01*
X160519823Y-94897040D01*
X160396617Y-94846006D01*
X160265822Y-94819990D01*
X160132464Y-94819990D01*
X160001669Y-94846006D01*
X159878463Y-94897040D01*
X159767580Y-94971130D01*
X159673283Y-95065427D01*
X159599193Y-95176310D01*
X159548159Y-95299516D01*
X159522143Y-95430311D01*
X157021072Y-95430311D01*
X156999950Y-95379320D01*
X156925860Y-95268437D01*
X156831563Y-95174140D01*
X156720680Y-95100050D01*
X156597474Y-95049016D01*
X156466679Y-95023000D01*
X156333321Y-95023000D01*
X156202526Y-95049016D01*
X156079320Y-95100050D01*
X155968437Y-95174140D01*
X155874140Y-95268437D01*
X155800050Y-95379320D01*
X155749016Y-95502526D01*
X155725053Y-95623000D01*
X155633323Y-95623000D01*
X155502528Y-95649016D01*
X155379322Y-95700050D01*
X155268439Y-95774140D01*
X155174142Y-95868437D01*
X155100052Y-95979320D01*
X155049018Y-96102526D01*
X155023002Y-96233321D01*
X149824102Y-96233321D01*
X149825860Y-96231563D01*
X149899950Y-96120680D01*
X149950984Y-95997474D01*
X149977000Y-95866679D01*
X149977000Y-95733321D01*
X149950984Y-95602526D01*
X149899950Y-95479320D01*
X149825860Y-95368437D01*
X149731563Y-95274140D01*
X149620680Y-95200050D01*
X149497474Y-95149016D01*
X149366679Y-95123000D01*
X149233321Y-95123000D01*
X149102526Y-95149016D01*
X148979320Y-95200050D01*
X148868437Y-95274140D01*
X148774140Y-95368437D01*
X148700050Y-95479320D01*
X148649016Y-95602526D01*
X148623000Y-95733321D01*
X129977000Y-95733321D01*
X129977000Y-93423472D01*
X155123000Y-93423472D01*
X155123000Y-93576528D01*
X155152859Y-93726643D01*
X155211431Y-93868048D01*
X155296464Y-93995309D01*
X155404691Y-94103536D01*
X155531952Y-94188569D01*
X155673357Y-94247141D01*
X155823472Y-94277000D01*
X155976528Y-94277000D01*
X156126643Y-94247141D01*
X156268048Y-94188569D01*
X156395309Y-94103536D01*
X156503536Y-93995309D01*
X156588569Y-93868048D01*
X156644374Y-93733321D01*
X162973000Y-93733321D01*
X162973000Y-93866679D01*
X162999016Y-93997474D01*
X163050050Y-94120680D01*
X163124140Y-94231563D01*
X163218437Y-94325860D01*
X163329320Y-94399950D01*
X163452526Y-94450984D01*
X163583321Y-94477000D01*
X163716679Y-94477000D01*
X163847474Y-94450984D01*
X163970680Y-94399950D01*
X164081563Y-94325860D01*
X164175860Y-94231563D01*
X164249950Y-94120680D01*
X164300984Y-93997474D01*
X164327000Y-93866679D01*
X164327000Y-93786821D01*
X164349008Y-93897466D01*
X164400042Y-94020672D01*
X164474132Y-94131555D01*
X164568429Y-94225852D01*
X164679312Y-94299942D01*
X164802518Y-94350976D01*
X164933313Y-94376992D01*
X165066671Y-94376992D01*
X165197466Y-94350976D01*
X165320672Y-94299942D01*
X165431555Y-94225852D01*
X165525852Y-94131555D01*
X165599942Y-94020672D01*
X165650976Y-93897466D01*
X165676992Y-93766671D01*
X165676992Y-93633313D01*
X165650976Y-93502518D01*
X165599942Y-93379312D01*
X165525852Y-93268429D01*
X165431555Y-93174132D01*
X165320672Y-93100042D01*
X165197466Y-93049008D01*
X165066671Y-93022992D01*
X164933313Y-93022992D01*
X164802518Y-93049008D01*
X164679312Y-93100042D01*
X164568429Y-93174132D01*
X164474132Y-93268429D01*
X164400042Y-93379312D01*
X164349008Y-93502518D01*
X164322992Y-93633313D01*
X164322992Y-93713171D01*
X164300984Y-93602526D01*
X164249950Y-93479320D01*
X164175860Y-93368437D01*
X164081563Y-93274140D01*
X163970680Y-93200050D01*
X163847474Y-93149016D01*
X163716679Y-93123000D01*
X163583321Y-93123000D01*
X163452526Y-93149016D01*
X163329320Y-93200050D01*
X163218437Y-93274140D01*
X163124140Y-93368437D01*
X163050050Y-93479320D01*
X162999016Y-93602526D01*
X162973000Y-93733321D01*
X156644374Y-93733321D01*
X156647141Y-93726643D01*
X156677000Y-93576528D01*
X156677000Y-93423472D01*
X156647141Y-93273357D01*
X156588569Y-93131952D01*
X156503536Y-93004691D01*
X156474324Y-92975479D01*
X156597474Y-92950984D01*
X156720680Y-92899950D01*
X156831563Y-92825860D01*
X156925860Y-92731563D01*
X156999950Y-92620680D01*
X157050984Y-92497474D01*
X157077000Y-92366679D01*
X157077000Y-92233321D01*
X157423000Y-92233321D01*
X157423000Y-92366679D01*
X157449016Y-92497474D01*
X157500050Y-92620680D01*
X157574140Y-92731563D01*
X157668437Y-92825860D01*
X157779320Y-92899950D01*
X157902526Y-92950984D01*
X158033321Y-92977000D01*
X158166679Y-92977000D01*
X158297474Y-92950984D01*
X158420680Y-92899950D01*
X158531563Y-92825860D01*
X158625860Y-92731563D01*
X158699950Y-92620680D01*
X158750984Y-92497474D01*
X158777000Y-92366679D01*
X158777000Y-92233321D01*
X158750984Y-92102526D01*
X158699950Y-91979320D01*
X158625860Y-91868437D01*
X158531563Y-91774140D01*
X158420680Y-91700050D01*
X158297474Y-91649016D01*
X158166679Y-91623000D01*
X158033321Y-91623000D01*
X157902526Y-91649016D01*
X157779320Y-91700050D01*
X157668437Y-91774140D01*
X157574140Y-91868437D01*
X157500050Y-91979320D01*
X157449016Y-92102526D01*
X157423000Y-92233321D01*
X157077000Y-92233321D01*
X157050984Y-92102526D01*
X156999950Y-91979320D01*
X156925860Y-91868437D01*
X156831563Y-91774140D01*
X156720680Y-91700050D01*
X156597474Y-91649016D01*
X156466679Y-91623000D01*
X156333321Y-91623000D01*
X156202526Y-91649016D01*
X156079320Y-91700050D01*
X155968437Y-91774140D01*
X155874140Y-91868437D01*
X155800050Y-91979320D01*
X155749016Y-92102526D01*
X155723000Y-92233321D01*
X155723000Y-92366679D01*
X155749016Y-92497474D01*
X155800050Y-92620680D01*
X155868418Y-92723000D01*
X155823472Y-92723000D01*
X155673357Y-92752859D01*
X155531952Y-92811431D01*
X155404691Y-92896464D01*
X155296464Y-93004691D01*
X155211431Y-93131952D01*
X155152859Y-93273357D01*
X155123000Y-93423472D01*
X129977000Y-93423472D01*
X129977000Y-91173472D01*
X135473000Y-91173472D01*
X135473000Y-91326528D01*
X135502859Y-91476643D01*
X135561431Y-91618048D01*
X135646464Y-91745309D01*
X135651155Y-91750000D01*
X135646464Y-91754691D01*
X135561431Y-91881952D01*
X135502859Y-92023357D01*
X135473000Y-92173472D01*
X135473000Y-92326528D01*
X135502859Y-92476643D01*
X135561431Y-92618048D01*
X135646464Y-92745309D01*
X135754691Y-92853536D01*
X135881952Y-92938569D01*
X136023357Y-92997141D01*
X136173472Y-93027000D01*
X136326528Y-93027000D01*
X136476643Y-92997141D01*
X136618048Y-92938569D01*
X136745309Y-92853536D01*
X136750000Y-92848845D01*
X136754691Y-92853536D01*
X136881952Y-92938569D01*
X137023357Y-92997141D01*
X137173472Y-93027000D01*
X137326528Y-93027000D01*
X137476643Y-92997141D01*
X137618048Y-92938569D01*
X137745309Y-92853536D01*
X137853536Y-92745309D01*
X137938569Y-92618048D01*
X137997141Y-92476643D01*
X138027000Y-92326528D01*
X138027000Y-92173472D01*
X137997141Y-92023357D01*
X137938569Y-91881952D01*
X137853536Y-91754691D01*
X137848845Y-91750000D01*
X137853536Y-91745309D01*
X137938569Y-91618048D01*
X137997141Y-91476643D01*
X138027000Y-91326528D01*
X138027000Y-91323472D01*
X139923000Y-91323472D01*
X139923000Y-91476528D01*
X139952859Y-91626643D01*
X140011431Y-91768048D01*
X140066190Y-91850000D01*
X140011431Y-91931952D01*
X139952859Y-92073357D01*
X139923000Y-92223472D01*
X139923000Y-92376528D01*
X139952859Y-92526643D01*
X140011431Y-92668048D01*
X140096464Y-92795309D01*
X140204691Y-92903536D01*
X140331952Y-92988569D01*
X140473357Y-93047141D01*
X140623472Y-93077000D01*
X140776528Y-93077000D01*
X140926643Y-93047141D01*
X141068048Y-92988569D01*
X141150000Y-92933810D01*
X141231952Y-92988569D01*
X141373357Y-93047141D01*
X141523472Y-93077000D01*
X141676528Y-93077000D01*
X141826643Y-93047141D01*
X141968048Y-92988569D01*
X142095309Y-92903536D01*
X142203536Y-92795309D01*
X142288569Y-92668048D01*
X142347141Y-92526643D01*
X142377000Y-92376528D01*
X142377000Y-92223472D01*
X142347141Y-92073357D01*
X142288569Y-91931952D01*
X142233810Y-91850000D01*
X142288569Y-91768048D01*
X142347141Y-91626643D01*
X142377000Y-91476528D01*
X142377000Y-91323472D01*
X142347141Y-91173357D01*
X142288569Y-91031952D01*
X142203536Y-90904691D01*
X142095309Y-90796464D01*
X141968048Y-90711431D01*
X141826643Y-90652859D01*
X141676528Y-90623000D01*
X141523472Y-90623000D01*
X141373357Y-90652859D01*
X141231952Y-90711431D01*
X141150000Y-90766190D01*
X141068048Y-90711431D01*
X140926643Y-90652859D01*
X140776528Y-90623000D01*
X140623472Y-90623000D01*
X140473357Y-90652859D01*
X140331952Y-90711431D01*
X140204691Y-90796464D01*
X140096464Y-90904691D01*
X140011431Y-91031952D01*
X139952859Y-91173357D01*
X139923000Y-91323472D01*
X138027000Y-91323472D01*
X138027000Y-91173472D01*
X137997141Y-91023357D01*
X137938569Y-90881952D01*
X137853536Y-90754691D01*
X137745309Y-90646464D01*
X137618048Y-90561431D01*
X137476643Y-90502859D01*
X137326528Y-90473000D01*
X137173472Y-90473000D01*
X137023357Y-90502859D01*
X136881952Y-90561431D01*
X136754691Y-90646464D01*
X136750000Y-90651155D01*
X136745309Y-90646464D01*
X136618048Y-90561431D01*
X136476643Y-90502859D01*
X136326528Y-90473000D01*
X136173472Y-90473000D01*
X136023357Y-90502859D01*
X135881952Y-90561431D01*
X135754691Y-90646464D01*
X135646464Y-90754691D01*
X135561431Y-90881952D01*
X135502859Y-91023357D01*
X135473000Y-91173472D01*
X129977000Y-91173472D01*
X129977000Y-89523334D01*
X129998727Y-89301739D01*
X130056303Y-89111039D01*
X130149828Y-88935145D01*
X130275731Y-88780773D01*
X130429224Y-88653792D01*
X130604459Y-88559043D01*
X130794758Y-88500135D01*
X131014878Y-88477000D01*
X153115076Y-88477000D01*
X153031952Y-88511431D01*
%TA.AperFunction,Conductor*%
D15*
G36*
X153031952Y-88511431D02*
G01*
X152904691Y-88596464D01*
X152796464Y-88704691D01*
X152711431Y-88831952D01*
X152652859Y-88973357D01*
X152623000Y-89123472D01*
X152623000Y-89276528D01*
X152652859Y-89426643D01*
X152711431Y-89568048D01*
X152796464Y-89695309D01*
X152904691Y-89803536D01*
X153031952Y-89888569D01*
X153173357Y-89947141D01*
X153323472Y-89977000D01*
X153476528Y-89977000D01*
X153626643Y-89947141D01*
X153768048Y-89888569D01*
X153895309Y-89803536D01*
X154003536Y-89695309D01*
X154054873Y-89618477D01*
X159070503Y-89618477D01*
X159070503Y-89771533D01*
X159100362Y-89921648D01*
X159158934Y-90063053D01*
X159243967Y-90190314D01*
X159352194Y-90298541D01*
X159479455Y-90383574D01*
X159575016Y-90423157D01*
X159572995Y-90433316D01*
X159572995Y-90566674D01*
X159599011Y-90697469D01*
X159650045Y-90820675D01*
X159724135Y-90931558D01*
X159818432Y-91025855D01*
X159929315Y-91099945D01*
X160052521Y-91150979D01*
X160183316Y-91176995D01*
X160316674Y-91176995D01*
X160447469Y-91150979D01*
X160570675Y-91099945D01*
X160681558Y-91025855D01*
X160775855Y-90931558D01*
X160849945Y-90820675D01*
X160900979Y-90697469D01*
X160926995Y-90566674D01*
X160926995Y-90433316D01*
X160900979Y-90302521D01*
X160849945Y-90179315D01*
X160775855Y-90068432D01*
X160681558Y-89974135D01*
X160595625Y-89916716D01*
X160624503Y-89771533D01*
X160624503Y-89618477D01*
X160594644Y-89468362D01*
X160536072Y-89326957D01*
X160451039Y-89199696D01*
X160342812Y-89091469D01*
X160215551Y-89006436D01*
X160074146Y-88947864D01*
X159924031Y-88918005D01*
X159770975Y-88918005D01*
X159620860Y-88947864D01*
X159479455Y-89006436D01*
X159352194Y-89091469D01*
X159243967Y-89199696D01*
X159158934Y-89326957D01*
X159100362Y-89468362D01*
X159070503Y-89618477D01*
X154054873Y-89618477D01*
X154088569Y-89568048D01*
X154147141Y-89426643D01*
X154177000Y-89276528D01*
X154177000Y-89123472D01*
X154147141Y-88973357D01*
X154088569Y-88831952D01*
X154003536Y-88704691D01*
X153895309Y-88596464D01*
X153768048Y-88511431D01*
X153684924Y-88477000D01*
X168976666Y-88477000D01*
X169198261Y-88498727D01*
X169388961Y-88556303D01*
X169564855Y-88649828D01*
X169719227Y-88775731D01*
X169846208Y-88929224D01*
X169940957Y-89104459D01*
X169999865Y-89294758D01*
X170023001Y-89514888D01*
X170023000Y-95948149D01*
X169968048Y-95911431D01*
X169826643Y-95852859D01*
X169676528Y-95823000D01*
X169523472Y-95823000D01*
X169373357Y-95852859D01*
X169231952Y-95911431D01*
X169104691Y-95996464D01*
X168996464Y-96104691D01*
X168911431Y-96231952D01*
X168852859Y-96373357D01*
X168823000Y-96523472D01*
X168823000Y-96676528D01*
X168852859Y-96826643D01*
X168911431Y-96968048D01*
X168996464Y-97095309D01*
X169051155Y-97150000D01*
X168996464Y-97204691D01*
X168911431Y-97331952D01*
X168852859Y-97473357D01*
X168823000Y-97623472D01*
X168823000Y-97776528D01*
X168852859Y-97926643D01*
X168911431Y-98068048D01*
X168996464Y-98195309D01*
X169104691Y-98303536D01*
X169231952Y-98388569D01*
X169373357Y-98447141D01*
X169523472Y-98477000D01*
X169673000Y-98477000D01*
X169673000Y-98561754D01*
X169697095Y-98682889D01*
X169744360Y-98796996D01*
X169812977Y-98899689D01*
X169900311Y-98987023D01*
X170003004Y-99055640D01*
X170117111Y-99102905D01*
X170123000Y-99104076D01*
X170123000Y-99445924D01*
X170117111Y-99447095D01*
X170003004Y-99494360D01*
X169900311Y-99562977D01*
X169812977Y-99650311D01*
X169744360Y-99753004D01*
X169697095Y-99867111D01*
X169673000Y-99988246D01*
X169673000Y-100111754D01*
X169697095Y-100232889D01*
X169744360Y-100346996D01*
X169812977Y-100449689D01*
X169900311Y-100537023D01*
X170003004Y-100605640D01*
X170117111Y-100652905D01*
X170123000Y-100654076D01*
X170123000Y-100895924D01*
X170117111Y-100897095D01*
X170003004Y-100944360D01*
X169900311Y-101012977D01*
X169812977Y-101100311D01*
X169744360Y-101203004D01*
X169697095Y-101317111D01*
X169673000Y-101438246D01*
X169673000Y-101561754D01*
X169697095Y-101682889D01*
X169744360Y-101796996D01*
X169812977Y-101899689D01*
X169900311Y-101987023D01*
X170003004Y-102055640D01*
X170062609Y-102080329D01*
X170060499Y-102087319D01*
X170052098Y-102129746D01*
X170043112Y-102172019D01*
X170042416Y-102178643D01*
X170025276Y-102353454D01*
X170025276Y-102353470D01*
X170023000Y-102376578D01*
X170023000Y-103333755D01*
X170003580Y-103304691D01*
X169895353Y-103196464D01*
X169768092Y-103111431D01*
X169626687Y-103052859D01*
X169476572Y-103023000D01*
X169323516Y-103023000D01*
X169173401Y-103052859D01*
X169031996Y-103111431D01*
X168904735Y-103196464D01*
X168796508Y-103304691D01*
X168711475Y-103431952D01*
X168652903Y-103573357D01*
X168623044Y-103723472D01*
X168623044Y-103876528D01*
X168652903Y-104026643D01*
X168711475Y-104168048D01*
X168796508Y-104295309D01*
X168904735Y-104403536D01*
X169031996Y-104488569D01*
X169173401Y-104547141D01*
X169323516Y-104577000D01*
X169476572Y-104577000D01*
X169626687Y-104547141D01*
X169768092Y-104488569D01*
X169895353Y-104403536D01*
X170003580Y-104295309D01*
X170023000Y-104266245D01*
X170023001Y-110476656D01*
X170001273Y-110698261D01*
X169943696Y-110888963D01*
X169850172Y-111064855D01*
X169724269Y-111219227D01*
X169570776Y-111346208D01*
X169395541Y-111440957D01*
X169205242Y-111499865D01*
X168985122Y-111523000D01*
X142525053Y-111523000D01*
X142604494Y-111480537D01*
X142701185Y-111401185D01*
X142780537Y-111304494D01*
X142839502Y-111194180D01*
X142875812Y-111074482D01*
X142888072Y-110950000D01*
X142886888Y-110732447D01*
X142986927Y-110882167D01*
X143157833Y-111053073D01*
X143358798Y-111187353D01*
X143582097Y-111279847D01*
X143819151Y-111327000D01*
X144060849Y-111327000D01*
X144297903Y-111279847D01*
X144521202Y-111187353D01*
X144722167Y-111053073D01*
X144893073Y-110882167D01*
X145027353Y-110681202D01*
X145119847Y-110457903D01*
X145167000Y-110220849D01*
X145167000Y-109979151D01*
X145253000Y-109979151D01*
X145253000Y-110220849D01*
X145300153Y-110457903D01*
X145392647Y-110681202D01*
X145526927Y-110882167D01*
X145697833Y-111053073D01*
X145898798Y-111187353D01*
X146122097Y-111279847D01*
X146359151Y-111327000D01*
X146600849Y-111327000D01*
X146837903Y-111279847D01*
X147061202Y-111187353D01*
X147262167Y-111053073D01*
X147433073Y-110882167D01*
X147567353Y-110681202D01*
X147659847Y-110457903D01*
X147707000Y-110220849D01*
X147707000Y-109979151D01*
X147659847Y-109742097D01*
X147567353Y-109518798D01*
X147433073Y-109317833D01*
X147365240Y-109250000D01*
X148951176Y-109250000D01*
X148951176Y-110950000D01*
X148958455Y-111023905D01*
X148980012Y-111094970D01*
X149015019Y-111160463D01*
X149062131Y-111217869D01*
X149119537Y-111264981D01*
X149185030Y-111299988D01*
X149256095Y-111321545D01*
X149330000Y-111328824D01*
X151030000Y-111328824D01*
X151103905Y-111321545D01*
X151174970Y-111299988D01*
X151240463Y-111264981D01*
X151297869Y-111217869D01*
X151344981Y-111160463D01*
X151379988Y-111094970D01*
X151401545Y-111023905D01*
X151408824Y-110950000D01*
X151408824Y-109979151D01*
X151493000Y-109979151D01*
X151493000Y-110220849D01*
X151540153Y-110457903D01*
X151632647Y-110681202D01*
X151766927Y-110882167D01*
X151937833Y-111053073D01*
X152138798Y-111187353D01*
X152362097Y-111279847D01*
X152599151Y-111327000D01*
X152840849Y-111327000D01*
X153077903Y-111279847D01*
X153301202Y-111187353D01*
X153502167Y-111053073D01*
X153673073Y-110882167D01*
X153807353Y-110681202D01*
X153899847Y-110457903D01*
X153947000Y-110220849D01*
X153947000Y-109979151D01*
X154033000Y-109979151D01*
X154033000Y-110220849D01*
X154080153Y-110457903D01*
X154172647Y-110681202D01*
X154306927Y-110882167D01*
X154477833Y-111053073D01*
X154678798Y-111187353D01*
X154902097Y-111279847D01*
X155139151Y-111327000D01*
X155380849Y-111327000D01*
X155617903Y-111279847D01*
X155841202Y-111187353D01*
X156042167Y-111053073D01*
X156213073Y-110882167D01*
X156347353Y-110681202D01*
X156439847Y-110457903D01*
X156487000Y-110220849D01*
X156487000Y-109979151D01*
X156573000Y-109979151D01*
X156573000Y-110220849D01*
X156620153Y-110457903D01*
X156712647Y-110681202D01*
X156846927Y-110882167D01*
X157017833Y-111053073D01*
X157218798Y-111187353D01*
X157442097Y-111279847D01*
X157679151Y-111327000D01*
X157920849Y-111327000D01*
X158157903Y-111279847D01*
X158381202Y-111187353D01*
X158582167Y-111053073D01*
X158753073Y-110882167D01*
X158887353Y-110681202D01*
X158979847Y-110457903D01*
X159027000Y-110220849D01*
X159027000Y-109979151D01*
X158979847Y-109742097D01*
X158887353Y-109518798D01*
X158753073Y-109317833D01*
X158582167Y-109146927D01*
X158381202Y-109012647D01*
X158157903Y-108920153D01*
X157920849Y-108873000D01*
X157679151Y-108873000D01*
X157442097Y-108920153D01*
X157218798Y-109012647D01*
X157017833Y-109146927D01*
X156846927Y-109317833D01*
X156712647Y-109518798D01*
X156620153Y-109742097D01*
X156573000Y-109979151D01*
X156487000Y-109979151D01*
X156439847Y-109742097D01*
X156347353Y-109518798D01*
X156213073Y-109317833D01*
X156042167Y-109146927D01*
X155841202Y-109012647D01*
X155617903Y-108920153D01*
X155380849Y-108873000D01*
X155139151Y-108873000D01*
X154902097Y-108920153D01*
X154678798Y-109012647D01*
X154477833Y-109146927D01*
X154306927Y-109317833D01*
X154172647Y-109518798D01*
X154080153Y-109742097D01*
X154033000Y-109979151D01*
X153947000Y-109979151D01*
X153899847Y-109742097D01*
X153807353Y-109518798D01*
X153673073Y-109317833D01*
X153502167Y-109146927D01*
X153301202Y-109012647D01*
X153077903Y-108920153D01*
X152840849Y-108873000D01*
X152599151Y-108873000D01*
X152362097Y-108920153D01*
X152138798Y-109012647D01*
X151937833Y-109146927D01*
X151766927Y-109317833D01*
X151632647Y-109518798D01*
X151540153Y-109742097D01*
X151493000Y-109979151D01*
X151408824Y-109979151D01*
X151408824Y-109250000D01*
X151401545Y-109176095D01*
X151379988Y-109105030D01*
X151344981Y-109039537D01*
X151297869Y-108982131D01*
X151240463Y-108935019D01*
X151174970Y-108900012D01*
X151103905Y-108878455D01*
X151030000Y-108871176D01*
X149330000Y-108871176D01*
X149256095Y-108878455D01*
X149185030Y-108900012D01*
X149119537Y-108935019D01*
X149062131Y-108982131D01*
X149015019Y-109039537D01*
X148980012Y-109105030D01*
X148958455Y-109176095D01*
X148951176Y-109250000D01*
X147365240Y-109250000D01*
X147262167Y-109146927D01*
X147061202Y-109012647D01*
X146837903Y-108920153D01*
X146600849Y-108873000D01*
X146359151Y-108873000D01*
X146122097Y-108920153D01*
X145898798Y-109012647D01*
X145697833Y-109146927D01*
X145526927Y-109317833D01*
X145392647Y-109518798D01*
X145300153Y-109742097D01*
X145253000Y-109979151D01*
X145167000Y-109979151D01*
X145119847Y-109742097D01*
X145027353Y-109518798D01*
X144893073Y-109317833D01*
X144722167Y-109146927D01*
X144521202Y-109012647D01*
X144297903Y-108920153D01*
X144060849Y-108873000D01*
X143819151Y-108873000D01*
X143582097Y-108920153D01*
X143358798Y-109012647D01*
X143157833Y-109146927D01*
X142986927Y-109317833D01*
X142886888Y-109467553D01*
X142888072Y-109250000D01*
X142875812Y-109125518D01*
X142839502Y-109005820D01*
X142780537Y-108895506D01*
X142701185Y-108798815D01*
X142604494Y-108719463D01*
X142494180Y-108660498D01*
X142374482Y-108624188D01*
X142250000Y-108611928D01*
X141685750Y-108615000D01*
X141527000Y-108773750D01*
X141527000Y-109973000D01*
X141547000Y-109973000D01*
X141547000Y-110227000D01*
X141527000Y-110227000D01*
X141527000Y-110247000D01*
X141273000Y-110247000D01*
X141273000Y-110227000D01*
X140073750Y-110227000D01*
X139915000Y-110385750D01*
X139911928Y-110950000D01*
X139924188Y-111074482D01*
X139960498Y-111194180D01*
X140019463Y-111304494D01*
X140098815Y-111401185D01*
X140195506Y-111480537D01*
X140274947Y-111523000D01*
X131023333Y-111523000D01*
X130801739Y-111501273D01*
X130611037Y-111443696D01*
X130435145Y-111350172D01*
X130280773Y-111224269D01*
X130153792Y-111070776D01*
X130059043Y-110895541D01*
X130000135Y-110705242D01*
X129977000Y-110485122D01*
X129977000Y-109150000D01*
X130971176Y-109150000D01*
X130971176Y-110850000D01*
X130978455Y-110923905D01*
X131000012Y-110994970D01*
X131035019Y-111060463D01*
X131082131Y-111117869D01*
X131139537Y-111164981D01*
X131205030Y-111199988D01*
X131276095Y-111221545D01*
X131350000Y-111228824D01*
X133050000Y-111228824D01*
X133123905Y-111221545D01*
X133194970Y-111199988D01*
X133260463Y-111164981D01*
X133317869Y-111117869D01*
X133364981Y-111060463D01*
X133399988Y-110994970D01*
X133421545Y-110923905D01*
X133428824Y-110850000D01*
X133428824Y-109879151D01*
X133513000Y-109879151D01*
X133513000Y-110120849D01*
X133560153Y-110357903D01*
X133652647Y-110581202D01*
X133786927Y-110782167D01*
X133957833Y-110953073D01*
X134158798Y-111087353D01*
X134382097Y-111179847D01*
X134619151Y-111227000D01*
X134860849Y-111227000D01*
X135097903Y-111179847D01*
X135321202Y-111087353D01*
X135522167Y-110953073D01*
X135693073Y-110782167D01*
X135827353Y-110581202D01*
X135876231Y-110463202D01*
X135935843Y-110631252D01*
X136084822Y-110881355D01*
X136279731Y-111097588D01*
X136513080Y-111271641D01*
X136775901Y-111396825D01*
X136923110Y-111441476D01*
X137153000Y-111320155D01*
X137153000Y-110127000D01*
X137407000Y-110127000D01*
X137407000Y-111320155D01*
X137636890Y-111441476D01*
X137784099Y-111396825D01*
X138046920Y-111271641D01*
X138280269Y-111097588D01*
X138475178Y-110881355D01*
X138624157Y-110631252D01*
X138721481Y-110356891D01*
X138600814Y-110127000D01*
X137407000Y-110127000D01*
X137153000Y-110127000D01*
X137133000Y-110127000D01*
X137133000Y-109873000D01*
X137153000Y-109873000D01*
X137153000Y-108679845D01*
X137407000Y-108679845D01*
X137407000Y-109873000D01*
X138600814Y-109873000D01*
X138721481Y-109643109D01*
X138624157Y-109368748D01*
X138553423Y-109250000D01*
X139911928Y-109250000D01*
X139915000Y-109814250D01*
X140073750Y-109973000D01*
X141273000Y-109973000D01*
X141273000Y-108773750D01*
X141114250Y-108615000D01*
X140550000Y-108611928D01*
X140425518Y-108624188D01*
X140305820Y-108660498D01*
X140195506Y-108719463D01*
X140098815Y-108798815D01*
X140019463Y-108895506D01*
X139960498Y-109005820D01*
X139924188Y-109125518D01*
X139911928Y-109250000D01*
X138553423Y-109250000D01*
X138475178Y-109118645D01*
X138280269Y-108902412D01*
X138046920Y-108728359D01*
X137784099Y-108603175D01*
X137636890Y-108558524D01*
X137407000Y-108679845D01*
X137153000Y-108679845D01*
X136923110Y-108558524D01*
X136775901Y-108603175D01*
X136513080Y-108728359D01*
X136279731Y-108902412D01*
X136084822Y-109118645D01*
X135935843Y-109368748D01*
X135876231Y-109536798D01*
X135827353Y-109418798D01*
X135693073Y-109217833D01*
X135522167Y-109046927D01*
X135321202Y-108912647D01*
X135097903Y-108820153D01*
X134860849Y-108773000D01*
X134619151Y-108773000D01*
X134382097Y-108820153D01*
X134158798Y-108912647D01*
X133957833Y-109046927D01*
X133786927Y-109217833D01*
X133652647Y-109418798D01*
X133560153Y-109642097D01*
X133513000Y-109879151D01*
X133428824Y-109879151D01*
X133428824Y-109150000D01*
X133421545Y-109076095D01*
X133399988Y-109005030D01*
X133364981Y-108939537D01*
X133317869Y-108882131D01*
X133260463Y-108835019D01*
X133194970Y-108800012D01*
X133123905Y-108778455D01*
X133050000Y-108771176D01*
X131350000Y-108771176D01*
X131276095Y-108778455D01*
X131205030Y-108800012D01*
X131139537Y-108835019D01*
X131082131Y-108882131D01*
X131035019Y-108939537D01*
X131000012Y-109005030D01*
X130978455Y-109076095D01*
X130971176Y-109150000D01*
X129977000Y-109150000D01*
X129977000Y-107823472D01*
X147523000Y-107823472D01*
X147523000Y-107976528D01*
X147552859Y-108126643D01*
X147611431Y-108268048D01*
X147696464Y-108395309D01*
X147804691Y-108503536D01*
X147931952Y-108588569D01*
X148073357Y-108647141D01*
X148223472Y-108677000D01*
X148376528Y-108677000D01*
X148526643Y-108647141D01*
X148668048Y-108588569D01*
X148795309Y-108503536D01*
X148903536Y-108395309D01*
X148988569Y-108268048D01*
X149047141Y-108126643D01*
X149077000Y-107976528D01*
X149077000Y-107823472D01*
X149047141Y-107673357D01*
X148988569Y-107531952D01*
X148903536Y-107404691D01*
X148795309Y-107296464D01*
X148668048Y-107211431D01*
X148526643Y-107152859D01*
X148376528Y-107123000D01*
X148223472Y-107123000D01*
X148073357Y-107152859D01*
X147931952Y-107211431D01*
X147804691Y-107296464D01*
X147696464Y-107404691D01*
X147611431Y-107531952D01*
X147552859Y-107673357D01*
X147523000Y-107823472D01*
X129977000Y-107823472D01*
X129977000Y-106533323D01*
X149422998Y-106533323D01*
X149422998Y-106666681D01*
X149449014Y-106797476D01*
X149500048Y-106920682D01*
X149574138Y-107031565D01*
X149668435Y-107125862D01*
X149779318Y-107199952D01*
X149902524Y-107250986D01*
X150033319Y-107277002D01*
X150166677Y-107277002D01*
X150297472Y-107250986D01*
X150420678Y-107199952D01*
X150531561Y-107125862D01*
X150625858Y-107031565D01*
X150699948Y-106920682D01*
X150750982Y-106797476D01*
X150776998Y-106666681D01*
X150776998Y-106533323D01*
X150776998Y-106533321D01*
X153323000Y-106533321D01*
X153323000Y-106666679D01*
X153349016Y-106797474D01*
X153400050Y-106920680D01*
X153474140Y-107031563D01*
X153568437Y-107125860D01*
X153679320Y-107199950D01*
X153802526Y-107250984D01*
X153933321Y-107277000D01*
X154066679Y-107277000D01*
X154197474Y-107250984D01*
X154320680Y-107199950D01*
X154431563Y-107125860D01*
X154525860Y-107031563D01*
X154599950Y-106920680D01*
X154650984Y-106797474D01*
X154677000Y-106666679D01*
X154677000Y-106533321D01*
X154650984Y-106402526D01*
X154599950Y-106279320D01*
X154525860Y-106168437D01*
X154431563Y-106074140D01*
X154320680Y-106000050D01*
X154197474Y-105949016D01*
X154066679Y-105923000D01*
X153933321Y-105923000D01*
X153802526Y-105949016D01*
X153679320Y-106000050D01*
X153568437Y-106074140D01*
X153474140Y-106168437D01*
X153400050Y-106279320D01*
X153349016Y-106402526D01*
X153323000Y-106533321D01*
X150776998Y-106533321D01*
X150750982Y-106402528D01*
X150699948Y-106279322D01*
X150625858Y-106168439D01*
X150531561Y-106074142D01*
X150420678Y-106000052D01*
X150297472Y-105949018D01*
X150166677Y-105923002D01*
X150033319Y-105923002D01*
X149902524Y-105949018D01*
X149779318Y-106000052D01*
X149668435Y-106074142D01*
X149574138Y-106168439D01*
X149500048Y-106279322D01*
X149449014Y-106402528D01*
X149422998Y-106533323D01*
X129977000Y-106533323D01*
X129977000Y-104123472D01*
X138423000Y-104123472D01*
X138423000Y-104276528D01*
X138452859Y-104426643D01*
X138511431Y-104568048D01*
X138596464Y-104695309D01*
X138704691Y-104803536D01*
X138831952Y-104888569D01*
X138973357Y-104947141D01*
X139123472Y-104977000D01*
X139276528Y-104977000D01*
X139426643Y-104947141D01*
X139568048Y-104888569D01*
X139695309Y-104803536D01*
X139803536Y-104695309D01*
X139888569Y-104568048D01*
X139947141Y-104426643D01*
X139947771Y-104423472D01*
X157623000Y-104423472D01*
X157623000Y-104576528D01*
X157652859Y-104726643D01*
X157711431Y-104868048D01*
X157796464Y-104995309D01*
X157904691Y-105103536D01*
X158031952Y-105188569D01*
X158173357Y-105247141D01*
X158323472Y-105277000D01*
X158476528Y-105277000D01*
X158626643Y-105247141D01*
X158768048Y-105188569D01*
X158895309Y-105103536D01*
X159003536Y-104995309D01*
X159088569Y-104868048D01*
X159147141Y-104726643D01*
X159177000Y-104576528D01*
X159177000Y-104423472D01*
X159147141Y-104273357D01*
X159088569Y-104131952D01*
X159003536Y-104004691D01*
X158895309Y-103896464D01*
X158768048Y-103811431D01*
X158626643Y-103752859D01*
X158476528Y-103723000D01*
X158323472Y-103723000D01*
X158173357Y-103752859D01*
X158031952Y-103811431D01*
X157904691Y-103896464D01*
X157796464Y-104004691D01*
X157711431Y-104131952D01*
X157652859Y-104273357D01*
X157623000Y-104423472D01*
X139947771Y-104423472D01*
X139977000Y-104276528D01*
X139977000Y-104123472D01*
X139947141Y-103973357D01*
X139888569Y-103831952D01*
X139803536Y-103704691D01*
X139695309Y-103596464D01*
X139568048Y-103511431D01*
X139426643Y-103452859D01*
X139276528Y-103423000D01*
X139123472Y-103423000D01*
X138973357Y-103452859D01*
X138831952Y-103511431D01*
X138704691Y-103596464D01*
X138596464Y-103704691D01*
X138511431Y-103831952D01*
X138452859Y-103973357D01*
X138423000Y-104123472D01*
X129977000Y-104123472D01*
X129977000Y-101733321D01*
X139223000Y-101733321D01*
X139223000Y-101866679D01*
X139249016Y-101997474D01*
X139300050Y-102120680D01*
X139374140Y-102231563D01*
X139468437Y-102325860D01*
X139579320Y-102399950D01*
X139702526Y-102450984D01*
X139833321Y-102477000D01*
X139966679Y-102477000D01*
X140097474Y-102450984D01*
X140220680Y-102399950D01*
X140331563Y-102325860D01*
X140425860Y-102231563D01*
X140499950Y-102120680D01*
X140550984Y-101997474D01*
X140577000Y-101866679D01*
X140577000Y-101733321D01*
X140567055Y-101683321D01*
X142073000Y-101683321D01*
X142073000Y-101816679D01*
X142099016Y-101947474D01*
X142150050Y-102070680D01*
X142224140Y-102181563D01*
X142318437Y-102275860D01*
X142429320Y-102349950D01*
X142552526Y-102400984D01*
X142683321Y-102427000D01*
X142816679Y-102427000D01*
X142947474Y-102400984D01*
X143070680Y-102349950D01*
X143181563Y-102275860D01*
X143275860Y-102181563D01*
X143349950Y-102070680D01*
X143400984Y-101947474D01*
X143427000Y-101816679D01*
X143427000Y-101683321D01*
X146323000Y-101683321D01*
X146323000Y-101816679D01*
X146349016Y-101947474D01*
X146400050Y-102070680D01*
X146474140Y-102181563D01*
X146568437Y-102275860D01*
X146679320Y-102349950D01*
X146802526Y-102400984D01*
X146933321Y-102427000D01*
X147066679Y-102427000D01*
X147197474Y-102400984D01*
X147320680Y-102349950D01*
X147431563Y-102275860D01*
X147525860Y-102181563D01*
X147599950Y-102070680D01*
X147650984Y-101947474D01*
X147677000Y-101816679D01*
X147677000Y-101683321D01*
X147650984Y-101552526D01*
X147599950Y-101429320D01*
X147525860Y-101318437D01*
X147431563Y-101224140D01*
X147320680Y-101150050D01*
X147197474Y-101099016D01*
X147066679Y-101073000D01*
X146933321Y-101073000D01*
X146802526Y-101099016D01*
X146679320Y-101150050D01*
X146568437Y-101224140D01*
X146474140Y-101318437D01*
X146400050Y-101429320D01*
X146349016Y-101552526D01*
X146323000Y-101683321D01*
X143427000Y-101683321D01*
X143400984Y-101552526D01*
X143349950Y-101429320D01*
X143275860Y-101318437D01*
X143181563Y-101224140D01*
X143070680Y-101150050D01*
X142947474Y-101099016D01*
X142816679Y-101073000D01*
X142683321Y-101073000D01*
X142552526Y-101099016D01*
X142429320Y-101150050D01*
X142318437Y-101224140D01*
X142224140Y-101318437D01*
X142150050Y-101429320D01*
X142099016Y-101552526D01*
X142073000Y-101683321D01*
X140567055Y-101683321D01*
X140550984Y-101602526D01*
X140499950Y-101479320D01*
X140425860Y-101368437D01*
X140331563Y-101274140D01*
X140220680Y-101200050D01*
X140097474Y-101149016D01*
X139966679Y-101123000D01*
X139833321Y-101123000D01*
X139702526Y-101149016D01*
X139579320Y-101200050D01*
X139468437Y-101274140D01*
X139374140Y-101368437D01*
X139300050Y-101479320D01*
X139249016Y-101602526D01*
X139223000Y-101733321D01*
X129977000Y-101733321D01*
X129977000Y-99973478D01*
X148523000Y-99973478D01*
X148523000Y-100126534D01*
X148552859Y-100276649D01*
X148611431Y-100418054D01*
X148696464Y-100545315D01*
X148804691Y-100653542D01*
X148931952Y-100738575D01*
X149073357Y-100797147D01*
X149223472Y-100827006D01*
X149376528Y-100827006D01*
X149526643Y-100797147D01*
X149668048Y-100738575D01*
X149795309Y-100653542D01*
X149903536Y-100545315D01*
X149933306Y-100500760D01*
X159716007Y-100500760D01*
X159716007Y-100634118D01*
X159742023Y-100764913D01*
X159793057Y-100888119D01*
X159867147Y-100999002D01*
X159961444Y-101093299D01*
X160072327Y-101167389D01*
X160195533Y-101218423D01*
X160326328Y-101244439D01*
X160459686Y-101244439D01*
X160590481Y-101218423D01*
X160713687Y-101167389D01*
X160824570Y-101093299D01*
X160918867Y-100999002D01*
X160992957Y-100888119D01*
X161043991Y-100764913D01*
X161070007Y-100634118D01*
X161070007Y-100500760D01*
X161043991Y-100369965D01*
X160992957Y-100246759D01*
X160918867Y-100135876D01*
X160824570Y-100041579D01*
X160713687Y-99967489D01*
X160590481Y-99916455D01*
X160459686Y-99890439D01*
X160326328Y-99890439D01*
X160195533Y-99916455D01*
X160072327Y-99967489D01*
X159961444Y-100041579D01*
X159867147Y-100135876D01*
X159793057Y-100246759D01*
X159742023Y-100369965D01*
X159716007Y-100500760D01*
X149933306Y-100500760D01*
X149988569Y-100418054D01*
X150047141Y-100276649D01*
X150077000Y-100126534D01*
X150077000Y-99973478D01*
X150047141Y-99823363D01*
X149988569Y-99681958D01*
X149903536Y-99554697D01*
X149795309Y-99446470D01*
X149668048Y-99361437D01*
X149526643Y-99302865D01*
X149376528Y-99273006D01*
X149223472Y-99273006D01*
X149073357Y-99302865D01*
X148931952Y-99361437D01*
X148804691Y-99446470D01*
X148696464Y-99554697D01*
X148611431Y-99681958D01*
X148552859Y-99823363D01*
X148523000Y-99973478D01*
X129977000Y-99973478D01*
X129977000Y-99233321D01*
X150323000Y-99233321D01*
X150323000Y-99366679D01*
X150349016Y-99497474D01*
X150400050Y-99620680D01*
X150474140Y-99731563D01*
X150568437Y-99825860D01*
X150679320Y-99899950D01*
X150802526Y-99950984D01*
X150933321Y-99977000D01*
X151066679Y-99977000D01*
X151197474Y-99950984D01*
X151320680Y-99899950D01*
X151431563Y-99825860D01*
X151525860Y-99731563D01*
X151599950Y-99620680D01*
X151650984Y-99497474D01*
X151677000Y-99366679D01*
X151677000Y-99233321D01*
X151650984Y-99102526D01*
X151599950Y-98979320D01*
X151525860Y-98868437D01*
X151431563Y-98774140D01*
X151320680Y-98700050D01*
X151197474Y-98649016D01*
X151066679Y-98623000D01*
X150933321Y-98623000D01*
X150802526Y-98649016D01*
X150679320Y-98700050D01*
X150568437Y-98774140D01*
X150474140Y-98868437D01*
X150400050Y-98979320D01*
X150349016Y-99102526D01*
X150323000Y-99233321D01*
X129977000Y-99233321D01*
X129977000Y-98223472D01*
X134823000Y-98223472D01*
X134823000Y-98376528D01*
X134852859Y-98526643D01*
X134911431Y-98668048D01*
X134996464Y-98795309D01*
X135104691Y-98903536D01*
X135231952Y-98988569D01*
X135373357Y-99047141D01*
X135523472Y-99077000D01*
X135676528Y-99077000D01*
X135826643Y-99047141D01*
X135968048Y-98988569D01*
X136095309Y-98903536D01*
X136203536Y-98795309D01*
X136288569Y-98668048D01*
X136347141Y-98526643D01*
X136377000Y-98376528D01*
X136377000Y-98223472D01*
X136357110Y-98123472D01*
X151723000Y-98123472D01*
X151723000Y-98276528D01*
X151752859Y-98426643D01*
X151811431Y-98568048D01*
X151896464Y-98695309D01*
X152004691Y-98803536D01*
X152131952Y-98888569D01*
X152273357Y-98947141D01*
X152315898Y-98955603D01*
X152300050Y-98979320D01*
X152249016Y-99102526D01*
X152223000Y-99233321D01*
X152223000Y-99366679D01*
X152249016Y-99497474D01*
X152300050Y-99620680D01*
X152374140Y-99731563D01*
X152468437Y-99825860D01*
X152579320Y-99899950D01*
X152702526Y-99950984D01*
X152833321Y-99977000D01*
X152966679Y-99977000D01*
X153097474Y-99950984D01*
X153220680Y-99899950D01*
X153331563Y-99825860D01*
X153425860Y-99731563D01*
X153499950Y-99620680D01*
X153550984Y-99497474D01*
X153563744Y-99433319D01*
X156123000Y-99433319D01*
X156123000Y-99566677D01*
X156149016Y-99697472D01*
X156200050Y-99820678D01*
X156274140Y-99931561D01*
X156368437Y-100025858D01*
X156479320Y-100099948D01*
X156602526Y-100150982D01*
X156733321Y-100176998D01*
X156866679Y-100176998D01*
X156997474Y-100150982D01*
X157120680Y-100099948D01*
X157231563Y-100025858D01*
X157325860Y-99931561D01*
X157399950Y-99820678D01*
X157450984Y-99697472D01*
X157477000Y-99566677D01*
X157477000Y-99433319D01*
X157450984Y-99302524D01*
X157399950Y-99179318D01*
X157325860Y-99068435D01*
X157231563Y-98974138D01*
X157120680Y-98900048D01*
X156997474Y-98849014D01*
X156869063Y-98823472D01*
X158123000Y-98823472D01*
X158123000Y-98976528D01*
X158152859Y-99126643D01*
X158211431Y-99268048D01*
X158296464Y-99395309D01*
X158404691Y-99503536D01*
X158531952Y-99588569D01*
X158673357Y-99647141D01*
X158823472Y-99677000D01*
X158976528Y-99677000D01*
X159126643Y-99647141D01*
X159268048Y-99588569D01*
X159395309Y-99503536D01*
X159503536Y-99395309D01*
X159588569Y-99268048D01*
X159647141Y-99126643D01*
X159677000Y-98976528D01*
X159677000Y-98823472D01*
X159647141Y-98673357D01*
X159588569Y-98531952D01*
X159503536Y-98404691D01*
X159395309Y-98296464D01*
X159268048Y-98211431D01*
X159126643Y-98152859D01*
X158976528Y-98123000D01*
X158823472Y-98123000D01*
X158673357Y-98152859D01*
X158531952Y-98211431D01*
X158404691Y-98296464D01*
X158296464Y-98404691D01*
X158211431Y-98531952D01*
X158152859Y-98673357D01*
X158123000Y-98823472D01*
X156869063Y-98823472D01*
X156866679Y-98822998D01*
X156733321Y-98822998D01*
X156602526Y-98849014D01*
X156479320Y-98900048D01*
X156368437Y-98974138D01*
X156274140Y-99068435D01*
X156200050Y-99179318D01*
X156149016Y-99302524D01*
X156123000Y-99433319D01*
X153563744Y-99433319D01*
X153577000Y-99366679D01*
X153577000Y-99233321D01*
X153550984Y-99102526D01*
X153499950Y-98979320D01*
X153425860Y-98868437D01*
X153331563Y-98774140D01*
X153220680Y-98700050D01*
X153126449Y-98661018D01*
X153188569Y-98568048D01*
X153247141Y-98426643D01*
X153277000Y-98276528D01*
X153277000Y-98123472D01*
X153247141Y-97973357D01*
X153188569Y-97831952D01*
X153103536Y-97704691D01*
X152995309Y-97596464D01*
X152868048Y-97511431D01*
X152726643Y-97452859D01*
X152576528Y-97423000D01*
X152423472Y-97423000D01*
X152273357Y-97452859D01*
X152131952Y-97511431D01*
X152004691Y-97596464D01*
X151896464Y-97704691D01*
X151811431Y-97831952D01*
X151752859Y-97973357D01*
X151723000Y-98123472D01*
X136357110Y-98123472D01*
X136347141Y-98073357D01*
X136288569Y-97931952D01*
X136203536Y-97804691D01*
X136095309Y-97696464D01*
X135968048Y-97611431D01*
X135826643Y-97552859D01*
X135676528Y-97523000D01*
X135523472Y-97523000D01*
X135373357Y-97552859D01*
X135231952Y-97611431D01*
X135104691Y-97696464D01*
X134996464Y-97804691D01*
X134911431Y-97931952D01*
X134852859Y-98073357D01*
X134823000Y-98223472D01*
X129977000Y-98223472D01*
X129977000Y-97233321D01*
X156023000Y-97233321D01*
X156023000Y-97366679D01*
X156049016Y-97497474D01*
X156100050Y-97620680D01*
X156174140Y-97731563D01*
X156268437Y-97825860D01*
X156379320Y-97899950D01*
X156502526Y-97950984D01*
X156633321Y-97977000D01*
X156766679Y-97977000D01*
X156897474Y-97950984D01*
X157020680Y-97899950D01*
X157131563Y-97825860D01*
X157225860Y-97731563D01*
X157299950Y-97620680D01*
X157319206Y-97574192D01*
X157333321Y-97577000D01*
X157466679Y-97577000D01*
X157597474Y-97550984D01*
X157720680Y-97499950D01*
X157831563Y-97425860D01*
X157925860Y-97331563D01*
X157999950Y-97220680D01*
X158035210Y-97135555D01*
X159347994Y-97135555D01*
X159347994Y-97268913D01*
X159374010Y-97399708D01*
X159425044Y-97522914D01*
X159499134Y-97633797D01*
X159517917Y-97652580D01*
X159500050Y-97679320D01*
X159449016Y-97802526D01*
X159423000Y-97933321D01*
X159423000Y-98066679D01*
X159449016Y-98197474D01*
X159500050Y-98320680D01*
X159574140Y-98431563D01*
X159668437Y-98525860D01*
X159779320Y-98599950D01*
X159902526Y-98650984D01*
X160033321Y-98677000D01*
X160166679Y-98677000D01*
X160297474Y-98650984D01*
X160420680Y-98599950D01*
X160531563Y-98525860D01*
X160625860Y-98431563D01*
X160699950Y-98320680D01*
X160750984Y-98197474D01*
X160777000Y-98066679D01*
X160777000Y-97933321D01*
X160750984Y-97802526D01*
X160699950Y-97679320D01*
X160625860Y-97568437D01*
X160607077Y-97549654D01*
X160624944Y-97522914D01*
X160675978Y-97399708D01*
X160701994Y-97268913D01*
X160701994Y-97135555D01*
X160675978Y-97004760D01*
X160624944Y-96881554D01*
X160550854Y-96770671D01*
X160456557Y-96676374D01*
X160345674Y-96602284D01*
X160222468Y-96551250D01*
X160091673Y-96525234D01*
X159958315Y-96525234D01*
X159827520Y-96551250D01*
X159704314Y-96602284D01*
X159593431Y-96676374D01*
X159499134Y-96770671D01*
X159425044Y-96881554D01*
X159374010Y-97004760D01*
X159347994Y-97135555D01*
X158035210Y-97135555D01*
X158050984Y-97097474D01*
X158077000Y-96966679D01*
X158077000Y-96833321D01*
X158050984Y-96702526D01*
X157999950Y-96579320D01*
X157925860Y-96468437D01*
X157831563Y-96374140D01*
X157720680Y-96300050D01*
X157597474Y-96249016D01*
X157466679Y-96223000D01*
X157333321Y-96223000D01*
X157202526Y-96249016D01*
X157079320Y-96300050D01*
X156968437Y-96374140D01*
X156874140Y-96468437D01*
X156800050Y-96579320D01*
X156780794Y-96625808D01*
X156766679Y-96623000D01*
X156633321Y-96623000D01*
X156502526Y-96649016D01*
X156379320Y-96700050D01*
X156268437Y-96774140D01*
X156174140Y-96868437D01*
X156100050Y-96979320D01*
X156049016Y-97102526D01*
X156023000Y-97233321D01*
X129977000Y-97233321D01*
X129977000Y-95733321D01*
X148623000Y-95733321D01*
X148623000Y-95866679D01*
X148649016Y-95997474D01*
X148700050Y-96120680D01*
X148774140Y-96231563D01*
X148868437Y-96325860D01*
X148979320Y-96399950D01*
X149102526Y-96450984D01*
X149233321Y-96477000D01*
X149366679Y-96477000D01*
X149497474Y-96450984D01*
X149620680Y-96399950D01*
X149731563Y-96325860D01*
X149824102Y-96233321D01*
X155023002Y-96233321D01*
X155023002Y-96366679D01*
X155049018Y-96497474D01*
X155100052Y-96620680D01*
X155174142Y-96731563D01*
X155268439Y-96825860D01*
X155379322Y-96899950D01*
X155502528Y-96950984D01*
X155633323Y-96977000D01*
X155766681Y-96977000D01*
X155897476Y-96950984D01*
X156020682Y-96899950D01*
X156131565Y-96825860D01*
X156225862Y-96731563D01*
X156299952Y-96620680D01*
X156350986Y-96497474D01*
X156374949Y-96377000D01*
X156466679Y-96377000D01*
X156597474Y-96350984D01*
X156720680Y-96299950D01*
X156831563Y-96225860D01*
X156925860Y-96131563D01*
X156999950Y-96020680D01*
X157050984Y-95897474D01*
X157077000Y-95766679D01*
X157077000Y-95633321D01*
X157050984Y-95502526D01*
X157021072Y-95430311D01*
X159522143Y-95430311D01*
X159522143Y-95563669D01*
X159548159Y-95694464D01*
X159599193Y-95817670D01*
X159673283Y-95928553D01*
X159767580Y-96022850D01*
X159878463Y-96096940D01*
X160001669Y-96147974D01*
X160132464Y-96173990D01*
X160265822Y-96173990D01*
X160396617Y-96147974D01*
X160519823Y-96096940D01*
X160630706Y-96022850D01*
X160725003Y-95928553D01*
X160799093Y-95817670D01*
X160850127Y-95694464D01*
X160876143Y-95563669D01*
X160876143Y-95430311D01*
X160850127Y-95299516D01*
X160799093Y-95176310D01*
X160725003Y-95065427D01*
X160630706Y-94971130D01*
X160519823Y-94897040D01*
X160396617Y-94846006D01*
X160265822Y-94819990D01*
X160132464Y-94819990D01*
X160001669Y-94846006D01*
X159878463Y-94897040D01*
X159767580Y-94971130D01*
X159673283Y-95065427D01*
X159599193Y-95176310D01*
X159548159Y-95299516D01*
X159522143Y-95430311D01*
X157021072Y-95430311D01*
X156999950Y-95379320D01*
X156925860Y-95268437D01*
X156831563Y-95174140D01*
X156720680Y-95100050D01*
X156597474Y-95049016D01*
X156466679Y-95023000D01*
X156333321Y-95023000D01*
X156202526Y-95049016D01*
X156079320Y-95100050D01*
X155968437Y-95174140D01*
X155874140Y-95268437D01*
X155800050Y-95379320D01*
X155749016Y-95502526D01*
X155725053Y-95623000D01*
X155633323Y-95623000D01*
X155502528Y-95649016D01*
X155379322Y-95700050D01*
X155268439Y-95774140D01*
X155174142Y-95868437D01*
X155100052Y-95979320D01*
X155049018Y-96102526D01*
X155023002Y-96233321D01*
X149824102Y-96233321D01*
X149825860Y-96231563D01*
X149899950Y-96120680D01*
X149950984Y-95997474D01*
X149977000Y-95866679D01*
X149977000Y-95733321D01*
X149950984Y-95602526D01*
X149899950Y-95479320D01*
X149825860Y-95368437D01*
X149731563Y-95274140D01*
X149620680Y-95200050D01*
X149497474Y-95149016D01*
X149366679Y-95123000D01*
X149233321Y-95123000D01*
X149102526Y-95149016D01*
X148979320Y-95200050D01*
X148868437Y-95274140D01*
X148774140Y-95368437D01*
X148700050Y-95479320D01*
X148649016Y-95602526D01*
X148623000Y-95733321D01*
X129977000Y-95733321D01*
X129977000Y-93423472D01*
X155123000Y-93423472D01*
X155123000Y-93576528D01*
X155152859Y-93726643D01*
X155211431Y-93868048D01*
X155296464Y-93995309D01*
X155404691Y-94103536D01*
X155531952Y-94188569D01*
X155673357Y-94247141D01*
X155823472Y-94277000D01*
X155976528Y-94277000D01*
X156126643Y-94247141D01*
X156268048Y-94188569D01*
X156395309Y-94103536D01*
X156503536Y-93995309D01*
X156588569Y-93868048D01*
X156644374Y-93733321D01*
X162973000Y-93733321D01*
X162973000Y-93866679D01*
X162999016Y-93997474D01*
X163050050Y-94120680D01*
X163124140Y-94231563D01*
X163218437Y-94325860D01*
X163329320Y-94399950D01*
X163452526Y-94450984D01*
X163583321Y-94477000D01*
X163716679Y-94477000D01*
X163847474Y-94450984D01*
X163970680Y-94399950D01*
X164081563Y-94325860D01*
X164175860Y-94231563D01*
X164249950Y-94120680D01*
X164300984Y-93997474D01*
X164327000Y-93866679D01*
X164327000Y-93786821D01*
X164349008Y-93897466D01*
X164400042Y-94020672D01*
X164474132Y-94131555D01*
X164568429Y-94225852D01*
X164679312Y-94299942D01*
X164802518Y-94350976D01*
X164933313Y-94376992D01*
X165066671Y-94376992D01*
X165197466Y-94350976D01*
X165320672Y-94299942D01*
X165431555Y-94225852D01*
X165525852Y-94131555D01*
X165599942Y-94020672D01*
X165650976Y-93897466D01*
X165676992Y-93766671D01*
X165676992Y-93633313D01*
X165650976Y-93502518D01*
X165599942Y-93379312D01*
X165525852Y-93268429D01*
X165431555Y-93174132D01*
X165320672Y-93100042D01*
X165197466Y-93049008D01*
X165066671Y-93022992D01*
X164933313Y-93022992D01*
X164802518Y-93049008D01*
X164679312Y-93100042D01*
X164568429Y-93174132D01*
X164474132Y-93268429D01*
X164400042Y-93379312D01*
X164349008Y-93502518D01*
X164322992Y-93633313D01*
X164322992Y-93713171D01*
X164300984Y-93602526D01*
X164249950Y-93479320D01*
X164175860Y-93368437D01*
X164081563Y-93274140D01*
X163970680Y-93200050D01*
X163847474Y-93149016D01*
X163716679Y-93123000D01*
X163583321Y-93123000D01*
X163452526Y-93149016D01*
X163329320Y-93200050D01*
X163218437Y-93274140D01*
X163124140Y-93368437D01*
X163050050Y-93479320D01*
X162999016Y-93602526D01*
X162973000Y-93733321D01*
X156644374Y-93733321D01*
X156647141Y-93726643D01*
X156677000Y-93576528D01*
X156677000Y-93423472D01*
X156647141Y-93273357D01*
X156588569Y-93131952D01*
X156503536Y-93004691D01*
X156474324Y-92975479D01*
X156597474Y-92950984D01*
X156720680Y-92899950D01*
X156831563Y-92825860D01*
X156925860Y-92731563D01*
X156999950Y-92620680D01*
X157050984Y-92497474D01*
X157077000Y-92366679D01*
X157077000Y-92233321D01*
X157423000Y-92233321D01*
X157423000Y-92366679D01*
X157449016Y-92497474D01*
X157500050Y-92620680D01*
X157574140Y-92731563D01*
X157668437Y-92825860D01*
X157779320Y-92899950D01*
X157902526Y-92950984D01*
X158033321Y-92977000D01*
X158166679Y-92977000D01*
X158297474Y-92950984D01*
X158420680Y-92899950D01*
X158531563Y-92825860D01*
X158625860Y-92731563D01*
X158699950Y-92620680D01*
X158750984Y-92497474D01*
X158777000Y-92366679D01*
X158777000Y-92233321D01*
X158750984Y-92102526D01*
X158699950Y-91979320D01*
X158625860Y-91868437D01*
X158531563Y-91774140D01*
X158420680Y-91700050D01*
X158297474Y-91649016D01*
X158166679Y-91623000D01*
X158033321Y-91623000D01*
X157902526Y-91649016D01*
X157779320Y-91700050D01*
X157668437Y-91774140D01*
X157574140Y-91868437D01*
X157500050Y-91979320D01*
X157449016Y-92102526D01*
X157423000Y-92233321D01*
X157077000Y-92233321D01*
X157050984Y-92102526D01*
X156999950Y-91979320D01*
X156925860Y-91868437D01*
X156831563Y-91774140D01*
X156720680Y-91700050D01*
X156597474Y-91649016D01*
X156466679Y-91623000D01*
X156333321Y-91623000D01*
X156202526Y-91649016D01*
X156079320Y-91700050D01*
X155968437Y-91774140D01*
X155874140Y-91868437D01*
X155800050Y-91979320D01*
X155749016Y-92102526D01*
X155723000Y-92233321D01*
X155723000Y-92366679D01*
X155749016Y-92497474D01*
X155800050Y-92620680D01*
X155868418Y-92723000D01*
X155823472Y-92723000D01*
X155673357Y-92752859D01*
X155531952Y-92811431D01*
X155404691Y-92896464D01*
X155296464Y-93004691D01*
X155211431Y-93131952D01*
X155152859Y-93273357D01*
X155123000Y-93423472D01*
X129977000Y-93423472D01*
X129977000Y-91173472D01*
X135473000Y-91173472D01*
X135473000Y-91326528D01*
X135502859Y-91476643D01*
X135561431Y-91618048D01*
X135646464Y-91745309D01*
X135651155Y-91750000D01*
X135646464Y-91754691D01*
X135561431Y-91881952D01*
X135502859Y-92023357D01*
X135473000Y-92173472D01*
X135473000Y-92326528D01*
X135502859Y-92476643D01*
X135561431Y-92618048D01*
X135646464Y-92745309D01*
X135754691Y-92853536D01*
X135881952Y-92938569D01*
X136023357Y-92997141D01*
X136173472Y-93027000D01*
X136326528Y-93027000D01*
X136476643Y-92997141D01*
X136618048Y-92938569D01*
X136745309Y-92853536D01*
X136750000Y-92848845D01*
X136754691Y-92853536D01*
X136881952Y-92938569D01*
X137023357Y-92997141D01*
X137173472Y-93027000D01*
X137326528Y-93027000D01*
X137476643Y-92997141D01*
X137618048Y-92938569D01*
X137745309Y-92853536D01*
X137853536Y-92745309D01*
X137938569Y-92618048D01*
X137997141Y-92476643D01*
X138027000Y-92326528D01*
X138027000Y-92173472D01*
X137997141Y-92023357D01*
X137938569Y-91881952D01*
X137853536Y-91754691D01*
X137848845Y-91750000D01*
X137853536Y-91745309D01*
X137938569Y-91618048D01*
X137997141Y-91476643D01*
X138027000Y-91326528D01*
X138027000Y-91323472D01*
X139923000Y-91323472D01*
X139923000Y-91476528D01*
X139952859Y-91626643D01*
X140011431Y-91768048D01*
X140066190Y-91850000D01*
X140011431Y-91931952D01*
X139952859Y-92073357D01*
X139923000Y-92223472D01*
X139923000Y-92376528D01*
X139952859Y-92526643D01*
X140011431Y-92668048D01*
X140096464Y-92795309D01*
X140204691Y-92903536D01*
X140331952Y-92988569D01*
X140473357Y-93047141D01*
X140623472Y-93077000D01*
X140776528Y-93077000D01*
X140926643Y-93047141D01*
X141068048Y-92988569D01*
X141150000Y-92933810D01*
X141231952Y-92988569D01*
X141373357Y-93047141D01*
X141523472Y-93077000D01*
X141676528Y-93077000D01*
X141826643Y-93047141D01*
X141968048Y-92988569D01*
X142095309Y-92903536D01*
X142203536Y-92795309D01*
X142288569Y-92668048D01*
X142347141Y-92526643D01*
X142377000Y-92376528D01*
X142377000Y-92223472D01*
X142347141Y-92073357D01*
X142288569Y-91931952D01*
X142233810Y-91850000D01*
X142288569Y-91768048D01*
X142347141Y-91626643D01*
X142377000Y-91476528D01*
X142377000Y-91323472D01*
X142347141Y-91173357D01*
X142288569Y-91031952D01*
X142203536Y-90904691D01*
X142095309Y-90796464D01*
X141968048Y-90711431D01*
X141826643Y-90652859D01*
X141676528Y-90623000D01*
X141523472Y-90623000D01*
X141373357Y-90652859D01*
X141231952Y-90711431D01*
X141150000Y-90766190D01*
X141068048Y-90711431D01*
X140926643Y-90652859D01*
X140776528Y-90623000D01*
X140623472Y-90623000D01*
X140473357Y-90652859D01*
X140331952Y-90711431D01*
X140204691Y-90796464D01*
X140096464Y-90904691D01*
X140011431Y-91031952D01*
X139952859Y-91173357D01*
X139923000Y-91323472D01*
X138027000Y-91323472D01*
X138027000Y-91173472D01*
X137997141Y-91023357D01*
X137938569Y-90881952D01*
X137853536Y-90754691D01*
X137745309Y-90646464D01*
X137618048Y-90561431D01*
X137476643Y-90502859D01*
X137326528Y-90473000D01*
X137173472Y-90473000D01*
X137023357Y-90502859D01*
X136881952Y-90561431D01*
X136754691Y-90646464D01*
X136750000Y-90651155D01*
X136745309Y-90646464D01*
X136618048Y-90561431D01*
X136476643Y-90502859D01*
X136326528Y-90473000D01*
X136173472Y-90473000D01*
X136023357Y-90502859D01*
X135881952Y-90561431D01*
X135754691Y-90646464D01*
X135646464Y-90754691D01*
X135561431Y-90881952D01*
X135502859Y-91023357D01*
X135473000Y-91173472D01*
X129977000Y-91173472D01*
X129977000Y-89523334D01*
X129998727Y-89301739D01*
X130056303Y-89111039D01*
X130149828Y-88935145D01*
X130275731Y-88780773D01*
X130429224Y-88653792D01*
X130604459Y-88559043D01*
X130794758Y-88500135D01*
X131014878Y-88477000D01*
X153115076Y-88477000D01*
X153031952Y-88511431D01*
G37*
%TD.AperFunction*%
%TD*%
M02*
