%TF.GenerationSoftware,KiCad,Pcbnew,(5.1.9)-1*%
%TF.CreationDate,2021-05-08T20:51:41+01:00*%
%TF.ProjectId,TSDZ2-ESP32-Alt,5453445a-322d-4455-9350-33322d416c74,A*%
%TF.SameCoordinates,Original*%
%TF.FileFunction,Copper,L3,Inr*%
%TF.FilePolarity,Positive*%
%FSLAX46Y46*%
G04 Gerber Fmt 4.6, Leading zero omitted, Abs format (unit mm)*
G04 Created by KiCad (PCBNEW (5.1.9)-1) date 2021-05-08 20:51:41*
%MOMM*%
%LPD*%
G01*
G04 APERTURE LIST*
%TA.AperFunction,ComponentPad*%
%ADD10O,1.700000X1.700000*%
%TD*%
%TA.AperFunction,ComponentPad*%
%ADD11R,1.700000X1.700000*%
%TD*%
%TA.AperFunction,ViaPad*%
%ADD12C,0.800000*%
%TD*%
%TA.AperFunction,ViaPad*%
%ADD13C,0.600000*%
%TD*%
%TA.AperFunction,Conductor*%
%ADD14C,0.254000*%
%TD*%
%TA.AperFunction,Conductor*%
%ADD15C,0.100000*%
%TD*%
G04 APERTURE END LIST*
D10*
%TO.N,+3V3*%
%TO.C,J2*%
X175500000Y-106300000D03*
%TO.N,/~RST*%
X175500000Y-103760000D03*
%TO.N,/GPIO0*%
X175500000Y-101220000D03*
%TO.N,/RXD*%
X175500000Y-98680000D03*
%TO.N,/TXD*%
X175500000Y-96140000D03*
D11*
%TO.N,GND*%
X175500000Y-93600000D03*
%TD*%
D10*
%TO.N,GND*%
%TO.C,J4*%
X137280000Y-110000000D03*
%TO.N,+48V*%
X134740000Y-110000000D03*
D11*
%TO.N,/PSU_EN*%
X132200000Y-110000000D03*
%TD*%
D10*
%TO.N,/RXL*%
%TO.C,J3*%
X157800000Y-110100000D03*
%TO.N,/RXC*%
X155260000Y-110100000D03*
%TO.N,/TXL*%
X152720000Y-110100000D03*
D11*
%TO.N,/TXC*%
X150180000Y-110100000D03*
%TD*%
D10*
%TO.N,+3V3*%
%TO.C,U6*%
X146480000Y-110100000D03*
%TO.N,/DS18B20_DQ*%
X143940000Y-110100000D03*
D11*
%TO.N,GND*%
X141400000Y-110100000D03*
%TD*%
D12*
%TO.N,GND*%
X164920000Y-98300000D03*
X167000000Y-100400000D03*
X167000000Y-96200000D03*
X162800000Y-96200000D03*
X162800000Y-100400000D03*
X138600000Y-99500000D03*
X140200000Y-99500000D03*
X140800000Y-96400000D03*
X140800000Y-97600000D03*
X168200000Y-93800000D03*
X169400000Y-92100000D03*
X166300000Y-92100000D03*
X166400000Y-93100000D03*
X165400000Y-92800000D03*
X165100000Y-91800000D03*
X167800000Y-90300000D03*
X168800000Y-92900000D03*
X169300000Y-94100000D03*
X167800000Y-89100000D03*
X165100000Y-90900000D03*
X165100000Y-90000000D03*
X165100000Y-89100000D03*
X139000000Y-106300000D03*
X139000000Y-107200000D03*
X139000000Y-108100000D03*
X139900000Y-107800000D03*
X139900000Y-106900000D03*
X139900000Y-106000000D03*
X139300000Y-110000000D03*
X137400000Y-108400000D03*
X130500000Y-110700000D03*
X138700000Y-111000000D03*
X148300000Y-110900000D03*
X159600000Y-110900000D03*
X169200000Y-110700000D03*
X130600000Y-90300000D03*
X130600000Y-89400000D03*
X134600000Y-89100000D03*
X134600000Y-90400000D03*
X149350000Y-104450000D03*
X159900000Y-101500000D03*
X155750000Y-99299998D03*
X141100000Y-89700000D03*
X148000000Y-90400000D03*
X165000000Y-103800000D03*
X166600000Y-105300000D03*
X151900000Y-105300000D03*
X151600000Y-89000000D03*
X151600000Y-95200000D03*
X154000000Y-95300000D03*
X155100000Y-89200000D03*
X159700000Y-91400000D03*
X161400000Y-93600000D03*
X150600000Y-97700000D03*
X148700000Y-92600000D03*
X146300000Y-88900000D03*
X140000000Y-100700000D03*
X130900000Y-106650000D03*
X134250000Y-92750000D03*
X134250000Y-94500000D03*
X137000000Y-94500000D03*
X140000000Y-94500000D03*
X143500000Y-95250000D03*
X145500000Y-95000000D03*
X147750000Y-94000000D03*
X158400000Y-105800000D03*
X160600000Y-103500000D03*
X162300000Y-102900000D03*
X161100000Y-105600000D03*
X158500000Y-107400000D03*
X161300000Y-108800000D03*
X164200000Y-106500000D03*
X169600000Y-105200000D03*
X169300000Y-107700000D03*
X164300000Y-111000000D03*
X166300000Y-108900000D03*
X143100000Y-108400000D03*
X143700000Y-105700000D03*
X147000000Y-105400000D03*
X145600000Y-100200000D03*
X145700000Y-97400000D03*
X142800000Y-100300000D03*
X143300000Y-97900000D03*
X145300000Y-104600000D03*
X133400000Y-104400000D03*
X133800000Y-108400000D03*
X133700000Y-111200000D03*
X156400000Y-94600000D03*
X157500000Y-95600000D03*
X158900000Y-94800000D03*
X154100000Y-108200000D03*
X156500000Y-108700000D03*
X156500000Y-111200000D03*
X154000000Y-111200000D03*
X151700000Y-111300000D03*
X151600000Y-108600000D03*
X149800000Y-107800000D03*
X147000000Y-108600000D03*
X143100000Y-111300000D03*
X145200000Y-108400000D03*
X145200000Y-111200000D03*
X141500000Y-104300000D03*
%TO.N,+5V*%
X139200000Y-104200000D03*
X135600000Y-98300000D03*
X158400000Y-104500000D03*
%TO.N,+3V3*%
X140700000Y-92300000D03*
X140700000Y-91400000D03*
X141600000Y-92300000D03*
X141600000Y-91400000D03*
X149300000Y-100050006D03*
X169400044Y-103800000D03*
X169600000Y-97700000D03*
X169600000Y-96600000D03*
X152500000Y-98200000D03*
X158900000Y-98900000D03*
D13*
X164999992Y-93699992D03*
D12*
X153400000Y-89200000D03*
X155900000Y-93500000D03*
X159847503Y-89695005D03*
X148300000Y-107900000D03*
D13*
%TO.N,/SCL*%
X156700000Y-97300000D03*
X156400000Y-92300000D03*
X155700002Y-96300000D03*
%TO.N,/SDA*%
X158100000Y-92300000D03*
X157400000Y-96900000D03*
X156400000Y-95700000D03*
%TO.N,/DS18B20_DQ*%
X154000000Y-106600000D03*
X150099998Y-106600002D03*
%TO.N,/~RST*%
X173350000Y-100150000D03*
X163650000Y-93800000D03*
X147000000Y-101750000D03*
X160249995Y-90499995D03*
%TO.N,/GPIO0*%
X160393007Y-100567439D03*
%TO.N,/GPIO26*%
X152900000Y-99300000D03*
X160024994Y-97202234D03*
%TO.N,/GPIO27*%
X151000000Y-99300000D03*
X160100000Y-98000000D03*
%TO.N,/GPIO33*%
X156800000Y-99499998D03*
X160199143Y-95496990D03*
X149300000Y-95800000D03*
%TO.N,/~PSU_RST*%
X139900000Y-101800000D03*
X142750000Y-101750000D03*
D12*
%TO.N,Net-(JP2-Pad1)*%
X136250000Y-91250000D03*
X136250000Y-92250000D03*
X137250000Y-92250000D03*
X137250000Y-91250000D03*
%TD*%
D14*
%TO.N,+3V3*%
X134104691Y-88496464D02*
X133996464Y-88604691D01*
X133911431Y-88731952D01*
X133852859Y-88873357D01*
X133823000Y-89023472D01*
X133823000Y-89176528D01*
X133852859Y-89326643D01*
X133911431Y-89468048D01*
X133996464Y-89595309D01*
X134104691Y-89703536D01*
X134174229Y-89750000D01*
X134104691Y-89796464D01*
X133996464Y-89904691D01*
X133911431Y-90031952D01*
X133852859Y-90173357D01*
X133823000Y-90323472D01*
X133823000Y-90476528D01*
X133852859Y-90626643D01*
X133911431Y-90768048D01*
X133996464Y-90895309D01*
X134104691Y-91003536D01*
X134231952Y-91088569D01*
X134373357Y-91147141D01*
X134523472Y-91177000D01*
X134676528Y-91177000D01*
X134694264Y-91173472D01*
X135473000Y-91173472D01*
X135473000Y-91326528D01*
X135502859Y-91476643D01*
X135561431Y-91618048D01*
X135646464Y-91745309D01*
X135651155Y-91750000D01*
X135646464Y-91754691D01*
X135561431Y-91881952D01*
X135502859Y-92023357D01*
X135473000Y-92173472D01*
X135473000Y-92326528D01*
X135502859Y-92476643D01*
X135561431Y-92618048D01*
X135646464Y-92745309D01*
X135754691Y-92853536D01*
X135881952Y-92938569D01*
X136023357Y-92997141D01*
X136173472Y-93027000D01*
X136326528Y-93027000D01*
X136476643Y-92997141D01*
X136618048Y-92938569D01*
X136745309Y-92853536D01*
X136750000Y-92848845D01*
X136754691Y-92853536D01*
X136881952Y-92938569D01*
X137023357Y-92997141D01*
X137173472Y-93027000D01*
X137326528Y-93027000D01*
X137476643Y-92997141D01*
X137618048Y-92938569D01*
X137745309Y-92853536D01*
X137853536Y-92745309D01*
X137938569Y-92618048D01*
X137977743Y-92523472D01*
X147923000Y-92523472D01*
X147923000Y-92676528D01*
X147952859Y-92826643D01*
X148011431Y-92968048D01*
X148096464Y-93095309D01*
X148204691Y-93203536D01*
X148331952Y-93288569D01*
X148473357Y-93347141D01*
X148623472Y-93377000D01*
X148776528Y-93377000D01*
X148926643Y-93347141D01*
X149068048Y-93288569D01*
X149195309Y-93203536D01*
X149303536Y-93095309D01*
X149388569Y-92968048D01*
X149447141Y-92826643D01*
X149477000Y-92676528D01*
X149477000Y-92523472D01*
X149447141Y-92373357D01*
X149389137Y-92233321D01*
X155723000Y-92233321D01*
X155723000Y-92366679D01*
X155749016Y-92497474D01*
X155800050Y-92620680D01*
X155874140Y-92731563D01*
X155968437Y-92825860D01*
X156079320Y-92899950D01*
X156202526Y-92950984D01*
X156333321Y-92977000D01*
X156466679Y-92977000D01*
X156597474Y-92950984D01*
X156720680Y-92899950D01*
X156831563Y-92825860D01*
X156925860Y-92731563D01*
X156999950Y-92620680D01*
X157050984Y-92497474D01*
X157077000Y-92366679D01*
X157077000Y-92233321D01*
X157423000Y-92233321D01*
X157423000Y-92366679D01*
X157449016Y-92497474D01*
X157500050Y-92620680D01*
X157574140Y-92731563D01*
X157668437Y-92825860D01*
X157779320Y-92899950D01*
X157902526Y-92950984D01*
X158033321Y-92977000D01*
X158166679Y-92977000D01*
X158297474Y-92950984D01*
X158420680Y-92899950D01*
X158531563Y-92825860D01*
X158625860Y-92731563D01*
X158699950Y-92620680D01*
X158750984Y-92497474D01*
X158777000Y-92366679D01*
X158777000Y-92233321D01*
X158750984Y-92102526D01*
X158699950Y-91979320D01*
X158625860Y-91868437D01*
X158531563Y-91774140D01*
X158420680Y-91700050D01*
X158297474Y-91649016D01*
X158166679Y-91623000D01*
X158033321Y-91623000D01*
X157902526Y-91649016D01*
X157779320Y-91700050D01*
X157668437Y-91774140D01*
X157574140Y-91868437D01*
X157500050Y-91979320D01*
X157449016Y-92102526D01*
X157423000Y-92233321D01*
X157077000Y-92233321D01*
X157050984Y-92102526D01*
X156999950Y-91979320D01*
X156925860Y-91868437D01*
X156831563Y-91774140D01*
X156720680Y-91700050D01*
X156597474Y-91649016D01*
X156466679Y-91623000D01*
X156333321Y-91623000D01*
X156202526Y-91649016D01*
X156079320Y-91700050D01*
X155968437Y-91774140D01*
X155874140Y-91868437D01*
X155800050Y-91979320D01*
X155749016Y-92102526D01*
X155723000Y-92233321D01*
X149389137Y-92233321D01*
X149388569Y-92231952D01*
X149303536Y-92104691D01*
X149195309Y-91996464D01*
X149068048Y-91911431D01*
X148926643Y-91852859D01*
X148776528Y-91823000D01*
X148623472Y-91823000D01*
X148473357Y-91852859D01*
X148331952Y-91911431D01*
X148204691Y-91996464D01*
X148096464Y-92104691D01*
X148011431Y-92231952D01*
X147952859Y-92373357D01*
X147923000Y-92523472D01*
X137977743Y-92523472D01*
X137997141Y-92476643D01*
X138027000Y-92326528D01*
X138027000Y-92173472D01*
X137997141Y-92023357D01*
X137938569Y-91881952D01*
X137853536Y-91754691D01*
X137848845Y-91750000D01*
X137853536Y-91745309D01*
X137938569Y-91618048D01*
X137997141Y-91476643D01*
X138027000Y-91326528D01*
X138027000Y-91323472D01*
X158923000Y-91323472D01*
X158923000Y-91476528D01*
X158952859Y-91626643D01*
X159011431Y-91768048D01*
X159096464Y-91895309D01*
X159204691Y-92003536D01*
X159331952Y-92088569D01*
X159473357Y-92147141D01*
X159623472Y-92177000D01*
X159776528Y-92177000D01*
X159926643Y-92147141D01*
X160068048Y-92088569D01*
X160195309Y-92003536D01*
X160303536Y-91895309D01*
X160388569Y-91768048D01*
X160447141Y-91626643D01*
X160477000Y-91476528D01*
X160477000Y-91323472D01*
X160447141Y-91173357D01*
X160438602Y-91152743D01*
X160447469Y-91150979D01*
X160570675Y-91099945D01*
X160681558Y-91025855D01*
X160775855Y-90931558D01*
X160849945Y-90820675D01*
X160900979Y-90697469D01*
X160926995Y-90566674D01*
X160926995Y-90433316D01*
X160900979Y-90302521D01*
X160849945Y-90179315D01*
X160775855Y-90068432D01*
X160681558Y-89974135D01*
X160570675Y-89900045D01*
X160447469Y-89849011D01*
X160316674Y-89822995D01*
X160183316Y-89822995D01*
X160052521Y-89849011D01*
X159929315Y-89900045D01*
X159818432Y-89974135D01*
X159724135Y-90068432D01*
X159650045Y-90179315D01*
X159599011Y-90302521D01*
X159572995Y-90433316D01*
X159572995Y-90566674D01*
X159585693Y-90630514D01*
X159473357Y-90652859D01*
X159331952Y-90711431D01*
X159204691Y-90796464D01*
X159096464Y-90904691D01*
X159011431Y-91031952D01*
X158952859Y-91173357D01*
X158923000Y-91323472D01*
X138027000Y-91323472D01*
X138027000Y-91173472D01*
X137997141Y-91023357D01*
X137938569Y-90881952D01*
X137853536Y-90754691D01*
X137745309Y-90646464D01*
X137618048Y-90561431D01*
X137476643Y-90502859D01*
X137326528Y-90473000D01*
X137173472Y-90473000D01*
X137023357Y-90502859D01*
X136881952Y-90561431D01*
X136754691Y-90646464D01*
X136750000Y-90651155D01*
X136745309Y-90646464D01*
X136618048Y-90561431D01*
X136476643Y-90502859D01*
X136326528Y-90473000D01*
X136173472Y-90473000D01*
X136023357Y-90502859D01*
X135881952Y-90561431D01*
X135754691Y-90646464D01*
X135646464Y-90754691D01*
X135561431Y-90881952D01*
X135502859Y-91023357D01*
X135473000Y-91173472D01*
X134694264Y-91173472D01*
X134826643Y-91147141D01*
X134968048Y-91088569D01*
X135095309Y-91003536D01*
X135203536Y-90895309D01*
X135288569Y-90768048D01*
X135347141Y-90626643D01*
X135377000Y-90476528D01*
X135377000Y-90323472D01*
X135347141Y-90173357D01*
X135288569Y-90031952D01*
X135203536Y-89904691D01*
X135095309Y-89796464D01*
X135025771Y-89750000D01*
X135095309Y-89703536D01*
X135175373Y-89623472D01*
X140323000Y-89623472D01*
X140323000Y-89776528D01*
X140352859Y-89926643D01*
X140411431Y-90068048D01*
X140496464Y-90195309D01*
X140604691Y-90303536D01*
X140731952Y-90388569D01*
X140873357Y-90447141D01*
X141023472Y-90477000D01*
X141176528Y-90477000D01*
X141326643Y-90447141D01*
X141468048Y-90388569D01*
X141565472Y-90323472D01*
X147223000Y-90323472D01*
X147223000Y-90476528D01*
X147252859Y-90626643D01*
X147311431Y-90768048D01*
X147396464Y-90895309D01*
X147504691Y-91003536D01*
X147631952Y-91088569D01*
X147773357Y-91147141D01*
X147923472Y-91177000D01*
X148076528Y-91177000D01*
X148226643Y-91147141D01*
X148368048Y-91088569D01*
X148495309Y-91003536D01*
X148603536Y-90895309D01*
X148688569Y-90768048D01*
X148747141Y-90626643D01*
X148777000Y-90476528D01*
X148777000Y-90323472D01*
X148747141Y-90173357D01*
X148688569Y-90031952D01*
X148603536Y-89904691D01*
X148495309Y-89796464D01*
X148368048Y-89711431D01*
X148226643Y-89652859D01*
X148076528Y-89623000D01*
X147923472Y-89623000D01*
X147773357Y-89652859D01*
X147631952Y-89711431D01*
X147504691Y-89796464D01*
X147396464Y-89904691D01*
X147311431Y-90031952D01*
X147252859Y-90173357D01*
X147223000Y-90323472D01*
X141565472Y-90323472D01*
X141595309Y-90303536D01*
X141703536Y-90195309D01*
X141788569Y-90068048D01*
X141847141Y-89926643D01*
X141877000Y-89776528D01*
X141877000Y-89623472D01*
X141847141Y-89473357D01*
X141788569Y-89331952D01*
X141703536Y-89204691D01*
X141595309Y-89096464D01*
X141468048Y-89011431D01*
X141326643Y-88952859D01*
X141176528Y-88923000D01*
X141023472Y-88923000D01*
X140873357Y-88952859D01*
X140731952Y-89011431D01*
X140604691Y-89096464D01*
X140496464Y-89204691D01*
X140411431Y-89331952D01*
X140352859Y-89473357D01*
X140323000Y-89623472D01*
X135175373Y-89623472D01*
X135203536Y-89595309D01*
X135288569Y-89468048D01*
X135347141Y-89326643D01*
X135377000Y-89176528D01*
X135377000Y-89023472D01*
X135347141Y-88873357D01*
X135288569Y-88731952D01*
X135203536Y-88604691D01*
X135095309Y-88496464D01*
X135066179Y-88477000D01*
X145648149Y-88477000D01*
X145611431Y-88531952D01*
X145552859Y-88673357D01*
X145523000Y-88823472D01*
X145523000Y-88976528D01*
X145552859Y-89126643D01*
X145611431Y-89268048D01*
X145696464Y-89395309D01*
X145804691Y-89503536D01*
X145931952Y-89588569D01*
X146073357Y-89647141D01*
X146223472Y-89677000D01*
X146376528Y-89677000D01*
X146526643Y-89647141D01*
X146668048Y-89588569D01*
X146795309Y-89503536D01*
X146903536Y-89395309D01*
X146988569Y-89268048D01*
X147047141Y-89126643D01*
X147077000Y-88976528D01*
X147077000Y-88823472D01*
X147047141Y-88673357D01*
X146988569Y-88531952D01*
X146951851Y-88477000D01*
X151024155Y-88477000D01*
X150996464Y-88504691D01*
X150911431Y-88631952D01*
X150852859Y-88773357D01*
X150823000Y-88923472D01*
X150823000Y-89076528D01*
X150852859Y-89226643D01*
X150911431Y-89368048D01*
X150996464Y-89495309D01*
X151104691Y-89603536D01*
X151231952Y-89688569D01*
X151373357Y-89747141D01*
X151523472Y-89777000D01*
X151676528Y-89777000D01*
X151826643Y-89747141D01*
X151968048Y-89688569D01*
X152095309Y-89603536D01*
X152203536Y-89495309D01*
X152288569Y-89368048D01*
X152347141Y-89226643D01*
X152377000Y-89076528D01*
X152377000Y-88923472D01*
X152347141Y-88773357D01*
X152288569Y-88631952D01*
X152203536Y-88504691D01*
X152175845Y-88477000D01*
X154815076Y-88477000D01*
X154731952Y-88511431D01*
X154604691Y-88596464D01*
X154496464Y-88704691D01*
X154411431Y-88831952D01*
X154352859Y-88973357D01*
X154323000Y-89123472D01*
X154323000Y-89276528D01*
X154352859Y-89426643D01*
X154411431Y-89568048D01*
X154496464Y-89695309D01*
X154604691Y-89803536D01*
X154731952Y-89888569D01*
X154873357Y-89947141D01*
X155023472Y-89977000D01*
X155176528Y-89977000D01*
X155326643Y-89947141D01*
X155468048Y-89888569D01*
X155595309Y-89803536D01*
X155703536Y-89695309D01*
X155788569Y-89568048D01*
X155847141Y-89426643D01*
X155877000Y-89276528D01*
X155877000Y-89123472D01*
X155847141Y-88973357D01*
X155788569Y-88831952D01*
X155703536Y-88704691D01*
X155595309Y-88596464D01*
X155468048Y-88511431D01*
X155384924Y-88477000D01*
X164633821Y-88477000D01*
X164604691Y-88496464D01*
X164496464Y-88604691D01*
X164411431Y-88731952D01*
X164352859Y-88873357D01*
X164323000Y-89023472D01*
X164323000Y-89176528D01*
X164352859Y-89326643D01*
X164411431Y-89468048D01*
X164466190Y-89550000D01*
X164411431Y-89631952D01*
X164352859Y-89773357D01*
X164323000Y-89923472D01*
X164323000Y-90076528D01*
X164352859Y-90226643D01*
X164411431Y-90368048D01*
X164466190Y-90450000D01*
X164411431Y-90531952D01*
X164352859Y-90673357D01*
X164323000Y-90823472D01*
X164323000Y-90976528D01*
X164352859Y-91126643D01*
X164411431Y-91268048D01*
X164466190Y-91350000D01*
X164411431Y-91431952D01*
X164352859Y-91573357D01*
X164323000Y-91723472D01*
X164323000Y-91876528D01*
X164352859Y-92026643D01*
X164411431Y-92168048D01*
X164496464Y-92295309D01*
X164604691Y-92403536D01*
X164697511Y-92465557D01*
X164652859Y-92573357D01*
X164623000Y-92723472D01*
X164623000Y-92876528D01*
X164652859Y-93026643D01*
X164711431Y-93168048D01*
X164796464Y-93295309D01*
X164904691Y-93403536D01*
X165031952Y-93488569D01*
X165173357Y-93547141D01*
X165323472Y-93577000D01*
X165476528Y-93577000D01*
X165626643Y-93547141D01*
X165734443Y-93502489D01*
X165796464Y-93595309D01*
X165904691Y-93703536D01*
X166031952Y-93788569D01*
X166173357Y-93847141D01*
X166323472Y-93877000D01*
X166476528Y-93877000D01*
X166626643Y-93847141D01*
X166768048Y-93788569D01*
X166895309Y-93703536D01*
X167003536Y-93595309D01*
X167088569Y-93468048D01*
X167147141Y-93326643D01*
X167177000Y-93176528D01*
X167177000Y-93023472D01*
X167147141Y-92873357D01*
X167088569Y-92731952D01*
X167003536Y-92604691D01*
X166939832Y-92540987D01*
X166988569Y-92468048D01*
X167047141Y-92326643D01*
X167077000Y-92176528D01*
X167077000Y-92023472D01*
X167047141Y-91873357D01*
X166988569Y-91731952D01*
X166903536Y-91604691D01*
X166795309Y-91496464D01*
X166668048Y-91411431D01*
X166526643Y-91352859D01*
X166376528Y-91323000D01*
X166223472Y-91323000D01*
X166073357Y-91352859D01*
X165931952Y-91411431D01*
X165812993Y-91490917D01*
X165788569Y-91431952D01*
X165733810Y-91350000D01*
X165788569Y-91268048D01*
X165847141Y-91126643D01*
X165877000Y-90976528D01*
X165877000Y-90823472D01*
X165847141Y-90673357D01*
X165788569Y-90531952D01*
X165733810Y-90450000D01*
X165788569Y-90368048D01*
X165847141Y-90226643D01*
X165877000Y-90076528D01*
X165877000Y-89923472D01*
X165847141Y-89773357D01*
X165788569Y-89631952D01*
X165733810Y-89550000D01*
X165788569Y-89468048D01*
X165847141Y-89326643D01*
X165877000Y-89176528D01*
X165877000Y-89023472D01*
X165847141Y-88873357D01*
X165788569Y-88731952D01*
X165703536Y-88604691D01*
X165595309Y-88496464D01*
X165566179Y-88477000D01*
X167333821Y-88477000D01*
X167304691Y-88496464D01*
X167196464Y-88604691D01*
X167111431Y-88731952D01*
X167052859Y-88873357D01*
X167023000Y-89023472D01*
X167023000Y-89176528D01*
X167052859Y-89326643D01*
X167111431Y-89468048D01*
X167196464Y-89595309D01*
X167301155Y-89700000D01*
X167196464Y-89804691D01*
X167111431Y-89931952D01*
X167052859Y-90073357D01*
X167023000Y-90223472D01*
X167023000Y-90376528D01*
X167052859Y-90526643D01*
X167111431Y-90668048D01*
X167196464Y-90795309D01*
X167304691Y-90903536D01*
X167431952Y-90988569D01*
X167573357Y-91047141D01*
X167723472Y-91077000D01*
X167876528Y-91077000D01*
X168026643Y-91047141D01*
X168168048Y-90988569D01*
X168295309Y-90903536D01*
X168403536Y-90795309D01*
X168488569Y-90668048D01*
X168547141Y-90526643D01*
X168577000Y-90376528D01*
X168577000Y-90223472D01*
X168547141Y-90073357D01*
X168488569Y-89931952D01*
X168403536Y-89804691D01*
X168298845Y-89700000D01*
X168403536Y-89595309D01*
X168488569Y-89468048D01*
X168547141Y-89326643D01*
X168577000Y-89176528D01*
X168577000Y-89023472D01*
X168547141Y-88873357D01*
X168488569Y-88731952D01*
X168403536Y-88604691D01*
X168295309Y-88496464D01*
X168266179Y-88477000D01*
X168976666Y-88477000D01*
X169198261Y-88498727D01*
X169388961Y-88556303D01*
X169564855Y-88649828D01*
X169719227Y-88775731D01*
X169846208Y-88929224D01*
X169940957Y-89104459D01*
X169999865Y-89294758D01*
X170023001Y-89514888D01*
X170023001Y-91633822D01*
X170003536Y-91604691D01*
X169895309Y-91496464D01*
X169768048Y-91411431D01*
X169626643Y-91352859D01*
X169476528Y-91323000D01*
X169323472Y-91323000D01*
X169173357Y-91352859D01*
X169031952Y-91411431D01*
X168904691Y-91496464D01*
X168796464Y-91604691D01*
X168711431Y-91731952D01*
X168652859Y-91873357D01*
X168623000Y-92023472D01*
X168623000Y-92142985D01*
X168573357Y-92152859D01*
X168431952Y-92211431D01*
X168304691Y-92296464D01*
X168196464Y-92404691D01*
X168111431Y-92531952D01*
X168052859Y-92673357D01*
X168023000Y-92823472D01*
X168023000Y-92976528D01*
X168035716Y-93040455D01*
X167973357Y-93052859D01*
X167831952Y-93111431D01*
X167704691Y-93196464D01*
X167596464Y-93304691D01*
X167511431Y-93431952D01*
X167452859Y-93573357D01*
X167423000Y-93723472D01*
X167423000Y-93876528D01*
X167452859Y-94026643D01*
X167511431Y-94168048D01*
X167596464Y-94295309D01*
X167704691Y-94403536D01*
X167831952Y-94488569D01*
X167973357Y-94547141D01*
X168123472Y-94577000D01*
X168276528Y-94577000D01*
X168426643Y-94547141D01*
X168568048Y-94488569D01*
X168608684Y-94461417D01*
X168611431Y-94468048D01*
X168696464Y-94595309D01*
X168804691Y-94703536D01*
X168931952Y-94788569D01*
X169073357Y-94847141D01*
X169223472Y-94877000D01*
X169376528Y-94877000D01*
X169526643Y-94847141D01*
X169668048Y-94788569D01*
X169795309Y-94703536D01*
X169903536Y-94595309D01*
X169988569Y-94468048D01*
X170023000Y-94384923D01*
X170023000Y-97623422D01*
X170025024Y-97643969D01*
X170024985Y-97649514D01*
X170025635Y-97656142D01*
X170043995Y-97830829D01*
X170052691Y-97873192D01*
X170060789Y-97915647D01*
X170062071Y-97919893D01*
X170003004Y-97944360D01*
X169900311Y-98012977D01*
X169812977Y-98100311D01*
X169744360Y-98203004D01*
X169697095Y-98317111D01*
X169673000Y-98438246D01*
X169673000Y-98561754D01*
X169697095Y-98682889D01*
X169744360Y-98796996D01*
X169812977Y-98899689D01*
X169900311Y-98987023D01*
X170003004Y-99055640D01*
X170117111Y-99102905D01*
X170123000Y-99104076D01*
X170123000Y-99445924D01*
X170117111Y-99447095D01*
X170003004Y-99494360D01*
X169900311Y-99562977D01*
X169812977Y-99650311D01*
X169744360Y-99753004D01*
X169697095Y-99867111D01*
X169673000Y-99988246D01*
X169673000Y-100111754D01*
X169697095Y-100232889D01*
X169744360Y-100346996D01*
X169812977Y-100449689D01*
X169900311Y-100537023D01*
X170003004Y-100605640D01*
X170117111Y-100652905D01*
X170123000Y-100654076D01*
X170123000Y-100895924D01*
X170117111Y-100897095D01*
X170003004Y-100944360D01*
X169900311Y-101012977D01*
X169812977Y-101100311D01*
X169744360Y-101203004D01*
X169697095Y-101317111D01*
X169673000Y-101438246D01*
X169673000Y-101561754D01*
X169697095Y-101682889D01*
X169744360Y-101796996D01*
X169812977Y-101899689D01*
X169900311Y-101987023D01*
X170003004Y-102055640D01*
X170062609Y-102080329D01*
X170060499Y-102087319D01*
X170052098Y-102129746D01*
X170043112Y-102172019D01*
X170042416Y-102178643D01*
X170025276Y-102353454D01*
X170025276Y-102353470D01*
X170023000Y-102376578D01*
X170023000Y-104548149D01*
X169968048Y-104511431D01*
X169826643Y-104452859D01*
X169676528Y-104423000D01*
X169523472Y-104423000D01*
X169373357Y-104452859D01*
X169231952Y-104511431D01*
X169104691Y-104596464D01*
X168996464Y-104704691D01*
X168911431Y-104831952D01*
X168852859Y-104973357D01*
X168823000Y-105123472D01*
X168823000Y-105276528D01*
X168852859Y-105426643D01*
X168911431Y-105568048D01*
X168996464Y-105695309D01*
X169104691Y-105803536D01*
X169231952Y-105888569D01*
X169373357Y-105947141D01*
X169523472Y-105977000D01*
X169676528Y-105977000D01*
X169826643Y-105947141D01*
X169968048Y-105888569D01*
X170023000Y-105851851D01*
X170023001Y-107415077D01*
X169988569Y-107331952D01*
X169903536Y-107204691D01*
X169795309Y-107096464D01*
X169668048Y-107011431D01*
X169526643Y-106952859D01*
X169376528Y-106923000D01*
X169223472Y-106923000D01*
X169073357Y-106952859D01*
X168931952Y-107011431D01*
X168804691Y-107096464D01*
X168696464Y-107204691D01*
X168611431Y-107331952D01*
X168552859Y-107473357D01*
X168523000Y-107623472D01*
X168523000Y-107776528D01*
X168552859Y-107926643D01*
X168611431Y-108068048D01*
X168696464Y-108195309D01*
X168804691Y-108303536D01*
X168931952Y-108388569D01*
X169073357Y-108447141D01*
X169223472Y-108477000D01*
X169376528Y-108477000D01*
X169526643Y-108447141D01*
X169668048Y-108388569D01*
X169795309Y-108303536D01*
X169903536Y-108195309D01*
X169988569Y-108068048D01*
X170023001Y-107984923D01*
X170023001Y-110476656D01*
X170001273Y-110698261D01*
X169975760Y-110782764D01*
X169977000Y-110776528D01*
X169977000Y-110623472D01*
X169947141Y-110473357D01*
X169888569Y-110331952D01*
X169803536Y-110204691D01*
X169695309Y-110096464D01*
X169568048Y-110011431D01*
X169426643Y-109952859D01*
X169276528Y-109923000D01*
X169123472Y-109923000D01*
X168973357Y-109952859D01*
X168831952Y-110011431D01*
X168704691Y-110096464D01*
X168596464Y-110204691D01*
X168511431Y-110331952D01*
X168452859Y-110473357D01*
X168423000Y-110623472D01*
X168423000Y-110776528D01*
X168452859Y-110926643D01*
X168511431Y-111068048D01*
X168596464Y-111195309D01*
X168704691Y-111303536D01*
X168831952Y-111388569D01*
X168973357Y-111447141D01*
X169123472Y-111477000D01*
X169276528Y-111477000D01*
X169283742Y-111475565D01*
X169205242Y-111499865D01*
X168985122Y-111523000D01*
X164875845Y-111523000D01*
X164903536Y-111495309D01*
X164988569Y-111368048D01*
X165047141Y-111226643D01*
X165077000Y-111076528D01*
X165077000Y-110923472D01*
X165047141Y-110773357D01*
X164988569Y-110631952D01*
X164903536Y-110504691D01*
X164795309Y-110396464D01*
X164668048Y-110311431D01*
X164526643Y-110252859D01*
X164376528Y-110223000D01*
X164223472Y-110223000D01*
X164073357Y-110252859D01*
X163931952Y-110311431D01*
X163804691Y-110396464D01*
X163696464Y-110504691D01*
X163611431Y-110631952D01*
X163552859Y-110773357D01*
X163523000Y-110923472D01*
X163523000Y-111076528D01*
X163552859Y-111226643D01*
X163611431Y-111368048D01*
X163696464Y-111495309D01*
X163724155Y-111523000D01*
X160066179Y-111523000D01*
X160095309Y-111503536D01*
X160203536Y-111395309D01*
X160288569Y-111268048D01*
X160347141Y-111126643D01*
X160377000Y-110976528D01*
X160377000Y-110823472D01*
X160347141Y-110673357D01*
X160288569Y-110531952D01*
X160203536Y-110404691D01*
X160095309Y-110296464D01*
X159968048Y-110211431D01*
X159826643Y-110152859D01*
X159676528Y-110123000D01*
X159523472Y-110123000D01*
X159373357Y-110152859D01*
X159231952Y-110211431D01*
X159104691Y-110296464D01*
X158996464Y-110404691D01*
X158987874Y-110417546D01*
X159027000Y-110220849D01*
X159027000Y-109979151D01*
X158979847Y-109742097D01*
X158887353Y-109518798D01*
X158753073Y-109317833D01*
X158582167Y-109146927D01*
X158381202Y-109012647D01*
X158157903Y-108920153D01*
X157920849Y-108873000D01*
X157679151Y-108873000D01*
X157442097Y-108920153D01*
X157218798Y-109012647D01*
X157208731Y-109019374D01*
X157247141Y-108926643D01*
X157277000Y-108776528D01*
X157277000Y-108723472D01*
X160523000Y-108723472D01*
X160523000Y-108876528D01*
X160552859Y-109026643D01*
X160611431Y-109168048D01*
X160696464Y-109295309D01*
X160804691Y-109403536D01*
X160931952Y-109488569D01*
X161073357Y-109547141D01*
X161223472Y-109577000D01*
X161376528Y-109577000D01*
X161526643Y-109547141D01*
X161668048Y-109488569D01*
X161795309Y-109403536D01*
X161903536Y-109295309D01*
X161988569Y-109168048D01*
X162047141Y-109026643D01*
X162077000Y-108876528D01*
X162077000Y-108823472D01*
X165523000Y-108823472D01*
X165523000Y-108976528D01*
X165552859Y-109126643D01*
X165611431Y-109268048D01*
X165696464Y-109395309D01*
X165804691Y-109503536D01*
X165931952Y-109588569D01*
X166073357Y-109647141D01*
X166223472Y-109677000D01*
X166376528Y-109677000D01*
X166526643Y-109647141D01*
X166668048Y-109588569D01*
X166795309Y-109503536D01*
X166903536Y-109395309D01*
X166988569Y-109268048D01*
X167047141Y-109126643D01*
X167077000Y-108976528D01*
X167077000Y-108823472D01*
X167047141Y-108673357D01*
X166988569Y-108531952D01*
X166903536Y-108404691D01*
X166795309Y-108296464D01*
X166668048Y-108211431D01*
X166526643Y-108152859D01*
X166376528Y-108123000D01*
X166223472Y-108123000D01*
X166073357Y-108152859D01*
X165931952Y-108211431D01*
X165804691Y-108296464D01*
X165696464Y-108404691D01*
X165611431Y-108531952D01*
X165552859Y-108673357D01*
X165523000Y-108823472D01*
X162077000Y-108823472D01*
X162077000Y-108723472D01*
X162047141Y-108573357D01*
X161988569Y-108431952D01*
X161903536Y-108304691D01*
X161795309Y-108196464D01*
X161668048Y-108111431D01*
X161526643Y-108052859D01*
X161376528Y-108023000D01*
X161223472Y-108023000D01*
X161073357Y-108052859D01*
X160931952Y-108111431D01*
X160804691Y-108196464D01*
X160696464Y-108304691D01*
X160611431Y-108431952D01*
X160552859Y-108573357D01*
X160523000Y-108723472D01*
X157277000Y-108723472D01*
X157277000Y-108623472D01*
X157247141Y-108473357D01*
X157188569Y-108331952D01*
X157103536Y-108204691D01*
X156995309Y-108096464D01*
X156868048Y-108011431D01*
X156726643Y-107952859D01*
X156576528Y-107923000D01*
X156423472Y-107923000D01*
X156273357Y-107952859D01*
X156131952Y-108011431D01*
X156004691Y-108096464D01*
X155896464Y-108204691D01*
X155811431Y-108331952D01*
X155752859Y-108473357D01*
X155723000Y-108623472D01*
X155723000Y-108776528D01*
X155752859Y-108926643D01*
X155777565Y-108986287D01*
X155617903Y-108920153D01*
X155380849Y-108873000D01*
X155139151Y-108873000D01*
X154902097Y-108920153D01*
X154678798Y-109012647D01*
X154477833Y-109146927D01*
X154306927Y-109317833D01*
X154172647Y-109518798D01*
X154080153Y-109742097D01*
X154033000Y-109979151D01*
X154033000Y-110220849D01*
X154073210Y-110423000D01*
X153923472Y-110423000D01*
X153906102Y-110426455D01*
X153947000Y-110220849D01*
X153947000Y-109979151D01*
X153899847Y-109742097D01*
X153807353Y-109518798D01*
X153673073Y-109317833D01*
X153502167Y-109146927D01*
X153301202Y-109012647D01*
X153077903Y-108920153D01*
X152840849Y-108873000D01*
X152599151Y-108873000D01*
X152362097Y-108920153D01*
X152297288Y-108946998D01*
X152347141Y-108826643D01*
X152377000Y-108676528D01*
X152377000Y-108523472D01*
X152347141Y-108373357D01*
X152288569Y-108231952D01*
X152216086Y-108123472D01*
X153323000Y-108123472D01*
X153323000Y-108276528D01*
X153352859Y-108426643D01*
X153411431Y-108568048D01*
X153496464Y-108695309D01*
X153604691Y-108803536D01*
X153731952Y-108888569D01*
X153873357Y-108947141D01*
X154023472Y-108977000D01*
X154176528Y-108977000D01*
X154326643Y-108947141D01*
X154468048Y-108888569D01*
X154595309Y-108803536D01*
X154703536Y-108695309D01*
X154788569Y-108568048D01*
X154847141Y-108426643D01*
X154877000Y-108276528D01*
X154877000Y-108123472D01*
X154847141Y-107973357D01*
X154788569Y-107831952D01*
X154703536Y-107704691D01*
X154595309Y-107596464D01*
X154468048Y-107511431D01*
X154326643Y-107452859D01*
X154176528Y-107423000D01*
X154023472Y-107423000D01*
X153873357Y-107452859D01*
X153731952Y-107511431D01*
X153604691Y-107596464D01*
X153496464Y-107704691D01*
X153411431Y-107831952D01*
X153352859Y-107973357D01*
X153323000Y-108123472D01*
X152216086Y-108123472D01*
X152203536Y-108104691D01*
X152095309Y-107996464D01*
X151968048Y-107911431D01*
X151826643Y-107852859D01*
X151676528Y-107823000D01*
X151523472Y-107823000D01*
X151373357Y-107852859D01*
X151231952Y-107911431D01*
X151104691Y-107996464D01*
X150996464Y-108104691D01*
X150911431Y-108231952D01*
X150852859Y-108373357D01*
X150823000Y-108523472D01*
X150823000Y-108676528D01*
X150852859Y-108826643D01*
X150871305Y-108871176D01*
X149330000Y-108871176D01*
X149256095Y-108878455D01*
X149185030Y-108900012D01*
X149119537Y-108935019D01*
X149062131Y-108982131D01*
X149015019Y-109039537D01*
X148980012Y-109105030D01*
X148958455Y-109176095D01*
X148951176Y-109250000D01*
X148951176Y-110475989D01*
X148903536Y-110404691D01*
X148795309Y-110296464D01*
X148668048Y-110211431D01*
X148526643Y-110152859D01*
X148376528Y-110123000D01*
X148223472Y-110123000D01*
X148073357Y-110152859D01*
X147931952Y-110211431D01*
X147828814Y-110280345D01*
X147800814Y-110227000D01*
X146607000Y-110227000D01*
X146607000Y-110247000D01*
X146353000Y-110247000D01*
X146353000Y-110227000D01*
X146333000Y-110227000D01*
X146333000Y-109973000D01*
X146353000Y-109973000D01*
X146353000Y-109953000D01*
X146607000Y-109953000D01*
X146607000Y-109973000D01*
X147800814Y-109973000D01*
X147921481Y-109743109D01*
X147824157Y-109468748D01*
X147675178Y-109218645D01*
X147582745Y-109116100D01*
X147603536Y-109095309D01*
X147688569Y-108968048D01*
X147747141Y-108826643D01*
X147777000Y-108676528D01*
X147777000Y-108523472D01*
X147747141Y-108373357D01*
X147688569Y-108231952D01*
X147603536Y-108104691D01*
X147495309Y-107996464D01*
X147368048Y-107911431D01*
X147226643Y-107852859D01*
X147076528Y-107823000D01*
X146923472Y-107823000D01*
X146773357Y-107852859D01*
X146631952Y-107911431D01*
X146504691Y-107996464D01*
X146396464Y-108104691D01*
X146311431Y-108231952D01*
X146252859Y-108373357D01*
X146223000Y-108523472D01*
X146223000Y-108676528D01*
X146230714Y-108715310D01*
X146123110Y-108658524D01*
X145975901Y-108703175D01*
X145900580Y-108739051D01*
X145947141Y-108626643D01*
X145977000Y-108476528D01*
X145977000Y-108323472D01*
X145947141Y-108173357D01*
X145888569Y-108031952D01*
X145803536Y-107904691D01*
X145695309Y-107796464D01*
X145586069Y-107723472D01*
X149023000Y-107723472D01*
X149023000Y-107876528D01*
X149052859Y-108026643D01*
X149111431Y-108168048D01*
X149196464Y-108295309D01*
X149304691Y-108403536D01*
X149431952Y-108488569D01*
X149573357Y-108547141D01*
X149723472Y-108577000D01*
X149876528Y-108577000D01*
X150026643Y-108547141D01*
X150168048Y-108488569D01*
X150295309Y-108403536D01*
X150403536Y-108295309D01*
X150488569Y-108168048D01*
X150547141Y-108026643D01*
X150577000Y-107876528D01*
X150577000Y-107723472D01*
X150547141Y-107573357D01*
X150488569Y-107431952D01*
X150416086Y-107323472D01*
X157723000Y-107323472D01*
X157723000Y-107476528D01*
X157752859Y-107626643D01*
X157811431Y-107768048D01*
X157896464Y-107895309D01*
X158004691Y-108003536D01*
X158131952Y-108088569D01*
X158273357Y-108147141D01*
X158423472Y-108177000D01*
X158576528Y-108177000D01*
X158726643Y-108147141D01*
X158868048Y-108088569D01*
X158995309Y-108003536D01*
X159103536Y-107895309D01*
X159188569Y-107768048D01*
X159247141Y-107626643D01*
X159277000Y-107476528D01*
X159277000Y-107323472D01*
X159247141Y-107173357D01*
X159188569Y-107031952D01*
X159103536Y-106904691D01*
X158995309Y-106796464D01*
X158868048Y-106711431D01*
X158726643Y-106652859D01*
X158576528Y-106623000D01*
X158423472Y-106623000D01*
X158273357Y-106652859D01*
X158131952Y-106711431D01*
X158004691Y-106796464D01*
X157896464Y-106904691D01*
X157811431Y-107031952D01*
X157752859Y-107173357D01*
X157723000Y-107323472D01*
X150416086Y-107323472D01*
X150403536Y-107304691D01*
X150334495Y-107235650D01*
X150420678Y-107199952D01*
X150531561Y-107125862D01*
X150625858Y-107031565D01*
X150699948Y-106920682D01*
X150750982Y-106797476D01*
X150776998Y-106666681D01*
X150776998Y-106533323D01*
X150776998Y-106533321D01*
X153323000Y-106533321D01*
X153323000Y-106666679D01*
X153349016Y-106797474D01*
X153400050Y-106920680D01*
X153474140Y-107031563D01*
X153568437Y-107125860D01*
X153679320Y-107199950D01*
X153802526Y-107250984D01*
X153933321Y-107277000D01*
X154066679Y-107277000D01*
X154197474Y-107250984D01*
X154320680Y-107199950D01*
X154431563Y-107125860D01*
X154525860Y-107031563D01*
X154599950Y-106920680D01*
X154650984Y-106797474D01*
X154677000Y-106666679D01*
X154677000Y-106533321D01*
X154650984Y-106402526D01*
X154599950Y-106279320D01*
X154525860Y-106168437D01*
X154431563Y-106074140D01*
X154320680Y-106000050D01*
X154197474Y-105949016D01*
X154066679Y-105923000D01*
X153933321Y-105923000D01*
X153802526Y-105949016D01*
X153679320Y-106000050D01*
X153568437Y-106074140D01*
X153474140Y-106168437D01*
X153400050Y-106279320D01*
X153349016Y-106402526D01*
X153323000Y-106533321D01*
X150776998Y-106533321D01*
X150750982Y-106402528D01*
X150699948Y-106279322D01*
X150625858Y-106168439D01*
X150531561Y-106074142D01*
X150420678Y-106000052D01*
X150297472Y-105949018D01*
X150166677Y-105923002D01*
X150033319Y-105923002D01*
X149902524Y-105949018D01*
X149779318Y-106000052D01*
X149668435Y-106074142D01*
X149574138Y-106168439D01*
X149500048Y-106279322D01*
X149449014Y-106402528D01*
X149422998Y-106533323D01*
X149422998Y-106666681D01*
X149449014Y-106797476D01*
X149500048Y-106920682D01*
X149574138Y-107031565D01*
X149591770Y-107049197D01*
X149573357Y-107052859D01*
X149431952Y-107111431D01*
X149304691Y-107196464D01*
X149196464Y-107304691D01*
X149111431Y-107431952D01*
X149052859Y-107573357D01*
X149023000Y-107723472D01*
X145586069Y-107723472D01*
X145568048Y-107711431D01*
X145426643Y-107652859D01*
X145276528Y-107623000D01*
X145123472Y-107623000D01*
X144973357Y-107652859D01*
X144831952Y-107711431D01*
X144704691Y-107796464D01*
X144596464Y-107904691D01*
X144511431Y-108031952D01*
X144452859Y-108173357D01*
X144423000Y-108323472D01*
X144423000Y-108476528D01*
X144452859Y-108626643D01*
X144511431Y-108768048D01*
X144596464Y-108895309D01*
X144704691Y-109003536D01*
X144831952Y-109088569D01*
X144973357Y-109147141D01*
X145123472Y-109177000D01*
X145276528Y-109177000D01*
X145332373Y-109165892D01*
X145284822Y-109218645D01*
X145135843Y-109468748D01*
X145076231Y-109636798D01*
X145027353Y-109518798D01*
X144893073Y-109317833D01*
X144722167Y-109146927D01*
X144521202Y-109012647D01*
X144297903Y-108920153D01*
X144060849Y-108873000D01*
X143819151Y-108873000D01*
X143702677Y-108896168D01*
X143703536Y-108895309D01*
X143788569Y-108768048D01*
X143847141Y-108626643D01*
X143877000Y-108476528D01*
X143877000Y-108323472D01*
X143847141Y-108173357D01*
X143788569Y-108031952D01*
X143703536Y-107904691D01*
X143595309Y-107796464D01*
X143468048Y-107711431D01*
X143326643Y-107652859D01*
X143176528Y-107623000D01*
X143023472Y-107623000D01*
X142873357Y-107652859D01*
X142731952Y-107711431D01*
X142604691Y-107796464D01*
X142496464Y-107904691D01*
X142411431Y-108031952D01*
X142352859Y-108173357D01*
X142323000Y-108323472D01*
X142323000Y-108476528D01*
X142352859Y-108626643D01*
X142411431Y-108768048D01*
X142496464Y-108895309D01*
X142604691Y-109003536D01*
X142731952Y-109088569D01*
X142873357Y-109147141D01*
X143023472Y-109177000D01*
X143127760Y-109177000D01*
X142986927Y-109317833D01*
X142852647Y-109518798D01*
X142760153Y-109742097D01*
X142713000Y-109979151D01*
X142713000Y-110220849D01*
X142760153Y-110457903D01*
X142810304Y-110578977D01*
X142731952Y-110611431D01*
X142628824Y-110680339D01*
X142628824Y-109250000D01*
X142621545Y-109176095D01*
X142599988Y-109105030D01*
X142564981Y-109039537D01*
X142517869Y-108982131D01*
X142460463Y-108935019D01*
X142394970Y-108900012D01*
X142323905Y-108878455D01*
X142250000Y-108871176D01*
X140550000Y-108871176D01*
X140476095Y-108878455D01*
X140405030Y-108900012D01*
X140339537Y-108935019D01*
X140282131Y-108982131D01*
X140235019Y-109039537D01*
X140200012Y-109105030D01*
X140178455Y-109176095D01*
X140171176Y-109250000D01*
X140171176Y-110950000D01*
X140178455Y-111023905D01*
X140200012Y-111094970D01*
X140235019Y-111160463D01*
X140282131Y-111217869D01*
X140339537Y-111264981D01*
X140405030Y-111299988D01*
X140476095Y-111321545D01*
X140550000Y-111328824D01*
X142250000Y-111328824D01*
X142323000Y-111321634D01*
X142323000Y-111376528D01*
X142352134Y-111523000D01*
X139275845Y-111523000D01*
X139303536Y-111495309D01*
X139388569Y-111368048D01*
X139447141Y-111226643D01*
X139477000Y-111076528D01*
X139477000Y-110923472D01*
X139447141Y-110773357D01*
X139443160Y-110763746D01*
X139526643Y-110747141D01*
X139668048Y-110688569D01*
X139795309Y-110603536D01*
X139903536Y-110495309D01*
X139988569Y-110368048D01*
X140047141Y-110226643D01*
X140077000Y-110076528D01*
X140077000Y-109923472D01*
X140047141Y-109773357D01*
X139988569Y-109631952D01*
X139903536Y-109504691D01*
X139795309Y-109396464D01*
X139668048Y-109311431D01*
X139526643Y-109252859D01*
X139376528Y-109223000D01*
X139223472Y-109223000D01*
X139073357Y-109252859D01*
X138931952Y-109311431D01*
X138804691Y-109396464D01*
X138696464Y-109504691D01*
X138611431Y-109631952D01*
X138552859Y-109773357D01*
X138523000Y-109923472D01*
X138523000Y-110076528D01*
X138552859Y-110226643D01*
X138556840Y-110236254D01*
X138481046Y-110251330D01*
X138507000Y-110120849D01*
X138507000Y-109879151D01*
X138459847Y-109642097D01*
X138367353Y-109418798D01*
X138233073Y-109217833D01*
X138062167Y-109046927D01*
X137936132Y-108962713D01*
X138003536Y-108895309D01*
X138088569Y-108768048D01*
X138147141Y-108626643D01*
X138177000Y-108476528D01*
X138177000Y-108323472D01*
X138147141Y-108173357D01*
X138088569Y-108031952D01*
X138003536Y-107904691D01*
X137895309Y-107796464D01*
X137768048Y-107711431D01*
X137626643Y-107652859D01*
X137476528Y-107623000D01*
X137323472Y-107623000D01*
X137173357Y-107652859D01*
X137031952Y-107711431D01*
X136904691Y-107796464D01*
X136796464Y-107904691D01*
X136711431Y-108031952D01*
X136652859Y-108173357D01*
X136623000Y-108323472D01*
X136623000Y-108476528D01*
X136652859Y-108626643D01*
X136711431Y-108768048D01*
X136784366Y-108877203D01*
X136698798Y-108912647D01*
X136497833Y-109046927D01*
X136326927Y-109217833D01*
X136192647Y-109418798D01*
X136100153Y-109642097D01*
X136053000Y-109879151D01*
X136053000Y-110120849D01*
X136100153Y-110357903D01*
X136192647Y-110581202D01*
X136326927Y-110782167D01*
X136497833Y-110953073D01*
X136698798Y-111087353D01*
X136922097Y-111179847D01*
X137159151Y-111227000D01*
X137400849Y-111227000D01*
X137637903Y-111179847D01*
X137861202Y-111087353D01*
X137923000Y-111046061D01*
X137923000Y-111076528D01*
X137952859Y-111226643D01*
X138011431Y-111368048D01*
X138096464Y-111495309D01*
X138124155Y-111523000D01*
X134407229Y-111523000D01*
X134447141Y-111426643D01*
X134477000Y-111276528D01*
X134477000Y-111198724D01*
X134619151Y-111227000D01*
X134860849Y-111227000D01*
X135097903Y-111179847D01*
X135321202Y-111087353D01*
X135522167Y-110953073D01*
X135693073Y-110782167D01*
X135827353Y-110581202D01*
X135919847Y-110357903D01*
X135967000Y-110120849D01*
X135967000Y-109879151D01*
X135919847Y-109642097D01*
X135827353Y-109418798D01*
X135693073Y-109217833D01*
X135522167Y-109046927D01*
X135321202Y-108912647D01*
X135097903Y-108820153D01*
X134860849Y-108773000D01*
X134619151Y-108773000D01*
X134464737Y-108803715D01*
X134488569Y-108768048D01*
X134547141Y-108626643D01*
X134577000Y-108476528D01*
X134577000Y-108323472D01*
X134547141Y-108173357D01*
X134488569Y-108031952D01*
X134403536Y-107904691D01*
X134295309Y-107796464D01*
X134168048Y-107711431D01*
X134026643Y-107652859D01*
X133876528Y-107623000D01*
X133723472Y-107623000D01*
X133573357Y-107652859D01*
X133431952Y-107711431D01*
X133304691Y-107796464D01*
X133196464Y-107904691D01*
X133111431Y-108031952D01*
X133052859Y-108173357D01*
X133023000Y-108323472D01*
X133023000Y-108476528D01*
X133052859Y-108626643D01*
X133111431Y-108768048D01*
X133117996Y-108777873D01*
X133050000Y-108771176D01*
X131350000Y-108771176D01*
X131276095Y-108778455D01*
X131205030Y-108800012D01*
X131139537Y-108835019D01*
X131082131Y-108882131D01*
X131035019Y-108939537D01*
X131000012Y-109005030D01*
X130978455Y-109076095D01*
X130971176Y-109150000D01*
X130971176Y-110080339D01*
X130868048Y-110011431D01*
X130726643Y-109952859D01*
X130576528Y-109923000D01*
X130423472Y-109923000D01*
X130273357Y-109952859D01*
X130131952Y-110011431D01*
X130004691Y-110096464D01*
X129977000Y-110124155D01*
X129977000Y-106573472D01*
X130123000Y-106573472D01*
X130123000Y-106726528D01*
X130152859Y-106876643D01*
X130211431Y-107018048D01*
X130296464Y-107145309D01*
X130404691Y-107253536D01*
X130531952Y-107338569D01*
X130673357Y-107397141D01*
X130823472Y-107427000D01*
X130976528Y-107427000D01*
X131126643Y-107397141D01*
X131268048Y-107338569D01*
X131395309Y-107253536D01*
X131503536Y-107145309D01*
X131588569Y-107018048D01*
X131647141Y-106876643D01*
X131677000Y-106726528D01*
X131677000Y-106573472D01*
X131647141Y-106423357D01*
X131588569Y-106281952D01*
X131549494Y-106223472D01*
X138223000Y-106223472D01*
X138223000Y-106376528D01*
X138252859Y-106526643D01*
X138311431Y-106668048D01*
X138366190Y-106750000D01*
X138311431Y-106831952D01*
X138252859Y-106973357D01*
X138223000Y-107123472D01*
X138223000Y-107276528D01*
X138252859Y-107426643D01*
X138311431Y-107568048D01*
X138366190Y-107650000D01*
X138311431Y-107731952D01*
X138252859Y-107873357D01*
X138223000Y-108023472D01*
X138223000Y-108176528D01*
X138252859Y-108326643D01*
X138311431Y-108468048D01*
X138396464Y-108595309D01*
X138504691Y-108703536D01*
X138631952Y-108788569D01*
X138773357Y-108847141D01*
X138923472Y-108877000D01*
X139076528Y-108877000D01*
X139226643Y-108847141D01*
X139368048Y-108788569D01*
X139495309Y-108703536D01*
X139603536Y-108595309D01*
X139643879Y-108534931D01*
X139673357Y-108547141D01*
X139823472Y-108577000D01*
X139976528Y-108577000D01*
X140126643Y-108547141D01*
X140268048Y-108488569D01*
X140395309Y-108403536D01*
X140503536Y-108295309D01*
X140588569Y-108168048D01*
X140647141Y-108026643D01*
X140677000Y-107876528D01*
X140677000Y-107723472D01*
X140647141Y-107573357D01*
X140588569Y-107431952D01*
X140533810Y-107350000D01*
X140588569Y-107268048D01*
X140647141Y-107126643D01*
X140677000Y-106976528D01*
X140677000Y-106823472D01*
X140647141Y-106673357D01*
X140588569Y-106531952D01*
X140533810Y-106450000D01*
X140588569Y-106368048D01*
X140647141Y-106226643D01*
X140677000Y-106076528D01*
X140677000Y-105923472D01*
X140647141Y-105773357D01*
X140588569Y-105631952D01*
X140582903Y-105623472D01*
X142923000Y-105623472D01*
X142923000Y-105776528D01*
X142952859Y-105926643D01*
X143011431Y-106068048D01*
X143096464Y-106195309D01*
X143204691Y-106303536D01*
X143331952Y-106388569D01*
X143473357Y-106447141D01*
X143623472Y-106477000D01*
X143776528Y-106477000D01*
X143926643Y-106447141D01*
X144068048Y-106388569D01*
X144195309Y-106303536D01*
X144303536Y-106195309D01*
X144388569Y-106068048D01*
X144447141Y-105926643D01*
X144477000Y-105776528D01*
X144477000Y-105623472D01*
X144447141Y-105473357D01*
X144388569Y-105331952D01*
X144303536Y-105204691D01*
X144195309Y-105096464D01*
X144068048Y-105011431D01*
X143926643Y-104952859D01*
X143776528Y-104923000D01*
X143623472Y-104923000D01*
X143473357Y-104952859D01*
X143331952Y-105011431D01*
X143204691Y-105096464D01*
X143096464Y-105204691D01*
X143011431Y-105331952D01*
X142952859Y-105473357D01*
X142923000Y-105623472D01*
X140582903Y-105623472D01*
X140503536Y-105504691D01*
X140395309Y-105396464D01*
X140268048Y-105311431D01*
X140126643Y-105252859D01*
X139976528Y-105223000D01*
X139823472Y-105223000D01*
X139673357Y-105252859D01*
X139531952Y-105311431D01*
X139404691Y-105396464D01*
X139296464Y-105504691D01*
X139256121Y-105565069D01*
X139226643Y-105552859D01*
X139076528Y-105523000D01*
X138923472Y-105523000D01*
X138773357Y-105552859D01*
X138631952Y-105611431D01*
X138504691Y-105696464D01*
X138396464Y-105804691D01*
X138311431Y-105931952D01*
X138252859Y-106073357D01*
X138223000Y-106223472D01*
X131549494Y-106223472D01*
X131503536Y-106154691D01*
X131395309Y-106046464D01*
X131268048Y-105961431D01*
X131126643Y-105902859D01*
X130976528Y-105873000D01*
X130823472Y-105873000D01*
X130673357Y-105902859D01*
X130531952Y-105961431D01*
X130404691Y-106046464D01*
X130296464Y-106154691D01*
X130211431Y-106281952D01*
X130152859Y-106423357D01*
X130123000Y-106573472D01*
X129977000Y-106573472D01*
X129977000Y-104323472D01*
X132623000Y-104323472D01*
X132623000Y-104476528D01*
X132652859Y-104626643D01*
X132711431Y-104768048D01*
X132796464Y-104895309D01*
X132904691Y-105003536D01*
X133031952Y-105088569D01*
X133173357Y-105147141D01*
X133323472Y-105177000D01*
X133476528Y-105177000D01*
X133626643Y-105147141D01*
X133768048Y-105088569D01*
X133895309Y-105003536D01*
X134003536Y-104895309D01*
X134088569Y-104768048D01*
X134147141Y-104626643D01*
X134177000Y-104476528D01*
X134177000Y-104323472D01*
X134147141Y-104173357D01*
X134126478Y-104123472D01*
X138423000Y-104123472D01*
X138423000Y-104276528D01*
X138452859Y-104426643D01*
X138511431Y-104568048D01*
X138596464Y-104695309D01*
X138704691Y-104803536D01*
X138831952Y-104888569D01*
X138973357Y-104947141D01*
X139123472Y-104977000D01*
X139276528Y-104977000D01*
X139426643Y-104947141D01*
X139568048Y-104888569D01*
X139695309Y-104803536D01*
X139803536Y-104695309D01*
X139888569Y-104568048D01*
X139947141Y-104426643D01*
X139977000Y-104276528D01*
X139977000Y-104223472D01*
X140723000Y-104223472D01*
X140723000Y-104376528D01*
X140752859Y-104526643D01*
X140811431Y-104668048D01*
X140896464Y-104795309D01*
X141004691Y-104903536D01*
X141131952Y-104988569D01*
X141273357Y-105047141D01*
X141423472Y-105077000D01*
X141576528Y-105077000D01*
X141726643Y-105047141D01*
X141868048Y-104988569D01*
X141995309Y-104903536D01*
X142103536Y-104795309D01*
X142188569Y-104668048D01*
X142247141Y-104526643D01*
X142247771Y-104523472D01*
X144523000Y-104523472D01*
X144523000Y-104676528D01*
X144552859Y-104826643D01*
X144611431Y-104968048D01*
X144696464Y-105095309D01*
X144804691Y-105203536D01*
X144931952Y-105288569D01*
X145073357Y-105347141D01*
X145223472Y-105377000D01*
X145376528Y-105377000D01*
X145526643Y-105347141D01*
X145583784Y-105323472D01*
X146223000Y-105323472D01*
X146223000Y-105476528D01*
X146252859Y-105626643D01*
X146311431Y-105768048D01*
X146396464Y-105895309D01*
X146504691Y-106003536D01*
X146631952Y-106088569D01*
X146773357Y-106147141D01*
X146923472Y-106177000D01*
X147076528Y-106177000D01*
X147226643Y-106147141D01*
X147368048Y-106088569D01*
X147495309Y-106003536D01*
X147603536Y-105895309D01*
X147688569Y-105768048D01*
X147747141Y-105626643D01*
X147777000Y-105476528D01*
X147777000Y-105323472D01*
X147747141Y-105173357D01*
X147688569Y-105031952D01*
X147603536Y-104904691D01*
X147495309Y-104796464D01*
X147368048Y-104711431D01*
X147226643Y-104652859D01*
X147076528Y-104623000D01*
X146923472Y-104623000D01*
X146773357Y-104652859D01*
X146631952Y-104711431D01*
X146504691Y-104796464D01*
X146396464Y-104904691D01*
X146311431Y-105031952D01*
X146252859Y-105173357D01*
X146223000Y-105323472D01*
X145583784Y-105323472D01*
X145668048Y-105288569D01*
X145795309Y-105203536D01*
X145903536Y-105095309D01*
X145988569Y-104968048D01*
X146047141Y-104826643D01*
X146077000Y-104676528D01*
X146077000Y-104523472D01*
X146047164Y-104373472D01*
X148573000Y-104373472D01*
X148573000Y-104526528D01*
X148602859Y-104676643D01*
X148661431Y-104818048D01*
X148746464Y-104945309D01*
X148854691Y-105053536D01*
X148981952Y-105138569D01*
X149123357Y-105197141D01*
X149273472Y-105227000D01*
X149426528Y-105227000D01*
X149444264Y-105223472D01*
X151123000Y-105223472D01*
X151123000Y-105376528D01*
X151152859Y-105526643D01*
X151211431Y-105668048D01*
X151296464Y-105795309D01*
X151404691Y-105903536D01*
X151531952Y-105988569D01*
X151673357Y-106047141D01*
X151823472Y-106077000D01*
X151976528Y-106077000D01*
X152126643Y-106047141D01*
X152268048Y-105988569D01*
X152395309Y-105903536D01*
X152503536Y-105795309D01*
X152588569Y-105668048D01*
X152647141Y-105526643D01*
X152677000Y-105376528D01*
X152677000Y-105223472D01*
X152647141Y-105073357D01*
X152588569Y-104931952D01*
X152503536Y-104804691D01*
X152395309Y-104696464D01*
X152268048Y-104611431D01*
X152126643Y-104552859D01*
X151976528Y-104523000D01*
X151823472Y-104523000D01*
X151673357Y-104552859D01*
X151531952Y-104611431D01*
X151404691Y-104696464D01*
X151296464Y-104804691D01*
X151211431Y-104931952D01*
X151152859Y-105073357D01*
X151123000Y-105223472D01*
X149444264Y-105223472D01*
X149576643Y-105197141D01*
X149718048Y-105138569D01*
X149845309Y-105053536D01*
X149953536Y-104945309D01*
X150038569Y-104818048D01*
X150097141Y-104676643D01*
X150127000Y-104526528D01*
X150127000Y-104423472D01*
X157623000Y-104423472D01*
X157623000Y-104576528D01*
X157652859Y-104726643D01*
X157711431Y-104868048D01*
X157796464Y-104995309D01*
X157904691Y-105103536D01*
X157974229Y-105150000D01*
X157904691Y-105196464D01*
X157796464Y-105304691D01*
X157711431Y-105431952D01*
X157652859Y-105573357D01*
X157623000Y-105723472D01*
X157623000Y-105876528D01*
X157652859Y-106026643D01*
X157711431Y-106168048D01*
X157796464Y-106295309D01*
X157904691Y-106403536D01*
X158031952Y-106488569D01*
X158173357Y-106547141D01*
X158323472Y-106577000D01*
X158476528Y-106577000D01*
X158626643Y-106547141D01*
X158768048Y-106488569D01*
X158865472Y-106423472D01*
X163423000Y-106423472D01*
X163423000Y-106576528D01*
X163452859Y-106726643D01*
X163511431Y-106868048D01*
X163596464Y-106995309D01*
X163704691Y-107103536D01*
X163831952Y-107188569D01*
X163973357Y-107247141D01*
X164123472Y-107277000D01*
X164276528Y-107277000D01*
X164426643Y-107247141D01*
X164568048Y-107188569D01*
X164695309Y-107103536D01*
X164803536Y-106995309D01*
X164888569Y-106868048D01*
X164947141Y-106726643D01*
X164977000Y-106576528D01*
X164977000Y-106423472D01*
X164947141Y-106273357D01*
X164888569Y-106131952D01*
X164803536Y-106004691D01*
X164695309Y-105896464D01*
X164568048Y-105811431D01*
X164426643Y-105752859D01*
X164276528Y-105723000D01*
X164123472Y-105723000D01*
X163973357Y-105752859D01*
X163831952Y-105811431D01*
X163704691Y-105896464D01*
X163596464Y-106004691D01*
X163511431Y-106131952D01*
X163452859Y-106273357D01*
X163423000Y-106423472D01*
X158865472Y-106423472D01*
X158895309Y-106403536D01*
X159003536Y-106295309D01*
X159088569Y-106168048D01*
X159147141Y-106026643D01*
X159177000Y-105876528D01*
X159177000Y-105723472D01*
X159147141Y-105573357D01*
X159126478Y-105523472D01*
X160323000Y-105523472D01*
X160323000Y-105676528D01*
X160352859Y-105826643D01*
X160411431Y-105968048D01*
X160496464Y-106095309D01*
X160604691Y-106203536D01*
X160731952Y-106288569D01*
X160873357Y-106347141D01*
X161023472Y-106377000D01*
X161176528Y-106377000D01*
X161326643Y-106347141D01*
X161468048Y-106288569D01*
X161595309Y-106203536D01*
X161703536Y-106095309D01*
X161788569Y-105968048D01*
X161847141Y-105826643D01*
X161877000Y-105676528D01*
X161877000Y-105523472D01*
X161847141Y-105373357D01*
X161788569Y-105231952D01*
X161782903Y-105223472D01*
X165823000Y-105223472D01*
X165823000Y-105376528D01*
X165852859Y-105526643D01*
X165911431Y-105668048D01*
X165996464Y-105795309D01*
X166104691Y-105903536D01*
X166231952Y-105988569D01*
X166373357Y-106047141D01*
X166523472Y-106077000D01*
X166676528Y-106077000D01*
X166826643Y-106047141D01*
X166968048Y-105988569D01*
X167095309Y-105903536D01*
X167203536Y-105795309D01*
X167288569Y-105668048D01*
X167347141Y-105526643D01*
X167377000Y-105376528D01*
X167377000Y-105223472D01*
X167347141Y-105073357D01*
X167288569Y-104931952D01*
X167203536Y-104804691D01*
X167095309Y-104696464D01*
X166968048Y-104611431D01*
X166826643Y-104552859D01*
X166676528Y-104523000D01*
X166523472Y-104523000D01*
X166373357Y-104552859D01*
X166231952Y-104611431D01*
X166104691Y-104696464D01*
X165996464Y-104804691D01*
X165911431Y-104931952D01*
X165852859Y-105073357D01*
X165823000Y-105223472D01*
X161782903Y-105223472D01*
X161703536Y-105104691D01*
X161595309Y-104996464D01*
X161468048Y-104911431D01*
X161326643Y-104852859D01*
X161176528Y-104823000D01*
X161023472Y-104823000D01*
X160873357Y-104852859D01*
X160731952Y-104911431D01*
X160604691Y-104996464D01*
X160496464Y-105104691D01*
X160411431Y-105231952D01*
X160352859Y-105373357D01*
X160323000Y-105523472D01*
X159126478Y-105523472D01*
X159088569Y-105431952D01*
X159003536Y-105304691D01*
X158895309Y-105196464D01*
X158825771Y-105150000D01*
X158895309Y-105103536D01*
X159003536Y-104995309D01*
X159088569Y-104868048D01*
X159147141Y-104726643D01*
X159177000Y-104576528D01*
X159177000Y-104423472D01*
X159147141Y-104273357D01*
X159088569Y-104131952D01*
X159003536Y-104004691D01*
X158895309Y-103896464D01*
X158768048Y-103811431D01*
X158626643Y-103752859D01*
X158476528Y-103723000D01*
X158323472Y-103723000D01*
X158173357Y-103752859D01*
X158031952Y-103811431D01*
X157904691Y-103896464D01*
X157796464Y-104004691D01*
X157711431Y-104131952D01*
X157652859Y-104273357D01*
X157623000Y-104423472D01*
X150127000Y-104423472D01*
X150127000Y-104373472D01*
X150097141Y-104223357D01*
X150038569Y-104081952D01*
X149953536Y-103954691D01*
X149845309Y-103846464D01*
X149718048Y-103761431D01*
X149576643Y-103702859D01*
X149426528Y-103673000D01*
X149273472Y-103673000D01*
X149123357Y-103702859D01*
X148981952Y-103761431D01*
X148854691Y-103846464D01*
X148746464Y-103954691D01*
X148661431Y-104081952D01*
X148602859Y-104223357D01*
X148573000Y-104373472D01*
X146047164Y-104373472D01*
X146047141Y-104373357D01*
X145988569Y-104231952D01*
X145903536Y-104104691D01*
X145795309Y-103996464D01*
X145668048Y-103911431D01*
X145526643Y-103852859D01*
X145376528Y-103823000D01*
X145223472Y-103823000D01*
X145073357Y-103852859D01*
X144931952Y-103911431D01*
X144804691Y-103996464D01*
X144696464Y-104104691D01*
X144611431Y-104231952D01*
X144552859Y-104373357D01*
X144523000Y-104523472D01*
X142247771Y-104523472D01*
X142277000Y-104376528D01*
X142277000Y-104223472D01*
X142247141Y-104073357D01*
X142188569Y-103931952D01*
X142103536Y-103804691D01*
X141995309Y-103696464D01*
X141868048Y-103611431D01*
X141726643Y-103552859D01*
X141576528Y-103523000D01*
X141423472Y-103523000D01*
X141273357Y-103552859D01*
X141131952Y-103611431D01*
X141004691Y-103696464D01*
X140896464Y-103804691D01*
X140811431Y-103931952D01*
X140752859Y-104073357D01*
X140723000Y-104223472D01*
X139977000Y-104223472D01*
X139977000Y-104123472D01*
X139947141Y-103973357D01*
X139888569Y-103831952D01*
X139803536Y-103704691D01*
X139695309Y-103596464D01*
X139568048Y-103511431D01*
X139426643Y-103452859D01*
X139278901Y-103423472D01*
X159823000Y-103423472D01*
X159823000Y-103576528D01*
X159852859Y-103726643D01*
X159911431Y-103868048D01*
X159996464Y-103995309D01*
X160104691Y-104103536D01*
X160231952Y-104188569D01*
X160373357Y-104247141D01*
X160523472Y-104277000D01*
X160676528Y-104277000D01*
X160826643Y-104247141D01*
X160968048Y-104188569D01*
X161095309Y-104103536D01*
X161203536Y-103995309D01*
X161288569Y-103868048D01*
X161347141Y-103726643D01*
X161347771Y-103723472D01*
X164223000Y-103723472D01*
X164223000Y-103876528D01*
X164252859Y-104026643D01*
X164311431Y-104168048D01*
X164396464Y-104295309D01*
X164504691Y-104403536D01*
X164631952Y-104488569D01*
X164773357Y-104547141D01*
X164923472Y-104577000D01*
X165076528Y-104577000D01*
X165226643Y-104547141D01*
X165368048Y-104488569D01*
X165495309Y-104403536D01*
X165603536Y-104295309D01*
X165688569Y-104168048D01*
X165747141Y-104026643D01*
X165777000Y-103876528D01*
X165777000Y-103723472D01*
X165747141Y-103573357D01*
X165688569Y-103431952D01*
X165603536Y-103304691D01*
X165495309Y-103196464D01*
X165368048Y-103111431D01*
X165226643Y-103052859D01*
X165076528Y-103023000D01*
X164923472Y-103023000D01*
X164773357Y-103052859D01*
X164631952Y-103111431D01*
X164504691Y-103196464D01*
X164396464Y-103304691D01*
X164311431Y-103431952D01*
X164252859Y-103573357D01*
X164223000Y-103723472D01*
X161347771Y-103723472D01*
X161377000Y-103576528D01*
X161377000Y-103423472D01*
X161347141Y-103273357D01*
X161288569Y-103131952D01*
X161203536Y-103004691D01*
X161095309Y-102896464D01*
X160986069Y-102823472D01*
X161523000Y-102823472D01*
X161523000Y-102976528D01*
X161552859Y-103126643D01*
X161611431Y-103268048D01*
X161696464Y-103395309D01*
X161804691Y-103503536D01*
X161931952Y-103588569D01*
X162073357Y-103647141D01*
X162223472Y-103677000D01*
X162376528Y-103677000D01*
X162526643Y-103647141D01*
X162668048Y-103588569D01*
X162795309Y-103503536D01*
X162903536Y-103395309D01*
X162988569Y-103268048D01*
X163047141Y-103126643D01*
X163077000Y-102976528D01*
X163077000Y-102823472D01*
X163047141Y-102673357D01*
X162988569Y-102531952D01*
X162903536Y-102404691D01*
X162795309Y-102296464D01*
X162668048Y-102211431D01*
X162526643Y-102152859D01*
X162376528Y-102123000D01*
X162223472Y-102123000D01*
X162073357Y-102152859D01*
X161931952Y-102211431D01*
X161804691Y-102296464D01*
X161696464Y-102404691D01*
X161611431Y-102531952D01*
X161552859Y-102673357D01*
X161523000Y-102823472D01*
X160986069Y-102823472D01*
X160968048Y-102811431D01*
X160826643Y-102752859D01*
X160676528Y-102723000D01*
X160523472Y-102723000D01*
X160373357Y-102752859D01*
X160231952Y-102811431D01*
X160104691Y-102896464D01*
X159996464Y-103004691D01*
X159911431Y-103131952D01*
X159852859Y-103273357D01*
X159823000Y-103423472D01*
X139278901Y-103423472D01*
X139276528Y-103423000D01*
X139123472Y-103423000D01*
X138973357Y-103452859D01*
X138831952Y-103511431D01*
X138704691Y-103596464D01*
X138596464Y-103704691D01*
X138511431Y-103831952D01*
X138452859Y-103973357D01*
X138423000Y-104123472D01*
X134126478Y-104123472D01*
X134088569Y-104031952D01*
X134003536Y-103904691D01*
X133895309Y-103796464D01*
X133768048Y-103711431D01*
X133626643Y-103652859D01*
X133476528Y-103623000D01*
X133323472Y-103623000D01*
X133173357Y-103652859D01*
X133031952Y-103711431D01*
X132904691Y-103796464D01*
X132796464Y-103904691D01*
X132711431Y-104031952D01*
X132652859Y-104173357D01*
X132623000Y-104323472D01*
X129977000Y-104323472D01*
X129977000Y-100623472D01*
X139223000Y-100623472D01*
X139223000Y-100776528D01*
X139252859Y-100926643D01*
X139311431Y-101068048D01*
X139396464Y-101195309D01*
X139472548Y-101271393D01*
X139468437Y-101274140D01*
X139374140Y-101368437D01*
X139300050Y-101479320D01*
X139249016Y-101602526D01*
X139223000Y-101733321D01*
X139223000Y-101866679D01*
X139249016Y-101997474D01*
X139300050Y-102120680D01*
X139374140Y-102231563D01*
X139468437Y-102325860D01*
X139579320Y-102399950D01*
X139702526Y-102450984D01*
X139833321Y-102477000D01*
X139966679Y-102477000D01*
X140097474Y-102450984D01*
X140220680Y-102399950D01*
X140331563Y-102325860D01*
X140425860Y-102231563D01*
X140499950Y-102120680D01*
X140550984Y-101997474D01*
X140577000Y-101866679D01*
X140577000Y-101733321D01*
X140550984Y-101602526D01*
X140499950Y-101479320D01*
X140425860Y-101368437D01*
X140414772Y-101357349D01*
X140495309Y-101303536D01*
X140603536Y-101195309D01*
X140688569Y-101068048D01*
X140747141Y-100926643D01*
X140777000Y-100776528D01*
X140777000Y-100623472D01*
X140747141Y-100473357D01*
X140688569Y-100331952D01*
X140616086Y-100223472D01*
X142023000Y-100223472D01*
X142023000Y-100376528D01*
X142052859Y-100526643D01*
X142111431Y-100668048D01*
X142196464Y-100795309D01*
X142304691Y-100903536D01*
X142431952Y-100988569D01*
X142573357Y-101047141D01*
X142703362Y-101073000D01*
X142683321Y-101073000D01*
X142552526Y-101099016D01*
X142429320Y-101150050D01*
X142318437Y-101224140D01*
X142224140Y-101318437D01*
X142150050Y-101429320D01*
X142099016Y-101552526D01*
X142073000Y-101683321D01*
X142073000Y-101816679D01*
X142099016Y-101947474D01*
X142150050Y-102070680D01*
X142224140Y-102181563D01*
X142318437Y-102275860D01*
X142429320Y-102349950D01*
X142552526Y-102400984D01*
X142683321Y-102427000D01*
X142816679Y-102427000D01*
X142947474Y-102400984D01*
X143070680Y-102349950D01*
X143181563Y-102275860D01*
X143275860Y-102181563D01*
X143349950Y-102070680D01*
X143400984Y-101947474D01*
X143427000Y-101816679D01*
X143427000Y-101683321D01*
X146323000Y-101683321D01*
X146323000Y-101816679D01*
X146349016Y-101947474D01*
X146400050Y-102070680D01*
X146474140Y-102181563D01*
X146568437Y-102275860D01*
X146679320Y-102349950D01*
X146802526Y-102400984D01*
X146933321Y-102427000D01*
X147066679Y-102427000D01*
X147197474Y-102400984D01*
X147320680Y-102349950D01*
X147431563Y-102275860D01*
X147525860Y-102181563D01*
X147599950Y-102070680D01*
X147650984Y-101947474D01*
X147677000Y-101816679D01*
X147677000Y-101683321D01*
X147650984Y-101552526D01*
X147599950Y-101429320D01*
X147596043Y-101423472D01*
X159123000Y-101423472D01*
X159123000Y-101576528D01*
X159152859Y-101726643D01*
X159211431Y-101868048D01*
X159296464Y-101995309D01*
X159404691Y-102103536D01*
X159531952Y-102188569D01*
X159673357Y-102247141D01*
X159823472Y-102277000D01*
X159976528Y-102277000D01*
X160126643Y-102247141D01*
X160268048Y-102188569D01*
X160395309Y-102103536D01*
X160503536Y-101995309D01*
X160588569Y-101868048D01*
X160647141Y-101726643D01*
X160677000Y-101576528D01*
X160677000Y-101423472D01*
X160647141Y-101273357D01*
X160619421Y-101206436D01*
X160713687Y-101167389D01*
X160824570Y-101093299D01*
X160918867Y-100999002D01*
X160992957Y-100888119D01*
X161043991Y-100764913D01*
X161070007Y-100634118D01*
X161070007Y-100500760D01*
X161043991Y-100369965D01*
X161024733Y-100323472D01*
X162023000Y-100323472D01*
X162023000Y-100476528D01*
X162052859Y-100626643D01*
X162111431Y-100768048D01*
X162196464Y-100895309D01*
X162304691Y-101003536D01*
X162431952Y-101088569D01*
X162573357Y-101147141D01*
X162723472Y-101177000D01*
X162876528Y-101177000D01*
X163026643Y-101147141D01*
X163168048Y-101088569D01*
X163295309Y-101003536D01*
X163403536Y-100895309D01*
X163488569Y-100768048D01*
X163547141Y-100626643D01*
X163577000Y-100476528D01*
X163577000Y-100323472D01*
X166223000Y-100323472D01*
X166223000Y-100476528D01*
X166252859Y-100626643D01*
X166311431Y-100768048D01*
X166396464Y-100895309D01*
X166504691Y-101003536D01*
X166631952Y-101088569D01*
X166773357Y-101147141D01*
X166923472Y-101177000D01*
X167076528Y-101177000D01*
X167226643Y-101147141D01*
X167368048Y-101088569D01*
X167495309Y-101003536D01*
X167603536Y-100895309D01*
X167688569Y-100768048D01*
X167747141Y-100626643D01*
X167777000Y-100476528D01*
X167777000Y-100323472D01*
X167747141Y-100173357D01*
X167688569Y-100031952D01*
X167603536Y-99904691D01*
X167495309Y-99796464D01*
X167368048Y-99711431D01*
X167226643Y-99652859D01*
X167076528Y-99623000D01*
X166923472Y-99623000D01*
X166773357Y-99652859D01*
X166631952Y-99711431D01*
X166504691Y-99796464D01*
X166396464Y-99904691D01*
X166311431Y-100031952D01*
X166252859Y-100173357D01*
X166223000Y-100323472D01*
X163577000Y-100323472D01*
X163547141Y-100173357D01*
X163488569Y-100031952D01*
X163403536Y-99904691D01*
X163295309Y-99796464D01*
X163168048Y-99711431D01*
X163026643Y-99652859D01*
X162876528Y-99623000D01*
X162723472Y-99623000D01*
X162573357Y-99652859D01*
X162431952Y-99711431D01*
X162304691Y-99796464D01*
X162196464Y-99904691D01*
X162111431Y-100031952D01*
X162052859Y-100173357D01*
X162023000Y-100323472D01*
X161024733Y-100323472D01*
X160992957Y-100246759D01*
X160918867Y-100135876D01*
X160824570Y-100041579D01*
X160713687Y-99967489D01*
X160590481Y-99916455D01*
X160459686Y-99890439D01*
X160326328Y-99890439D01*
X160195533Y-99916455D01*
X160072327Y-99967489D01*
X159961444Y-100041579D01*
X159867147Y-100135876D01*
X159793057Y-100246759D01*
X159742023Y-100369965D01*
X159716007Y-100500760D01*
X159716007Y-100634118D01*
X159737103Y-100740179D01*
X159673357Y-100752859D01*
X159531952Y-100811431D01*
X159404691Y-100896464D01*
X159296464Y-101004691D01*
X159211431Y-101131952D01*
X159152859Y-101273357D01*
X159123000Y-101423472D01*
X147596043Y-101423472D01*
X147525860Y-101318437D01*
X147431563Y-101224140D01*
X147320680Y-101150050D01*
X147197474Y-101099016D01*
X147066679Y-101073000D01*
X146933321Y-101073000D01*
X146802526Y-101099016D01*
X146679320Y-101150050D01*
X146568437Y-101224140D01*
X146474140Y-101318437D01*
X146400050Y-101429320D01*
X146349016Y-101552526D01*
X146323000Y-101683321D01*
X143427000Y-101683321D01*
X143400984Y-101552526D01*
X143349950Y-101429320D01*
X143275860Y-101318437D01*
X143181563Y-101224140D01*
X143070680Y-101150050D01*
X142947474Y-101099016D01*
X142836789Y-101077000D01*
X142876528Y-101077000D01*
X143026643Y-101047141D01*
X143168048Y-100988569D01*
X143295309Y-100903536D01*
X143403536Y-100795309D01*
X143488569Y-100668048D01*
X143547141Y-100526643D01*
X143577000Y-100376528D01*
X143577000Y-100223472D01*
X143557110Y-100123472D01*
X144823000Y-100123472D01*
X144823000Y-100276528D01*
X144852859Y-100426643D01*
X144911431Y-100568048D01*
X144996464Y-100695309D01*
X145104691Y-100803536D01*
X145231952Y-100888569D01*
X145373357Y-100947141D01*
X145523472Y-100977000D01*
X145676528Y-100977000D01*
X145826643Y-100947141D01*
X145968048Y-100888569D01*
X146095309Y-100803536D01*
X146203536Y-100695309D01*
X146288569Y-100568048D01*
X146347141Y-100426643D01*
X146377000Y-100276528D01*
X146377000Y-100123472D01*
X146347141Y-99973357D01*
X146288569Y-99831952D01*
X146203536Y-99704691D01*
X146095309Y-99596464D01*
X145968048Y-99511431D01*
X145826643Y-99452859D01*
X145676528Y-99423000D01*
X145523472Y-99423000D01*
X145373357Y-99452859D01*
X145231952Y-99511431D01*
X145104691Y-99596464D01*
X144996464Y-99704691D01*
X144911431Y-99831952D01*
X144852859Y-99973357D01*
X144823000Y-100123472D01*
X143557110Y-100123472D01*
X143547141Y-100073357D01*
X143488569Y-99931952D01*
X143403536Y-99804691D01*
X143295309Y-99696464D01*
X143168048Y-99611431D01*
X143026643Y-99552859D01*
X142876528Y-99523000D01*
X142723472Y-99523000D01*
X142573357Y-99552859D01*
X142431952Y-99611431D01*
X142304691Y-99696464D01*
X142196464Y-99804691D01*
X142111431Y-99931952D01*
X142052859Y-100073357D01*
X142023000Y-100223472D01*
X140616086Y-100223472D01*
X140603536Y-100204691D01*
X140579657Y-100180812D01*
X140695309Y-100103536D01*
X140803536Y-99995309D01*
X140888569Y-99868048D01*
X140947141Y-99726643D01*
X140977000Y-99576528D01*
X140977000Y-99423472D01*
X140947141Y-99273357D01*
X140930558Y-99233321D01*
X150323000Y-99233321D01*
X150323000Y-99366679D01*
X150349016Y-99497474D01*
X150400050Y-99620680D01*
X150474140Y-99731563D01*
X150568437Y-99825860D01*
X150679320Y-99899950D01*
X150802526Y-99950984D01*
X150933321Y-99977000D01*
X151066679Y-99977000D01*
X151197474Y-99950984D01*
X151320680Y-99899950D01*
X151431563Y-99825860D01*
X151525860Y-99731563D01*
X151599950Y-99620680D01*
X151650984Y-99497474D01*
X151677000Y-99366679D01*
X151677000Y-99233321D01*
X152223000Y-99233321D01*
X152223000Y-99366679D01*
X152249016Y-99497474D01*
X152300050Y-99620680D01*
X152374140Y-99731563D01*
X152468437Y-99825860D01*
X152579320Y-99899950D01*
X152702526Y-99950984D01*
X152833321Y-99977000D01*
X152966679Y-99977000D01*
X153097474Y-99950984D01*
X153220680Y-99899950D01*
X153331563Y-99825860D01*
X153425860Y-99731563D01*
X153499950Y-99620680D01*
X153550984Y-99497474D01*
X153577000Y-99366679D01*
X153577000Y-99233321D01*
X153575041Y-99223470D01*
X154973000Y-99223470D01*
X154973000Y-99376526D01*
X155002859Y-99526641D01*
X155061431Y-99668046D01*
X155146464Y-99795307D01*
X155254691Y-99903534D01*
X155381952Y-99988567D01*
X155523357Y-100047139D01*
X155673472Y-100076998D01*
X155826528Y-100076998D01*
X155976643Y-100047139D01*
X156118048Y-99988567D01*
X156245309Y-99903534D01*
X156251366Y-99897477D01*
X156274140Y-99931561D01*
X156368437Y-100025858D01*
X156479320Y-100099948D01*
X156602526Y-100150982D01*
X156733321Y-100176998D01*
X156866679Y-100176998D01*
X156997474Y-100150982D01*
X157120680Y-100099948D01*
X157231563Y-100025858D01*
X157325860Y-99931561D01*
X157399950Y-99820678D01*
X157450984Y-99697472D01*
X157477000Y-99566677D01*
X157477000Y-99433319D01*
X157450984Y-99302524D01*
X157399950Y-99179318D01*
X157325860Y-99068435D01*
X157231563Y-98974138D01*
X157120680Y-98900048D01*
X156997474Y-98849014D01*
X156866679Y-98822998D01*
X156733321Y-98822998D01*
X156602526Y-98849014D01*
X156479320Y-98900048D01*
X156436410Y-98928719D01*
X156353536Y-98804689D01*
X156245309Y-98696462D01*
X156118048Y-98611429D01*
X155976643Y-98552857D01*
X155826528Y-98522998D01*
X155673472Y-98522998D01*
X155523357Y-98552857D01*
X155381952Y-98611429D01*
X155254691Y-98696462D01*
X155146464Y-98804689D01*
X155061431Y-98931950D01*
X155002859Y-99073355D01*
X154973000Y-99223470D01*
X153575041Y-99223470D01*
X153550984Y-99102526D01*
X153499950Y-98979320D01*
X153425860Y-98868437D01*
X153331563Y-98774140D01*
X153220680Y-98700050D01*
X153097474Y-98649016D01*
X152966679Y-98623000D01*
X152833321Y-98623000D01*
X152702526Y-98649016D01*
X152579320Y-98700050D01*
X152468437Y-98774140D01*
X152374140Y-98868437D01*
X152300050Y-98979320D01*
X152249016Y-99102526D01*
X152223000Y-99233321D01*
X151677000Y-99233321D01*
X151650984Y-99102526D01*
X151599950Y-98979320D01*
X151525860Y-98868437D01*
X151431563Y-98774140D01*
X151320680Y-98700050D01*
X151197474Y-98649016D01*
X151066679Y-98623000D01*
X150933321Y-98623000D01*
X150802526Y-98649016D01*
X150679320Y-98700050D01*
X150568437Y-98774140D01*
X150474140Y-98868437D01*
X150400050Y-98979320D01*
X150349016Y-99102526D01*
X150323000Y-99233321D01*
X140930558Y-99233321D01*
X140888569Y-99131952D01*
X140803536Y-99004691D01*
X140695309Y-98896464D01*
X140568048Y-98811431D01*
X140426643Y-98752859D01*
X140276528Y-98723000D01*
X140123472Y-98723000D01*
X139973357Y-98752859D01*
X139831952Y-98811431D01*
X139704691Y-98896464D01*
X139596464Y-99004691D01*
X139511431Y-99131952D01*
X139452859Y-99273357D01*
X139423000Y-99423472D01*
X139423000Y-99576528D01*
X139452859Y-99726643D01*
X139511431Y-99868048D01*
X139596464Y-99995309D01*
X139620343Y-100019188D01*
X139504691Y-100096464D01*
X139396464Y-100204691D01*
X139311431Y-100331952D01*
X139252859Y-100473357D01*
X139223000Y-100623472D01*
X129977000Y-100623472D01*
X129977000Y-99423472D01*
X137823000Y-99423472D01*
X137823000Y-99576528D01*
X137852859Y-99726643D01*
X137911431Y-99868048D01*
X137996464Y-99995309D01*
X138104691Y-100103536D01*
X138231952Y-100188569D01*
X138373357Y-100247141D01*
X138523472Y-100277000D01*
X138676528Y-100277000D01*
X138826643Y-100247141D01*
X138968048Y-100188569D01*
X139095309Y-100103536D01*
X139203536Y-99995309D01*
X139288569Y-99868048D01*
X139347141Y-99726643D01*
X139377000Y-99576528D01*
X139377000Y-99423472D01*
X139347141Y-99273357D01*
X139288569Y-99131952D01*
X139203536Y-99004691D01*
X139095309Y-98896464D01*
X138968048Y-98811431D01*
X138826643Y-98752859D01*
X138676528Y-98723000D01*
X138523472Y-98723000D01*
X138373357Y-98752859D01*
X138231952Y-98811431D01*
X138104691Y-98896464D01*
X137996464Y-99004691D01*
X137911431Y-99131952D01*
X137852859Y-99273357D01*
X137823000Y-99423472D01*
X129977000Y-99423472D01*
X129977000Y-98223472D01*
X134823000Y-98223472D01*
X134823000Y-98376528D01*
X134852859Y-98526643D01*
X134911431Y-98668048D01*
X134996464Y-98795309D01*
X135104691Y-98903536D01*
X135231952Y-98988569D01*
X135373357Y-99047141D01*
X135523472Y-99077000D01*
X135676528Y-99077000D01*
X135826643Y-99047141D01*
X135968048Y-98988569D01*
X136095309Y-98903536D01*
X136203536Y-98795309D01*
X136288569Y-98668048D01*
X136347141Y-98526643D01*
X136377000Y-98376528D01*
X136377000Y-98223472D01*
X136347141Y-98073357D01*
X136288569Y-97931952D01*
X136203536Y-97804691D01*
X136095309Y-97696464D01*
X135968048Y-97611431D01*
X135826643Y-97552859D01*
X135676528Y-97523000D01*
X135523472Y-97523000D01*
X135373357Y-97552859D01*
X135231952Y-97611431D01*
X135104691Y-97696464D01*
X134996464Y-97804691D01*
X134911431Y-97931952D01*
X134852859Y-98073357D01*
X134823000Y-98223472D01*
X129977000Y-98223472D01*
X129977000Y-96323472D01*
X140023000Y-96323472D01*
X140023000Y-96476528D01*
X140052859Y-96626643D01*
X140111431Y-96768048D01*
X140196464Y-96895309D01*
X140301155Y-97000000D01*
X140196464Y-97104691D01*
X140111431Y-97231952D01*
X140052859Y-97373357D01*
X140023000Y-97523472D01*
X140023000Y-97676528D01*
X140052859Y-97826643D01*
X140111431Y-97968048D01*
X140196464Y-98095309D01*
X140304691Y-98203536D01*
X140431952Y-98288569D01*
X140573357Y-98347141D01*
X140723472Y-98377000D01*
X140876528Y-98377000D01*
X141026643Y-98347141D01*
X141168048Y-98288569D01*
X141295309Y-98203536D01*
X141403536Y-98095309D01*
X141488569Y-97968048D01*
X141547141Y-97826643D01*
X141547771Y-97823472D01*
X142523000Y-97823472D01*
X142523000Y-97976528D01*
X142552859Y-98126643D01*
X142611431Y-98268048D01*
X142696464Y-98395309D01*
X142804691Y-98503536D01*
X142931952Y-98588569D01*
X143073357Y-98647141D01*
X143223472Y-98677000D01*
X143376528Y-98677000D01*
X143526643Y-98647141D01*
X143668048Y-98588569D01*
X143795309Y-98503536D01*
X143903536Y-98395309D01*
X143988569Y-98268048D01*
X144047141Y-98126643D01*
X144077000Y-97976528D01*
X144077000Y-97823472D01*
X144047141Y-97673357D01*
X143988569Y-97531952D01*
X143903536Y-97404691D01*
X143822317Y-97323472D01*
X144923000Y-97323472D01*
X144923000Y-97476528D01*
X144952859Y-97626643D01*
X145011431Y-97768048D01*
X145096464Y-97895309D01*
X145204691Y-98003536D01*
X145331952Y-98088569D01*
X145473357Y-98147141D01*
X145623472Y-98177000D01*
X145776528Y-98177000D01*
X145926643Y-98147141D01*
X146068048Y-98088569D01*
X146195309Y-98003536D01*
X146303536Y-97895309D01*
X146388569Y-97768048D01*
X146447141Y-97626643D01*
X146447771Y-97623472D01*
X149823000Y-97623472D01*
X149823000Y-97776528D01*
X149852859Y-97926643D01*
X149911431Y-98068048D01*
X149996464Y-98195309D01*
X150104691Y-98303536D01*
X150231952Y-98388569D01*
X150373357Y-98447141D01*
X150523472Y-98477000D01*
X150676528Y-98477000D01*
X150826643Y-98447141D01*
X150968048Y-98388569D01*
X151095309Y-98303536D01*
X151203536Y-98195309D01*
X151288569Y-98068048D01*
X151347141Y-97926643D01*
X151377000Y-97776528D01*
X151377000Y-97623472D01*
X151347141Y-97473357D01*
X151288569Y-97331952D01*
X151203536Y-97204691D01*
X151095309Y-97096464D01*
X150968048Y-97011431D01*
X150826643Y-96952859D01*
X150676528Y-96923000D01*
X150523472Y-96923000D01*
X150373357Y-96952859D01*
X150231952Y-97011431D01*
X150104691Y-97096464D01*
X149996464Y-97204691D01*
X149911431Y-97331952D01*
X149852859Y-97473357D01*
X149823000Y-97623472D01*
X146447771Y-97623472D01*
X146477000Y-97476528D01*
X146477000Y-97323472D01*
X146447141Y-97173357D01*
X146388569Y-97031952D01*
X146303536Y-96904691D01*
X146195309Y-96796464D01*
X146068048Y-96711431D01*
X145926643Y-96652859D01*
X145776528Y-96623000D01*
X145623472Y-96623000D01*
X145473357Y-96652859D01*
X145331952Y-96711431D01*
X145204691Y-96796464D01*
X145096464Y-96904691D01*
X145011431Y-97031952D01*
X144952859Y-97173357D01*
X144923000Y-97323472D01*
X143822317Y-97323472D01*
X143795309Y-97296464D01*
X143668048Y-97211431D01*
X143526643Y-97152859D01*
X143376528Y-97123000D01*
X143223472Y-97123000D01*
X143073357Y-97152859D01*
X142931952Y-97211431D01*
X142804691Y-97296464D01*
X142696464Y-97404691D01*
X142611431Y-97531952D01*
X142552859Y-97673357D01*
X142523000Y-97823472D01*
X141547771Y-97823472D01*
X141577000Y-97676528D01*
X141577000Y-97523472D01*
X141547141Y-97373357D01*
X141488569Y-97231952D01*
X141403536Y-97104691D01*
X141298845Y-97000000D01*
X141403536Y-96895309D01*
X141488569Y-96768048D01*
X141547141Y-96626643D01*
X141577000Y-96476528D01*
X141577000Y-96323472D01*
X141547141Y-96173357D01*
X141488569Y-96031952D01*
X141403536Y-95904691D01*
X141295309Y-95796464D01*
X141168048Y-95711431D01*
X141026643Y-95652859D01*
X140876528Y-95623000D01*
X140723472Y-95623000D01*
X140573357Y-95652859D01*
X140431952Y-95711431D01*
X140304691Y-95796464D01*
X140196464Y-95904691D01*
X140111431Y-96031952D01*
X140052859Y-96173357D01*
X140023000Y-96323472D01*
X129977000Y-96323472D01*
X129977000Y-94423472D01*
X133473000Y-94423472D01*
X133473000Y-94576528D01*
X133502859Y-94726643D01*
X133561431Y-94868048D01*
X133646464Y-94995309D01*
X133754691Y-95103536D01*
X133881952Y-95188569D01*
X134023357Y-95247141D01*
X134173472Y-95277000D01*
X134326528Y-95277000D01*
X134476643Y-95247141D01*
X134618048Y-95188569D01*
X134745309Y-95103536D01*
X134853536Y-94995309D01*
X134938569Y-94868048D01*
X134997141Y-94726643D01*
X135027000Y-94576528D01*
X135027000Y-94423472D01*
X136223000Y-94423472D01*
X136223000Y-94576528D01*
X136252859Y-94726643D01*
X136311431Y-94868048D01*
X136396464Y-94995309D01*
X136504691Y-95103536D01*
X136631952Y-95188569D01*
X136773357Y-95247141D01*
X136923472Y-95277000D01*
X137076528Y-95277000D01*
X137226643Y-95247141D01*
X137368048Y-95188569D01*
X137495309Y-95103536D01*
X137603536Y-94995309D01*
X137688569Y-94868048D01*
X137747141Y-94726643D01*
X137777000Y-94576528D01*
X137777000Y-94423472D01*
X139223000Y-94423472D01*
X139223000Y-94576528D01*
X139252859Y-94726643D01*
X139311431Y-94868048D01*
X139396464Y-94995309D01*
X139504691Y-95103536D01*
X139631952Y-95188569D01*
X139773357Y-95247141D01*
X139923472Y-95277000D01*
X140076528Y-95277000D01*
X140226643Y-95247141D01*
X140368048Y-95188569D01*
X140390642Y-95173472D01*
X142723000Y-95173472D01*
X142723000Y-95326528D01*
X142752859Y-95476643D01*
X142811431Y-95618048D01*
X142896464Y-95745309D01*
X143004691Y-95853536D01*
X143131952Y-95938569D01*
X143273357Y-95997141D01*
X143423472Y-96027000D01*
X143576528Y-96027000D01*
X143726643Y-95997141D01*
X143868048Y-95938569D01*
X143995309Y-95853536D01*
X144103536Y-95745309D01*
X144188569Y-95618048D01*
X144247141Y-95476643D01*
X144277000Y-95326528D01*
X144277000Y-95173472D01*
X144247141Y-95023357D01*
X144205768Y-94923472D01*
X144723000Y-94923472D01*
X144723000Y-95076528D01*
X144752859Y-95226643D01*
X144811431Y-95368048D01*
X144896464Y-95495309D01*
X145004691Y-95603536D01*
X145131952Y-95688569D01*
X145273357Y-95747141D01*
X145423472Y-95777000D01*
X145576528Y-95777000D01*
X145726643Y-95747141D01*
X145760007Y-95733321D01*
X148623000Y-95733321D01*
X148623000Y-95866679D01*
X148649016Y-95997474D01*
X148700050Y-96120680D01*
X148774140Y-96231563D01*
X148868437Y-96325860D01*
X148979320Y-96399950D01*
X149102526Y-96450984D01*
X149233321Y-96477000D01*
X149366679Y-96477000D01*
X149497474Y-96450984D01*
X149620680Y-96399950D01*
X149731563Y-96325860D01*
X149824102Y-96233321D01*
X155023002Y-96233321D01*
X155023002Y-96366679D01*
X155049018Y-96497474D01*
X155100052Y-96620680D01*
X155174142Y-96731563D01*
X155268439Y-96825860D01*
X155379322Y-96899950D01*
X155502528Y-96950984D01*
X155633323Y-96977000D01*
X155766681Y-96977000D01*
X155897476Y-96950984D01*
X156020682Y-96899950D01*
X156131565Y-96825860D01*
X156225862Y-96731563D01*
X156299952Y-96620680D01*
X156350986Y-96497474D01*
X156374949Y-96377000D01*
X156466679Y-96377000D01*
X156597474Y-96350984D01*
X156720680Y-96299950D01*
X156831563Y-96225860D01*
X156925860Y-96131563D01*
X156928607Y-96127452D01*
X157004691Y-96203536D01*
X157122418Y-96282198D01*
X157079320Y-96300050D01*
X156968437Y-96374140D01*
X156874140Y-96468437D01*
X156800050Y-96579320D01*
X156780794Y-96625808D01*
X156766679Y-96623000D01*
X156633321Y-96623000D01*
X156502526Y-96649016D01*
X156379320Y-96700050D01*
X156268437Y-96774140D01*
X156174140Y-96868437D01*
X156100050Y-96979320D01*
X156049016Y-97102526D01*
X156023000Y-97233321D01*
X156023000Y-97366679D01*
X156049016Y-97497474D01*
X156100050Y-97620680D01*
X156174140Y-97731563D01*
X156268437Y-97825860D01*
X156379320Y-97899950D01*
X156502526Y-97950984D01*
X156633321Y-97977000D01*
X156766679Y-97977000D01*
X156897474Y-97950984D01*
X157020680Y-97899950D01*
X157131563Y-97825860D01*
X157225860Y-97731563D01*
X157299950Y-97620680D01*
X157319206Y-97574192D01*
X157333321Y-97577000D01*
X157466679Y-97577000D01*
X157597474Y-97550984D01*
X157720680Y-97499950D01*
X157831563Y-97425860D01*
X157925860Y-97331563D01*
X157999950Y-97220680D01*
X158035210Y-97135555D01*
X159347994Y-97135555D01*
X159347994Y-97268913D01*
X159374010Y-97399708D01*
X159425044Y-97522914D01*
X159499134Y-97633797D01*
X159517917Y-97652580D01*
X159500050Y-97679320D01*
X159449016Y-97802526D01*
X159423000Y-97933321D01*
X159423000Y-98066679D01*
X159449016Y-98197474D01*
X159500050Y-98320680D01*
X159574140Y-98431563D01*
X159668437Y-98525860D01*
X159779320Y-98599950D01*
X159902526Y-98650984D01*
X160033321Y-98677000D01*
X160166679Y-98677000D01*
X160297474Y-98650984D01*
X160420680Y-98599950D01*
X160531563Y-98525860D01*
X160625860Y-98431563D01*
X160699950Y-98320680D01*
X160740215Y-98223472D01*
X164143000Y-98223472D01*
X164143000Y-98376528D01*
X164172859Y-98526643D01*
X164231431Y-98668048D01*
X164316464Y-98795309D01*
X164424691Y-98903536D01*
X164551952Y-98988569D01*
X164693357Y-99047141D01*
X164843472Y-99077000D01*
X164996528Y-99077000D01*
X165146643Y-99047141D01*
X165288048Y-98988569D01*
X165415309Y-98903536D01*
X165523536Y-98795309D01*
X165608569Y-98668048D01*
X165667141Y-98526643D01*
X165697000Y-98376528D01*
X165697000Y-98223472D01*
X165667141Y-98073357D01*
X165608569Y-97931952D01*
X165523536Y-97804691D01*
X165415309Y-97696464D01*
X165288048Y-97611431D01*
X165146643Y-97552859D01*
X164996528Y-97523000D01*
X164843472Y-97523000D01*
X164693357Y-97552859D01*
X164551952Y-97611431D01*
X164424691Y-97696464D01*
X164316464Y-97804691D01*
X164231431Y-97931952D01*
X164172859Y-98073357D01*
X164143000Y-98223472D01*
X160740215Y-98223472D01*
X160750984Y-98197474D01*
X160777000Y-98066679D01*
X160777000Y-97933321D01*
X160750984Y-97802526D01*
X160699950Y-97679320D01*
X160625860Y-97568437D01*
X160607077Y-97549654D01*
X160624944Y-97522914D01*
X160675978Y-97399708D01*
X160701994Y-97268913D01*
X160701994Y-97135555D01*
X160675978Y-97004760D01*
X160624944Y-96881554D01*
X160550854Y-96770671D01*
X160456557Y-96676374D01*
X160345674Y-96602284D01*
X160222468Y-96551250D01*
X160091673Y-96525234D01*
X159958315Y-96525234D01*
X159827520Y-96551250D01*
X159704314Y-96602284D01*
X159593431Y-96676374D01*
X159499134Y-96770671D01*
X159425044Y-96881554D01*
X159374010Y-97004760D01*
X159347994Y-97135555D01*
X158035210Y-97135555D01*
X158050984Y-97097474D01*
X158077000Y-96966679D01*
X158077000Y-96833321D01*
X158050984Y-96702526D01*
X157999950Y-96579320D01*
X157925860Y-96468437D01*
X157831563Y-96374140D01*
X157766468Y-96330645D01*
X157868048Y-96288569D01*
X157995309Y-96203536D01*
X158103536Y-96095309D01*
X158188569Y-95968048D01*
X158247141Y-95826643D01*
X158277000Y-95676528D01*
X158277000Y-95523472D01*
X158247141Y-95373357D01*
X158188569Y-95231952D01*
X158103536Y-95104691D01*
X157995309Y-94996464D01*
X157868048Y-94911431D01*
X157726643Y-94852859D01*
X157576528Y-94823000D01*
X157423472Y-94823000D01*
X157273357Y-94852859D01*
X157131952Y-94911431D01*
X157104393Y-94929845D01*
X157147141Y-94826643D01*
X157167662Y-94723472D01*
X158123000Y-94723472D01*
X158123000Y-94876528D01*
X158152859Y-95026643D01*
X158211431Y-95168048D01*
X158296464Y-95295309D01*
X158404691Y-95403536D01*
X158531952Y-95488569D01*
X158673357Y-95547141D01*
X158823472Y-95577000D01*
X158976528Y-95577000D01*
X159126643Y-95547141D01*
X159268048Y-95488569D01*
X159355237Y-95430311D01*
X159522143Y-95430311D01*
X159522143Y-95563669D01*
X159548159Y-95694464D01*
X159599193Y-95817670D01*
X159673283Y-95928553D01*
X159767580Y-96022850D01*
X159878463Y-96096940D01*
X160001669Y-96147974D01*
X160132464Y-96173990D01*
X160265822Y-96173990D01*
X160396617Y-96147974D01*
X160455769Y-96123472D01*
X162023000Y-96123472D01*
X162023000Y-96276528D01*
X162052859Y-96426643D01*
X162111431Y-96568048D01*
X162196464Y-96695309D01*
X162304691Y-96803536D01*
X162431952Y-96888569D01*
X162573357Y-96947141D01*
X162723472Y-96977000D01*
X162876528Y-96977000D01*
X163026643Y-96947141D01*
X163168048Y-96888569D01*
X163295309Y-96803536D01*
X163403536Y-96695309D01*
X163488569Y-96568048D01*
X163547141Y-96426643D01*
X163577000Y-96276528D01*
X163577000Y-96123472D01*
X166223000Y-96123472D01*
X166223000Y-96276528D01*
X166252859Y-96426643D01*
X166311431Y-96568048D01*
X166396464Y-96695309D01*
X166504691Y-96803536D01*
X166631952Y-96888569D01*
X166773357Y-96947141D01*
X166923472Y-96977000D01*
X167076528Y-96977000D01*
X167226643Y-96947141D01*
X167368048Y-96888569D01*
X167495309Y-96803536D01*
X167603536Y-96695309D01*
X167688569Y-96568048D01*
X167747141Y-96426643D01*
X167777000Y-96276528D01*
X167777000Y-96123472D01*
X167747141Y-95973357D01*
X167688569Y-95831952D01*
X167603536Y-95704691D01*
X167495309Y-95596464D01*
X167368048Y-95511431D01*
X167226643Y-95452859D01*
X167076528Y-95423000D01*
X166923472Y-95423000D01*
X166773357Y-95452859D01*
X166631952Y-95511431D01*
X166504691Y-95596464D01*
X166396464Y-95704691D01*
X166311431Y-95831952D01*
X166252859Y-95973357D01*
X166223000Y-96123472D01*
X163577000Y-96123472D01*
X163547141Y-95973357D01*
X163488569Y-95831952D01*
X163403536Y-95704691D01*
X163295309Y-95596464D01*
X163168048Y-95511431D01*
X163026643Y-95452859D01*
X162876528Y-95423000D01*
X162723472Y-95423000D01*
X162573357Y-95452859D01*
X162431952Y-95511431D01*
X162304691Y-95596464D01*
X162196464Y-95704691D01*
X162111431Y-95831952D01*
X162052859Y-95973357D01*
X162023000Y-96123472D01*
X160455769Y-96123472D01*
X160519823Y-96096940D01*
X160630706Y-96022850D01*
X160725003Y-95928553D01*
X160799093Y-95817670D01*
X160850127Y-95694464D01*
X160876143Y-95563669D01*
X160876143Y-95430311D01*
X160850127Y-95299516D01*
X160799093Y-95176310D01*
X160725003Y-95065427D01*
X160630706Y-94971130D01*
X160519823Y-94897040D01*
X160396617Y-94846006D01*
X160265822Y-94819990D01*
X160132464Y-94819990D01*
X160001669Y-94846006D01*
X159878463Y-94897040D01*
X159767580Y-94971130D01*
X159673283Y-95065427D01*
X159599193Y-95176310D01*
X159548159Y-95299516D01*
X159522143Y-95430311D01*
X159355237Y-95430311D01*
X159395309Y-95403536D01*
X159503536Y-95295309D01*
X159588569Y-95168048D01*
X159647141Y-95026643D01*
X159677000Y-94876528D01*
X159677000Y-94723472D01*
X159647141Y-94573357D01*
X159588569Y-94431952D01*
X159503536Y-94304691D01*
X159395309Y-94196464D01*
X159268048Y-94111431D01*
X159126643Y-94052859D01*
X158976528Y-94023000D01*
X158823472Y-94023000D01*
X158673357Y-94052859D01*
X158531952Y-94111431D01*
X158404691Y-94196464D01*
X158296464Y-94304691D01*
X158211431Y-94431952D01*
X158152859Y-94573357D01*
X158123000Y-94723472D01*
X157167662Y-94723472D01*
X157177000Y-94676528D01*
X157177000Y-94523472D01*
X157147141Y-94373357D01*
X157088569Y-94231952D01*
X157003536Y-94104691D01*
X156895309Y-93996464D01*
X156768048Y-93911431D01*
X156626643Y-93852859D01*
X156476528Y-93823000D01*
X156323472Y-93823000D01*
X156173357Y-93852859D01*
X156031952Y-93911431D01*
X155904691Y-93996464D01*
X155796464Y-94104691D01*
X155711431Y-94231952D01*
X155652859Y-94373357D01*
X155623000Y-94523472D01*
X155623000Y-94676528D01*
X155652859Y-94826643D01*
X155711431Y-94968048D01*
X155796464Y-95095309D01*
X155904691Y-95203536D01*
X155925282Y-95217295D01*
X155874140Y-95268437D01*
X155800050Y-95379320D01*
X155749016Y-95502526D01*
X155725053Y-95623000D01*
X155633323Y-95623000D01*
X155502528Y-95649016D01*
X155379322Y-95700050D01*
X155268439Y-95774140D01*
X155174142Y-95868437D01*
X155100052Y-95979320D01*
X155049018Y-96102526D01*
X155023002Y-96233321D01*
X149824102Y-96233321D01*
X149825860Y-96231563D01*
X149899950Y-96120680D01*
X149950984Y-95997474D01*
X149977000Y-95866679D01*
X149977000Y-95733321D01*
X149950984Y-95602526D01*
X149899950Y-95479320D01*
X149825860Y-95368437D01*
X149731563Y-95274140D01*
X149620680Y-95200050D01*
X149497474Y-95149016D01*
X149369052Y-95123472D01*
X150823000Y-95123472D01*
X150823000Y-95276528D01*
X150852859Y-95426643D01*
X150911431Y-95568048D01*
X150996464Y-95695309D01*
X151104691Y-95803536D01*
X151231952Y-95888569D01*
X151373357Y-95947141D01*
X151523472Y-95977000D01*
X151676528Y-95977000D01*
X151826643Y-95947141D01*
X151968048Y-95888569D01*
X152095309Y-95803536D01*
X152203536Y-95695309D01*
X152288569Y-95568048D01*
X152347141Y-95426643D01*
X152377000Y-95276528D01*
X152377000Y-95223472D01*
X153223000Y-95223472D01*
X153223000Y-95376528D01*
X153252859Y-95526643D01*
X153311431Y-95668048D01*
X153396464Y-95795309D01*
X153504691Y-95903536D01*
X153631952Y-95988569D01*
X153773357Y-96047141D01*
X153923472Y-96077000D01*
X154076528Y-96077000D01*
X154226643Y-96047141D01*
X154368048Y-95988569D01*
X154495309Y-95903536D01*
X154603536Y-95795309D01*
X154688569Y-95668048D01*
X154747141Y-95526643D01*
X154777000Y-95376528D01*
X154777000Y-95223472D01*
X154747141Y-95073357D01*
X154688569Y-94931952D01*
X154603536Y-94804691D01*
X154495309Y-94696464D01*
X154368048Y-94611431D01*
X154226643Y-94552859D01*
X154076528Y-94523000D01*
X153923472Y-94523000D01*
X153773357Y-94552859D01*
X153631952Y-94611431D01*
X153504691Y-94696464D01*
X153396464Y-94804691D01*
X153311431Y-94931952D01*
X153252859Y-95073357D01*
X153223000Y-95223472D01*
X152377000Y-95223472D01*
X152377000Y-95123472D01*
X152347141Y-94973357D01*
X152288569Y-94831952D01*
X152203536Y-94704691D01*
X152095309Y-94596464D01*
X151968048Y-94511431D01*
X151826643Y-94452859D01*
X151676528Y-94423000D01*
X151523472Y-94423000D01*
X151373357Y-94452859D01*
X151231952Y-94511431D01*
X151104691Y-94596464D01*
X150996464Y-94704691D01*
X150911431Y-94831952D01*
X150852859Y-94973357D01*
X150823000Y-95123472D01*
X149369052Y-95123472D01*
X149366679Y-95123000D01*
X149233321Y-95123000D01*
X149102526Y-95149016D01*
X148979320Y-95200050D01*
X148868437Y-95274140D01*
X148774140Y-95368437D01*
X148700050Y-95479320D01*
X148649016Y-95602526D01*
X148623000Y-95733321D01*
X145760007Y-95733321D01*
X145868048Y-95688569D01*
X145995309Y-95603536D01*
X146103536Y-95495309D01*
X146188569Y-95368048D01*
X146247141Y-95226643D01*
X146277000Y-95076528D01*
X146277000Y-94923472D01*
X146247141Y-94773357D01*
X146188569Y-94631952D01*
X146103536Y-94504691D01*
X145995309Y-94396464D01*
X145868048Y-94311431D01*
X145726643Y-94252859D01*
X145576528Y-94223000D01*
X145423472Y-94223000D01*
X145273357Y-94252859D01*
X145131952Y-94311431D01*
X145004691Y-94396464D01*
X144896464Y-94504691D01*
X144811431Y-94631952D01*
X144752859Y-94773357D01*
X144723000Y-94923472D01*
X144205768Y-94923472D01*
X144188569Y-94881952D01*
X144103536Y-94754691D01*
X143995309Y-94646464D01*
X143868048Y-94561431D01*
X143726643Y-94502859D01*
X143576528Y-94473000D01*
X143423472Y-94473000D01*
X143273357Y-94502859D01*
X143131952Y-94561431D01*
X143004691Y-94646464D01*
X142896464Y-94754691D01*
X142811431Y-94881952D01*
X142752859Y-95023357D01*
X142723000Y-95173472D01*
X140390642Y-95173472D01*
X140495309Y-95103536D01*
X140603536Y-94995309D01*
X140688569Y-94868048D01*
X140747141Y-94726643D01*
X140777000Y-94576528D01*
X140777000Y-94423472D01*
X140747141Y-94273357D01*
X140688569Y-94131952D01*
X140603536Y-94004691D01*
X140522317Y-93923472D01*
X146973000Y-93923472D01*
X146973000Y-94076528D01*
X147002859Y-94226643D01*
X147061431Y-94368048D01*
X147146464Y-94495309D01*
X147254691Y-94603536D01*
X147381952Y-94688569D01*
X147523357Y-94747141D01*
X147673472Y-94777000D01*
X147826528Y-94777000D01*
X147976643Y-94747141D01*
X148118048Y-94688569D01*
X148245309Y-94603536D01*
X148353536Y-94495309D01*
X148438569Y-94368048D01*
X148497141Y-94226643D01*
X148527000Y-94076528D01*
X148527000Y-93923472D01*
X148497141Y-93773357D01*
X148438569Y-93631952D01*
X148366086Y-93523472D01*
X160623000Y-93523472D01*
X160623000Y-93676528D01*
X160652859Y-93826643D01*
X160711431Y-93968048D01*
X160796464Y-94095309D01*
X160904691Y-94203536D01*
X161031952Y-94288569D01*
X161173357Y-94347141D01*
X161323472Y-94377000D01*
X161476528Y-94377000D01*
X161626643Y-94347141D01*
X161768048Y-94288569D01*
X161895309Y-94203536D01*
X162003536Y-94095309D01*
X162088569Y-93968048D01*
X162147141Y-93826643D01*
X162165703Y-93733321D01*
X162973000Y-93733321D01*
X162973000Y-93866679D01*
X162999016Y-93997474D01*
X163050050Y-94120680D01*
X163124140Y-94231563D01*
X163218437Y-94325860D01*
X163329320Y-94399950D01*
X163452526Y-94450984D01*
X163583321Y-94477000D01*
X163716679Y-94477000D01*
X163847474Y-94450984D01*
X163970680Y-94399950D01*
X164081563Y-94325860D01*
X164175860Y-94231563D01*
X164249950Y-94120680D01*
X164300984Y-93997474D01*
X164327000Y-93866679D01*
X164327000Y-93733321D01*
X164300984Y-93602526D01*
X164249950Y-93479320D01*
X164175860Y-93368437D01*
X164081563Y-93274140D01*
X163970680Y-93200050D01*
X163847474Y-93149016D01*
X163716679Y-93123000D01*
X163583321Y-93123000D01*
X163452526Y-93149016D01*
X163329320Y-93200050D01*
X163218437Y-93274140D01*
X163124140Y-93368437D01*
X163050050Y-93479320D01*
X162999016Y-93602526D01*
X162973000Y-93733321D01*
X162165703Y-93733321D01*
X162177000Y-93676528D01*
X162177000Y-93523472D01*
X162147141Y-93373357D01*
X162088569Y-93231952D01*
X162003536Y-93104691D01*
X161895309Y-92996464D01*
X161768048Y-92911431D01*
X161626643Y-92852859D01*
X161476528Y-92823000D01*
X161323472Y-92823000D01*
X161173357Y-92852859D01*
X161031952Y-92911431D01*
X160904691Y-92996464D01*
X160796464Y-93104691D01*
X160711431Y-93231952D01*
X160652859Y-93373357D01*
X160623000Y-93523472D01*
X148366086Y-93523472D01*
X148353536Y-93504691D01*
X148245309Y-93396464D01*
X148118048Y-93311431D01*
X147976643Y-93252859D01*
X147826528Y-93223000D01*
X147673472Y-93223000D01*
X147523357Y-93252859D01*
X147381952Y-93311431D01*
X147254691Y-93396464D01*
X147146464Y-93504691D01*
X147061431Y-93631952D01*
X147002859Y-93773357D01*
X146973000Y-93923472D01*
X140522317Y-93923472D01*
X140495309Y-93896464D01*
X140368048Y-93811431D01*
X140226643Y-93752859D01*
X140076528Y-93723000D01*
X139923472Y-93723000D01*
X139773357Y-93752859D01*
X139631952Y-93811431D01*
X139504691Y-93896464D01*
X139396464Y-94004691D01*
X139311431Y-94131952D01*
X139252859Y-94273357D01*
X139223000Y-94423472D01*
X137777000Y-94423472D01*
X137747141Y-94273357D01*
X137688569Y-94131952D01*
X137603536Y-94004691D01*
X137495309Y-93896464D01*
X137368048Y-93811431D01*
X137226643Y-93752859D01*
X137076528Y-93723000D01*
X136923472Y-93723000D01*
X136773357Y-93752859D01*
X136631952Y-93811431D01*
X136504691Y-93896464D01*
X136396464Y-94004691D01*
X136311431Y-94131952D01*
X136252859Y-94273357D01*
X136223000Y-94423472D01*
X135027000Y-94423472D01*
X134997141Y-94273357D01*
X134938569Y-94131952D01*
X134853536Y-94004691D01*
X134745309Y-93896464D01*
X134618048Y-93811431D01*
X134476643Y-93752859D01*
X134326528Y-93723000D01*
X134173472Y-93723000D01*
X134023357Y-93752859D01*
X133881952Y-93811431D01*
X133754691Y-93896464D01*
X133646464Y-94004691D01*
X133561431Y-94131952D01*
X133502859Y-94273357D01*
X133473000Y-94423472D01*
X129977000Y-94423472D01*
X129977000Y-92673472D01*
X133473000Y-92673472D01*
X133473000Y-92826528D01*
X133502859Y-92976643D01*
X133561431Y-93118048D01*
X133646464Y-93245309D01*
X133754691Y-93353536D01*
X133881952Y-93438569D01*
X134023357Y-93497141D01*
X134173472Y-93527000D01*
X134326528Y-93527000D01*
X134476643Y-93497141D01*
X134618048Y-93438569D01*
X134745309Y-93353536D01*
X134853536Y-93245309D01*
X134938569Y-93118048D01*
X134997141Y-92976643D01*
X135027000Y-92826528D01*
X135027000Y-92673472D01*
X134997141Y-92523357D01*
X134938569Y-92381952D01*
X134853536Y-92254691D01*
X134745309Y-92146464D01*
X134618048Y-92061431D01*
X134476643Y-92002859D01*
X134326528Y-91973000D01*
X134173472Y-91973000D01*
X134023357Y-92002859D01*
X133881952Y-92061431D01*
X133754691Y-92146464D01*
X133646464Y-92254691D01*
X133561431Y-92381952D01*
X133502859Y-92523357D01*
X133473000Y-92673472D01*
X129977000Y-92673472D01*
X129977000Y-90766179D01*
X129996464Y-90795309D01*
X130104691Y-90903536D01*
X130231952Y-90988569D01*
X130373357Y-91047141D01*
X130523472Y-91077000D01*
X130676528Y-91077000D01*
X130826643Y-91047141D01*
X130968048Y-90988569D01*
X131095309Y-90903536D01*
X131203536Y-90795309D01*
X131288569Y-90668048D01*
X131347141Y-90526643D01*
X131377000Y-90376528D01*
X131377000Y-90223472D01*
X131347141Y-90073357D01*
X131288569Y-89931952D01*
X131233810Y-89850000D01*
X131288569Y-89768048D01*
X131347141Y-89626643D01*
X131377000Y-89476528D01*
X131377000Y-89323472D01*
X131347141Y-89173357D01*
X131288569Y-89031952D01*
X131203536Y-88904691D01*
X131095309Y-88796464D01*
X130968048Y-88711431D01*
X130826643Y-88652859D01*
X130676528Y-88623000D01*
X130523472Y-88623000D01*
X130464466Y-88634737D01*
X130604459Y-88559043D01*
X130794758Y-88500135D01*
X131014878Y-88477000D01*
X134133821Y-88477000D01*
X134104691Y-88496464D01*
%TA.AperFunction,Conductor*%
D15*
G36*
X134104691Y-88496464D02*
G01*
X133996464Y-88604691D01*
X133911431Y-88731952D01*
X133852859Y-88873357D01*
X133823000Y-89023472D01*
X133823000Y-89176528D01*
X133852859Y-89326643D01*
X133911431Y-89468048D01*
X133996464Y-89595309D01*
X134104691Y-89703536D01*
X134174229Y-89750000D01*
X134104691Y-89796464D01*
X133996464Y-89904691D01*
X133911431Y-90031952D01*
X133852859Y-90173357D01*
X133823000Y-90323472D01*
X133823000Y-90476528D01*
X133852859Y-90626643D01*
X133911431Y-90768048D01*
X133996464Y-90895309D01*
X134104691Y-91003536D01*
X134231952Y-91088569D01*
X134373357Y-91147141D01*
X134523472Y-91177000D01*
X134676528Y-91177000D01*
X134694264Y-91173472D01*
X135473000Y-91173472D01*
X135473000Y-91326528D01*
X135502859Y-91476643D01*
X135561431Y-91618048D01*
X135646464Y-91745309D01*
X135651155Y-91750000D01*
X135646464Y-91754691D01*
X135561431Y-91881952D01*
X135502859Y-92023357D01*
X135473000Y-92173472D01*
X135473000Y-92326528D01*
X135502859Y-92476643D01*
X135561431Y-92618048D01*
X135646464Y-92745309D01*
X135754691Y-92853536D01*
X135881952Y-92938569D01*
X136023357Y-92997141D01*
X136173472Y-93027000D01*
X136326528Y-93027000D01*
X136476643Y-92997141D01*
X136618048Y-92938569D01*
X136745309Y-92853536D01*
X136750000Y-92848845D01*
X136754691Y-92853536D01*
X136881952Y-92938569D01*
X137023357Y-92997141D01*
X137173472Y-93027000D01*
X137326528Y-93027000D01*
X137476643Y-92997141D01*
X137618048Y-92938569D01*
X137745309Y-92853536D01*
X137853536Y-92745309D01*
X137938569Y-92618048D01*
X137977743Y-92523472D01*
X147923000Y-92523472D01*
X147923000Y-92676528D01*
X147952859Y-92826643D01*
X148011431Y-92968048D01*
X148096464Y-93095309D01*
X148204691Y-93203536D01*
X148331952Y-93288569D01*
X148473357Y-93347141D01*
X148623472Y-93377000D01*
X148776528Y-93377000D01*
X148926643Y-93347141D01*
X149068048Y-93288569D01*
X149195309Y-93203536D01*
X149303536Y-93095309D01*
X149388569Y-92968048D01*
X149447141Y-92826643D01*
X149477000Y-92676528D01*
X149477000Y-92523472D01*
X149447141Y-92373357D01*
X149389137Y-92233321D01*
X155723000Y-92233321D01*
X155723000Y-92366679D01*
X155749016Y-92497474D01*
X155800050Y-92620680D01*
X155874140Y-92731563D01*
X155968437Y-92825860D01*
X156079320Y-92899950D01*
X156202526Y-92950984D01*
X156333321Y-92977000D01*
X156466679Y-92977000D01*
X156597474Y-92950984D01*
X156720680Y-92899950D01*
X156831563Y-92825860D01*
X156925860Y-92731563D01*
X156999950Y-92620680D01*
X157050984Y-92497474D01*
X157077000Y-92366679D01*
X157077000Y-92233321D01*
X157423000Y-92233321D01*
X157423000Y-92366679D01*
X157449016Y-92497474D01*
X157500050Y-92620680D01*
X157574140Y-92731563D01*
X157668437Y-92825860D01*
X157779320Y-92899950D01*
X157902526Y-92950984D01*
X158033321Y-92977000D01*
X158166679Y-92977000D01*
X158297474Y-92950984D01*
X158420680Y-92899950D01*
X158531563Y-92825860D01*
X158625860Y-92731563D01*
X158699950Y-92620680D01*
X158750984Y-92497474D01*
X158777000Y-92366679D01*
X158777000Y-92233321D01*
X158750984Y-92102526D01*
X158699950Y-91979320D01*
X158625860Y-91868437D01*
X158531563Y-91774140D01*
X158420680Y-91700050D01*
X158297474Y-91649016D01*
X158166679Y-91623000D01*
X158033321Y-91623000D01*
X157902526Y-91649016D01*
X157779320Y-91700050D01*
X157668437Y-91774140D01*
X157574140Y-91868437D01*
X157500050Y-91979320D01*
X157449016Y-92102526D01*
X157423000Y-92233321D01*
X157077000Y-92233321D01*
X157050984Y-92102526D01*
X156999950Y-91979320D01*
X156925860Y-91868437D01*
X156831563Y-91774140D01*
X156720680Y-91700050D01*
X156597474Y-91649016D01*
X156466679Y-91623000D01*
X156333321Y-91623000D01*
X156202526Y-91649016D01*
X156079320Y-91700050D01*
X155968437Y-91774140D01*
X155874140Y-91868437D01*
X155800050Y-91979320D01*
X155749016Y-92102526D01*
X155723000Y-92233321D01*
X149389137Y-92233321D01*
X149388569Y-92231952D01*
X149303536Y-92104691D01*
X149195309Y-91996464D01*
X149068048Y-91911431D01*
X148926643Y-91852859D01*
X148776528Y-91823000D01*
X148623472Y-91823000D01*
X148473357Y-91852859D01*
X148331952Y-91911431D01*
X148204691Y-91996464D01*
X148096464Y-92104691D01*
X148011431Y-92231952D01*
X147952859Y-92373357D01*
X147923000Y-92523472D01*
X137977743Y-92523472D01*
X137997141Y-92476643D01*
X138027000Y-92326528D01*
X138027000Y-92173472D01*
X137997141Y-92023357D01*
X137938569Y-91881952D01*
X137853536Y-91754691D01*
X137848845Y-91750000D01*
X137853536Y-91745309D01*
X137938569Y-91618048D01*
X137997141Y-91476643D01*
X138027000Y-91326528D01*
X138027000Y-91323472D01*
X158923000Y-91323472D01*
X158923000Y-91476528D01*
X158952859Y-91626643D01*
X159011431Y-91768048D01*
X159096464Y-91895309D01*
X159204691Y-92003536D01*
X159331952Y-92088569D01*
X159473357Y-92147141D01*
X159623472Y-92177000D01*
X159776528Y-92177000D01*
X159926643Y-92147141D01*
X160068048Y-92088569D01*
X160195309Y-92003536D01*
X160303536Y-91895309D01*
X160388569Y-91768048D01*
X160447141Y-91626643D01*
X160477000Y-91476528D01*
X160477000Y-91323472D01*
X160447141Y-91173357D01*
X160438602Y-91152743D01*
X160447469Y-91150979D01*
X160570675Y-91099945D01*
X160681558Y-91025855D01*
X160775855Y-90931558D01*
X160849945Y-90820675D01*
X160900979Y-90697469D01*
X160926995Y-90566674D01*
X160926995Y-90433316D01*
X160900979Y-90302521D01*
X160849945Y-90179315D01*
X160775855Y-90068432D01*
X160681558Y-89974135D01*
X160570675Y-89900045D01*
X160447469Y-89849011D01*
X160316674Y-89822995D01*
X160183316Y-89822995D01*
X160052521Y-89849011D01*
X159929315Y-89900045D01*
X159818432Y-89974135D01*
X159724135Y-90068432D01*
X159650045Y-90179315D01*
X159599011Y-90302521D01*
X159572995Y-90433316D01*
X159572995Y-90566674D01*
X159585693Y-90630514D01*
X159473357Y-90652859D01*
X159331952Y-90711431D01*
X159204691Y-90796464D01*
X159096464Y-90904691D01*
X159011431Y-91031952D01*
X158952859Y-91173357D01*
X158923000Y-91323472D01*
X138027000Y-91323472D01*
X138027000Y-91173472D01*
X137997141Y-91023357D01*
X137938569Y-90881952D01*
X137853536Y-90754691D01*
X137745309Y-90646464D01*
X137618048Y-90561431D01*
X137476643Y-90502859D01*
X137326528Y-90473000D01*
X137173472Y-90473000D01*
X137023357Y-90502859D01*
X136881952Y-90561431D01*
X136754691Y-90646464D01*
X136750000Y-90651155D01*
X136745309Y-90646464D01*
X136618048Y-90561431D01*
X136476643Y-90502859D01*
X136326528Y-90473000D01*
X136173472Y-90473000D01*
X136023357Y-90502859D01*
X135881952Y-90561431D01*
X135754691Y-90646464D01*
X135646464Y-90754691D01*
X135561431Y-90881952D01*
X135502859Y-91023357D01*
X135473000Y-91173472D01*
X134694264Y-91173472D01*
X134826643Y-91147141D01*
X134968048Y-91088569D01*
X135095309Y-91003536D01*
X135203536Y-90895309D01*
X135288569Y-90768048D01*
X135347141Y-90626643D01*
X135377000Y-90476528D01*
X135377000Y-90323472D01*
X135347141Y-90173357D01*
X135288569Y-90031952D01*
X135203536Y-89904691D01*
X135095309Y-89796464D01*
X135025771Y-89750000D01*
X135095309Y-89703536D01*
X135175373Y-89623472D01*
X140323000Y-89623472D01*
X140323000Y-89776528D01*
X140352859Y-89926643D01*
X140411431Y-90068048D01*
X140496464Y-90195309D01*
X140604691Y-90303536D01*
X140731952Y-90388569D01*
X140873357Y-90447141D01*
X141023472Y-90477000D01*
X141176528Y-90477000D01*
X141326643Y-90447141D01*
X141468048Y-90388569D01*
X141565472Y-90323472D01*
X147223000Y-90323472D01*
X147223000Y-90476528D01*
X147252859Y-90626643D01*
X147311431Y-90768048D01*
X147396464Y-90895309D01*
X147504691Y-91003536D01*
X147631952Y-91088569D01*
X147773357Y-91147141D01*
X147923472Y-91177000D01*
X148076528Y-91177000D01*
X148226643Y-91147141D01*
X148368048Y-91088569D01*
X148495309Y-91003536D01*
X148603536Y-90895309D01*
X148688569Y-90768048D01*
X148747141Y-90626643D01*
X148777000Y-90476528D01*
X148777000Y-90323472D01*
X148747141Y-90173357D01*
X148688569Y-90031952D01*
X148603536Y-89904691D01*
X148495309Y-89796464D01*
X148368048Y-89711431D01*
X148226643Y-89652859D01*
X148076528Y-89623000D01*
X147923472Y-89623000D01*
X147773357Y-89652859D01*
X147631952Y-89711431D01*
X147504691Y-89796464D01*
X147396464Y-89904691D01*
X147311431Y-90031952D01*
X147252859Y-90173357D01*
X147223000Y-90323472D01*
X141565472Y-90323472D01*
X141595309Y-90303536D01*
X141703536Y-90195309D01*
X141788569Y-90068048D01*
X141847141Y-89926643D01*
X141877000Y-89776528D01*
X141877000Y-89623472D01*
X141847141Y-89473357D01*
X141788569Y-89331952D01*
X141703536Y-89204691D01*
X141595309Y-89096464D01*
X141468048Y-89011431D01*
X141326643Y-88952859D01*
X141176528Y-88923000D01*
X141023472Y-88923000D01*
X140873357Y-88952859D01*
X140731952Y-89011431D01*
X140604691Y-89096464D01*
X140496464Y-89204691D01*
X140411431Y-89331952D01*
X140352859Y-89473357D01*
X140323000Y-89623472D01*
X135175373Y-89623472D01*
X135203536Y-89595309D01*
X135288569Y-89468048D01*
X135347141Y-89326643D01*
X135377000Y-89176528D01*
X135377000Y-89023472D01*
X135347141Y-88873357D01*
X135288569Y-88731952D01*
X135203536Y-88604691D01*
X135095309Y-88496464D01*
X135066179Y-88477000D01*
X145648149Y-88477000D01*
X145611431Y-88531952D01*
X145552859Y-88673357D01*
X145523000Y-88823472D01*
X145523000Y-88976528D01*
X145552859Y-89126643D01*
X145611431Y-89268048D01*
X145696464Y-89395309D01*
X145804691Y-89503536D01*
X145931952Y-89588569D01*
X146073357Y-89647141D01*
X146223472Y-89677000D01*
X146376528Y-89677000D01*
X146526643Y-89647141D01*
X146668048Y-89588569D01*
X146795309Y-89503536D01*
X146903536Y-89395309D01*
X146988569Y-89268048D01*
X147047141Y-89126643D01*
X147077000Y-88976528D01*
X147077000Y-88823472D01*
X147047141Y-88673357D01*
X146988569Y-88531952D01*
X146951851Y-88477000D01*
X151024155Y-88477000D01*
X150996464Y-88504691D01*
X150911431Y-88631952D01*
X150852859Y-88773357D01*
X150823000Y-88923472D01*
X150823000Y-89076528D01*
X150852859Y-89226643D01*
X150911431Y-89368048D01*
X150996464Y-89495309D01*
X151104691Y-89603536D01*
X151231952Y-89688569D01*
X151373357Y-89747141D01*
X151523472Y-89777000D01*
X151676528Y-89777000D01*
X151826643Y-89747141D01*
X151968048Y-89688569D01*
X152095309Y-89603536D01*
X152203536Y-89495309D01*
X152288569Y-89368048D01*
X152347141Y-89226643D01*
X152377000Y-89076528D01*
X152377000Y-88923472D01*
X152347141Y-88773357D01*
X152288569Y-88631952D01*
X152203536Y-88504691D01*
X152175845Y-88477000D01*
X154815076Y-88477000D01*
X154731952Y-88511431D01*
X154604691Y-88596464D01*
X154496464Y-88704691D01*
X154411431Y-88831952D01*
X154352859Y-88973357D01*
X154323000Y-89123472D01*
X154323000Y-89276528D01*
X154352859Y-89426643D01*
X154411431Y-89568048D01*
X154496464Y-89695309D01*
X154604691Y-89803536D01*
X154731952Y-89888569D01*
X154873357Y-89947141D01*
X155023472Y-89977000D01*
X155176528Y-89977000D01*
X155326643Y-89947141D01*
X155468048Y-89888569D01*
X155595309Y-89803536D01*
X155703536Y-89695309D01*
X155788569Y-89568048D01*
X155847141Y-89426643D01*
X155877000Y-89276528D01*
X155877000Y-89123472D01*
X155847141Y-88973357D01*
X155788569Y-88831952D01*
X155703536Y-88704691D01*
X155595309Y-88596464D01*
X155468048Y-88511431D01*
X155384924Y-88477000D01*
X164633821Y-88477000D01*
X164604691Y-88496464D01*
X164496464Y-88604691D01*
X164411431Y-88731952D01*
X164352859Y-88873357D01*
X164323000Y-89023472D01*
X164323000Y-89176528D01*
X164352859Y-89326643D01*
X164411431Y-89468048D01*
X164466190Y-89550000D01*
X164411431Y-89631952D01*
X164352859Y-89773357D01*
X164323000Y-89923472D01*
X164323000Y-90076528D01*
X164352859Y-90226643D01*
X164411431Y-90368048D01*
X164466190Y-90450000D01*
X164411431Y-90531952D01*
X164352859Y-90673357D01*
X164323000Y-90823472D01*
X164323000Y-90976528D01*
X164352859Y-91126643D01*
X164411431Y-91268048D01*
X164466190Y-91350000D01*
X164411431Y-91431952D01*
X164352859Y-91573357D01*
X164323000Y-91723472D01*
X164323000Y-91876528D01*
X164352859Y-92026643D01*
X164411431Y-92168048D01*
X164496464Y-92295309D01*
X164604691Y-92403536D01*
X164697511Y-92465557D01*
X164652859Y-92573357D01*
X164623000Y-92723472D01*
X164623000Y-92876528D01*
X164652859Y-93026643D01*
X164711431Y-93168048D01*
X164796464Y-93295309D01*
X164904691Y-93403536D01*
X165031952Y-93488569D01*
X165173357Y-93547141D01*
X165323472Y-93577000D01*
X165476528Y-93577000D01*
X165626643Y-93547141D01*
X165734443Y-93502489D01*
X165796464Y-93595309D01*
X165904691Y-93703536D01*
X166031952Y-93788569D01*
X166173357Y-93847141D01*
X166323472Y-93877000D01*
X166476528Y-93877000D01*
X166626643Y-93847141D01*
X166768048Y-93788569D01*
X166895309Y-93703536D01*
X167003536Y-93595309D01*
X167088569Y-93468048D01*
X167147141Y-93326643D01*
X167177000Y-93176528D01*
X167177000Y-93023472D01*
X167147141Y-92873357D01*
X167088569Y-92731952D01*
X167003536Y-92604691D01*
X166939832Y-92540987D01*
X166988569Y-92468048D01*
X167047141Y-92326643D01*
X167077000Y-92176528D01*
X167077000Y-92023472D01*
X167047141Y-91873357D01*
X166988569Y-91731952D01*
X166903536Y-91604691D01*
X166795309Y-91496464D01*
X166668048Y-91411431D01*
X166526643Y-91352859D01*
X166376528Y-91323000D01*
X166223472Y-91323000D01*
X166073357Y-91352859D01*
X165931952Y-91411431D01*
X165812993Y-91490917D01*
X165788569Y-91431952D01*
X165733810Y-91350000D01*
X165788569Y-91268048D01*
X165847141Y-91126643D01*
X165877000Y-90976528D01*
X165877000Y-90823472D01*
X165847141Y-90673357D01*
X165788569Y-90531952D01*
X165733810Y-90450000D01*
X165788569Y-90368048D01*
X165847141Y-90226643D01*
X165877000Y-90076528D01*
X165877000Y-89923472D01*
X165847141Y-89773357D01*
X165788569Y-89631952D01*
X165733810Y-89550000D01*
X165788569Y-89468048D01*
X165847141Y-89326643D01*
X165877000Y-89176528D01*
X165877000Y-89023472D01*
X165847141Y-88873357D01*
X165788569Y-88731952D01*
X165703536Y-88604691D01*
X165595309Y-88496464D01*
X165566179Y-88477000D01*
X167333821Y-88477000D01*
X167304691Y-88496464D01*
X167196464Y-88604691D01*
X167111431Y-88731952D01*
X167052859Y-88873357D01*
X167023000Y-89023472D01*
X167023000Y-89176528D01*
X167052859Y-89326643D01*
X167111431Y-89468048D01*
X167196464Y-89595309D01*
X167301155Y-89700000D01*
X167196464Y-89804691D01*
X167111431Y-89931952D01*
X167052859Y-90073357D01*
X167023000Y-90223472D01*
X167023000Y-90376528D01*
X167052859Y-90526643D01*
X167111431Y-90668048D01*
X167196464Y-90795309D01*
X167304691Y-90903536D01*
X167431952Y-90988569D01*
X167573357Y-91047141D01*
X167723472Y-91077000D01*
X167876528Y-91077000D01*
X168026643Y-91047141D01*
X168168048Y-90988569D01*
X168295309Y-90903536D01*
X168403536Y-90795309D01*
X168488569Y-90668048D01*
X168547141Y-90526643D01*
X168577000Y-90376528D01*
X168577000Y-90223472D01*
X168547141Y-90073357D01*
X168488569Y-89931952D01*
X168403536Y-89804691D01*
X168298845Y-89700000D01*
X168403536Y-89595309D01*
X168488569Y-89468048D01*
X168547141Y-89326643D01*
X168577000Y-89176528D01*
X168577000Y-89023472D01*
X168547141Y-88873357D01*
X168488569Y-88731952D01*
X168403536Y-88604691D01*
X168295309Y-88496464D01*
X168266179Y-88477000D01*
X168976666Y-88477000D01*
X169198261Y-88498727D01*
X169388961Y-88556303D01*
X169564855Y-88649828D01*
X169719227Y-88775731D01*
X169846208Y-88929224D01*
X169940957Y-89104459D01*
X169999865Y-89294758D01*
X170023001Y-89514888D01*
X170023001Y-91633822D01*
X170003536Y-91604691D01*
X169895309Y-91496464D01*
X169768048Y-91411431D01*
X169626643Y-91352859D01*
X169476528Y-91323000D01*
X169323472Y-91323000D01*
X169173357Y-91352859D01*
X169031952Y-91411431D01*
X168904691Y-91496464D01*
X168796464Y-91604691D01*
X168711431Y-91731952D01*
X168652859Y-91873357D01*
X168623000Y-92023472D01*
X168623000Y-92142985D01*
X168573357Y-92152859D01*
X168431952Y-92211431D01*
X168304691Y-92296464D01*
X168196464Y-92404691D01*
X168111431Y-92531952D01*
X168052859Y-92673357D01*
X168023000Y-92823472D01*
X168023000Y-92976528D01*
X168035716Y-93040455D01*
X167973357Y-93052859D01*
X167831952Y-93111431D01*
X167704691Y-93196464D01*
X167596464Y-93304691D01*
X167511431Y-93431952D01*
X167452859Y-93573357D01*
X167423000Y-93723472D01*
X167423000Y-93876528D01*
X167452859Y-94026643D01*
X167511431Y-94168048D01*
X167596464Y-94295309D01*
X167704691Y-94403536D01*
X167831952Y-94488569D01*
X167973357Y-94547141D01*
X168123472Y-94577000D01*
X168276528Y-94577000D01*
X168426643Y-94547141D01*
X168568048Y-94488569D01*
X168608684Y-94461417D01*
X168611431Y-94468048D01*
X168696464Y-94595309D01*
X168804691Y-94703536D01*
X168931952Y-94788569D01*
X169073357Y-94847141D01*
X169223472Y-94877000D01*
X169376528Y-94877000D01*
X169526643Y-94847141D01*
X169668048Y-94788569D01*
X169795309Y-94703536D01*
X169903536Y-94595309D01*
X169988569Y-94468048D01*
X170023000Y-94384923D01*
X170023000Y-97623422D01*
X170025024Y-97643969D01*
X170024985Y-97649514D01*
X170025635Y-97656142D01*
X170043995Y-97830829D01*
X170052691Y-97873192D01*
X170060789Y-97915647D01*
X170062071Y-97919893D01*
X170003004Y-97944360D01*
X169900311Y-98012977D01*
X169812977Y-98100311D01*
X169744360Y-98203004D01*
X169697095Y-98317111D01*
X169673000Y-98438246D01*
X169673000Y-98561754D01*
X169697095Y-98682889D01*
X169744360Y-98796996D01*
X169812977Y-98899689D01*
X169900311Y-98987023D01*
X170003004Y-99055640D01*
X170117111Y-99102905D01*
X170123000Y-99104076D01*
X170123000Y-99445924D01*
X170117111Y-99447095D01*
X170003004Y-99494360D01*
X169900311Y-99562977D01*
X169812977Y-99650311D01*
X169744360Y-99753004D01*
X169697095Y-99867111D01*
X169673000Y-99988246D01*
X169673000Y-100111754D01*
X169697095Y-100232889D01*
X169744360Y-100346996D01*
X169812977Y-100449689D01*
X169900311Y-100537023D01*
X170003004Y-100605640D01*
X170117111Y-100652905D01*
X170123000Y-100654076D01*
X170123000Y-100895924D01*
X170117111Y-100897095D01*
X170003004Y-100944360D01*
X169900311Y-101012977D01*
X169812977Y-101100311D01*
X169744360Y-101203004D01*
X169697095Y-101317111D01*
X169673000Y-101438246D01*
X169673000Y-101561754D01*
X169697095Y-101682889D01*
X169744360Y-101796996D01*
X169812977Y-101899689D01*
X169900311Y-101987023D01*
X170003004Y-102055640D01*
X170062609Y-102080329D01*
X170060499Y-102087319D01*
X170052098Y-102129746D01*
X170043112Y-102172019D01*
X170042416Y-102178643D01*
X170025276Y-102353454D01*
X170025276Y-102353470D01*
X170023000Y-102376578D01*
X170023000Y-104548149D01*
X169968048Y-104511431D01*
X169826643Y-104452859D01*
X169676528Y-104423000D01*
X169523472Y-104423000D01*
X169373357Y-104452859D01*
X169231952Y-104511431D01*
X169104691Y-104596464D01*
X168996464Y-104704691D01*
X168911431Y-104831952D01*
X168852859Y-104973357D01*
X168823000Y-105123472D01*
X168823000Y-105276528D01*
X168852859Y-105426643D01*
X168911431Y-105568048D01*
X168996464Y-105695309D01*
X169104691Y-105803536D01*
X169231952Y-105888569D01*
X169373357Y-105947141D01*
X169523472Y-105977000D01*
X169676528Y-105977000D01*
X169826643Y-105947141D01*
X169968048Y-105888569D01*
X170023000Y-105851851D01*
X170023001Y-107415077D01*
X169988569Y-107331952D01*
X169903536Y-107204691D01*
X169795309Y-107096464D01*
X169668048Y-107011431D01*
X169526643Y-106952859D01*
X169376528Y-106923000D01*
X169223472Y-106923000D01*
X169073357Y-106952859D01*
X168931952Y-107011431D01*
X168804691Y-107096464D01*
X168696464Y-107204691D01*
X168611431Y-107331952D01*
X168552859Y-107473357D01*
X168523000Y-107623472D01*
X168523000Y-107776528D01*
X168552859Y-107926643D01*
X168611431Y-108068048D01*
X168696464Y-108195309D01*
X168804691Y-108303536D01*
X168931952Y-108388569D01*
X169073357Y-108447141D01*
X169223472Y-108477000D01*
X169376528Y-108477000D01*
X169526643Y-108447141D01*
X169668048Y-108388569D01*
X169795309Y-108303536D01*
X169903536Y-108195309D01*
X169988569Y-108068048D01*
X170023001Y-107984923D01*
X170023001Y-110476656D01*
X170001273Y-110698261D01*
X169975760Y-110782764D01*
X169977000Y-110776528D01*
X169977000Y-110623472D01*
X169947141Y-110473357D01*
X169888569Y-110331952D01*
X169803536Y-110204691D01*
X169695309Y-110096464D01*
X169568048Y-110011431D01*
X169426643Y-109952859D01*
X169276528Y-109923000D01*
X169123472Y-109923000D01*
X168973357Y-109952859D01*
X168831952Y-110011431D01*
X168704691Y-110096464D01*
X168596464Y-110204691D01*
X168511431Y-110331952D01*
X168452859Y-110473357D01*
X168423000Y-110623472D01*
X168423000Y-110776528D01*
X168452859Y-110926643D01*
X168511431Y-111068048D01*
X168596464Y-111195309D01*
X168704691Y-111303536D01*
X168831952Y-111388569D01*
X168973357Y-111447141D01*
X169123472Y-111477000D01*
X169276528Y-111477000D01*
X169283742Y-111475565D01*
X169205242Y-111499865D01*
X168985122Y-111523000D01*
X164875845Y-111523000D01*
X164903536Y-111495309D01*
X164988569Y-111368048D01*
X165047141Y-111226643D01*
X165077000Y-111076528D01*
X165077000Y-110923472D01*
X165047141Y-110773357D01*
X164988569Y-110631952D01*
X164903536Y-110504691D01*
X164795309Y-110396464D01*
X164668048Y-110311431D01*
X164526643Y-110252859D01*
X164376528Y-110223000D01*
X164223472Y-110223000D01*
X164073357Y-110252859D01*
X163931952Y-110311431D01*
X163804691Y-110396464D01*
X163696464Y-110504691D01*
X163611431Y-110631952D01*
X163552859Y-110773357D01*
X163523000Y-110923472D01*
X163523000Y-111076528D01*
X163552859Y-111226643D01*
X163611431Y-111368048D01*
X163696464Y-111495309D01*
X163724155Y-111523000D01*
X160066179Y-111523000D01*
X160095309Y-111503536D01*
X160203536Y-111395309D01*
X160288569Y-111268048D01*
X160347141Y-111126643D01*
X160377000Y-110976528D01*
X160377000Y-110823472D01*
X160347141Y-110673357D01*
X160288569Y-110531952D01*
X160203536Y-110404691D01*
X160095309Y-110296464D01*
X159968048Y-110211431D01*
X159826643Y-110152859D01*
X159676528Y-110123000D01*
X159523472Y-110123000D01*
X159373357Y-110152859D01*
X159231952Y-110211431D01*
X159104691Y-110296464D01*
X158996464Y-110404691D01*
X158987874Y-110417546D01*
X159027000Y-110220849D01*
X159027000Y-109979151D01*
X158979847Y-109742097D01*
X158887353Y-109518798D01*
X158753073Y-109317833D01*
X158582167Y-109146927D01*
X158381202Y-109012647D01*
X158157903Y-108920153D01*
X157920849Y-108873000D01*
X157679151Y-108873000D01*
X157442097Y-108920153D01*
X157218798Y-109012647D01*
X157208731Y-109019374D01*
X157247141Y-108926643D01*
X157277000Y-108776528D01*
X157277000Y-108723472D01*
X160523000Y-108723472D01*
X160523000Y-108876528D01*
X160552859Y-109026643D01*
X160611431Y-109168048D01*
X160696464Y-109295309D01*
X160804691Y-109403536D01*
X160931952Y-109488569D01*
X161073357Y-109547141D01*
X161223472Y-109577000D01*
X161376528Y-109577000D01*
X161526643Y-109547141D01*
X161668048Y-109488569D01*
X161795309Y-109403536D01*
X161903536Y-109295309D01*
X161988569Y-109168048D01*
X162047141Y-109026643D01*
X162077000Y-108876528D01*
X162077000Y-108823472D01*
X165523000Y-108823472D01*
X165523000Y-108976528D01*
X165552859Y-109126643D01*
X165611431Y-109268048D01*
X165696464Y-109395309D01*
X165804691Y-109503536D01*
X165931952Y-109588569D01*
X166073357Y-109647141D01*
X166223472Y-109677000D01*
X166376528Y-109677000D01*
X166526643Y-109647141D01*
X166668048Y-109588569D01*
X166795309Y-109503536D01*
X166903536Y-109395309D01*
X166988569Y-109268048D01*
X167047141Y-109126643D01*
X167077000Y-108976528D01*
X167077000Y-108823472D01*
X167047141Y-108673357D01*
X166988569Y-108531952D01*
X166903536Y-108404691D01*
X166795309Y-108296464D01*
X166668048Y-108211431D01*
X166526643Y-108152859D01*
X166376528Y-108123000D01*
X166223472Y-108123000D01*
X166073357Y-108152859D01*
X165931952Y-108211431D01*
X165804691Y-108296464D01*
X165696464Y-108404691D01*
X165611431Y-108531952D01*
X165552859Y-108673357D01*
X165523000Y-108823472D01*
X162077000Y-108823472D01*
X162077000Y-108723472D01*
X162047141Y-108573357D01*
X161988569Y-108431952D01*
X161903536Y-108304691D01*
X161795309Y-108196464D01*
X161668048Y-108111431D01*
X161526643Y-108052859D01*
X161376528Y-108023000D01*
X161223472Y-108023000D01*
X161073357Y-108052859D01*
X160931952Y-108111431D01*
X160804691Y-108196464D01*
X160696464Y-108304691D01*
X160611431Y-108431952D01*
X160552859Y-108573357D01*
X160523000Y-108723472D01*
X157277000Y-108723472D01*
X157277000Y-108623472D01*
X157247141Y-108473357D01*
X157188569Y-108331952D01*
X157103536Y-108204691D01*
X156995309Y-108096464D01*
X156868048Y-108011431D01*
X156726643Y-107952859D01*
X156576528Y-107923000D01*
X156423472Y-107923000D01*
X156273357Y-107952859D01*
X156131952Y-108011431D01*
X156004691Y-108096464D01*
X155896464Y-108204691D01*
X155811431Y-108331952D01*
X155752859Y-108473357D01*
X155723000Y-108623472D01*
X155723000Y-108776528D01*
X155752859Y-108926643D01*
X155777565Y-108986287D01*
X155617903Y-108920153D01*
X155380849Y-108873000D01*
X155139151Y-108873000D01*
X154902097Y-108920153D01*
X154678798Y-109012647D01*
X154477833Y-109146927D01*
X154306927Y-109317833D01*
X154172647Y-109518798D01*
X154080153Y-109742097D01*
X154033000Y-109979151D01*
X154033000Y-110220849D01*
X154073210Y-110423000D01*
X153923472Y-110423000D01*
X153906102Y-110426455D01*
X153947000Y-110220849D01*
X153947000Y-109979151D01*
X153899847Y-109742097D01*
X153807353Y-109518798D01*
X153673073Y-109317833D01*
X153502167Y-109146927D01*
X153301202Y-109012647D01*
X153077903Y-108920153D01*
X152840849Y-108873000D01*
X152599151Y-108873000D01*
X152362097Y-108920153D01*
X152297288Y-108946998D01*
X152347141Y-108826643D01*
X152377000Y-108676528D01*
X152377000Y-108523472D01*
X152347141Y-108373357D01*
X152288569Y-108231952D01*
X152216086Y-108123472D01*
X153323000Y-108123472D01*
X153323000Y-108276528D01*
X153352859Y-108426643D01*
X153411431Y-108568048D01*
X153496464Y-108695309D01*
X153604691Y-108803536D01*
X153731952Y-108888569D01*
X153873357Y-108947141D01*
X154023472Y-108977000D01*
X154176528Y-108977000D01*
X154326643Y-108947141D01*
X154468048Y-108888569D01*
X154595309Y-108803536D01*
X154703536Y-108695309D01*
X154788569Y-108568048D01*
X154847141Y-108426643D01*
X154877000Y-108276528D01*
X154877000Y-108123472D01*
X154847141Y-107973357D01*
X154788569Y-107831952D01*
X154703536Y-107704691D01*
X154595309Y-107596464D01*
X154468048Y-107511431D01*
X154326643Y-107452859D01*
X154176528Y-107423000D01*
X154023472Y-107423000D01*
X153873357Y-107452859D01*
X153731952Y-107511431D01*
X153604691Y-107596464D01*
X153496464Y-107704691D01*
X153411431Y-107831952D01*
X153352859Y-107973357D01*
X153323000Y-108123472D01*
X152216086Y-108123472D01*
X152203536Y-108104691D01*
X152095309Y-107996464D01*
X151968048Y-107911431D01*
X151826643Y-107852859D01*
X151676528Y-107823000D01*
X151523472Y-107823000D01*
X151373357Y-107852859D01*
X151231952Y-107911431D01*
X151104691Y-107996464D01*
X150996464Y-108104691D01*
X150911431Y-108231952D01*
X150852859Y-108373357D01*
X150823000Y-108523472D01*
X150823000Y-108676528D01*
X150852859Y-108826643D01*
X150871305Y-108871176D01*
X149330000Y-108871176D01*
X149256095Y-108878455D01*
X149185030Y-108900012D01*
X149119537Y-108935019D01*
X149062131Y-108982131D01*
X149015019Y-109039537D01*
X148980012Y-109105030D01*
X148958455Y-109176095D01*
X148951176Y-109250000D01*
X148951176Y-110475989D01*
X148903536Y-110404691D01*
X148795309Y-110296464D01*
X148668048Y-110211431D01*
X148526643Y-110152859D01*
X148376528Y-110123000D01*
X148223472Y-110123000D01*
X148073357Y-110152859D01*
X147931952Y-110211431D01*
X147828814Y-110280345D01*
X147800814Y-110227000D01*
X146607000Y-110227000D01*
X146607000Y-110247000D01*
X146353000Y-110247000D01*
X146353000Y-110227000D01*
X146333000Y-110227000D01*
X146333000Y-109973000D01*
X146353000Y-109973000D01*
X146353000Y-109953000D01*
X146607000Y-109953000D01*
X146607000Y-109973000D01*
X147800814Y-109973000D01*
X147921481Y-109743109D01*
X147824157Y-109468748D01*
X147675178Y-109218645D01*
X147582745Y-109116100D01*
X147603536Y-109095309D01*
X147688569Y-108968048D01*
X147747141Y-108826643D01*
X147777000Y-108676528D01*
X147777000Y-108523472D01*
X147747141Y-108373357D01*
X147688569Y-108231952D01*
X147603536Y-108104691D01*
X147495309Y-107996464D01*
X147368048Y-107911431D01*
X147226643Y-107852859D01*
X147076528Y-107823000D01*
X146923472Y-107823000D01*
X146773357Y-107852859D01*
X146631952Y-107911431D01*
X146504691Y-107996464D01*
X146396464Y-108104691D01*
X146311431Y-108231952D01*
X146252859Y-108373357D01*
X146223000Y-108523472D01*
X146223000Y-108676528D01*
X146230714Y-108715310D01*
X146123110Y-108658524D01*
X145975901Y-108703175D01*
X145900580Y-108739051D01*
X145947141Y-108626643D01*
X145977000Y-108476528D01*
X145977000Y-108323472D01*
X145947141Y-108173357D01*
X145888569Y-108031952D01*
X145803536Y-107904691D01*
X145695309Y-107796464D01*
X145586069Y-107723472D01*
X149023000Y-107723472D01*
X149023000Y-107876528D01*
X149052859Y-108026643D01*
X149111431Y-108168048D01*
X149196464Y-108295309D01*
X149304691Y-108403536D01*
X149431952Y-108488569D01*
X149573357Y-108547141D01*
X149723472Y-108577000D01*
X149876528Y-108577000D01*
X150026643Y-108547141D01*
X150168048Y-108488569D01*
X150295309Y-108403536D01*
X150403536Y-108295309D01*
X150488569Y-108168048D01*
X150547141Y-108026643D01*
X150577000Y-107876528D01*
X150577000Y-107723472D01*
X150547141Y-107573357D01*
X150488569Y-107431952D01*
X150416086Y-107323472D01*
X157723000Y-107323472D01*
X157723000Y-107476528D01*
X157752859Y-107626643D01*
X157811431Y-107768048D01*
X157896464Y-107895309D01*
X158004691Y-108003536D01*
X158131952Y-108088569D01*
X158273357Y-108147141D01*
X158423472Y-108177000D01*
X158576528Y-108177000D01*
X158726643Y-108147141D01*
X158868048Y-108088569D01*
X158995309Y-108003536D01*
X159103536Y-107895309D01*
X159188569Y-107768048D01*
X159247141Y-107626643D01*
X159277000Y-107476528D01*
X159277000Y-107323472D01*
X159247141Y-107173357D01*
X159188569Y-107031952D01*
X159103536Y-106904691D01*
X158995309Y-106796464D01*
X158868048Y-106711431D01*
X158726643Y-106652859D01*
X158576528Y-106623000D01*
X158423472Y-106623000D01*
X158273357Y-106652859D01*
X158131952Y-106711431D01*
X158004691Y-106796464D01*
X157896464Y-106904691D01*
X157811431Y-107031952D01*
X157752859Y-107173357D01*
X157723000Y-107323472D01*
X150416086Y-107323472D01*
X150403536Y-107304691D01*
X150334495Y-107235650D01*
X150420678Y-107199952D01*
X150531561Y-107125862D01*
X150625858Y-107031565D01*
X150699948Y-106920682D01*
X150750982Y-106797476D01*
X150776998Y-106666681D01*
X150776998Y-106533323D01*
X150776998Y-106533321D01*
X153323000Y-106533321D01*
X153323000Y-106666679D01*
X153349016Y-106797474D01*
X153400050Y-106920680D01*
X153474140Y-107031563D01*
X153568437Y-107125860D01*
X153679320Y-107199950D01*
X153802526Y-107250984D01*
X153933321Y-107277000D01*
X154066679Y-107277000D01*
X154197474Y-107250984D01*
X154320680Y-107199950D01*
X154431563Y-107125860D01*
X154525860Y-107031563D01*
X154599950Y-106920680D01*
X154650984Y-106797474D01*
X154677000Y-106666679D01*
X154677000Y-106533321D01*
X154650984Y-106402526D01*
X154599950Y-106279320D01*
X154525860Y-106168437D01*
X154431563Y-106074140D01*
X154320680Y-106000050D01*
X154197474Y-105949016D01*
X154066679Y-105923000D01*
X153933321Y-105923000D01*
X153802526Y-105949016D01*
X153679320Y-106000050D01*
X153568437Y-106074140D01*
X153474140Y-106168437D01*
X153400050Y-106279320D01*
X153349016Y-106402526D01*
X153323000Y-106533321D01*
X150776998Y-106533321D01*
X150750982Y-106402528D01*
X150699948Y-106279322D01*
X150625858Y-106168439D01*
X150531561Y-106074142D01*
X150420678Y-106000052D01*
X150297472Y-105949018D01*
X150166677Y-105923002D01*
X150033319Y-105923002D01*
X149902524Y-105949018D01*
X149779318Y-106000052D01*
X149668435Y-106074142D01*
X149574138Y-106168439D01*
X149500048Y-106279322D01*
X149449014Y-106402528D01*
X149422998Y-106533323D01*
X149422998Y-106666681D01*
X149449014Y-106797476D01*
X149500048Y-106920682D01*
X149574138Y-107031565D01*
X149591770Y-107049197D01*
X149573357Y-107052859D01*
X149431952Y-107111431D01*
X149304691Y-107196464D01*
X149196464Y-107304691D01*
X149111431Y-107431952D01*
X149052859Y-107573357D01*
X149023000Y-107723472D01*
X145586069Y-107723472D01*
X145568048Y-107711431D01*
X145426643Y-107652859D01*
X145276528Y-107623000D01*
X145123472Y-107623000D01*
X144973357Y-107652859D01*
X144831952Y-107711431D01*
X144704691Y-107796464D01*
X144596464Y-107904691D01*
X144511431Y-108031952D01*
X144452859Y-108173357D01*
X144423000Y-108323472D01*
X144423000Y-108476528D01*
X144452859Y-108626643D01*
X144511431Y-108768048D01*
X144596464Y-108895309D01*
X144704691Y-109003536D01*
X144831952Y-109088569D01*
X144973357Y-109147141D01*
X145123472Y-109177000D01*
X145276528Y-109177000D01*
X145332373Y-109165892D01*
X145284822Y-109218645D01*
X145135843Y-109468748D01*
X145076231Y-109636798D01*
X145027353Y-109518798D01*
X144893073Y-109317833D01*
X144722167Y-109146927D01*
X144521202Y-109012647D01*
X144297903Y-108920153D01*
X144060849Y-108873000D01*
X143819151Y-108873000D01*
X143702677Y-108896168D01*
X143703536Y-108895309D01*
X143788569Y-108768048D01*
X143847141Y-108626643D01*
X143877000Y-108476528D01*
X143877000Y-108323472D01*
X143847141Y-108173357D01*
X143788569Y-108031952D01*
X143703536Y-107904691D01*
X143595309Y-107796464D01*
X143468048Y-107711431D01*
X143326643Y-107652859D01*
X143176528Y-107623000D01*
X143023472Y-107623000D01*
X142873357Y-107652859D01*
X142731952Y-107711431D01*
X142604691Y-107796464D01*
X142496464Y-107904691D01*
X142411431Y-108031952D01*
X142352859Y-108173357D01*
X142323000Y-108323472D01*
X142323000Y-108476528D01*
X142352859Y-108626643D01*
X142411431Y-108768048D01*
X142496464Y-108895309D01*
X142604691Y-109003536D01*
X142731952Y-109088569D01*
X142873357Y-109147141D01*
X143023472Y-109177000D01*
X143127760Y-109177000D01*
X142986927Y-109317833D01*
X142852647Y-109518798D01*
X142760153Y-109742097D01*
X142713000Y-109979151D01*
X142713000Y-110220849D01*
X142760153Y-110457903D01*
X142810304Y-110578977D01*
X142731952Y-110611431D01*
X142628824Y-110680339D01*
X142628824Y-109250000D01*
X142621545Y-109176095D01*
X142599988Y-109105030D01*
X142564981Y-109039537D01*
X142517869Y-108982131D01*
X142460463Y-108935019D01*
X142394970Y-108900012D01*
X142323905Y-108878455D01*
X142250000Y-108871176D01*
X140550000Y-108871176D01*
X140476095Y-108878455D01*
X140405030Y-108900012D01*
X140339537Y-108935019D01*
X140282131Y-108982131D01*
X140235019Y-109039537D01*
X140200012Y-109105030D01*
X140178455Y-109176095D01*
X140171176Y-109250000D01*
X140171176Y-110950000D01*
X140178455Y-111023905D01*
X140200012Y-111094970D01*
X140235019Y-111160463D01*
X140282131Y-111217869D01*
X140339537Y-111264981D01*
X140405030Y-111299988D01*
X140476095Y-111321545D01*
X140550000Y-111328824D01*
X142250000Y-111328824D01*
X142323000Y-111321634D01*
X142323000Y-111376528D01*
X142352134Y-111523000D01*
X139275845Y-111523000D01*
X139303536Y-111495309D01*
X139388569Y-111368048D01*
X139447141Y-111226643D01*
X139477000Y-111076528D01*
X139477000Y-110923472D01*
X139447141Y-110773357D01*
X139443160Y-110763746D01*
X139526643Y-110747141D01*
X139668048Y-110688569D01*
X139795309Y-110603536D01*
X139903536Y-110495309D01*
X139988569Y-110368048D01*
X140047141Y-110226643D01*
X140077000Y-110076528D01*
X140077000Y-109923472D01*
X140047141Y-109773357D01*
X139988569Y-109631952D01*
X139903536Y-109504691D01*
X139795309Y-109396464D01*
X139668048Y-109311431D01*
X139526643Y-109252859D01*
X139376528Y-109223000D01*
X139223472Y-109223000D01*
X139073357Y-109252859D01*
X138931952Y-109311431D01*
X138804691Y-109396464D01*
X138696464Y-109504691D01*
X138611431Y-109631952D01*
X138552859Y-109773357D01*
X138523000Y-109923472D01*
X138523000Y-110076528D01*
X138552859Y-110226643D01*
X138556840Y-110236254D01*
X138481046Y-110251330D01*
X138507000Y-110120849D01*
X138507000Y-109879151D01*
X138459847Y-109642097D01*
X138367353Y-109418798D01*
X138233073Y-109217833D01*
X138062167Y-109046927D01*
X137936132Y-108962713D01*
X138003536Y-108895309D01*
X138088569Y-108768048D01*
X138147141Y-108626643D01*
X138177000Y-108476528D01*
X138177000Y-108323472D01*
X138147141Y-108173357D01*
X138088569Y-108031952D01*
X138003536Y-107904691D01*
X137895309Y-107796464D01*
X137768048Y-107711431D01*
X137626643Y-107652859D01*
X137476528Y-107623000D01*
X137323472Y-107623000D01*
X137173357Y-107652859D01*
X137031952Y-107711431D01*
X136904691Y-107796464D01*
X136796464Y-107904691D01*
X136711431Y-108031952D01*
X136652859Y-108173357D01*
X136623000Y-108323472D01*
X136623000Y-108476528D01*
X136652859Y-108626643D01*
X136711431Y-108768048D01*
X136784366Y-108877203D01*
X136698798Y-108912647D01*
X136497833Y-109046927D01*
X136326927Y-109217833D01*
X136192647Y-109418798D01*
X136100153Y-109642097D01*
X136053000Y-109879151D01*
X136053000Y-110120849D01*
X136100153Y-110357903D01*
X136192647Y-110581202D01*
X136326927Y-110782167D01*
X136497833Y-110953073D01*
X136698798Y-111087353D01*
X136922097Y-111179847D01*
X137159151Y-111227000D01*
X137400849Y-111227000D01*
X137637903Y-111179847D01*
X137861202Y-111087353D01*
X137923000Y-111046061D01*
X137923000Y-111076528D01*
X137952859Y-111226643D01*
X138011431Y-111368048D01*
X138096464Y-111495309D01*
X138124155Y-111523000D01*
X134407229Y-111523000D01*
X134447141Y-111426643D01*
X134477000Y-111276528D01*
X134477000Y-111198724D01*
X134619151Y-111227000D01*
X134860849Y-111227000D01*
X135097903Y-111179847D01*
X135321202Y-111087353D01*
X135522167Y-110953073D01*
X135693073Y-110782167D01*
X135827353Y-110581202D01*
X135919847Y-110357903D01*
X135967000Y-110120849D01*
X135967000Y-109879151D01*
X135919847Y-109642097D01*
X135827353Y-109418798D01*
X135693073Y-109217833D01*
X135522167Y-109046927D01*
X135321202Y-108912647D01*
X135097903Y-108820153D01*
X134860849Y-108773000D01*
X134619151Y-108773000D01*
X134464737Y-108803715D01*
X134488569Y-108768048D01*
X134547141Y-108626643D01*
X134577000Y-108476528D01*
X134577000Y-108323472D01*
X134547141Y-108173357D01*
X134488569Y-108031952D01*
X134403536Y-107904691D01*
X134295309Y-107796464D01*
X134168048Y-107711431D01*
X134026643Y-107652859D01*
X133876528Y-107623000D01*
X133723472Y-107623000D01*
X133573357Y-107652859D01*
X133431952Y-107711431D01*
X133304691Y-107796464D01*
X133196464Y-107904691D01*
X133111431Y-108031952D01*
X133052859Y-108173357D01*
X133023000Y-108323472D01*
X133023000Y-108476528D01*
X133052859Y-108626643D01*
X133111431Y-108768048D01*
X133117996Y-108777873D01*
X133050000Y-108771176D01*
X131350000Y-108771176D01*
X131276095Y-108778455D01*
X131205030Y-108800012D01*
X131139537Y-108835019D01*
X131082131Y-108882131D01*
X131035019Y-108939537D01*
X131000012Y-109005030D01*
X130978455Y-109076095D01*
X130971176Y-109150000D01*
X130971176Y-110080339D01*
X130868048Y-110011431D01*
X130726643Y-109952859D01*
X130576528Y-109923000D01*
X130423472Y-109923000D01*
X130273357Y-109952859D01*
X130131952Y-110011431D01*
X130004691Y-110096464D01*
X129977000Y-110124155D01*
X129977000Y-106573472D01*
X130123000Y-106573472D01*
X130123000Y-106726528D01*
X130152859Y-106876643D01*
X130211431Y-107018048D01*
X130296464Y-107145309D01*
X130404691Y-107253536D01*
X130531952Y-107338569D01*
X130673357Y-107397141D01*
X130823472Y-107427000D01*
X130976528Y-107427000D01*
X131126643Y-107397141D01*
X131268048Y-107338569D01*
X131395309Y-107253536D01*
X131503536Y-107145309D01*
X131588569Y-107018048D01*
X131647141Y-106876643D01*
X131677000Y-106726528D01*
X131677000Y-106573472D01*
X131647141Y-106423357D01*
X131588569Y-106281952D01*
X131549494Y-106223472D01*
X138223000Y-106223472D01*
X138223000Y-106376528D01*
X138252859Y-106526643D01*
X138311431Y-106668048D01*
X138366190Y-106750000D01*
X138311431Y-106831952D01*
X138252859Y-106973357D01*
X138223000Y-107123472D01*
X138223000Y-107276528D01*
X138252859Y-107426643D01*
X138311431Y-107568048D01*
X138366190Y-107650000D01*
X138311431Y-107731952D01*
X138252859Y-107873357D01*
X138223000Y-108023472D01*
X138223000Y-108176528D01*
X138252859Y-108326643D01*
X138311431Y-108468048D01*
X138396464Y-108595309D01*
X138504691Y-108703536D01*
X138631952Y-108788569D01*
X138773357Y-108847141D01*
X138923472Y-108877000D01*
X139076528Y-108877000D01*
X139226643Y-108847141D01*
X139368048Y-108788569D01*
X139495309Y-108703536D01*
X139603536Y-108595309D01*
X139643879Y-108534931D01*
X139673357Y-108547141D01*
X139823472Y-108577000D01*
X139976528Y-108577000D01*
X140126643Y-108547141D01*
X140268048Y-108488569D01*
X140395309Y-108403536D01*
X140503536Y-108295309D01*
X140588569Y-108168048D01*
X140647141Y-108026643D01*
X140677000Y-107876528D01*
X140677000Y-107723472D01*
X140647141Y-107573357D01*
X140588569Y-107431952D01*
X140533810Y-107350000D01*
X140588569Y-107268048D01*
X140647141Y-107126643D01*
X140677000Y-106976528D01*
X140677000Y-106823472D01*
X140647141Y-106673357D01*
X140588569Y-106531952D01*
X140533810Y-106450000D01*
X140588569Y-106368048D01*
X140647141Y-106226643D01*
X140677000Y-106076528D01*
X140677000Y-105923472D01*
X140647141Y-105773357D01*
X140588569Y-105631952D01*
X140582903Y-105623472D01*
X142923000Y-105623472D01*
X142923000Y-105776528D01*
X142952859Y-105926643D01*
X143011431Y-106068048D01*
X143096464Y-106195309D01*
X143204691Y-106303536D01*
X143331952Y-106388569D01*
X143473357Y-106447141D01*
X143623472Y-106477000D01*
X143776528Y-106477000D01*
X143926643Y-106447141D01*
X144068048Y-106388569D01*
X144195309Y-106303536D01*
X144303536Y-106195309D01*
X144388569Y-106068048D01*
X144447141Y-105926643D01*
X144477000Y-105776528D01*
X144477000Y-105623472D01*
X144447141Y-105473357D01*
X144388569Y-105331952D01*
X144303536Y-105204691D01*
X144195309Y-105096464D01*
X144068048Y-105011431D01*
X143926643Y-104952859D01*
X143776528Y-104923000D01*
X143623472Y-104923000D01*
X143473357Y-104952859D01*
X143331952Y-105011431D01*
X143204691Y-105096464D01*
X143096464Y-105204691D01*
X143011431Y-105331952D01*
X142952859Y-105473357D01*
X142923000Y-105623472D01*
X140582903Y-105623472D01*
X140503536Y-105504691D01*
X140395309Y-105396464D01*
X140268048Y-105311431D01*
X140126643Y-105252859D01*
X139976528Y-105223000D01*
X139823472Y-105223000D01*
X139673357Y-105252859D01*
X139531952Y-105311431D01*
X139404691Y-105396464D01*
X139296464Y-105504691D01*
X139256121Y-105565069D01*
X139226643Y-105552859D01*
X139076528Y-105523000D01*
X138923472Y-105523000D01*
X138773357Y-105552859D01*
X138631952Y-105611431D01*
X138504691Y-105696464D01*
X138396464Y-105804691D01*
X138311431Y-105931952D01*
X138252859Y-106073357D01*
X138223000Y-106223472D01*
X131549494Y-106223472D01*
X131503536Y-106154691D01*
X131395309Y-106046464D01*
X131268048Y-105961431D01*
X131126643Y-105902859D01*
X130976528Y-105873000D01*
X130823472Y-105873000D01*
X130673357Y-105902859D01*
X130531952Y-105961431D01*
X130404691Y-106046464D01*
X130296464Y-106154691D01*
X130211431Y-106281952D01*
X130152859Y-106423357D01*
X130123000Y-106573472D01*
X129977000Y-106573472D01*
X129977000Y-104323472D01*
X132623000Y-104323472D01*
X132623000Y-104476528D01*
X132652859Y-104626643D01*
X132711431Y-104768048D01*
X132796464Y-104895309D01*
X132904691Y-105003536D01*
X133031952Y-105088569D01*
X133173357Y-105147141D01*
X133323472Y-105177000D01*
X133476528Y-105177000D01*
X133626643Y-105147141D01*
X133768048Y-105088569D01*
X133895309Y-105003536D01*
X134003536Y-104895309D01*
X134088569Y-104768048D01*
X134147141Y-104626643D01*
X134177000Y-104476528D01*
X134177000Y-104323472D01*
X134147141Y-104173357D01*
X134126478Y-104123472D01*
X138423000Y-104123472D01*
X138423000Y-104276528D01*
X138452859Y-104426643D01*
X138511431Y-104568048D01*
X138596464Y-104695309D01*
X138704691Y-104803536D01*
X138831952Y-104888569D01*
X138973357Y-104947141D01*
X139123472Y-104977000D01*
X139276528Y-104977000D01*
X139426643Y-104947141D01*
X139568048Y-104888569D01*
X139695309Y-104803536D01*
X139803536Y-104695309D01*
X139888569Y-104568048D01*
X139947141Y-104426643D01*
X139977000Y-104276528D01*
X139977000Y-104223472D01*
X140723000Y-104223472D01*
X140723000Y-104376528D01*
X140752859Y-104526643D01*
X140811431Y-104668048D01*
X140896464Y-104795309D01*
X141004691Y-104903536D01*
X141131952Y-104988569D01*
X141273357Y-105047141D01*
X141423472Y-105077000D01*
X141576528Y-105077000D01*
X141726643Y-105047141D01*
X141868048Y-104988569D01*
X141995309Y-104903536D01*
X142103536Y-104795309D01*
X142188569Y-104668048D01*
X142247141Y-104526643D01*
X142247771Y-104523472D01*
X144523000Y-104523472D01*
X144523000Y-104676528D01*
X144552859Y-104826643D01*
X144611431Y-104968048D01*
X144696464Y-105095309D01*
X144804691Y-105203536D01*
X144931952Y-105288569D01*
X145073357Y-105347141D01*
X145223472Y-105377000D01*
X145376528Y-105377000D01*
X145526643Y-105347141D01*
X145583784Y-105323472D01*
X146223000Y-105323472D01*
X146223000Y-105476528D01*
X146252859Y-105626643D01*
X146311431Y-105768048D01*
X146396464Y-105895309D01*
X146504691Y-106003536D01*
X146631952Y-106088569D01*
X146773357Y-106147141D01*
X146923472Y-106177000D01*
X147076528Y-106177000D01*
X147226643Y-106147141D01*
X147368048Y-106088569D01*
X147495309Y-106003536D01*
X147603536Y-105895309D01*
X147688569Y-105768048D01*
X147747141Y-105626643D01*
X147777000Y-105476528D01*
X147777000Y-105323472D01*
X147747141Y-105173357D01*
X147688569Y-105031952D01*
X147603536Y-104904691D01*
X147495309Y-104796464D01*
X147368048Y-104711431D01*
X147226643Y-104652859D01*
X147076528Y-104623000D01*
X146923472Y-104623000D01*
X146773357Y-104652859D01*
X146631952Y-104711431D01*
X146504691Y-104796464D01*
X146396464Y-104904691D01*
X146311431Y-105031952D01*
X146252859Y-105173357D01*
X146223000Y-105323472D01*
X145583784Y-105323472D01*
X145668048Y-105288569D01*
X145795309Y-105203536D01*
X145903536Y-105095309D01*
X145988569Y-104968048D01*
X146047141Y-104826643D01*
X146077000Y-104676528D01*
X146077000Y-104523472D01*
X146047164Y-104373472D01*
X148573000Y-104373472D01*
X148573000Y-104526528D01*
X148602859Y-104676643D01*
X148661431Y-104818048D01*
X148746464Y-104945309D01*
X148854691Y-105053536D01*
X148981952Y-105138569D01*
X149123357Y-105197141D01*
X149273472Y-105227000D01*
X149426528Y-105227000D01*
X149444264Y-105223472D01*
X151123000Y-105223472D01*
X151123000Y-105376528D01*
X151152859Y-105526643D01*
X151211431Y-105668048D01*
X151296464Y-105795309D01*
X151404691Y-105903536D01*
X151531952Y-105988569D01*
X151673357Y-106047141D01*
X151823472Y-106077000D01*
X151976528Y-106077000D01*
X152126643Y-106047141D01*
X152268048Y-105988569D01*
X152395309Y-105903536D01*
X152503536Y-105795309D01*
X152588569Y-105668048D01*
X152647141Y-105526643D01*
X152677000Y-105376528D01*
X152677000Y-105223472D01*
X152647141Y-105073357D01*
X152588569Y-104931952D01*
X152503536Y-104804691D01*
X152395309Y-104696464D01*
X152268048Y-104611431D01*
X152126643Y-104552859D01*
X151976528Y-104523000D01*
X151823472Y-104523000D01*
X151673357Y-104552859D01*
X151531952Y-104611431D01*
X151404691Y-104696464D01*
X151296464Y-104804691D01*
X151211431Y-104931952D01*
X151152859Y-105073357D01*
X151123000Y-105223472D01*
X149444264Y-105223472D01*
X149576643Y-105197141D01*
X149718048Y-105138569D01*
X149845309Y-105053536D01*
X149953536Y-104945309D01*
X150038569Y-104818048D01*
X150097141Y-104676643D01*
X150127000Y-104526528D01*
X150127000Y-104423472D01*
X157623000Y-104423472D01*
X157623000Y-104576528D01*
X157652859Y-104726643D01*
X157711431Y-104868048D01*
X157796464Y-104995309D01*
X157904691Y-105103536D01*
X157974229Y-105150000D01*
X157904691Y-105196464D01*
X157796464Y-105304691D01*
X157711431Y-105431952D01*
X157652859Y-105573357D01*
X157623000Y-105723472D01*
X157623000Y-105876528D01*
X157652859Y-106026643D01*
X157711431Y-106168048D01*
X157796464Y-106295309D01*
X157904691Y-106403536D01*
X158031952Y-106488569D01*
X158173357Y-106547141D01*
X158323472Y-106577000D01*
X158476528Y-106577000D01*
X158626643Y-106547141D01*
X158768048Y-106488569D01*
X158865472Y-106423472D01*
X163423000Y-106423472D01*
X163423000Y-106576528D01*
X163452859Y-106726643D01*
X163511431Y-106868048D01*
X163596464Y-106995309D01*
X163704691Y-107103536D01*
X163831952Y-107188569D01*
X163973357Y-107247141D01*
X164123472Y-107277000D01*
X164276528Y-107277000D01*
X164426643Y-107247141D01*
X164568048Y-107188569D01*
X164695309Y-107103536D01*
X164803536Y-106995309D01*
X164888569Y-106868048D01*
X164947141Y-106726643D01*
X164977000Y-106576528D01*
X164977000Y-106423472D01*
X164947141Y-106273357D01*
X164888569Y-106131952D01*
X164803536Y-106004691D01*
X164695309Y-105896464D01*
X164568048Y-105811431D01*
X164426643Y-105752859D01*
X164276528Y-105723000D01*
X164123472Y-105723000D01*
X163973357Y-105752859D01*
X163831952Y-105811431D01*
X163704691Y-105896464D01*
X163596464Y-106004691D01*
X163511431Y-106131952D01*
X163452859Y-106273357D01*
X163423000Y-106423472D01*
X158865472Y-106423472D01*
X158895309Y-106403536D01*
X159003536Y-106295309D01*
X159088569Y-106168048D01*
X159147141Y-106026643D01*
X159177000Y-105876528D01*
X159177000Y-105723472D01*
X159147141Y-105573357D01*
X159126478Y-105523472D01*
X160323000Y-105523472D01*
X160323000Y-105676528D01*
X160352859Y-105826643D01*
X160411431Y-105968048D01*
X160496464Y-106095309D01*
X160604691Y-106203536D01*
X160731952Y-106288569D01*
X160873357Y-106347141D01*
X161023472Y-106377000D01*
X161176528Y-106377000D01*
X161326643Y-106347141D01*
X161468048Y-106288569D01*
X161595309Y-106203536D01*
X161703536Y-106095309D01*
X161788569Y-105968048D01*
X161847141Y-105826643D01*
X161877000Y-105676528D01*
X161877000Y-105523472D01*
X161847141Y-105373357D01*
X161788569Y-105231952D01*
X161782903Y-105223472D01*
X165823000Y-105223472D01*
X165823000Y-105376528D01*
X165852859Y-105526643D01*
X165911431Y-105668048D01*
X165996464Y-105795309D01*
X166104691Y-105903536D01*
X166231952Y-105988569D01*
X166373357Y-106047141D01*
X166523472Y-106077000D01*
X166676528Y-106077000D01*
X166826643Y-106047141D01*
X166968048Y-105988569D01*
X167095309Y-105903536D01*
X167203536Y-105795309D01*
X167288569Y-105668048D01*
X167347141Y-105526643D01*
X167377000Y-105376528D01*
X167377000Y-105223472D01*
X167347141Y-105073357D01*
X167288569Y-104931952D01*
X167203536Y-104804691D01*
X167095309Y-104696464D01*
X166968048Y-104611431D01*
X166826643Y-104552859D01*
X166676528Y-104523000D01*
X166523472Y-104523000D01*
X166373357Y-104552859D01*
X166231952Y-104611431D01*
X166104691Y-104696464D01*
X165996464Y-104804691D01*
X165911431Y-104931952D01*
X165852859Y-105073357D01*
X165823000Y-105223472D01*
X161782903Y-105223472D01*
X161703536Y-105104691D01*
X161595309Y-104996464D01*
X161468048Y-104911431D01*
X161326643Y-104852859D01*
X161176528Y-104823000D01*
X161023472Y-104823000D01*
X160873357Y-104852859D01*
X160731952Y-104911431D01*
X160604691Y-104996464D01*
X160496464Y-105104691D01*
X160411431Y-105231952D01*
X160352859Y-105373357D01*
X160323000Y-105523472D01*
X159126478Y-105523472D01*
X159088569Y-105431952D01*
X159003536Y-105304691D01*
X158895309Y-105196464D01*
X158825771Y-105150000D01*
X158895309Y-105103536D01*
X159003536Y-104995309D01*
X159088569Y-104868048D01*
X159147141Y-104726643D01*
X159177000Y-104576528D01*
X159177000Y-104423472D01*
X159147141Y-104273357D01*
X159088569Y-104131952D01*
X159003536Y-104004691D01*
X158895309Y-103896464D01*
X158768048Y-103811431D01*
X158626643Y-103752859D01*
X158476528Y-103723000D01*
X158323472Y-103723000D01*
X158173357Y-103752859D01*
X158031952Y-103811431D01*
X157904691Y-103896464D01*
X157796464Y-104004691D01*
X157711431Y-104131952D01*
X157652859Y-104273357D01*
X157623000Y-104423472D01*
X150127000Y-104423472D01*
X150127000Y-104373472D01*
X150097141Y-104223357D01*
X150038569Y-104081952D01*
X149953536Y-103954691D01*
X149845309Y-103846464D01*
X149718048Y-103761431D01*
X149576643Y-103702859D01*
X149426528Y-103673000D01*
X149273472Y-103673000D01*
X149123357Y-103702859D01*
X148981952Y-103761431D01*
X148854691Y-103846464D01*
X148746464Y-103954691D01*
X148661431Y-104081952D01*
X148602859Y-104223357D01*
X148573000Y-104373472D01*
X146047164Y-104373472D01*
X146047141Y-104373357D01*
X145988569Y-104231952D01*
X145903536Y-104104691D01*
X145795309Y-103996464D01*
X145668048Y-103911431D01*
X145526643Y-103852859D01*
X145376528Y-103823000D01*
X145223472Y-103823000D01*
X145073357Y-103852859D01*
X144931952Y-103911431D01*
X144804691Y-103996464D01*
X144696464Y-104104691D01*
X144611431Y-104231952D01*
X144552859Y-104373357D01*
X144523000Y-104523472D01*
X142247771Y-104523472D01*
X142277000Y-104376528D01*
X142277000Y-104223472D01*
X142247141Y-104073357D01*
X142188569Y-103931952D01*
X142103536Y-103804691D01*
X141995309Y-103696464D01*
X141868048Y-103611431D01*
X141726643Y-103552859D01*
X141576528Y-103523000D01*
X141423472Y-103523000D01*
X141273357Y-103552859D01*
X141131952Y-103611431D01*
X141004691Y-103696464D01*
X140896464Y-103804691D01*
X140811431Y-103931952D01*
X140752859Y-104073357D01*
X140723000Y-104223472D01*
X139977000Y-104223472D01*
X139977000Y-104123472D01*
X139947141Y-103973357D01*
X139888569Y-103831952D01*
X139803536Y-103704691D01*
X139695309Y-103596464D01*
X139568048Y-103511431D01*
X139426643Y-103452859D01*
X139278901Y-103423472D01*
X159823000Y-103423472D01*
X159823000Y-103576528D01*
X159852859Y-103726643D01*
X159911431Y-103868048D01*
X159996464Y-103995309D01*
X160104691Y-104103536D01*
X160231952Y-104188569D01*
X160373357Y-104247141D01*
X160523472Y-104277000D01*
X160676528Y-104277000D01*
X160826643Y-104247141D01*
X160968048Y-104188569D01*
X161095309Y-104103536D01*
X161203536Y-103995309D01*
X161288569Y-103868048D01*
X161347141Y-103726643D01*
X161347771Y-103723472D01*
X164223000Y-103723472D01*
X164223000Y-103876528D01*
X164252859Y-104026643D01*
X164311431Y-104168048D01*
X164396464Y-104295309D01*
X164504691Y-104403536D01*
X164631952Y-104488569D01*
X164773357Y-104547141D01*
X164923472Y-104577000D01*
X165076528Y-104577000D01*
X165226643Y-104547141D01*
X165368048Y-104488569D01*
X165495309Y-104403536D01*
X165603536Y-104295309D01*
X165688569Y-104168048D01*
X165747141Y-104026643D01*
X165777000Y-103876528D01*
X165777000Y-103723472D01*
X165747141Y-103573357D01*
X165688569Y-103431952D01*
X165603536Y-103304691D01*
X165495309Y-103196464D01*
X165368048Y-103111431D01*
X165226643Y-103052859D01*
X165076528Y-103023000D01*
X164923472Y-103023000D01*
X164773357Y-103052859D01*
X164631952Y-103111431D01*
X164504691Y-103196464D01*
X164396464Y-103304691D01*
X164311431Y-103431952D01*
X164252859Y-103573357D01*
X164223000Y-103723472D01*
X161347771Y-103723472D01*
X161377000Y-103576528D01*
X161377000Y-103423472D01*
X161347141Y-103273357D01*
X161288569Y-103131952D01*
X161203536Y-103004691D01*
X161095309Y-102896464D01*
X160986069Y-102823472D01*
X161523000Y-102823472D01*
X161523000Y-102976528D01*
X161552859Y-103126643D01*
X161611431Y-103268048D01*
X161696464Y-103395309D01*
X161804691Y-103503536D01*
X161931952Y-103588569D01*
X162073357Y-103647141D01*
X162223472Y-103677000D01*
X162376528Y-103677000D01*
X162526643Y-103647141D01*
X162668048Y-103588569D01*
X162795309Y-103503536D01*
X162903536Y-103395309D01*
X162988569Y-103268048D01*
X163047141Y-103126643D01*
X163077000Y-102976528D01*
X163077000Y-102823472D01*
X163047141Y-102673357D01*
X162988569Y-102531952D01*
X162903536Y-102404691D01*
X162795309Y-102296464D01*
X162668048Y-102211431D01*
X162526643Y-102152859D01*
X162376528Y-102123000D01*
X162223472Y-102123000D01*
X162073357Y-102152859D01*
X161931952Y-102211431D01*
X161804691Y-102296464D01*
X161696464Y-102404691D01*
X161611431Y-102531952D01*
X161552859Y-102673357D01*
X161523000Y-102823472D01*
X160986069Y-102823472D01*
X160968048Y-102811431D01*
X160826643Y-102752859D01*
X160676528Y-102723000D01*
X160523472Y-102723000D01*
X160373357Y-102752859D01*
X160231952Y-102811431D01*
X160104691Y-102896464D01*
X159996464Y-103004691D01*
X159911431Y-103131952D01*
X159852859Y-103273357D01*
X159823000Y-103423472D01*
X139278901Y-103423472D01*
X139276528Y-103423000D01*
X139123472Y-103423000D01*
X138973357Y-103452859D01*
X138831952Y-103511431D01*
X138704691Y-103596464D01*
X138596464Y-103704691D01*
X138511431Y-103831952D01*
X138452859Y-103973357D01*
X138423000Y-104123472D01*
X134126478Y-104123472D01*
X134088569Y-104031952D01*
X134003536Y-103904691D01*
X133895309Y-103796464D01*
X133768048Y-103711431D01*
X133626643Y-103652859D01*
X133476528Y-103623000D01*
X133323472Y-103623000D01*
X133173357Y-103652859D01*
X133031952Y-103711431D01*
X132904691Y-103796464D01*
X132796464Y-103904691D01*
X132711431Y-104031952D01*
X132652859Y-104173357D01*
X132623000Y-104323472D01*
X129977000Y-104323472D01*
X129977000Y-100623472D01*
X139223000Y-100623472D01*
X139223000Y-100776528D01*
X139252859Y-100926643D01*
X139311431Y-101068048D01*
X139396464Y-101195309D01*
X139472548Y-101271393D01*
X139468437Y-101274140D01*
X139374140Y-101368437D01*
X139300050Y-101479320D01*
X139249016Y-101602526D01*
X139223000Y-101733321D01*
X139223000Y-101866679D01*
X139249016Y-101997474D01*
X139300050Y-102120680D01*
X139374140Y-102231563D01*
X139468437Y-102325860D01*
X139579320Y-102399950D01*
X139702526Y-102450984D01*
X139833321Y-102477000D01*
X139966679Y-102477000D01*
X140097474Y-102450984D01*
X140220680Y-102399950D01*
X140331563Y-102325860D01*
X140425860Y-102231563D01*
X140499950Y-102120680D01*
X140550984Y-101997474D01*
X140577000Y-101866679D01*
X140577000Y-101733321D01*
X140550984Y-101602526D01*
X140499950Y-101479320D01*
X140425860Y-101368437D01*
X140414772Y-101357349D01*
X140495309Y-101303536D01*
X140603536Y-101195309D01*
X140688569Y-101068048D01*
X140747141Y-100926643D01*
X140777000Y-100776528D01*
X140777000Y-100623472D01*
X140747141Y-100473357D01*
X140688569Y-100331952D01*
X140616086Y-100223472D01*
X142023000Y-100223472D01*
X142023000Y-100376528D01*
X142052859Y-100526643D01*
X142111431Y-100668048D01*
X142196464Y-100795309D01*
X142304691Y-100903536D01*
X142431952Y-100988569D01*
X142573357Y-101047141D01*
X142703362Y-101073000D01*
X142683321Y-101073000D01*
X142552526Y-101099016D01*
X142429320Y-101150050D01*
X142318437Y-101224140D01*
X142224140Y-101318437D01*
X142150050Y-101429320D01*
X142099016Y-101552526D01*
X142073000Y-101683321D01*
X142073000Y-101816679D01*
X142099016Y-101947474D01*
X142150050Y-102070680D01*
X142224140Y-102181563D01*
X142318437Y-102275860D01*
X142429320Y-102349950D01*
X142552526Y-102400984D01*
X142683321Y-102427000D01*
X142816679Y-102427000D01*
X142947474Y-102400984D01*
X143070680Y-102349950D01*
X143181563Y-102275860D01*
X143275860Y-102181563D01*
X143349950Y-102070680D01*
X143400984Y-101947474D01*
X143427000Y-101816679D01*
X143427000Y-101683321D01*
X146323000Y-101683321D01*
X146323000Y-101816679D01*
X146349016Y-101947474D01*
X146400050Y-102070680D01*
X146474140Y-102181563D01*
X146568437Y-102275860D01*
X146679320Y-102349950D01*
X146802526Y-102400984D01*
X146933321Y-102427000D01*
X147066679Y-102427000D01*
X147197474Y-102400984D01*
X147320680Y-102349950D01*
X147431563Y-102275860D01*
X147525860Y-102181563D01*
X147599950Y-102070680D01*
X147650984Y-101947474D01*
X147677000Y-101816679D01*
X147677000Y-101683321D01*
X147650984Y-101552526D01*
X147599950Y-101429320D01*
X147596043Y-101423472D01*
X159123000Y-101423472D01*
X159123000Y-101576528D01*
X159152859Y-101726643D01*
X159211431Y-101868048D01*
X159296464Y-101995309D01*
X159404691Y-102103536D01*
X159531952Y-102188569D01*
X159673357Y-102247141D01*
X159823472Y-102277000D01*
X159976528Y-102277000D01*
X160126643Y-102247141D01*
X160268048Y-102188569D01*
X160395309Y-102103536D01*
X160503536Y-101995309D01*
X160588569Y-101868048D01*
X160647141Y-101726643D01*
X160677000Y-101576528D01*
X160677000Y-101423472D01*
X160647141Y-101273357D01*
X160619421Y-101206436D01*
X160713687Y-101167389D01*
X160824570Y-101093299D01*
X160918867Y-100999002D01*
X160992957Y-100888119D01*
X161043991Y-100764913D01*
X161070007Y-100634118D01*
X161070007Y-100500760D01*
X161043991Y-100369965D01*
X161024733Y-100323472D01*
X162023000Y-100323472D01*
X162023000Y-100476528D01*
X162052859Y-100626643D01*
X162111431Y-100768048D01*
X162196464Y-100895309D01*
X162304691Y-101003536D01*
X162431952Y-101088569D01*
X162573357Y-101147141D01*
X162723472Y-101177000D01*
X162876528Y-101177000D01*
X163026643Y-101147141D01*
X163168048Y-101088569D01*
X163295309Y-101003536D01*
X163403536Y-100895309D01*
X163488569Y-100768048D01*
X163547141Y-100626643D01*
X163577000Y-100476528D01*
X163577000Y-100323472D01*
X166223000Y-100323472D01*
X166223000Y-100476528D01*
X166252859Y-100626643D01*
X166311431Y-100768048D01*
X166396464Y-100895309D01*
X166504691Y-101003536D01*
X166631952Y-101088569D01*
X166773357Y-101147141D01*
X166923472Y-101177000D01*
X167076528Y-101177000D01*
X167226643Y-101147141D01*
X167368048Y-101088569D01*
X167495309Y-101003536D01*
X167603536Y-100895309D01*
X167688569Y-100768048D01*
X167747141Y-100626643D01*
X167777000Y-100476528D01*
X167777000Y-100323472D01*
X167747141Y-100173357D01*
X167688569Y-100031952D01*
X167603536Y-99904691D01*
X167495309Y-99796464D01*
X167368048Y-99711431D01*
X167226643Y-99652859D01*
X167076528Y-99623000D01*
X166923472Y-99623000D01*
X166773357Y-99652859D01*
X166631952Y-99711431D01*
X166504691Y-99796464D01*
X166396464Y-99904691D01*
X166311431Y-100031952D01*
X166252859Y-100173357D01*
X166223000Y-100323472D01*
X163577000Y-100323472D01*
X163547141Y-100173357D01*
X163488569Y-100031952D01*
X163403536Y-99904691D01*
X163295309Y-99796464D01*
X163168048Y-99711431D01*
X163026643Y-99652859D01*
X162876528Y-99623000D01*
X162723472Y-99623000D01*
X162573357Y-99652859D01*
X162431952Y-99711431D01*
X162304691Y-99796464D01*
X162196464Y-99904691D01*
X162111431Y-100031952D01*
X162052859Y-100173357D01*
X162023000Y-100323472D01*
X161024733Y-100323472D01*
X160992957Y-100246759D01*
X160918867Y-100135876D01*
X160824570Y-100041579D01*
X160713687Y-99967489D01*
X160590481Y-99916455D01*
X160459686Y-99890439D01*
X160326328Y-99890439D01*
X160195533Y-99916455D01*
X160072327Y-99967489D01*
X159961444Y-100041579D01*
X159867147Y-100135876D01*
X159793057Y-100246759D01*
X159742023Y-100369965D01*
X159716007Y-100500760D01*
X159716007Y-100634118D01*
X159737103Y-100740179D01*
X159673357Y-100752859D01*
X159531952Y-100811431D01*
X159404691Y-100896464D01*
X159296464Y-101004691D01*
X159211431Y-101131952D01*
X159152859Y-101273357D01*
X159123000Y-101423472D01*
X147596043Y-101423472D01*
X147525860Y-101318437D01*
X147431563Y-101224140D01*
X147320680Y-101150050D01*
X147197474Y-101099016D01*
X147066679Y-101073000D01*
X146933321Y-101073000D01*
X146802526Y-101099016D01*
X146679320Y-101150050D01*
X146568437Y-101224140D01*
X146474140Y-101318437D01*
X146400050Y-101429320D01*
X146349016Y-101552526D01*
X146323000Y-101683321D01*
X143427000Y-101683321D01*
X143400984Y-101552526D01*
X143349950Y-101429320D01*
X143275860Y-101318437D01*
X143181563Y-101224140D01*
X143070680Y-101150050D01*
X142947474Y-101099016D01*
X142836789Y-101077000D01*
X142876528Y-101077000D01*
X143026643Y-101047141D01*
X143168048Y-100988569D01*
X143295309Y-100903536D01*
X143403536Y-100795309D01*
X143488569Y-100668048D01*
X143547141Y-100526643D01*
X143577000Y-100376528D01*
X143577000Y-100223472D01*
X143557110Y-100123472D01*
X144823000Y-100123472D01*
X144823000Y-100276528D01*
X144852859Y-100426643D01*
X144911431Y-100568048D01*
X144996464Y-100695309D01*
X145104691Y-100803536D01*
X145231952Y-100888569D01*
X145373357Y-100947141D01*
X145523472Y-100977000D01*
X145676528Y-100977000D01*
X145826643Y-100947141D01*
X145968048Y-100888569D01*
X146095309Y-100803536D01*
X146203536Y-100695309D01*
X146288569Y-100568048D01*
X146347141Y-100426643D01*
X146377000Y-100276528D01*
X146377000Y-100123472D01*
X146347141Y-99973357D01*
X146288569Y-99831952D01*
X146203536Y-99704691D01*
X146095309Y-99596464D01*
X145968048Y-99511431D01*
X145826643Y-99452859D01*
X145676528Y-99423000D01*
X145523472Y-99423000D01*
X145373357Y-99452859D01*
X145231952Y-99511431D01*
X145104691Y-99596464D01*
X144996464Y-99704691D01*
X144911431Y-99831952D01*
X144852859Y-99973357D01*
X144823000Y-100123472D01*
X143557110Y-100123472D01*
X143547141Y-100073357D01*
X143488569Y-99931952D01*
X143403536Y-99804691D01*
X143295309Y-99696464D01*
X143168048Y-99611431D01*
X143026643Y-99552859D01*
X142876528Y-99523000D01*
X142723472Y-99523000D01*
X142573357Y-99552859D01*
X142431952Y-99611431D01*
X142304691Y-99696464D01*
X142196464Y-99804691D01*
X142111431Y-99931952D01*
X142052859Y-100073357D01*
X142023000Y-100223472D01*
X140616086Y-100223472D01*
X140603536Y-100204691D01*
X140579657Y-100180812D01*
X140695309Y-100103536D01*
X140803536Y-99995309D01*
X140888569Y-99868048D01*
X140947141Y-99726643D01*
X140977000Y-99576528D01*
X140977000Y-99423472D01*
X140947141Y-99273357D01*
X140930558Y-99233321D01*
X150323000Y-99233321D01*
X150323000Y-99366679D01*
X150349016Y-99497474D01*
X150400050Y-99620680D01*
X150474140Y-99731563D01*
X150568437Y-99825860D01*
X150679320Y-99899950D01*
X150802526Y-99950984D01*
X150933321Y-99977000D01*
X151066679Y-99977000D01*
X151197474Y-99950984D01*
X151320680Y-99899950D01*
X151431563Y-99825860D01*
X151525860Y-99731563D01*
X151599950Y-99620680D01*
X151650984Y-99497474D01*
X151677000Y-99366679D01*
X151677000Y-99233321D01*
X152223000Y-99233321D01*
X152223000Y-99366679D01*
X152249016Y-99497474D01*
X152300050Y-99620680D01*
X152374140Y-99731563D01*
X152468437Y-99825860D01*
X152579320Y-99899950D01*
X152702526Y-99950984D01*
X152833321Y-99977000D01*
X152966679Y-99977000D01*
X153097474Y-99950984D01*
X153220680Y-99899950D01*
X153331563Y-99825860D01*
X153425860Y-99731563D01*
X153499950Y-99620680D01*
X153550984Y-99497474D01*
X153577000Y-99366679D01*
X153577000Y-99233321D01*
X153575041Y-99223470D01*
X154973000Y-99223470D01*
X154973000Y-99376526D01*
X155002859Y-99526641D01*
X155061431Y-99668046D01*
X155146464Y-99795307D01*
X155254691Y-99903534D01*
X155381952Y-99988567D01*
X155523357Y-100047139D01*
X155673472Y-100076998D01*
X155826528Y-100076998D01*
X155976643Y-100047139D01*
X156118048Y-99988567D01*
X156245309Y-99903534D01*
X156251366Y-99897477D01*
X156274140Y-99931561D01*
X156368437Y-100025858D01*
X156479320Y-100099948D01*
X156602526Y-100150982D01*
X156733321Y-100176998D01*
X156866679Y-100176998D01*
X156997474Y-100150982D01*
X157120680Y-100099948D01*
X157231563Y-100025858D01*
X157325860Y-99931561D01*
X157399950Y-99820678D01*
X157450984Y-99697472D01*
X157477000Y-99566677D01*
X157477000Y-99433319D01*
X157450984Y-99302524D01*
X157399950Y-99179318D01*
X157325860Y-99068435D01*
X157231563Y-98974138D01*
X157120680Y-98900048D01*
X156997474Y-98849014D01*
X156866679Y-98822998D01*
X156733321Y-98822998D01*
X156602526Y-98849014D01*
X156479320Y-98900048D01*
X156436410Y-98928719D01*
X156353536Y-98804689D01*
X156245309Y-98696462D01*
X156118048Y-98611429D01*
X155976643Y-98552857D01*
X155826528Y-98522998D01*
X155673472Y-98522998D01*
X155523357Y-98552857D01*
X155381952Y-98611429D01*
X155254691Y-98696462D01*
X155146464Y-98804689D01*
X155061431Y-98931950D01*
X155002859Y-99073355D01*
X154973000Y-99223470D01*
X153575041Y-99223470D01*
X153550984Y-99102526D01*
X153499950Y-98979320D01*
X153425860Y-98868437D01*
X153331563Y-98774140D01*
X153220680Y-98700050D01*
X153097474Y-98649016D01*
X152966679Y-98623000D01*
X152833321Y-98623000D01*
X152702526Y-98649016D01*
X152579320Y-98700050D01*
X152468437Y-98774140D01*
X152374140Y-98868437D01*
X152300050Y-98979320D01*
X152249016Y-99102526D01*
X152223000Y-99233321D01*
X151677000Y-99233321D01*
X151650984Y-99102526D01*
X151599950Y-98979320D01*
X151525860Y-98868437D01*
X151431563Y-98774140D01*
X151320680Y-98700050D01*
X151197474Y-98649016D01*
X151066679Y-98623000D01*
X150933321Y-98623000D01*
X150802526Y-98649016D01*
X150679320Y-98700050D01*
X150568437Y-98774140D01*
X150474140Y-98868437D01*
X150400050Y-98979320D01*
X150349016Y-99102526D01*
X150323000Y-99233321D01*
X140930558Y-99233321D01*
X140888569Y-99131952D01*
X140803536Y-99004691D01*
X140695309Y-98896464D01*
X140568048Y-98811431D01*
X140426643Y-98752859D01*
X140276528Y-98723000D01*
X140123472Y-98723000D01*
X139973357Y-98752859D01*
X139831952Y-98811431D01*
X139704691Y-98896464D01*
X139596464Y-99004691D01*
X139511431Y-99131952D01*
X139452859Y-99273357D01*
X139423000Y-99423472D01*
X139423000Y-99576528D01*
X139452859Y-99726643D01*
X139511431Y-99868048D01*
X139596464Y-99995309D01*
X139620343Y-100019188D01*
X139504691Y-100096464D01*
X139396464Y-100204691D01*
X139311431Y-100331952D01*
X139252859Y-100473357D01*
X139223000Y-100623472D01*
X129977000Y-100623472D01*
X129977000Y-99423472D01*
X137823000Y-99423472D01*
X137823000Y-99576528D01*
X137852859Y-99726643D01*
X137911431Y-99868048D01*
X137996464Y-99995309D01*
X138104691Y-100103536D01*
X138231952Y-100188569D01*
X138373357Y-100247141D01*
X138523472Y-100277000D01*
X138676528Y-100277000D01*
X138826643Y-100247141D01*
X138968048Y-100188569D01*
X139095309Y-100103536D01*
X139203536Y-99995309D01*
X139288569Y-99868048D01*
X139347141Y-99726643D01*
X139377000Y-99576528D01*
X139377000Y-99423472D01*
X139347141Y-99273357D01*
X139288569Y-99131952D01*
X139203536Y-99004691D01*
X139095309Y-98896464D01*
X138968048Y-98811431D01*
X138826643Y-98752859D01*
X138676528Y-98723000D01*
X138523472Y-98723000D01*
X138373357Y-98752859D01*
X138231952Y-98811431D01*
X138104691Y-98896464D01*
X137996464Y-99004691D01*
X137911431Y-99131952D01*
X137852859Y-99273357D01*
X137823000Y-99423472D01*
X129977000Y-99423472D01*
X129977000Y-98223472D01*
X134823000Y-98223472D01*
X134823000Y-98376528D01*
X134852859Y-98526643D01*
X134911431Y-98668048D01*
X134996464Y-98795309D01*
X135104691Y-98903536D01*
X135231952Y-98988569D01*
X135373357Y-99047141D01*
X135523472Y-99077000D01*
X135676528Y-99077000D01*
X135826643Y-99047141D01*
X135968048Y-98988569D01*
X136095309Y-98903536D01*
X136203536Y-98795309D01*
X136288569Y-98668048D01*
X136347141Y-98526643D01*
X136377000Y-98376528D01*
X136377000Y-98223472D01*
X136347141Y-98073357D01*
X136288569Y-97931952D01*
X136203536Y-97804691D01*
X136095309Y-97696464D01*
X135968048Y-97611431D01*
X135826643Y-97552859D01*
X135676528Y-97523000D01*
X135523472Y-97523000D01*
X135373357Y-97552859D01*
X135231952Y-97611431D01*
X135104691Y-97696464D01*
X134996464Y-97804691D01*
X134911431Y-97931952D01*
X134852859Y-98073357D01*
X134823000Y-98223472D01*
X129977000Y-98223472D01*
X129977000Y-96323472D01*
X140023000Y-96323472D01*
X140023000Y-96476528D01*
X140052859Y-96626643D01*
X140111431Y-96768048D01*
X140196464Y-96895309D01*
X140301155Y-97000000D01*
X140196464Y-97104691D01*
X140111431Y-97231952D01*
X140052859Y-97373357D01*
X140023000Y-97523472D01*
X140023000Y-97676528D01*
X140052859Y-97826643D01*
X140111431Y-97968048D01*
X140196464Y-98095309D01*
X140304691Y-98203536D01*
X140431952Y-98288569D01*
X140573357Y-98347141D01*
X140723472Y-98377000D01*
X140876528Y-98377000D01*
X141026643Y-98347141D01*
X141168048Y-98288569D01*
X141295309Y-98203536D01*
X141403536Y-98095309D01*
X141488569Y-97968048D01*
X141547141Y-97826643D01*
X141547771Y-97823472D01*
X142523000Y-97823472D01*
X142523000Y-97976528D01*
X142552859Y-98126643D01*
X142611431Y-98268048D01*
X142696464Y-98395309D01*
X142804691Y-98503536D01*
X142931952Y-98588569D01*
X143073357Y-98647141D01*
X143223472Y-98677000D01*
X143376528Y-98677000D01*
X143526643Y-98647141D01*
X143668048Y-98588569D01*
X143795309Y-98503536D01*
X143903536Y-98395309D01*
X143988569Y-98268048D01*
X144047141Y-98126643D01*
X144077000Y-97976528D01*
X144077000Y-97823472D01*
X144047141Y-97673357D01*
X143988569Y-97531952D01*
X143903536Y-97404691D01*
X143822317Y-97323472D01*
X144923000Y-97323472D01*
X144923000Y-97476528D01*
X144952859Y-97626643D01*
X145011431Y-97768048D01*
X145096464Y-97895309D01*
X145204691Y-98003536D01*
X145331952Y-98088569D01*
X145473357Y-98147141D01*
X145623472Y-98177000D01*
X145776528Y-98177000D01*
X145926643Y-98147141D01*
X146068048Y-98088569D01*
X146195309Y-98003536D01*
X146303536Y-97895309D01*
X146388569Y-97768048D01*
X146447141Y-97626643D01*
X146447771Y-97623472D01*
X149823000Y-97623472D01*
X149823000Y-97776528D01*
X149852859Y-97926643D01*
X149911431Y-98068048D01*
X149996464Y-98195309D01*
X150104691Y-98303536D01*
X150231952Y-98388569D01*
X150373357Y-98447141D01*
X150523472Y-98477000D01*
X150676528Y-98477000D01*
X150826643Y-98447141D01*
X150968048Y-98388569D01*
X151095309Y-98303536D01*
X151203536Y-98195309D01*
X151288569Y-98068048D01*
X151347141Y-97926643D01*
X151377000Y-97776528D01*
X151377000Y-97623472D01*
X151347141Y-97473357D01*
X151288569Y-97331952D01*
X151203536Y-97204691D01*
X151095309Y-97096464D01*
X150968048Y-97011431D01*
X150826643Y-96952859D01*
X150676528Y-96923000D01*
X150523472Y-96923000D01*
X150373357Y-96952859D01*
X150231952Y-97011431D01*
X150104691Y-97096464D01*
X149996464Y-97204691D01*
X149911431Y-97331952D01*
X149852859Y-97473357D01*
X149823000Y-97623472D01*
X146447771Y-97623472D01*
X146477000Y-97476528D01*
X146477000Y-97323472D01*
X146447141Y-97173357D01*
X146388569Y-97031952D01*
X146303536Y-96904691D01*
X146195309Y-96796464D01*
X146068048Y-96711431D01*
X145926643Y-96652859D01*
X145776528Y-96623000D01*
X145623472Y-96623000D01*
X145473357Y-96652859D01*
X145331952Y-96711431D01*
X145204691Y-96796464D01*
X145096464Y-96904691D01*
X145011431Y-97031952D01*
X144952859Y-97173357D01*
X144923000Y-97323472D01*
X143822317Y-97323472D01*
X143795309Y-97296464D01*
X143668048Y-97211431D01*
X143526643Y-97152859D01*
X143376528Y-97123000D01*
X143223472Y-97123000D01*
X143073357Y-97152859D01*
X142931952Y-97211431D01*
X142804691Y-97296464D01*
X142696464Y-97404691D01*
X142611431Y-97531952D01*
X142552859Y-97673357D01*
X142523000Y-97823472D01*
X141547771Y-97823472D01*
X141577000Y-97676528D01*
X141577000Y-97523472D01*
X141547141Y-97373357D01*
X141488569Y-97231952D01*
X141403536Y-97104691D01*
X141298845Y-97000000D01*
X141403536Y-96895309D01*
X141488569Y-96768048D01*
X141547141Y-96626643D01*
X141577000Y-96476528D01*
X141577000Y-96323472D01*
X141547141Y-96173357D01*
X141488569Y-96031952D01*
X141403536Y-95904691D01*
X141295309Y-95796464D01*
X141168048Y-95711431D01*
X141026643Y-95652859D01*
X140876528Y-95623000D01*
X140723472Y-95623000D01*
X140573357Y-95652859D01*
X140431952Y-95711431D01*
X140304691Y-95796464D01*
X140196464Y-95904691D01*
X140111431Y-96031952D01*
X140052859Y-96173357D01*
X140023000Y-96323472D01*
X129977000Y-96323472D01*
X129977000Y-94423472D01*
X133473000Y-94423472D01*
X133473000Y-94576528D01*
X133502859Y-94726643D01*
X133561431Y-94868048D01*
X133646464Y-94995309D01*
X133754691Y-95103536D01*
X133881952Y-95188569D01*
X134023357Y-95247141D01*
X134173472Y-95277000D01*
X134326528Y-95277000D01*
X134476643Y-95247141D01*
X134618048Y-95188569D01*
X134745309Y-95103536D01*
X134853536Y-94995309D01*
X134938569Y-94868048D01*
X134997141Y-94726643D01*
X135027000Y-94576528D01*
X135027000Y-94423472D01*
X136223000Y-94423472D01*
X136223000Y-94576528D01*
X136252859Y-94726643D01*
X136311431Y-94868048D01*
X136396464Y-94995309D01*
X136504691Y-95103536D01*
X136631952Y-95188569D01*
X136773357Y-95247141D01*
X136923472Y-95277000D01*
X137076528Y-95277000D01*
X137226643Y-95247141D01*
X137368048Y-95188569D01*
X137495309Y-95103536D01*
X137603536Y-94995309D01*
X137688569Y-94868048D01*
X137747141Y-94726643D01*
X137777000Y-94576528D01*
X137777000Y-94423472D01*
X139223000Y-94423472D01*
X139223000Y-94576528D01*
X139252859Y-94726643D01*
X139311431Y-94868048D01*
X139396464Y-94995309D01*
X139504691Y-95103536D01*
X139631952Y-95188569D01*
X139773357Y-95247141D01*
X139923472Y-95277000D01*
X140076528Y-95277000D01*
X140226643Y-95247141D01*
X140368048Y-95188569D01*
X140390642Y-95173472D01*
X142723000Y-95173472D01*
X142723000Y-95326528D01*
X142752859Y-95476643D01*
X142811431Y-95618048D01*
X142896464Y-95745309D01*
X143004691Y-95853536D01*
X143131952Y-95938569D01*
X143273357Y-95997141D01*
X143423472Y-96027000D01*
X143576528Y-96027000D01*
X143726643Y-95997141D01*
X143868048Y-95938569D01*
X143995309Y-95853536D01*
X144103536Y-95745309D01*
X144188569Y-95618048D01*
X144247141Y-95476643D01*
X144277000Y-95326528D01*
X144277000Y-95173472D01*
X144247141Y-95023357D01*
X144205768Y-94923472D01*
X144723000Y-94923472D01*
X144723000Y-95076528D01*
X144752859Y-95226643D01*
X144811431Y-95368048D01*
X144896464Y-95495309D01*
X145004691Y-95603536D01*
X145131952Y-95688569D01*
X145273357Y-95747141D01*
X145423472Y-95777000D01*
X145576528Y-95777000D01*
X145726643Y-95747141D01*
X145760007Y-95733321D01*
X148623000Y-95733321D01*
X148623000Y-95866679D01*
X148649016Y-95997474D01*
X148700050Y-96120680D01*
X148774140Y-96231563D01*
X148868437Y-96325860D01*
X148979320Y-96399950D01*
X149102526Y-96450984D01*
X149233321Y-96477000D01*
X149366679Y-96477000D01*
X149497474Y-96450984D01*
X149620680Y-96399950D01*
X149731563Y-96325860D01*
X149824102Y-96233321D01*
X155023002Y-96233321D01*
X155023002Y-96366679D01*
X155049018Y-96497474D01*
X155100052Y-96620680D01*
X155174142Y-96731563D01*
X155268439Y-96825860D01*
X155379322Y-96899950D01*
X155502528Y-96950984D01*
X155633323Y-96977000D01*
X155766681Y-96977000D01*
X155897476Y-96950984D01*
X156020682Y-96899950D01*
X156131565Y-96825860D01*
X156225862Y-96731563D01*
X156299952Y-96620680D01*
X156350986Y-96497474D01*
X156374949Y-96377000D01*
X156466679Y-96377000D01*
X156597474Y-96350984D01*
X156720680Y-96299950D01*
X156831563Y-96225860D01*
X156925860Y-96131563D01*
X156928607Y-96127452D01*
X157004691Y-96203536D01*
X157122418Y-96282198D01*
X157079320Y-96300050D01*
X156968437Y-96374140D01*
X156874140Y-96468437D01*
X156800050Y-96579320D01*
X156780794Y-96625808D01*
X156766679Y-96623000D01*
X156633321Y-96623000D01*
X156502526Y-96649016D01*
X156379320Y-96700050D01*
X156268437Y-96774140D01*
X156174140Y-96868437D01*
X156100050Y-96979320D01*
X156049016Y-97102526D01*
X156023000Y-97233321D01*
X156023000Y-97366679D01*
X156049016Y-97497474D01*
X156100050Y-97620680D01*
X156174140Y-97731563D01*
X156268437Y-97825860D01*
X156379320Y-97899950D01*
X156502526Y-97950984D01*
X156633321Y-97977000D01*
X156766679Y-97977000D01*
X156897474Y-97950984D01*
X157020680Y-97899950D01*
X157131563Y-97825860D01*
X157225860Y-97731563D01*
X157299950Y-97620680D01*
X157319206Y-97574192D01*
X157333321Y-97577000D01*
X157466679Y-97577000D01*
X157597474Y-97550984D01*
X157720680Y-97499950D01*
X157831563Y-97425860D01*
X157925860Y-97331563D01*
X157999950Y-97220680D01*
X158035210Y-97135555D01*
X159347994Y-97135555D01*
X159347994Y-97268913D01*
X159374010Y-97399708D01*
X159425044Y-97522914D01*
X159499134Y-97633797D01*
X159517917Y-97652580D01*
X159500050Y-97679320D01*
X159449016Y-97802526D01*
X159423000Y-97933321D01*
X159423000Y-98066679D01*
X159449016Y-98197474D01*
X159500050Y-98320680D01*
X159574140Y-98431563D01*
X159668437Y-98525860D01*
X159779320Y-98599950D01*
X159902526Y-98650984D01*
X160033321Y-98677000D01*
X160166679Y-98677000D01*
X160297474Y-98650984D01*
X160420680Y-98599950D01*
X160531563Y-98525860D01*
X160625860Y-98431563D01*
X160699950Y-98320680D01*
X160740215Y-98223472D01*
X164143000Y-98223472D01*
X164143000Y-98376528D01*
X164172859Y-98526643D01*
X164231431Y-98668048D01*
X164316464Y-98795309D01*
X164424691Y-98903536D01*
X164551952Y-98988569D01*
X164693357Y-99047141D01*
X164843472Y-99077000D01*
X164996528Y-99077000D01*
X165146643Y-99047141D01*
X165288048Y-98988569D01*
X165415309Y-98903536D01*
X165523536Y-98795309D01*
X165608569Y-98668048D01*
X165667141Y-98526643D01*
X165697000Y-98376528D01*
X165697000Y-98223472D01*
X165667141Y-98073357D01*
X165608569Y-97931952D01*
X165523536Y-97804691D01*
X165415309Y-97696464D01*
X165288048Y-97611431D01*
X165146643Y-97552859D01*
X164996528Y-97523000D01*
X164843472Y-97523000D01*
X164693357Y-97552859D01*
X164551952Y-97611431D01*
X164424691Y-97696464D01*
X164316464Y-97804691D01*
X164231431Y-97931952D01*
X164172859Y-98073357D01*
X164143000Y-98223472D01*
X160740215Y-98223472D01*
X160750984Y-98197474D01*
X160777000Y-98066679D01*
X160777000Y-97933321D01*
X160750984Y-97802526D01*
X160699950Y-97679320D01*
X160625860Y-97568437D01*
X160607077Y-97549654D01*
X160624944Y-97522914D01*
X160675978Y-97399708D01*
X160701994Y-97268913D01*
X160701994Y-97135555D01*
X160675978Y-97004760D01*
X160624944Y-96881554D01*
X160550854Y-96770671D01*
X160456557Y-96676374D01*
X160345674Y-96602284D01*
X160222468Y-96551250D01*
X160091673Y-96525234D01*
X159958315Y-96525234D01*
X159827520Y-96551250D01*
X159704314Y-96602284D01*
X159593431Y-96676374D01*
X159499134Y-96770671D01*
X159425044Y-96881554D01*
X159374010Y-97004760D01*
X159347994Y-97135555D01*
X158035210Y-97135555D01*
X158050984Y-97097474D01*
X158077000Y-96966679D01*
X158077000Y-96833321D01*
X158050984Y-96702526D01*
X157999950Y-96579320D01*
X157925860Y-96468437D01*
X157831563Y-96374140D01*
X157766468Y-96330645D01*
X157868048Y-96288569D01*
X157995309Y-96203536D01*
X158103536Y-96095309D01*
X158188569Y-95968048D01*
X158247141Y-95826643D01*
X158277000Y-95676528D01*
X158277000Y-95523472D01*
X158247141Y-95373357D01*
X158188569Y-95231952D01*
X158103536Y-95104691D01*
X157995309Y-94996464D01*
X157868048Y-94911431D01*
X157726643Y-94852859D01*
X157576528Y-94823000D01*
X157423472Y-94823000D01*
X157273357Y-94852859D01*
X157131952Y-94911431D01*
X157104393Y-94929845D01*
X157147141Y-94826643D01*
X157167662Y-94723472D01*
X158123000Y-94723472D01*
X158123000Y-94876528D01*
X158152859Y-95026643D01*
X158211431Y-95168048D01*
X158296464Y-95295309D01*
X158404691Y-95403536D01*
X158531952Y-95488569D01*
X158673357Y-95547141D01*
X158823472Y-95577000D01*
X158976528Y-95577000D01*
X159126643Y-95547141D01*
X159268048Y-95488569D01*
X159355237Y-95430311D01*
X159522143Y-95430311D01*
X159522143Y-95563669D01*
X159548159Y-95694464D01*
X159599193Y-95817670D01*
X159673283Y-95928553D01*
X159767580Y-96022850D01*
X159878463Y-96096940D01*
X160001669Y-96147974D01*
X160132464Y-96173990D01*
X160265822Y-96173990D01*
X160396617Y-96147974D01*
X160455769Y-96123472D01*
X162023000Y-96123472D01*
X162023000Y-96276528D01*
X162052859Y-96426643D01*
X162111431Y-96568048D01*
X162196464Y-96695309D01*
X162304691Y-96803536D01*
X162431952Y-96888569D01*
X162573357Y-96947141D01*
X162723472Y-96977000D01*
X162876528Y-96977000D01*
X163026643Y-96947141D01*
X163168048Y-96888569D01*
X163295309Y-96803536D01*
X163403536Y-96695309D01*
X163488569Y-96568048D01*
X163547141Y-96426643D01*
X163577000Y-96276528D01*
X163577000Y-96123472D01*
X166223000Y-96123472D01*
X166223000Y-96276528D01*
X166252859Y-96426643D01*
X166311431Y-96568048D01*
X166396464Y-96695309D01*
X166504691Y-96803536D01*
X166631952Y-96888569D01*
X166773357Y-96947141D01*
X166923472Y-96977000D01*
X167076528Y-96977000D01*
X167226643Y-96947141D01*
X167368048Y-96888569D01*
X167495309Y-96803536D01*
X167603536Y-96695309D01*
X167688569Y-96568048D01*
X167747141Y-96426643D01*
X167777000Y-96276528D01*
X167777000Y-96123472D01*
X167747141Y-95973357D01*
X167688569Y-95831952D01*
X167603536Y-95704691D01*
X167495309Y-95596464D01*
X167368048Y-95511431D01*
X167226643Y-95452859D01*
X167076528Y-95423000D01*
X166923472Y-95423000D01*
X166773357Y-95452859D01*
X166631952Y-95511431D01*
X166504691Y-95596464D01*
X166396464Y-95704691D01*
X166311431Y-95831952D01*
X166252859Y-95973357D01*
X166223000Y-96123472D01*
X163577000Y-96123472D01*
X163547141Y-95973357D01*
X163488569Y-95831952D01*
X163403536Y-95704691D01*
X163295309Y-95596464D01*
X163168048Y-95511431D01*
X163026643Y-95452859D01*
X162876528Y-95423000D01*
X162723472Y-95423000D01*
X162573357Y-95452859D01*
X162431952Y-95511431D01*
X162304691Y-95596464D01*
X162196464Y-95704691D01*
X162111431Y-95831952D01*
X162052859Y-95973357D01*
X162023000Y-96123472D01*
X160455769Y-96123472D01*
X160519823Y-96096940D01*
X160630706Y-96022850D01*
X160725003Y-95928553D01*
X160799093Y-95817670D01*
X160850127Y-95694464D01*
X160876143Y-95563669D01*
X160876143Y-95430311D01*
X160850127Y-95299516D01*
X160799093Y-95176310D01*
X160725003Y-95065427D01*
X160630706Y-94971130D01*
X160519823Y-94897040D01*
X160396617Y-94846006D01*
X160265822Y-94819990D01*
X160132464Y-94819990D01*
X160001669Y-94846006D01*
X159878463Y-94897040D01*
X159767580Y-94971130D01*
X159673283Y-95065427D01*
X159599193Y-95176310D01*
X159548159Y-95299516D01*
X159522143Y-95430311D01*
X159355237Y-95430311D01*
X159395309Y-95403536D01*
X159503536Y-95295309D01*
X159588569Y-95168048D01*
X159647141Y-95026643D01*
X159677000Y-94876528D01*
X159677000Y-94723472D01*
X159647141Y-94573357D01*
X159588569Y-94431952D01*
X159503536Y-94304691D01*
X159395309Y-94196464D01*
X159268048Y-94111431D01*
X159126643Y-94052859D01*
X158976528Y-94023000D01*
X158823472Y-94023000D01*
X158673357Y-94052859D01*
X158531952Y-94111431D01*
X158404691Y-94196464D01*
X158296464Y-94304691D01*
X158211431Y-94431952D01*
X158152859Y-94573357D01*
X158123000Y-94723472D01*
X157167662Y-94723472D01*
X157177000Y-94676528D01*
X157177000Y-94523472D01*
X157147141Y-94373357D01*
X157088569Y-94231952D01*
X157003536Y-94104691D01*
X156895309Y-93996464D01*
X156768048Y-93911431D01*
X156626643Y-93852859D01*
X156476528Y-93823000D01*
X156323472Y-93823000D01*
X156173357Y-93852859D01*
X156031952Y-93911431D01*
X155904691Y-93996464D01*
X155796464Y-94104691D01*
X155711431Y-94231952D01*
X155652859Y-94373357D01*
X155623000Y-94523472D01*
X155623000Y-94676528D01*
X155652859Y-94826643D01*
X155711431Y-94968048D01*
X155796464Y-95095309D01*
X155904691Y-95203536D01*
X155925282Y-95217295D01*
X155874140Y-95268437D01*
X155800050Y-95379320D01*
X155749016Y-95502526D01*
X155725053Y-95623000D01*
X155633323Y-95623000D01*
X155502528Y-95649016D01*
X155379322Y-95700050D01*
X155268439Y-95774140D01*
X155174142Y-95868437D01*
X155100052Y-95979320D01*
X155049018Y-96102526D01*
X155023002Y-96233321D01*
X149824102Y-96233321D01*
X149825860Y-96231563D01*
X149899950Y-96120680D01*
X149950984Y-95997474D01*
X149977000Y-95866679D01*
X149977000Y-95733321D01*
X149950984Y-95602526D01*
X149899950Y-95479320D01*
X149825860Y-95368437D01*
X149731563Y-95274140D01*
X149620680Y-95200050D01*
X149497474Y-95149016D01*
X149369052Y-95123472D01*
X150823000Y-95123472D01*
X150823000Y-95276528D01*
X150852859Y-95426643D01*
X150911431Y-95568048D01*
X150996464Y-95695309D01*
X151104691Y-95803536D01*
X151231952Y-95888569D01*
X151373357Y-95947141D01*
X151523472Y-95977000D01*
X151676528Y-95977000D01*
X151826643Y-95947141D01*
X151968048Y-95888569D01*
X152095309Y-95803536D01*
X152203536Y-95695309D01*
X152288569Y-95568048D01*
X152347141Y-95426643D01*
X152377000Y-95276528D01*
X152377000Y-95223472D01*
X153223000Y-95223472D01*
X153223000Y-95376528D01*
X153252859Y-95526643D01*
X153311431Y-95668048D01*
X153396464Y-95795309D01*
X153504691Y-95903536D01*
X153631952Y-95988569D01*
X153773357Y-96047141D01*
X153923472Y-96077000D01*
X154076528Y-96077000D01*
X154226643Y-96047141D01*
X154368048Y-95988569D01*
X154495309Y-95903536D01*
X154603536Y-95795309D01*
X154688569Y-95668048D01*
X154747141Y-95526643D01*
X154777000Y-95376528D01*
X154777000Y-95223472D01*
X154747141Y-95073357D01*
X154688569Y-94931952D01*
X154603536Y-94804691D01*
X154495309Y-94696464D01*
X154368048Y-94611431D01*
X154226643Y-94552859D01*
X154076528Y-94523000D01*
X153923472Y-94523000D01*
X153773357Y-94552859D01*
X153631952Y-94611431D01*
X153504691Y-94696464D01*
X153396464Y-94804691D01*
X153311431Y-94931952D01*
X153252859Y-95073357D01*
X153223000Y-95223472D01*
X152377000Y-95223472D01*
X152377000Y-95123472D01*
X152347141Y-94973357D01*
X152288569Y-94831952D01*
X152203536Y-94704691D01*
X152095309Y-94596464D01*
X151968048Y-94511431D01*
X151826643Y-94452859D01*
X151676528Y-94423000D01*
X151523472Y-94423000D01*
X151373357Y-94452859D01*
X151231952Y-94511431D01*
X151104691Y-94596464D01*
X150996464Y-94704691D01*
X150911431Y-94831952D01*
X150852859Y-94973357D01*
X150823000Y-95123472D01*
X149369052Y-95123472D01*
X149366679Y-95123000D01*
X149233321Y-95123000D01*
X149102526Y-95149016D01*
X148979320Y-95200050D01*
X148868437Y-95274140D01*
X148774140Y-95368437D01*
X148700050Y-95479320D01*
X148649016Y-95602526D01*
X148623000Y-95733321D01*
X145760007Y-95733321D01*
X145868048Y-95688569D01*
X145995309Y-95603536D01*
X146103536Y-95495309D01*
X146188569Y-95368048D01*
X146247141Y-95226643D01*
X146277000Y-95076528D01*
X146277000Y-94923472D01*
X146247141Y-94773357D01*
X146188569Y-94631952D01*
X146103536Y-94504691D01*
X145995309Y-94396464D01*
X145868048Y-94311431D01*
X145726643Y-94252859D01*
X145576528Y-94223000D01*
X145423472Y-94223000D01*
X145273357Y-94252859D01*
X145131952Y-94311431D01*
X145004691Y-94396464D01*
X144896464Y-94504691D01*
X144811431Y-94631952D01*
X144752859Y-94773357D01*
X144723000Y-94923472D01*
X144205768Y-94923472D01*
X144188569Y-94881952D01*
X144103536Y-94754691D01*
X143995309Y-94646464D01*
X143868048Y-94561431D01*
X143726643Y-94502859D01*
X143576528Y-94473000D01*
X143423472Y-94473000D01*
X143273357Y-94502859D01*
X143131952Y-94561431D01*
X143004691Y-94646464D01*
X142896464Y-94754691D01*
X142811431Y-94881952D01*
X142752859Y-95023357D01*
X142723000Y-95173472D01*
X140390642Y-95173472D01*
X140495309Y-95103536D01*
X140603536Y-94995309D01*
X140688569Y-94868048D01*
X140747141Y-94726643D01*
X140777000Y-94576528D01*
X140777000Y-94423472D01*
X140747141Y-94273357D01*
X140688569Y-94131952D01*
X140603536Y-94004691D01*
X140522317Y-93923472D01*
X146973000Y-93923472D01*
X146973000Y-94076528D01*
X147002859Y-94226643D01*
X147061431Y-94368048D01*
X147146464Y-94495309D01*
X147254691Y-94603536D01*
X147381952Y-94688569D01*
X147523357Y-94747141D01*
X147673472Y-94777000D01*
X147826528Y-94777000D01*
X147976643Y-94747141D01*
X148118048Y-94688569D01*
X148245309Y-94603536D01*
X148353536Y-94495309D01*
X148438569Y-94368048D01*
X148497141Y-94226643D01*
X148527000Y-94076528D01*
X148527000Y-93923472D01*
X148497141Y-93773357D01*
X148438569Y-93631952D01*
X148366086Y-93523472D01*
X160623000Y-93523472D01*
X160623000Y-93676528D01*
X160652859Y-93826643D01*
X160711431Y-93968048D01*
X160796464Y-94095309D01*
X160904691Y-94203536D01*
X161031952Y-94288569D01*
X161173357Y-94347141D01*
X161323472Y-94377000D01*
X161476528Y-94377000D01*
X161626643Y-94347141D01*
X161768048Y-94288569D01*
X161895309Y-94203536D01*
X162003536Y-94095309D01*
X162088569Y-93968048D01*
X162147141Y-93826643D01*
X162165703Y-93733321D01*
X162973000Y-93733321D01*
X162973000Y-93866679D01*
X162999016Y-93997474D01*
X163050050Y-94120680D01*
X163124140Y-94231563D01*
X163218437Y-94325860D01*
X163329320Y-94399950D01*
X163452526Y-94450984D01*
X163583321Y-94477000D01*
X163716679Y-94477000D01*
X163847474Y-94450984D01*
X163970680Y-94399950D01*
X164081563Y-94325860D01*
X164175860Y-94231563D01*
X164249950Y-94120680D01*
X164300984Y-93997474D01*
X164327000Y-93866679D01*
X164327000Y-93733321D01*
X164300984Y-93602526D01*
X164249950Y-93479320D01*
X164175860Y-93368437D01*
X164081563Y-93274140D01*
X163970680Y-93200050D01*
X163847474Y-93149016D01*
X163716679Y-93123000D01*
X163583321Y-93123000D01*
X163452526Y-93149016D01*
X163329320Y-93200050D01*
X163218437Y-93274140D01*
X163124140Y-93368437D01*
X163050050Y-93479320D01*
X162999016Y-93602526D01*
X162973000Y-93733321D01*
X162165703Y-93733321D01*
X162177000Y-93676528D01*
X162177000Y-93523472D01*
X162147141Y-93373357D01*
X162088569Y-93231952D01*
X162003536Y-93104691D01*
X161895309Y-92996464D01*
X161768048Y-92911431D01*
X161626643Y-92852859D01*
X161476528Y-92823000D01*
X161323472Y-92823000D01*
X161173357Y-92852859D01*
X161031952Y-92911431D01*
X160904691Y-92996464D01*
X160796464Y-93104691D01*
X160711431Y-93231952D01*
X160652859Y-93373357D01*
X160623000Y-93523472D01*
X148366086Y-93523472D01*
X148353536Y-93504691D01*
X148245309Y-93396464D01*
X148118048Y-93311431D01*
X147976643Y-93252859D01*
X147826528Y-93223000D01*
X147673472Y-93223000D01*
X147523357Y-93252859D01*
X147381952Y-93311431D01*
X147254691Y-93396464D01*
X147146464Y-93504691D01*
X147061431Y-93631952D01*
X147002859Y-93773357D01*
X146973000Y-93923472D01*
X140522317Y-93923472D01*
X140495309Y-93896464D01*
X140368048Y-93811431D01*
X140226643Y-93752859D01*
X140076528Y-93723000D01*
X139923472Y-93723000D01*
X139773357Y-93752859D01*
X139631952Y-93811431D01*
X139504691Y-93896464D01*
X139396464Y-94004691D01*
X139311431Y-94131952D01*
X139252859Y-94273357D01*
X139223000Y-94423472D01*
X137777000Y-94423472D01*
X137747141Y-94273357D01*
X137688569Y-94131952D01*
X137603536Y-94004691D01*
X137495309Y-93896464D01*
X137368048Y-93811431D01*
X137226643Y-93752859D01*
X137076528Y-93723000D01*
X136923472Y-93723000D01*
X136773357Y-93752859D01*
X136631952Y-93811431D01*
X136504691Y-93896464D01*
X136396464Y-94004691D01*
X136311431Y-94131952D01*
X136252859Y-94273357D01*
X136223000Y-94423472D01*
X135027000Y-94423472D01*
X134997141Y-94273357D01*
X134938569Y-94131952D01*
X134853536Y-94004691D01*
X134745309Y-93896464D01*
X134618048Y-93811431D01*
X134476643Y-93752859D01*
X134326528Y-93723000D01*
X134173472Y-93723000D01*
X134023357Y-93752859D01*
X133881952Y-93811431D01*
X133754691Y-93896464D01*
X133646464Y-94004691D01*
X133561431Y-94131952D01*
X133502859Y-94273357D01*
X133473000Y-94423472D01*
X129977000Y-94423472D01*
X129977000Y-92673472D01*
X133473000Y-92673472D01*
X133473000Y-92826528D01*
X133502859Y-92976643D01*
X133561431Y-93118048D01*
X133646464Y-93245309D01*
X133754691Y-93353536D01*
X133881952Y-93438569D01*
X134023357Y-93497141D01*
X134173472Y-93527000D01*
X134326528Y-93527000D01*
X134476643Y-93497141D01*
X134618048Y-93438569D01*
X134745309Y-93353536D01*
X134853536Y-93245309D01*
X134938569Y-93118048D01*
X134997141Y-92976643D01*
X135027000Y-92826528D01*
X135027000Y-92673472D01*
X134997141Y-92523357D01*
X134938569Y-92381952D01*
X134853536Y-92254691D01*
X134745309Y-92146464D01*
X134618048Y-92061431D01*
X134476643Y-92002859D01*
X134326528Y-91973000D01*
X134173472Y-91973000D01*
X134023357Y-92002859D01*
X133881952Y-92061431D01*
X133754691Y-92146464D01*
X133646464Y-92254691D01*
X133561431Y-92381952D01*
X133502859Y-92523357D01*
X133473000Y-92673472D01*
X129977000Y-92673472D01*
X129977000Y-90766179D01*
X129996464Y-90795309D01*
X130104691Y-90903536D01*
X130231952Y-90988569D01*
X130373357Y-91047141D01*
X130523472Y-91077000D01*
X130676528Y-91077000D01*
X130826643Y-91047141D01*
X130968048Y-90988569D01*
X131095309Y-90903536D01*
X131203536Y-90795309D01*
X131288569Y-90668048D01*
X131347141Y-90526643D01*
X131377000Y-90376528D01*
X131377000Y-90223472D01*
X131347141Y-90073357D01*
X131288569Y-89931952D01*
X131233810Y-89850000D01*
X131288569Y-89768048D01*
X131347141Y-89626643D01*
X131377000Y-89476528D01*
X131377000Y-89323472D01*
X131347141Y-89173357D01*
X131288569Y-89031952D01*
X131203536Y-88904691D01*
X131095309Y-88796464D01*
X130968048Y-88711431D01*
X130826643Y-88652859D01*
X130676528Y-88623000D01*
X130523472Y-88623000D01*
X130464466Y-88634737D01*
X130604459Y-88559043D01*
X130794758Y-88500135D01*
X131014878Y-88477000D01*
X134133821Y-88477000D01*
X134104691Y-88496464D01*
G37*
%TD.AperFunction*%
%TD*%
M02*
