%TF.GenerationSoftware,KiCad,Pcbnew,(5.1.9)-1*%
%TF.CreationDate,2021-05-08T20:51:41+01:00*%
%TF.ProjectId,TSDZ2-ESP32-Alt,5453445a-322d-4455-9350-33322d416c74,A*%
%TF.SameCoordinates,Original*%
%TF.FileFunction,Soldermask,Bot*%
%TF.FilePolarity,Negative*%
%FSLAX46Y46*%
G04 Gerber Fmt 4.6, Leading zero omitted, Abs format (unit mm)*
G04 Created by KiCad (PCBNEW (5.1.9)-1) date 2021-05-08 20:51:41*
%MOMM*%
%LPD*%
G01*
G04 APERTURE LIST*
%ADD10C,0.500000*%
%ADD11C,0.100000*%
%ADD12O,1.700000X1.700000*%
%ADD13R,1.700000X1.700000*%
G04 APERTURE END LIST*
D10*
%TO.C,REF\u002A\u002A*%
X170300000Y-98500000D03*
%TD*%
%TO.C,REF\u002A\u002A*%
X170300000Y-100050000D03*
%TD*%
%TO.C,REF\u002A\u002A*%
X170300000Y-101500000D03*
%TD*%
D11*
%TO.C,JP2*%
G36*
X139700000Y-91100602D02*
G01*
X139724534Y-91100602D01*
X139773365Y-91105412D01*
X139821490Y-91114984D01*
X139868445Y-91129228D01*
X139913778Y-91148005D01*
X139957051Y-91171136D01*
X139997850Y-91198396D01*
X140035779Y-91229524D01*
X140070476Y-91264221D01*
X140101604Y-91302150D01*
X140128864Y-91342949D01*
X140151995Y-91386222D01*
X140170772Y-91431555D01*
X140185016Y-91478510D01*
X140194588Y-91526635D01*
X140199398Y-91575466D01*
X140199398Y-91600000D01*
X140200000Y-91600000D01*
X140200000Y-92100000D01*
X140199398Y-92100000D01*
X140199398Y-92124534D01*
X140194588Y-92173365D01*
X140185016Y-92221490D01*
X140170772Y-92268445D01*
X140151995Y-92313778D01*
X140128864Y-92357051D01*
X140101604Y-92397850D01*
X140070476Y-92435779D01*
X140035779Y-92470476D01*
X139997850Y-92501604D01*
X139957051Y-92528864D01*
X139913778Y-92551995D01*
X139868445Y-92570772D01*
X139821490Y-92585016D01*
X139773365Y-92594588D01*
X139724534Y-92599398D01*
X139700000Y-92599398D01*
X139700000Y-92600000D01*
X139200000Y-92600000D01*
X139200000Y-91100000D01*
X139700000Y-91100000D01*
X139700000Y-91100602D01*
G37*
G36*
X138900000Y-92600000D02*
G01*
X138400000Y-92600000D01*
X138400000Y-92599398D01*
X138375466Y-92599398D01*
X138326635Y-92594588D01*
X138278510Y-92585016D01*
X138231555Y-92570772D01*
X138186222Y-92551995D01*
X138142949Y-92528864D01*
X138102150Y-92501604D01*
X138064221Y-92470476D01*
X138029524Y-92435779D01*
X137998396Y-92397850D01*
X137971136Y-92357051D01*
X137948005Y-92313778D01*
X137929228Y-92268445D01*
X137914984Y-92221490D01*
X137905412Y-92173365D01*
X137900602Y-92124534D01*
X137900602Y-92100000D01*
X137900000Y-92100000D01*
X137900000Y-91600000D01*
X137900602Y-91600000D01*
X137900602Y-91575466D01*
X137905412Y-91526635D01*
X137914984Y-91478510D01*
X137929228Y-91431555D01*
X137948005Y-91386222D01*
X137971136Y-91342949D01*
X137998396Y-91302150D01*
X138029524Y-91264221D01*
X138064221Y-91229524D01*
X138102150Y-91198396D01*
X138142949Y-91171136D01*
X138186222Y-91148005D01*
X138231555Y-91129228D01*
X138278510Y-91114984D01*
X138326635Y-91105412D01*
X138375466Y-91100602D01*
X138400000Y-91100602D01*
X138400000Y-91100000D01*
X138900000Y-91100000D01*
X138900000Y-92600000D01*
G37*
%TD*%
D12*
%TO.C,J2*%
X175500000Y-106300000D03*
X175500000Y-103760000D03*
X175500000Y-101220000D03*
X175500000Y-98680000D03*
X175500000Y-96140000D03*
D13*
X175500000Y-93600000D03*
%TD*%
D12*
%TO.C,J4*%
X137280000Y-110000000D03*
X134740000Y-110000000D03*
D13*
X132200000Y-110000000D03*
%TD*%
D12*
%TO.C,J3*%
X157800000Y-110100000D03*
X155260000Y-110100000D03*
X152720000Y-110100000D03*
D13*
X150180000Y-110100000D03*
%TD*%
D12*
%TO.C,U6*%
X146480000Y-110100000D03*
X143940000Y-110100000D03*
D13*
X141400000Y-110100000D03*
%TD*%
M02*
