%TF.GenerationSoftware,KiCad,Pcbnew,(5.1.9)-1*%
%TF.CreationDate,2021-05-08T20:51:41+01:00*%
%TF.ProjectId,TSDZ2-ESP32-Alt,5453445a-322d-4455-9350-33322d416c74,A*%
%TF.SameCoordinates,Original*%
%TF.FileFunction,Legend,Top*%
%TF.FilePolarity,Positive*%
%FSLAX46Y46*%
G04 Gerber Fmt 4.6, Leading zero omitted, Abs format (unit mm)*
G04 Created by KiCad (PCBNEW (5.1.9)-1) date 2021-05-08 20:51:41*
%MOMM*%
%LPD*%
G01*
G04 APERTURE LIST*
%ADD10C,0.150000*%
%ADD11C,0.010000*%
%ADD12C,0.120000*%
G04 APERTURE END LIST*
D10*
X177261904Y-107290476D02*
X177261904Y-106795238D01*
X177566666Y-107061904D01*
X177566666Y-106947619D01*
X177604761Y-106871428D01*
X177642857Y-106833333D01*
X177719047Y-106795238D01*
X177909523Y-106795238D01*
X177985714Y-106833333D01*
X178023809Y-106871428D01*
X178061904Y-106947619D01*
X178061904Y-107176190D01*
X178023809Y-107252380D01*
X177985714Y-107290476D01*
X177261904Y-106566666D02*
X178061904Y-106300000D01*
X177261904Y-106033333D01*
X177261904Y-105842857D02*
X177261904Y-105347619D01*
X177566666Y-105614285D01*
X177566666Y-105500000D01*
X177604761Y-105423809D01*
X177642857Y-105385714D01*
X177719047Y-105347619D01*
X177909523Y-105347619D01*
X177985714Y-105385714D01*
X178023809Y-105423809D01*
X178061904Y-105500000D01*
X178061904Y-105728571D01*
X178023809Y-105804761D01*
X177985714Y-105842857D01*
X178061904Y-104238095D02*
X177680952Y-104504761D01*
X178061904Y-104695238D02*
X177261904Y-104695238D01*
X177261904Y-104390476D01*
X177300000Y-104314285D01*
X177338095Y-104276190D01*
X177414285Y-104238095D01*
X177528571Y-104238095D01*
X177604761Y-104276190D01*
X177642857Y-104314285D01*
X177680952Y-104390476D01*
X177680952Y-104695238D01*
X178023809Y-103933333D02*
X178061904Y-103819047D01*
X178061904Y-103628571D01*
X178023809Y-103552380D01*
X177985714Y-103514285D01*
X177909523Y-103476190D01*
X177833333Y-103476190D01*
X177757142Y-103514285D01*
X177719047Y-103552380D01*
X177680952Y-103628571D01*
X177642857Y-103780952D01*
X177604761Y-103857142D01*
X177566666Y-103895238D01*
X177490476Y-103933333D01*
X177414285Y-103933333D01*
X177338095Y-103895238D01*
X177300000Y-103857142D01*
X177261904Y-103780952D01*
X177261904Y-103590476D01*
X177300000Y-103476190D01*
X177261904Y-103247619D02*
X177261904Y-102790476D01*
X178061904Y-103019047D02*
X177261904Y-103019047D01*
X178061904Y-102000000D02*
X177261904Y-102000000D01*
X177261904Y-101466666D02*
X177261904Y-101314285D01*
X177300000Y-101238095D01*
X177376190Y-101161904D01*
X177528571Y-101123809D01*
X177795238Y-101123809D01*
X177947619Y-101161904D01*
X178023809Y-101238095D01*
X178061904Y-101314285D01*
X178061904Y-101466666D01*
X178023809Y-101542857D01*
X177947619Y-101619047D01*
X177795238Y-101657142D01*
X177528571Y-101657142D01*
X177376190Y-101619047D01*
X177300000Y-101542857D01*
X177261904Y-101466666D01*
X177261904Y-100628571D02*
X177261904Y-100552380D01*
X177300000Y-100476190D01*
X177338095Y-100438095D01*
X177414285Y-100400000D01*
X177566666Y-100361904D01*
X177757142Y-100361904D01*
X177909523Y-100400000D01*
X177985714Y-100438095D01*
X178023809Y-100476190D01*
X178061904Y-100552380D01*
X178061904Y-100628571D01*
X178023809Y-100704761D01*
X177985714Y-100742857D01*
X177909523Y-100780952D01*
X177757142Y-100819047D01*
X177566666Y-100819047D01*
X177414285Y-100780952D01*
X177338095Y-100742857D01*
X177300000Y-100704761D01*
X177261904Y-100628571D01*
X178061904Y-98833333D02*
X177680952Y-99100000D01*
X178061904Y-99290476D02*
X177261904Y-99290476D01*
X177261904Y-98985714D01*
X177300000Y-98909523D01*
X177338095Y-98871428D01*
X177414285Y-98833333D01*
X177528571Y-98833333D01*
X177604761Y-98871428D01*
X177642857Y-98909523D01*
X177680952Y-98985714D01*
X177680952Y-99290476D01*
X177261904Y-98566666D02*
X178061904Y-98033333D01*
X177261904Y-98033333D02*
X178061904Y-98566666D01*
X177261904Y-96709523D02*
X177261904Y-96252380D01*
X178061904Y-96480952D02*
X177261904Y-96480952D01*
X177261904Y-96061904D02*
X178061904Y-95528571D01*
X177261904Y-95528571D02*
X178061904Y-96061904D01*
X177300000Y-94209523D02*
X177261904Y-94285714D01*
X177261904Y-94400000D01*
X177300000Y-94514285D01*
X177376190Y-94590476D01*
X177452380Y-94628571D01*
X177604761Y-94666666D01*
X177719047Y-94666666D01*
X177871428Y-94628571D01*
X177947619Y-94590476D01*
X178023809Y-94514285D01*
X178061904Y-94400000D01*
X178061904Y-94323809D01*
X178023809Y-94209523D01*
X177985714Y-94171428D01*
X177719047Y-94171428D01*
X177719047Y-94323809D01*
X178061904Y-93828571D02*
X177261904Y-93828571D01*
X178061904Y-93371428D01*
X177261904Y-93371428D01*
X178061904Y-92990476D02*
X177261904Y-92990476D01*
X177261904Y-92800000D01*
X177300000Y-92685714D01*
X177376190Y-92609523D01*
X177452380Y-92571428D01*
X177604761Y-92533333D01*
X177719047Y-92533333D01*
X177871428Y-92571428D01*
X177947619Y-92609523D01*
X178023809Y-92685714D01*
X178061904Y-92800000D01*
X178061904Y-92990476D01*
D11*
%TO.C,REF\u002A\u002A*%
G36*
X163099744Y-109919918D02*
G01*
X163155201Y-109947568D01*
X163204148Y-109998480D01*
X163217629Y-110017338D01*
X163232314Y-110042015D01*
X163241842Y-110068816D01*
X163247293Y-110104587D01*
X163249747Y-110156169D01*
X163250286Y-110224267D01*
X163247852Y-110317588D01*
X163239394Y-110387657D01*
X163223174Y-110439931D01*
X163197454Y-110479869D01*
X163160497Y-110512929D01*
X163157782Y-110514886D01*
X163121360Y-110534908D01*
X163077502Y-110544815D01*
X163021724Y-110547257D01*
X162931048Y-110547257D01*
X162931010Y-110635283D01*
X162930166Y-110684308D01*
X162925024Y-110713065D01*
X162911587Y-110730311D01*
X162885858Y-110744808D01*
X162879679Y-110747769D01*
X162850764Y-110761648D01*
X162828376Y-110770414D01*
X162811729Y-110771171D01*
X162800036Y-110761023D01*
X162792510Y-110737073D01*
X162788366Y-110696426D01*
X162786815Y-110636186D01*
X162787071Y-110553455D01*
X162788349Y-110445339D01*
X162788748Y-110413000D01*
X162790185Y-110301524D01*
X162791472Y-110228603D01*
X162930971Y-110228603D01*
X162931755Y-110290499D01*
X162935240Y-110330997D01*
X162943124Y-110357708D01*
X162957105Y-110378244D01*
X162966597Y-110388260D01*
X163005404Y-110417567D01*
X163039763Y-110419952D01*
X163075216Y-110395750D01*
X163076114Y-110394857D01*
X163090539Y-110376153D01*
X163099313Y-110350732D01*
X163103739Y-110311584D01*
X163105118Y-110251697D01*
X163105143Y-110238430D01*
X163101812Y-110155901D01*
X163090969Y-110098691D01*
X163071340Y-110063766D01*
X163041650Y-110048094D01*
X163024491Y-110046514D01*
X162983766Y-110053926D01*
X162955832Y-110078330D01*
X162939017Y-110122980D01*
X162931650Y-110191130D01*
X162930971Y-110228603D01*
X162791472Y-110228603D01*
X162791708Y-110215245D01*
X162793677Y-110150333D01*
X162796450Y-110102958D01*
X162800388Y-110069290D01*
X162805849Y-110045498D01*
X162813192Y-110027753D01*
X162822777Y-110012224D01*
X162826887Y-110006381D01*
X162881405Y-109951185D01*
X162950336Y-109919890D01*
X163030072Y-109911165D01*
X163099744Y-109919918D01*
G37*
X163099744Y-109919918D02*
X163155201Y-109947568D01*
X163204148Y-109998480D01*
X163217629Y-110017338D01*
X163232314Y-110042015D01*
X163241842Y-110068816D01*
X163247293Y-110104587D01*
X163249747Y-110156169D01*
X163250286Y-110224267D01*
X163247852Y-110317588D01*
X163239394Y-110387657D01*
X163223174Y-110439931D01*
X163197454Y-110479869D01*
X163160497Y-110512929D01*
X163157782Y-110514886D01*
X163121360Y-110534908D01*
X163077502Y-110544815D01*
X163021724Y-110547257D01*
X162931048Y-110547257D01*
X162931010Y-110635283D01*
X162930166Y-110684308D01*
X162925024Y-110713065D01*
X162911587Y-110730311D01*
X162885858Y-110744808D01*
X162879679Y-110747769D01*
X162850764Y-110761648D01*
X162828376Y-110770414D01*
X162811729Y-110771171D01*
X162800036Y-110761023D01*
X162792510Y-110737073D01*
X162788366Y-110696426D01*
X162786815Y-110636186D01*
X162787071Y-110553455D01*
X162788349Y-110445339D01*
X162788748Y-110413000D01*
X162790185Y-110301524D01*
X162791472Y-110228603D01*
X162930971Y-110228603D01*
X162931755Y-110290499D01*
X162935240Y-110330997D01*
X162943124Y-110357708D01*
X162957105Y-110378244D01*
X162966597Y-110388260D01*
X163005404Y-110417567D01*
X163039763Y-110419952D01*
X163075216Y-110395750D01*
X163076114Y-110394857D01*
X163090539Y-110376153D01*
X163099313Y-110350732D01*
X163103739Y-110311584D01*
X163105118Y-110251697D01*
X163105143Y-110238430D01*
X163101812Y-110155901D01*
X163090969Y-110098691D01*
X163071340Y-110063766D01*
X163041650Y-110048094D01*
X163024491Y-110046514D01*
X162983766Y-110053926D01*
X162955832Y-110078330D01*
X162939017Y-110122980D01*
X162931650Y-110191130D01*
X162930971Y-110228603D01*
X162791472Y-110228603D01*
X162791708Y-110215245D01*
X162793677Y-110150333D01*
X162796450Y-110102958D01*
X162800388Y-110069290D01*
X162805849Y-110045498D01*
X162813192Y-110027753D01*
X162822777Y-110012224D01*
X162826887Y-110006381D01*
X162881405Y-109951185D01*
X162950336Y-109919890D01*
X163030072Y-109911165D01*
X163099744Y-109919918D01*
G36*
X164216093Y-109927780D02*
G01*
X164262672Y-109954723D01*
X164295057Y-109981466D01*
X164318742Y-110009484D01*
X164335059Y-110043748D01*
X164345339Y-110089227D01*
X164350914Y-110150892D01*
X164353116Y-110233711D01*
X164353371Y-110293246D01*
X164353371Y-110512391D01*
X164291686Y-110540044D01*
X164230000Y-110567697D01*
X164222743Y-110327670D01*
X164219744Y-110238028D01*
X164216598Y-110172962D01*
X164212701Y-110128026D01*
X164207447Y-110098770D01*
X164200231Y-110080748D01*
X164190450Y-110069511D01*
X164187312Y-110067079D01*
X164139761Y-110048083D01*
X164091697Y-110055600D01*
X164063086Y-110075543D01*
X164051447Y-110089675D01*
X164043391Y-110108220D01*
X164038271Y-110136334D01*
X164035441Y-110179173D01*
X164034256Y-110241895D01*
X164034057Y-110307261D01*
X164034018Y-110389268D01*
X164032614Y-110447316D01*
X164027914Y-110486465D01*
X164017987Y-110511780D01*
X164000903Y-110528323D01*
X163974732Y-110541156D01*
X163939775Y-110554491D01*
X163901596Y-110569007D01*
X163906141Y-110311389D01*
X163907971Y-110218519D01*
X163910112Y-110149889D01*
X163913181Y-110100711D01*
X163917794Y-110066198D01*
X163924568Y-110041562D01*
X163934119Y-110022016D01*
X163945634Y-110004770D01*
X164001190Y-109949680D01*
X164068980Y-109917822D01*
X164142713Y-109910191D01*
X164216093Y-109927780D01*
G37*
X164216093Y-109927780D02*
X164262672Y-109954723D01*
X164295057Y-109981466D01*
X164318742Y-110009484D01*
X164335059Y-110043748D01*
X164345339Y-110089227D01*
X164350914Y-110150892D01*
X164353116Y-110233711D01*
X164353371Y-110293246D01*
X164353371Y-110512391D01*
X164291686Y-110540044D01*
X164230000Y-110567697D01*
X164222743Y-110327670D01*
X164219744Y-110238028D01*
X164216598Y-110172962D01*
X164212701Y-110128026D01*
X164207447Y-110098770D01*
X164200231Y-110080748D01*
X164190450Y-110069511D01*
X164187312Y-110067079D01*
X164139761Y-110048083D01*
X164091697Y-110055600D01*
X164063086Y-110075543D01*
X164051447Y-110089675D01*
X164043391Y-110108220D01*
X164038271Y-110136334D01*
X164035441Y-110179173D01*
X164034256Y-110241895D01*
X164034057Y-110307261D01*
X164034018Y-110389268D01*
X164032614Y-110447316D01*
X164027914Y-110486465D01*
X164017987Y-110511780D01*
X164000903Y-110528323D01*
X163974732Y-110541156D01*
X163939775Y-110554491D01*
X163901596Y-110569007D01*
X163906141Y-110311389D01*
X163907971Y-110218519D01*
X163910112Y-110149889D01*
X163913181Y-110100711D01*
X163917794Y-110066198D01*
X163924568Y-110041562D01*
X163934119Y-110022016D01*
X163945634Y-110004770D01*
X164001190Y-109949680D01*
X164068980Y-109917822D01*
X164142713Y-109910191D01*
X164216093Y-109927780D01*
G36*
X162541115Y-109921962D02*
G01*
X162609145Y-109957733D01*
X162659351Y-110015301D01*
X162677185Y-110052312D01*
X162691063Y-110107882D01*
X162698167Y-110178096D01*
X162698840Y-110254727D01*
X162693427Y-110329552D01*
X162682270Y-110394342D01*
X162665714Y-110440873D01*
X162660626Y-110448887D01*
X162600355Y-110508707D01*
X162528769Y-110544535D01*
X162451092Y-110555020D01*
X162372548Y-110538810D01*
X162350689Y-110529092D01*
X162308122Y-110499143D01*
X162270763Y-110459433D01*
X162267232Y-110454397D01*
X162252881Y-110430124D01*
X162243394Y-110404178D01*
X162237790Y-110370022D01*
X162235086Y-110321119D01*
X162234299Y-110250935D01*
X162234286Y-110235200D01*
X162234322Y-110230192D01*
X162379429Y-110230192D01*
X162380273Y-110296430D01*
X162383596Y-110340386D01*
X162390583Y-110368779D01*
X162402416Y-110388325D01*
X162408457Y-110394857D01*
X162443186Y-110419680D01*
X162476903Y-110418548D01*
X162510995Y-110397016D01*
X162531329Y-110374029D01*
X162543371Y-110340478D01*
X162550134Y-110287569D01*
X162550598Y-110281399D01*
X162551752Y-110185513D01*
X162539688Y-110114299D01*
X162514570Y-110068194D01*
X162476560Y-110047635D01*
X162462992Y-110046514D01*
X162427364Y-110052152D01*
X162402994Y-110071686D01*
X162388093Y-110109042D01*
X162380875Y-110168150D01*
X162379429Y-110230192D01*
X162234322Y-110230192D01*
X162234826Y-110160413D01*
X162237096Y-110108159D01*
X162242068Y-110071949D01*
X162250713Y-110045299D01*
X162264005Y-110021722D01*
X162266943Y-110017338D01*
X162316313Y-109958249D01*
X162370109Y-109923947D01*
X162435602Y-109910331D01*
X162457842Y-109909665D01*
X162541115Y-109921962D01*
G37*
X162541115Y-109921962D02*
X162609145Y-109957733D01*
X162659351Y-110015301D01*
X162677185Y-110052312D01*
X162691063Y-110107882D01*
X162698167Y-110178096D01*
X162698840Y-110254727D01*
X162693427Y-110329552D01*
X162682270Y-110394342D01*
X162665714Y-110440873D01*
X162660626Y-110448887D01*
X162600355Y-110508707D01*
X162528769Y-110544535D01*
X162451092Y-110555020D01*
X162372548Y-110538810D01*
X162350689Y-110529092D01*
X162308122Y-110499143D01*
X162270763Y-110459433D01*
X162267232Y-110454397D01*
X162252881Y-110430124D01*
X162243394Y-110404178D01*
X162237790Y-110370022D01*
X162235086Y-110321119D01*
X162234299Y-110250935D01*
X162234286Y-110235200D01*
X162234322Y-110230192D01*
X162379429Y-110230192D01*
X162380273Y-110296430D01*
X162383596Y-110340386D01*
X162390583Y-110368779D01*
X162402416Y-110388325D01*
X162408457Y-110394857D01*
X162443186Y-110419680D01*
X162476903Y-110418548D01*
X162510995Y-110397016D01*
X162531329Y-110374029D01*
X162543371Y-110340478D01*
X162550134Y-110287569D01*
X162550598Y-110281399D01*
X162551752Y-110185513D01*
X162539688Y-110114299D01*
X162514570Y-110068194D01*
X162476560Y-110047635D01*
X162462992Y-110046514D01*
X162427364Y-110052152D01*
X162402994Y-110071686D01*
X162388093Y-110109042D01*
X162380875Y-110168150D01*
X162379429Y-110230192D01*
X162234322Y-110230192D01*
X162234826Y-110160413D01*
X162237096Y-110108159D01*
X162242068Y-110071949D01*
X162250713Y-110045299D01*
X162264005Y-110021722D01*
X162266943Y-110017338D01*
X162316313Y-109958249D01*
X162370109Y-109923947D01*
X162435602Y-109910331D01*
X162457842Y-109909665D01*
X162541115Y-109921962D01*
G36*
X163668303Y-109931239D02*
G01*
X163725527Y-109969735D01*
X163769749Y-110025335D01*
X163796167Y-110096086D01*
X163801510Y-110148162D01*
X163800903Y-110169893D01*
X163795822Y-110186531D01*
X163781855Y-110201437D01*
X163754589Y-110217973D01*
X163709612Y-110239498D01*
X163642511Y-110269374D01*
X163642171Y-110269524D01*
X163580407Y-110297813D01*
X163529759Y-110322933D01*
X163495404Y-110342179D01*
X163482518Y-110352848D01*
X163482514Y-110352934D01*
X163493872Y-110376166D01*
X163520431Y-110401774D01*
X163550923Y-110420221D01*
X163566370Y-110423886D01*
X163608515Y-110411212D01*
X163644808Y-110379471D01*
X163662517Y-110344572D01*
X163679552Y-110318845D01*
X163712922Y-110289546D01*
X163752149Y-110264235D01*
X163786756Y-110250471D01*
X163793993Y-110249714D01*
X163802139Y-110262160D01*
X163802630Y-110293972D01*
X163796643Y-110336866D01*
X163785357Y-110382558D01*
X163769950Y-110422761D01*
X163769171Y-110424322D01*
X163722804Y-110489062D01*
X163662711Y-110533097D01*
X163594465Y-110554711D01*
X163523638Y-110552185D01*
X163455804Y-110523804D01*
X163452788Y-110521808D01*
X163399427Y-110473448D01*
X163364340Y-110410352D01*
X163344922Y-110327387D01*
X163342316Y-110304078D01*
X163337701Y-110194055D01*
X163343233Y-110142748D01*
X163482514Y-110142748D01*
X163484324Y-110174753D01*
X163494222Y-110184093D01*
X163518898Y-110177105D01*
X163557795Y-110160587D01*
X163601275Y-110139881D01*
X163602356Y-110139333D01*
X163639209Y-110119949D01*
X163654000Y-110107013D01*
X163650353Y-110093451D01*
X163634995Y-110075632D01*
X163595923Y-110049845D01*
X163553846Y-110047950D01*
X163516103Y-110066717D01*
X163490034Y-110102915D01*
X163482514Y-110142748D01*
X163343233Y-110142748D01*
X163347194Y-110106027D01*
X163371550Y-110036212D01*
X163405456Y-109987302D01*
X163466653Y-109937878D01*
X163534063Y-109913359D01*
X163602880Y-109911797D01*
X163668303Y-109931239D01*
G37*
X163668303Y-109931239D02*
X163725527Y-109969735D01*
X163769749Y-110025335D01*
X163796167Y-110096086D01*
X163801510Y-110148162D01*
X163800903Y-110169893D01*
X163795822Y-110186531D01*
X163781855Y-110201437D01*
X163754589Y-110217973D01*
X163709612Y-110239498D01*
X163642511Y-110269374D01*
X163642171Y-110269524D01*
X163580407Y-110297813D01*
X163529759Y-110322933D01*
X163495404Y-110342179D01*
X163482518Y-110352848D01*
X163482514Y-110352934D01*
X163493872Y-110376166D01*
X163520431Y-110401774D01*
X163550923Y-110420221D01*
X163566370Y-110423886D01*
X163608515Y-110411212D01*
X163644808Y-110379471D01*
X163662517Y-110344572D01*
X163679552Y-110318845D01*
X163712922Y-110289546D01*
X163752149Y-110264235D01*
X163786756Y-110250471D01*
X163793993Y-110249714D01*
X163802139Y-110262160D01*
X163802630Y-110293972D01*
X163796643Y-110336866D01*
X163785357Y-110382558D01*
X163769950Y-110422761D01*
X163769171Y-110424322D01*
X163722804Y-110489062D01*
X163662711Y-110533097D01*
X163594465Y-110554711D01*
X163523638Y-110552185D01*
X163455804Y-110523804D01*
X163452788Y-110521808D01*
X163399427Y-110473448D01*
X163364340Y-110410352D01*
X163344922Y-110327387D01*
X163342316Y-110304078D01*
X163337701Y-110194055D01*
X163343233Y-110142748D01*
X163482514Y-110142748D01*
X163484324Y-110174753D01*
X163494222Y-110184093D01*
X163518898Y-110177105D01*
X163557795Y-110160587D01*
X163601275Y-110139881D01*
X163602356Y-110139333D01*
X163639209Y-110119949D01*
X163654000Y-110107013D01*
X163650353Y-110093451D01*
X163634995Y-110075632D01*
X163595923Y-110049845D01*
X163553846Y-110047950D01*
X163516103Y-110066717D01*
X163490034Y-110102915D01*
X163482514Y-110142748D01*
X163343233Y-110142748D01*
X163347194Y-110106027D01*
X163371550Y-110036212D01*
X163405456Y-109987302D01*
X163466653Y-109937878D01*
X163534063Y-109913359D01*
X163602880Y-109911797D01*
X163668303Y-109931239D01*
G36*
X164875886Y-109851289D02*
G01*
X164880139Y-109910613D01*
X164885025Y-109945572D01*
X164891795Y-109960820D01*
X164901702Y-109961015D01*
X164904914Y-109959195D01*
X164947644Y-109946015D01*
X165003227Y-109946785D01*
X165059737Y-109960333D01*
X165095082Y-109977861D01*
X165131321Y-110005861D01*
X165157813Y-110037549D01*
X165175999Y-110077813D01*
X165187322Y-110131543D01*
X165193222Y-110203626D01*
X165195143Y-110298951D01*
X165195177Y-110317237D01*
X165195200Y-110522646D01*
X165149491Y-110538580D01*
X165117027Y-110549420D01*
X165099215Y-110554468D01*
X165098691Y-110554514D01*
X165096937Y-110540828D01*
X165095444Y-110503076D01*
X165094326Y-110446224D01*
X165093697Y-110375234D01*
X165093600Y-110332073D01*
X165093398Y-110246973D01*
X165092358Y-110185981D01*
X165089831Y-110144177D01*
X165085164Y-110116642D01*
X165077707Y-110098456D01*
X165066811Y-110084698D01*
X165060007Y-110078073D01*
X165013272Y-110051375D01*
X164962272Y-110049375D01*
X164916001Y-110071955D01*
X164907444Y-110080107D01*
X164894893Y-110095436D01*
X164886188Y-110113618D01*
X164880631Y-110139909D01*
X164877526Y-110179562D01*
X164876176Y-110237832D01*
X164875886Y-110318173D01*
X164875886Y-110522646D01*
X164830177Y-110538580D01*
X164797713Y-110549420D01*
X164779901Y-110554468D01*
X164779377Y-110554514D01*
X164778037Y-110540623D01*
X164776828Y-110501439D01*
X164775801Y-110440700D01*
X164775002Y-110362141D01*
X164774481Y-110269498D01*
X164774286Y-110166509D01*
X164774286Y-109769342D01*
X164821457Y-109749444D01*
X164868629Y-109729547D01*
X164875886Y-109851289D01*
G37*
X164875886Y-109851289D02*
X164880139Y-109910613D01*
X164885025Y-109945572D01*
X164891795Y-109960820D01*
X164901702Y-109961015D01*
X164904914Y-109959195D01*
X164947644Y-109946015D01*
X165003227Y-109946785D01*
X165059737Y-109960333D01*
X165095082Y-109977861D01*
X165131321Y-110005861D01*
X165157813Y-110037549D01*
X165175999Y-110077813D01*
X165187322Y-110131543D01*
X165193222Y-110203626D01*
X165195143Y-110298951D01*
X165195177Y-110317237D01*
X165195200Y-110522646D01*
X165149491Y-110538580D01*
X165117027Y-110549420D01*
X165099215Y-110554468D01*
X165098691Y-110554514D01*
X165096937Y-110540828D01*
X165095444Y-110503076D01*
X165094326Y-110446224D01*
X165093697Y-110375234D01*
X165093600Y-110332073D01*
X165093398Y-110246973D01*
X165092358Y-110185981D01*
X165089831Y-110144177D01*
X165085164Y-110116642D01*
X165077707Y-110098456D01*
X165066811Y-110084698D01*
X165060007Y-110078073D01*
X165013272Y-110051375D01*
X164962272Y-110049375D01*
X164916001Y-110071955D01*
X164907444Y-110080107D01*
X164894893Y-110095436D01*
X164886188Y-110113618D01*
X164880631Y-110139909D01*
X164877526Y-110179562D01*
X164876176Y-110237832D01*
X164875886Y-110318173D01*
X164875886Y-110522646D01*
X164830177Y-110538580D01*
X164797713Y-110549420D01*
X164779901Y-110554468D01*
X164779377Y-110554514D01*
X164778037Y-110540623D01*
X164776828Y-110501439D01*
X164775801Y-110440700D01*
X164775002Y-110362141D01*
X164774481Y-110269498D01*
X164774286Y-110166509D01*
X164774286Y-109769342D01*
X164821457Y-109749444D01*
X164868629Y-109729547D01*
X164875886Y-109851289D01*
G36*
X165539744Y-109950968D02*
G01*
X165596616Y-109972087D01*
X165597267Y-109972493D01*
X165632440Y-109998380D01*
X165658407Y-110028633D01*
X165676670Y-110068058D01*
X165688732Y-110121462D01*
X165696096Y-110193651D01*
X165700264Y-110289432D01*
X165700629Y-110303078D01*
X165705876Y-110508842D01*
X165661716Y-110531678D01*
X165629763Y-110547110D01*
X165610470Y-110554423D01*
X165609578Y-110554514D01*
X165606239Y-110541022D01*
X165603587Y-110504626D01*
X165601956Y-110451452D01*
X165601600Y-110408393D01*
X165601592Y-110338641D01*
X165598403Y-110294837D01*
X165587288Y-110273944D01*
X165563501Y-110272925D01*
X165522296Y-110288741D01*
X165460086Y-110317815D01*
X165414341Y-110341963D01*
X165390813Y-110362913D01*
X165383896Y-110385747D01*
X165383886Y-110386877D01*
X165395299Y-110426212D01*
X165429092Y-110447462D01*
X165480809Y-110450539D01*
X165518061Y-110450006D01*
X165537703Y-110460735D01*
X165549952Y-110486505D01*
X165557002Y-110519337D01*
X165546842Y-110537966D01*
X165543017Y-110540632D01*
X165507001Y-110551340D01*
X165456566Y-110552856D01*
X165404626Y-110545759D01*
X165367822Y-110532788D01*
X165316938Y-110489585D01*
X165288014Y-110429446D01*
X165282286Y-110382462D01*
X165286657Y-110340082D01*
X165302475Y-110305488D01*
X165333797Y-110274763D01*
X165384678Y-110243990D01*
X165459176Y-110209252D01*
X165463714Y-110207288D01*
X165530821Y-110176287D01*
X165572232Y-110150862D01*
X165589981Y-110128014D01*
X165586107Y-110104745D01*
X165562643Y-110078056D01*
X165555627Y-110071914D01*
X165508630Y-110048100D01*
X165459933Y-110049103D01*
X165417522Y-110072451D01*
X165389384Y-110115675D01*
X165386769Y-110124160D01*
X165361308Y-110165308D01*
X165329001Y-110185128D01*
X165282286Y-110204770D01*
X165282286Y-110153950D01*
X165296496Y-110080082D01*
X165338675Y-110012327D01*
X165360624Y-109989661D01*
X165410517Y-109960569D01*
X165473967Y-109947400D01*
X165539744Y-109950968D01*
G37*
X165539744Y-109950968D02*
X165596616Y-109972087D01*
X165597267Y-109972493D01*
X165632440Y-109998380D01*
X165658407Y-110028633D01*
X165676670Y-110068058D01*
X165688732Y-110121462D01*
X165696096Y-110193651D01*
X165700264Y-110289432D01*
X165700629Y-110303078D01*
X165705876Y-110508842D01*
X165661716Y-110531678D01*
X165629763Y-110547110D01*
X165610470Y-110554423D01*
X165609578Y-110554514D01*
X165606239Y-110541022D01*
X165603587Y-110504626D01*
X165601956Y-110451452D01*
X165601600Y-110408393D01*
X165601592Y-110338641D01*
X165598403Y-110294837D01*
X165587288Y-110273944D01*
X165563501Y-110272925D01*
X165522296Y-110288741D01*
X165460086Y-110317815D01*
X165414341Y-110341963D01*
X165390813Y-110362913D01*
X165383896Y-110385747D01*
X165383886Y-110386877D01*
X165395299Y-110426212D01*
X165429092Y-110447462D01*
X165480809Y-110450539D01*
X165518061Y-110450006D01*
X165537703Y-110460735D01*
X165549952Y-110486505D01*
X165557002Y-110519337D01*
X165546842Y-110537966D01*
X165543017Y-110540632D01*
X165507001Y-110551340D01*
X165456566Y-110552856D01*
X165404626Y-110545759D01*
X165367822Y-110532788D01*
X165316938Y-110489585D01*
X165288014Y-110429446D01*
X165282286Y-110382462D01*
X165286657Y-110340082D01*
X165302475Y-110305488D01*
X165333797Y-110274763D01*
X165384678Y-110243990D01*
X165459176Y-110209252D01*
X165463714Y-110207288D01*
X165530821Y-110176287D01*
X165572232Y-110150862D01*
X165589981Y-110128014D01*
X165586107Y-110104745D01*
X165562643Y-110078056D01*
X165555627Y-110071914D01*
X165508630Y-110048100D01*
X165459933Y-110049103D01*
X165417522Y-110072451D01*
X165389384Y-110115675D01*
X165386769Y-110124160D01*
X165361308Y-110165308D01*
X165329001Y-110185128D01*
X165282286Y-110204770D01*
X165282286Y-110153950D01*
X165296496Y-110080082D01*
X165338675Y-110012327D01*
X165360624Y-109989661D01*
X165410517Y-109960569D01*
X165473967Y-109947400D01*
X165539744Y-109950968D01*
G36*
X166029926Y-109949755D02*
G01*
X166095858Y-109974084D01*
X166149273Y-110017117D01*
X166170164Y-110047409D01*
X166192939Y-110102994D01*
X166192466Y-110143186D01*
X166168562Y-110170217D01*
X166159717Y-110174813D01*
X166121530Y-110189144D01*
X166102028Y-110185472D01*
X166095422Y-110161407D01*
X166095086Y-110148114D01*
X166082992Y-110099210D01*
X166051471Y-110064999D01*
X166007659Y-110048476D01*
X165958695Y-110052634D01*
X165918894Y-110074227D01*
X165905450Y-110086544D01*
X165895921Y-110101487D01*
X165889485Y-110124075D01*
X165885317Y-110159328D01*
X165882597Y-110212266D01*
X165880502Y-110287907D01*
X165879960Y-110311857D01*
X165877981Y-110393790D01*
X165875731Y-110451455D01*
X165872357Y-110489608D01*
X165867006Y-110513004D01*
X165858824Y-110526398D01*
X165846959Y-110534545D01*
X165839362Y-110538144D01*
X165807102Y-110550452D01*
X165788111Y-110554514D01*
X165781836Y-110540948D01*
X165778006Y-110499934D01*
X165776600Y-110430999D01*
X165777598Y-110333669D01*
X165777908Y-110318657D01*
X165780101Y-110229859D01*
X165782693Y-110165019D01*
X165786382Y-110119067D01*
X165791864Y-110086935D01*
X165799835Y-110063553D01*
X165810993Y-110043852D01*
X165816830Y-110035410D01*
X165850296Y-109998057D01*
X165887727Y-109969003D01*
X165892309Y-109966467D01*
X165959426Y-109946443D01*
X166029926Y-109949755D01*
G37*
X166029926Y-109949755D02*
X166095858Y-109974084D01*
X166149273Y-110017117D01*
X166170164Y-110047409D01*
X166192939Y-110102994D01*
X166192466Y-110143186D01*
X166168562Y-110170217D01*
X166159717Y-110174813D01*
X166121530Y-110189144D01*
X166102028Y-110185472D01*
X166095422Y-110161407D01*
X166095086Y-110148114D01*
X166082992Y-110099210D01*
X166051471Y-110064999D01*
X166007659Y-110048476D01*
X165958695Y-110052634D01*
X165918894Y-110074227D01*
X165905450Y-110086544D01*
X165895921Y-110101487D01*
X165889485Y-110124075D01*
X165885317Y-110159328D01*
X165882597Y-110212266D01*
X165880502Y-110287907D01*
X165879960Y-110311857D01*
X165877981Y-110393790D01*
X165875731Y-110451455D01*
X165872357Y-110489608D01*
X165867006Y-110513004D01*
X165858824Y-110526398D01*
X165846959Y-110534545D01*
X165839362Y-110538144D01*
X165807102Y-110550452D01*
X165788111Y-110554514D01*
X165781836Y-110540948D01*
X165778006Y-110499934D01*
X165776600Y-110430999D01*
X165777598Y-110333669D01*
X165777908Y-110318657D01*
X165780101Y-110229859D01*
X165782693Y-110165019D01*
X165786382Y-110119067D01*
X165791864Y-110086935D01*
X165799835Y-110063553D01*
X165810993Y-110043852D01*
X165816830Y-110035410D01*
X165850296Y-109998057D01*
X165887727Y-109969003D01*
X165892309Y-109966467D01*
X165959426Y-109946443D01*
X166029926Y-109949755D01*
G36*
X166690117Y-110065358D02*
G01*
X166689933Y-110173837D01*
X166689219Y-110257287D01*
X166687675Y-110319704D01*
X166685001Y-110365085D01*
X166680894Y-110397429D01*
X166675055Y-110420733D01*
X166667182Y-110438995D01*
X166661221Y-110449418D01*
X166611855Y-110505945D01*
X166549264Y-110541377D01*
X166480013Y-110554090D01*
X166410668Y-110542463D01*
X166369375Y-110521568D01*
X166326025Y-110485422D01*
X166296481Y-110441276D01*
X166278655Y-110383462D01*
X166270463Y-110306313D01*
X166269302Y-110249714D01*
X166269458Y-110245647D01*
X166370857Y-110245647D01*
X166371476Y-110310550D01*
X166374314Y-110353514D01*
X166380840Y-110381622D01*
X166392523Y-110401953D01*
X166406483Y-110417288D01*
X166453365Y-110446890D01*
X166503701Y-110449419D01*
X166551276Y-110424705D01*
X166554979Y-110421356D01*
X166570783Y-110403935D01*
X166580693Y-110383209D01*
X166586058Y-110352362D01*
X166588228Y-110304577D01*
X166588571Y-110251748D01*
X166587827Y-110185381D01*
X166584748Y-110141106D01*
X166578061Y-110112009D01*
X166566496Y-110091173D01*
X166557013Y-110080107D01*
X166512960Y-110052198D01*
X166462224Y-110048843D01*
X166413796Y-110070159D01*
X166404450Y-110078073D01*
X166388540Y-110095647D01*
X166378610Y-110116587D01*
X166373278Y-110147782D01*
X166371163Y-110196122D01*
X166370857Y-110245647D01*
X166269458Y-110245647D01*
X166272810Y-110158568D01*
X166284726Y-110090086D01*
X166307135Y-110038600D01*
X166342124Y-109998443D01*
X166369375Y-109977861D01*
X166418907Y-109955625D01*
X166476316Y-109945304D01*
X166529682Y-109948067D01*
X166559543Y-109959212D01*
X166571261Y-109962383D01*
X166579037Y-109950557D01*
X166584465Y-109918866D01*
X166588571Y-109870593D01*
X166593067Y-109816829D01*
X166599313Y-109784482D01*
X166610676Y-109765985D01*
X166630528Y-109753770D01*
X166643000Y-109748362D01*
X166690171Y-109728601D01*
X166690117Y-110065358D01*
G37*
X166690117Y-110065358D02*
X166689933Y-110173837D01*
X166689219Y-110257287D01*
X166687675Y-110319704D01*
X166685001Y-110365085D01*
X166680894Y-110397429D01*
X166675055Y-110420733D01*
X166667182Y-110438995D01*
X166661221Y-110449418D01*
X166611855Y-110505945D01*
X166549264Y-110541377D01*
X166480013Y-110554090D01*
X166410668Y-110542463D01*
X166369375Y-110521568D01*
X166326025Y-110485422D01*
X166296481Y-110441276D01*
X166278655Y-110383462D01*
X166270463Y-110306313D01*
X166269302Y-110249714D01*
X166269458Y-110245647D01*
X166370857Y-110245647D01*
X166371476Y-110310550D01*
X166374314Y-110353514D01*
X166380840Y-110381622D01*
X166392523Y-110401953D01*
X166406483Y-110417288D01*
X166453365Y-110446890D01*
X166503701Y-110449419D01*
X166551276Y-110424705D01*
X166554979Y-110421356D01*
X166570783Y-110403935D01*
X166580693Y-110383209D01*
X166586058Y-110352362D01*
X166588228Y-110304577D01*
X166588571Y-110251748D01*
X166587827Y-110185381D01*
X166584748Y-110141106D01*
X166578061Y-110112009D01*
X166566496Y-110091173D01*
X166557013Y-110080107D01*
X166512960Y-110052198D01*
X166462224Y-110048843D01*
X166413796Y-110070159D01*
X166404450Y-110078073D01*
X166388540Y-110095647D01*
X166378610Y-110116587D01*
X166373278Y-110147782D01*
X166371163Y-110196122D01*
X166370857Y-110245647D01*
X166269458Y-110245647D01*
X166272810Y-110158568D01*
X166284726Y-110090086D01*
X166307135Y-110038600D01*
X166342124Y-109998443D01*
X166369375Y-109977861D01*
X166418907Y-109955625D01*
X166476316Y-109945304D01*
X166529682Y-109948067D01*
X166559543Y-109959212D01*
X166571261Y-109962383D01*
X166579037Y-109950557D01*
X166584465Y-109918866D01*
X166588571Y-109870593D01*
X166593067Y-109816829D01*
X166599313Y-109784482D01*
X166610676Y-109765985D01*
X166630528Y-109753770D01*
X166643000Y-109748362D01*
X166690171Y-109728601D01*
X166690117Y-110065358D01*
G36*
X167279833Y-109958663D02*
G01*
X167282048Y-109996850D01*
X167283784Y-110054886D01*
X167284899Y-110128180D01*
X167285257Y-110205055D01*
X167285257Y-110465196D01*
X167239326Y-110511127D01*
X167207675Y-110539429D01*
X167179890Y-110550893D01*
X167141915Y-110550168D01*
X167126840Y-110548321D01*
X167079726Y-110542948D01*
X167040756Y-110539869D01*
X167031257Y-110539585D01*
X166999233Y-110541445D01*
X166953432Y-110546114D01*
X166935674Y-110548321D01*
X166892057Y-110551735D01*
X166862745Y-110544320D01*
X166833680Y-110521427D01*
X166823188Y-110511127D01*
X166777257Y-110465196D01*
X166777257Y-109978602D01*
X166814226Y-109961758D01*
X166846059Y-109949282D01*
X166864683Y-109944914D01*
X166869458Y-109958718D01*
X166873921Y-109997286D01*
X166877775Y-110056356D01*
X166880722Y-110131663D01*
X166882143Y-110195286D01*
X166886114Y-110445657D01*
X166920759Y-110450556D01*
X166952268Y-110447131D01*
X166967708Y-110436041D01*
X166972023Y-110415308D01*
X166975708Y-110371145D01*
X166978469Y-110309146D01*
X166980012Y-110234909D01*
X166980235Y-110196706D01*
X166980457Y-109976783D01*
X167026166Y-109960849D01*
X167058518Y-109950015D01*
X167076115Y-109944962D01*
X167076623Y-109944914D01*
X167078388Y-109958648D01*
X167080329Y-109996730D01*
X167082282Y-110054482D01*
X167084084Y-110127227D01*
X167085343Y-110195286D01*
X167089314Y-110445657D01*
X167176400Y-110445657D01*
X167180396Y-110217240D01*
X167184392Y-109988822D01*
X167226847Y-109966868D01*
X167258192Y-109951793D01*
X167276744Y-109944951D01*
X167277279Y-109944914D01*
X167279833Y-109958663D01*
G37*
X167279833Y-109958663D02*
X167282048Y-109996850D01*
X167283784Y-110054886D01*
X167284899Y-110128180D01*
X167285257Y-110205055D01*
X167285257Y-110465196D01*
X167239326Y-110511127D01*
X167207675Y-110539429D01*
X167179890Y-110550893D01*
X167141915Y-110550168D01*
X167126840Y-110548321D01*
X167079726Y-110542948D01*
X167040756Y-110539869D01*
X167031257Y-110539585D01*
X166999233Y-110541445D01*
X166953432Y-110546114D01*
X166935674Y-110548321D01*
X166892057Y-110551735D01*
X166862745Y-110544320D01*
X166833680Y-110521427D01*
X166823188Y-110511127D01*
X166777257Y-110465196D01*
X166777257Y-109978602D01*
X166814226Y-109961758D01*
X166846059Y-109949282D01*
X166864683Y-109944914D01*
X166869458Y-109958718D01*
X166873921Y-109997286D01*
X166877775Y-110056356D01*
X166880722Y-110131663D01*
X166882143Y-110195286D01*
X166886114Y-110445657D01*
X166920759Y-110450556D01*
X166952268Y-110447131D01*
X166967708Y-110436041D01*
X166972023Y-110415308D01*
X166975708Y-110371145D01*
X166978469Y-110309146D01*
X166980012Y-110234909D01*
X166980235Y-110196706D01*
X166980457Y-109976783D01*
X167026166Y-109960849D01*
X167058518Y-109950015D01*
X167076115Y-109944962D01*
X167076623Y-109944914D01*
X167078388Y-109958648D01*
X167080329Y-109996730D01*
X167082282Y-110054482D01*
X167084084Y-110127227D01*
X167085343Y-110195286D01*
X167089314Y-110445657D01*
X167176400Y-110445657D01*
X167180396Y-110217240D01*
X167184392Y-109988822D01*
X167226847Y-109966868D01*
X167258192Y-109951793D01*
X167276744Y-109944951D01*
X167277279Y-109944914D01*
X167279833Y-109958663D01*
G36*
X167644876Y-109956335D02*
G01*
X167686667Y-109975344D01*
X167719469Y-109998378D01*
X167743503Y-110024133D01*
X167760097Y-110057358D01*
X167770577Y-110102800D01*
X167776271Y-110165207D01*
X167778507Y-110249327D01*
X167778743Y-110304721D01*
X167778743Y-110520826D01*
X167741774Y-110537670D01*
X167712656Y-110549981D01*
X167698231Y-110554514D01*
X167695472Y-110541025D01*
X167693282Y-110504653D01*
X167691942Y-110451542D01*
X167691657Y-110409372D01*
X167690434Y-110348447D01*
X167687136Y-110300115D01*
X167682321Y-110270518D01*
X167678496Y-110264229D01*
X167652783Y-110270652D01*
X167612418Y-110287125D01*
X167565679Y-110309458D01*
X167520845Y-110333457D01*
X167486193Y-110354930D01*
X167470002Y-110369685D01*
X167469938Y-110369845D01*
X167471330Y-110397152D01*
X167483818Y-110423219D01*
X167505743Y-110444392D01*
X167537743Y-110451474D01*
X167565092Y-110450649D01*
X167603826Y-110450042D01*
X167624158Y-110459116D01*
X167636369Y-110483092D01*
X167637909Y-110487613D01*
X167643203Y-110521806D01*
X167629047Y-110542568D01*
X167592148Y-110552462D01*
X167552289Y-110554292D01*
X167480562Y-110540727D01*
X167443432Y-110521355D01*
X167397576Y-110475845D01*
X167373256Y-110419983D01*
X167371073Y-110360957D01*
X167391629Y-110305953D01*
X167422549Y-110271486D01*
X167453420Y-110252189D01*
X167501942Y-110227759D01*
X167558485Y-110202985D01*
X167567910Y-110199199D01*
X167630019Y-110171791D01*
X167665822Y-110147634D01*
X167677337Y-110123619D01*
X167666580Y-110096635D01*
X167648114Y-110075543D01*
X167604469Y-110049572D01*
X167556446Y-110047624D01*
X167512406Y-110067637D01*
X167480709Y-110107551D01*
X167476549Y-110117848D01*
X167452327Y-110155724D01*
X167416965Y-110183842D01*
X167372343Y-110206917D01*
X167372343Y-110141485D01*
X167374969Y-110101506D01*
X167386230Y-110069997D01*
X167411199Y-110036378D01*
X167435169Y-110010484D01*
X167472441Y-109973817D01*
X167501401Y-109954121D01*
X167532505Y-109946220D01*
X167567713Y-109944914D01*
X167644876Y-109956335D01*
G37*
X167644876Y-109956335D02*
X167686667Y-109975344D01*
X167719469Y-109998378D01*
X167743503Y-110024133D01*
X167760097Y-110057358D01*
X167770577Y-110102800D01*
X167776271Y-110165207D01*
X167778507Y-110249327D01*
X167778743Y-110304721D01*
X167778743Y-110520826D01*
X167741774Y-110537670D01*
X167712656Y-110549981D01*
X167698231Y-110554514D01*
X167695472Y-110541025D01*
X167693282Y-110504653D01*
X167691942Y-110451542D01*
X167691657Y-110409372D01*
X167690434Y-110348447D01*
X167687136Y-110300115D01*
X167682321Y-110270518D01*
X167678496Y-110264229D01*
X167652783Y-110270652D01*
X167612418Y-110287125D01*
X167565679Y-110309458D01*
X167520845Y-110333457D01*
X167486193Y-110354930D01*
X167470002Y-110369685D01*
X167469938Y-110369845D01*
X167471330Y-110397152D01*
X167483818Y-110423219D01*
X167505743Y-110444392D01*
X167537743Y-110451474D01*
X167565092Y-110450649D01*
X167603826Y-110450042D01*
X167624158Y-110459116D01*
X167636369Y-110483092D01*
X167637909Y-110487613D01*
X167643203Y-110521806D01*
X167629047Y-110542568D01*
X167592148Y-110552462D01*
X167552289Y-110554292D01*
X167480562Y-110540727D01*
X167443432Y-110521355D01*
X167397576Y-110475845D01*
X167373256Y-110419983D01*
X167371073Y-110360957D01*
X167391629Y-110305953D01*
X167422549Y-110271486D01*
X167453420Y-110252189D01*
X167501942Y-110227759D01*
X167558485Y-110202985D01*
X167567910Y-110199199D01*
X167630019Y-110171791D01*
X167665822Y-110147634D01*
X167677337Y-110123619D01*
X167666580Y-110096635D01*
X167648114Y-110075543D01*
X167604469Y-110049572D01*
X167556446Y-110047624D01*
X167512406Y-110067637D01*
X167480709Y-110107551D01*
X167476549Y-110117848D01*
X167452327Y-110155724D01*
X167416965Y-110183842D01*
X167372343Y-110206917D01*
X167372343Y-110141485D01*
X167374969Y-110101506D01*
X167386230Y-110069997D01*
X167411199Y-110036378D01*
X167435169Y-110010484D01*
X167472441Y-109973817D01*
X167501401Y-109954121D01*
X167532505Y-109946220D01*
X167567713Y-109944914D01*
X167644876Y-109956335D01*
G36*
X168152600Y-109958752D02*
G01*
X168169948Y-109966334D01*
X168211356Y-109999128D01*
X168246765Y-110046547D01*
X168268664Y-110097151D01*
X168272229Y-110122098D01*
X168260279Y-110156927D01*
X168234067Y-110175357D01*
X168205964Y-110186516D01*
X168193095Y-110188572D01*
X168186829Y-110173649D01*
X168174456Y-110141175D01*
X168169028Y-110126502D01*
X168138590Y-110075744D01*
X168094520Y-110050427D01*
X168038010Y-110051206D01*
X168033825Y-110052203D01*
X168003655Y-110066507D01*
X167981476Y-110094393D01*
X167966327Y-110139287D01*
X167957250Y-110204615D01*
X167953286Y-110293804D01*
X167952914Y-110341261D01*
X167952730Y-110416071D01*
X167951522Y-110467069D01*
X167948309Y-110499471D01*
X167942109Y-110518495D01*
X167931940Y-110529356D01*
X167916819Y-110537272D01*
X167915946Y-110537670D01*
X167886828Y-110549981D01*
X167872403Y-110554514D01*
X167870186Y-110540809D01*
X167868289Y-110502925D01*
X167866847Y-110445715D01*
X167865998Y-110374027D01*
X167865829Y-110321565D01*
X167866692Y-110220047D01*
X167870070Y-110143032D01*
X167877142Y-110086023D01*
X167889088Y-110044526D01*
X167907090Y-110014043D01*
X167932327Y-109990080D01*
X167957247Y-109973355D01*
X168017171Y-109951097D01*
X168086911Y-109946076D01*
X168152600Y-109958752D01*
G37*
X168152600Y-109958752D02*
X168169948Y-109966334D01*
X168211356Y-109999128D01*
X168246765Y-110046547D01*
X168268664Y-110097151D01*
X168272229Y-110122098D01*
X168260279Y-110156927D01*
X168234067Y-110175357D01*
X168205964Y-110186516D01*
X168193095Y-110188572D01*
X168186829Y-110173649D01*
X168174456Y-110141175D01*
X168169028Y-110126502D01*
X168138590Y-110075744D01*
X168094520Y-110050427D01*
X168038010Y-110051206D01*
X168033825Y-110052203D01*
X168003655Y-110066507D01*
X167981476Y-110094393D01*
X167966327Y-110139287D01*
X167957250Y-110204615D01*
X167953286Y-110293804D01*
X167952914Y-110341261D01*
X167952730Y-110416071D01*
X167951522Y-110467069D01*
X167948309Y-110499471D01*
X167942109Y-110518495D01*
X167931940Y-110529356D01*
X167916819Y-110537272D01*
X167915946Y-110537670D01*
X167886828Y-110549981D01*
X167872403Y-110554514D01*
X167870186Y-110540809D01*
X167868289Y-110502925D01*
X167866847Y-110445715D01*
X167865998Y-110374027D01*
X167865829Y-110321565D01*
X167866692Y-110220047D01*
X167870070Y-110143032D01*
X167877142Y-110086023D01*
X167889088Y-110044526D01*
X167907090Y-110014043D01*
X167932327Y-109990080D01*
X167957247Y-109973355D01*
X168017171Y-109951097D01*
X168086911Y-109946076D01*
X168152600Y-109958752D01*
G36*
X168653595Y-109966966D02*
G01*
X168711021Y-110004497D01*
X168738719Y-110038096D01*
X168760662Y-110099064D01*
X168762405Y-110147308D01*
X168758457Y-110211816D01*
X168609686Y-110276934D01*
X168537349Y-110310202D01*
X168490084Y-110336964D01*
X168465507Y-110360144D01*
X168461237Y-110382667D01*
X168474889Y-110407455D01*
X168489943Y-110423886D01*
X168533746Y-110450235D01*
X168581389Y-110452081D01*
X168625145Y-110431546D01*
X168657289Y-110390752D01*
X168663038Y-110376347D01*
X168690576Y-110331356D01*
X168722258Y-110312182D01*
X168765714Y-110295779D01*
X168765714Y-110357966D01*
X168761872Y-110400283D01*
X168746823Y-110435969D01*
X168715280Y-110476943D01*
X168710592Y-110482267D01*
X168675506Y-110518720D01*
X168645347Y-110538283D01*
X168607615Y-110547283D01*
X168576335Y-110550230D01*
X168520385Y-110550965D01*
X168480555Y-110541660D01*
X168455708Y-110527846D01*
X168416656Y-110497467D01*
X168389625Y-110464613D01*
X168372517Y-110423294D01*
X168363238Y-110367521D01*
X168359693Y-110291305D01*
X168359410Y-110252622D01*
X168360372Y-110206247D01*
X168448007Y-110206247D01*
X168449023Y-110231126D01*
X168451556Y-110235200D01*
X168468274Y-110229665D01*
X168504249Y-110215017D01*
X168552331Y-110194190D01*
X168562386Y-110189714D01*
X168623152Y-110158814D01*
X168656632Y-110131657D01*
X168663990Y-110106220D01*
X168646391Y-110080481D01*
X168631856Y-110069109D01*
X168579410Y-110046364D01*
X168530322Y-110050122D01*
X168489227Y-110077884D01*
X168460758Y-110127152D01*
X168451631Y-110166257D01*
X168448007Y-110206247D01*
X168360372Y-110206247D01*
X168361285Y-110162249D01*
X168368196Y-110095384D01*
X168381884Y-110046695D01*
X168404096Y-110010849D01*
X168436574Y-109982513D01*
X168450733Y-109973355D01*
X168515053Y-109949507D01*
X168585473Y-109948006D01*
X168653595Y-109966966D01*
G37*
X168653595Y-109966966D02*
X168711021Y-110004497D01*
X168738719Y-110038096D01*
X168760662Y-110099064D01*
X168762405Y-110147308D01*
X168758457Y-110211816D01*
X168609686Y-110276934D01*
X168537349Y-110310202D01*
X168490084Y-110336964D01*
X168465507Y-110360144D01*
X168461237Y-110382667D01*
X168474889Y-110407455D01*
X168489943Y-110423886D01*
X168533746Y-110450235D01*
X168581389Y-110452081D01*
X168625145Y-110431546D01*
X168657289Y-110390752D01*
X168663038Y-110376347D01*
X168690576Y-110331356D01*
X168722258Y-110312182D01*
X168765714Y-110295779D01*
X168765714Y-110357966D01*
X168761872Y-110400283D01*
X168746823Y-110435969D01*
X168715280Y-110476943D01*
X168710592Y-110482267D01*
X168675506Y-110518720D01*
X168645347Y-110538283D01*
X168607615Y-110547283D01*
X168576335Y-110550230D01*
X168520385Y-110550965D01*
X168480555Y-110541660D01*
X168455708Y-110527846D01*
X168416656Y-110497467D01*
X168389625Y-110464613D01*
X168372517Y-110423294D01*
X168363238Y-110367521D01*
X168359693Y-110291305D01*
X168359410Y-110252622D01*
X168360372Y-110206247D01*
X168448007Y-110206247D01*
X168449023Y-110231126D01*
X168451556Y-110235200D01*
X168468274Y-110229665D01*
X168504249Y-110215017D01*
X168552331Y-110194190D01*
X168562386Y-110189714D01*
X168623152Y-110158814D01*
X168656632Y-110131657D01*
X168663990Y-110106220D01*
X168646391Y-110080481D01*
X168631856Y-110069109D01*
X168579410Y-110046364D01*
X168530322Y-110050122D01*
X168489227Y-110077884D01*
X168460758Y-110127152D01*
X168451631Y-110166257D01*
X168448007Y-110206247D01*
X168360372Y-110206247D01*
X168361285Y-110162249D01*
X168368196Y-110095384D01*
X168381884Y-110046695D01*
X168404096Y-110010849D01*
X168436574Y-109982513D01*
X168450733Y-109973355D01*
X168515053Y-109949507D01*
X168585473Y-109948006D01*
X168653595Y-109966966D01*
G36*
X165603910Y-105242348D02*
G01*
X165682454Y-105242778D01*
X165739298Y-105243942D01*
X165778105Y-105246207D01*
X165802538Y-105249940D01*
X165816262Y-105255506D01*
X165822940Y-105263273D01*
X165826236Y-105273605D01*
X165826556Y-105274943D01*
X165831562Y-105299079D01*
X165840829Y-105346701D01*
X165853392Y-105412741D01*
X165868287Y-105492128D01*
X165884551Y-105579796D01*
X165885119Y-105582875D01*
X165901410Y-105668789D01*
X165916652Y-105744696D01*
X165929861Y-105806045D01*
X165940054Y-105848282D01*
X165946248Y-105866855D01*
X165946543Y-105867184D01*
X165964788Y-105876253D01*
X166002405Y-105891367D01*
X166051271Y-105909262D01*
X166051543Y-105909358D01*
X166113093Y-105932493D01*
X166185657Y-105961965D01*
X166254057Y-105991597D01*
X166257294Y-105993062D01*
X166368702Y-106043626D01*
X166615399Y-105875160D01*
X166691077Y-105823803D01*
X166759631Y-105777889D01*
X166817088Y-105740030D01*
X166859476Y-105712837D01*
X166882825Y-105698921D01*
X166885042Y-105697889D01*
X166902010Y-105702484D01*
X166933701Y-105724655D01*
X166981352Y-105765447D01*
X167046198Y-105825905D01*
X167112397Y-105890227D01*
X167176214Y-105953612D01*
X167233329Y-106011451D01*
X167280305Y-106060175D01*
X167313703Y-106096210D01*
X167330085Y-106115984D01*
X167330694Y-106117002D01*
X167332505Y-106130572D01*
X167325683Y-106152733D01*
X167308540Y-106186478D01*
X167279393Y-106234800D01*
X167236555Y-106300692D01*
X167179448Y-106385517D01*
X167128766Y-106460177D01*
X167083461Y-106527140D01*
X167046150Y-106582516D01*
X167019452Y-106622420D01*
X167005985Y-106642962D01*
X167005137Y-106644356D01*
X167006781Y-106664038D01*
X167019245Y-106702293D01*
X167040048Y-106751889D01*
X167047462Y-106767728D01*
X167079814Y-106838290D01*
X167114328Y-106918353D01*
X167142365Y-106987629D01*
X167162568Y-107039045D01*
X167178615Y-107078119D01*
X167187888Y-107098541D01*
X167189041Y-107100114D01*
X167206096Y-107102721D01*
X167246298Y-107109863D01*
X167304302Y-107120523D01*
X167374763Y-107133685D01*
X167452335Y-107148333D01*
X167531672Y-107163449D01*
X167607431Y-107178018D01*
X167674264Y-107191022D01*
X167726828Y-107201445D01*
X167759776Y-107208270D01*
X167767857Y-107210199D01*
X167776205Y-107214962D01*
X167782506Y-107225718D01*
X167787045Y-107246098D01*
X167790104Y-107279734D01*
X167791967Y-107330255D01*
X167792918Y-107401292D01*
X167793240Y-107496476D01*
X167793257Y-107535492D01*
X167793257Y-107852799D01*
X167717057Y-107867839D01*
X167674663Y-107875995D01*
X167611400Y-107887899D01*
X167534962Y-107902116D01*
X167453043Y-107917210D01*
X167430400Y-107921355D01*
X167354806Y-107936053D01*
X167288953Y-107950505D01*
X167238366Y-107963375D01*
X167208574Y-107973322D01*
X167203612Y-107976287D01*
X167191426Y-107997283D01*
X167173953Y-108037967D01*
X167154577Y-108090322D01*
X167150734Y-108101600D01*
X167125339Y-108171523D01*
X167093817Y-108250418D01*
X167062969Y-108321266D01*
X167062817Y-108321595D01*
X167011447Y-108432733D01*
X167180399Y-108681253D01*
X167349352Y-108929772D01*
X167132429Y-109147058D01*
X167066819Y-109211726D01*
X167006979Y-109268733D01*
X166956267Y-109315033D01*
X166918046Y-109347584D01*
X166895675Y-109363343D01*
X166892466Y-109364343D01*
X166873626Y-109356469D01*
X166835180Y-109334578D01*
X166781330Y-109301267D01*
X166716276Y-109259131D01*
X166645940Y-109211943D01*
X166574555Y-109163810D01*
X166510908Y-109121928D01*
X166459041Y-109088871D01*
X166422995Y-109067218D01*
X166406867Y-109059543D01*
X166387189Y-109066037D01*
X166349875Y-109083150D01*
X166302621Y-109107326D01*
X166297612Y-109110013D01*
X166233977Y-109141927D01*
X166190341Y-109157579D01*
X166163202Y-109157745D01*
X166149057Y-109143204D01*
X166148975Y-109143000D01*
X166141905Y-109125779D01*
X166125042Y-109084899D01*
X166099695Y-109023525D01*
X166067171Y-108944819D01*
X166028778Y-108851947D01*
X165985822Y-108748072D01*
X165944222Y-108647502D01*
X165898504Y-108536516D01*
X165856526Y-108433703D01*
X165819548Y-108342215D01*
X165788827Y-108265201D01*
X165765622Y-108205815D01*
X165751190Y-108167209D01*
X165746743Y-108152800D01*
X165757896Y-108136272D01*
X165787069Y-108109930D01*
X165825971Y-108080887D01*
X165936757Y-107989039D01*
X166023351Y-107883759D01*
X166084716Y-107767266D01*
X166119815Y-107641776D01*
X166127608Y-107509507D01*
X166121943Y-107448457D01*
X166091078Y-107321795D01*
X166037920Y-107209941D01*
X165965767Y-107114001D01*
X165877917Y-107035076D01*
X165777665Y-106974270D01*
X165668310Y-106932687D01*
X165553147Y-106911428D01*
X165435475Y-106911599D01*
X165318590Y-106934301D01*
X165205789Y-106980638D01*
X165100369Y-107051713D01*
X165056368Y-107091911D01*
X164971979Y-107195129D01*
X164913222Y-107307925D01*
X164879704Y-107427010D01*
X164871035Y-107549095D01*
X164886823Y-107670893D01*
X164926678Y-107789116D01*
X164990207Y-107900475D01*
X165077021Y-108001684D01*
X165174029Y-108080887D01*
X165214437Y-108111162D01*
X165242982Y-108137219D01*
X165253257Y-108152825D01*
X165247877Y-108169843D01*
X165232575Y-108210500D01*
X165208612Y-108271642D01*
X165177244Y-108350119D01*
X165139732Y-108442780D01*
X165097333Y-108546472D01*
X165055663Y-108647526D01*
X165009690Y-108758607D01*
X164967107Y-108861541D01*
X164929221Y-108953165D01*
X164897340Y-109030316D01*
X164872771Y-109089831D01*
X164856820Y-109128544D01*
X164850910Y-109143000D01*
X164836948Y-109157685D01*
X164809940Y-109157642D01*
X164766413Y-109142099D01*
X164702890Y-109110284D01*
X164702388Y-109110013D01*
X164654560Y-109085323D01*
X164615897Y-109067338D01*
X164594095Y-109059614D01*
X164593133Y-109059543D01*
X164576721Y-109067378D01*
X164540487Y-109089165D01*
X164488474Y-109122328D01*
X164424725Y-109164291D01*
X164354060Y-109211943D01*
X164282116Y-109260191D01*
X164217274Y-109302151D01*
X164163735Y-109335227D01*
X164125697Y-109356821D01*
X164107533Y-109364343D01*
X164090808Y-109354457D01*
X164057180Y-109326826D01*
X164010010Y-109284495D01*
X163952658Y-109230505D01*
X163888484Y-109167899D01*
X163867497Y-109146983D01*
X163650499Y-108929623D01*
X163815668Y-108687220D01*
X163865864Y-108612781D01*
X163909919Y-108545972D01*
X163945362Y-108490665D01*
X163969719Y-108450729D01*
X163980522Y-108430036D01*
X163980838Y-108428563D01*
X163975143Y-108409058D01*
X163959826Y-108369822D01*
X163937537Y-108317430D01*
X163921893Y-108282355D01*
X163892641Y-108215201D01*
X163865094Y-108147358D01*
X163843737Y-108090034D01*
X163837935Y-108072572D01*
X163821452Y-108025938D01*
X163805340Y-107989905D01*
X163796490Y-107976287D01*
X163776960Y-107967952D01*
X163734334Y-107956137D01*
X163674145Y-107942181D01*
X163601922Y-107927422D01*
X163569600Y-107921355D01*
X163487522Y-107906273D01*
X163408795Y-107891669D01*
X163341109Y-107878980D01*
X163292160Y-107869642D01*
X163282943Y-107867839D01*
X163206743Y-107852799D01*
X163206743Y-107535492D01*
X163206914Y-107431154D01*
X163207616Y-107352213D01*
X163209134Y-107295038D01*
X163211749Y-107255999D01*
X163215746Y-107231465D01*
X163221409Y-107217805D01*
X163229020Y-107211389D01*
X163232143Y-107210199D01*
X163250978Y-107205980D01*
X163292588Y-107197562D01*
X163351630Y-107185961D01*
X163422757Y-107172195D01*
X163500625Y-107157280D01*
X163579887Y-107142232D01*
X163655198Y-107128069D01*
X163721213Y-107115806D01*
X163772587Y-107106461D01*
X163803975Y-107101050D01*
X163810959Y-107100114D01*
X163817285Y-107087596D01*
X163831290Y-107054246D01*
X163850355Y-107006377D01*
X163857634Y-106987629D01*
X163886996Y-106915195D01*
X163921571Y-106835170D01*
X163952537Y-106767728D01*
X163975323Y-106716159D01*
X163990482Y-106673785D01*
X163995542Y-106647834D01*
X163994736Y-106644356D01*
X163984041Y-106627936D01*
X163959620Y-106591417D01*
X163924095Y-106538687D01*
X163880087Y-106473635D01*
X163830217Y-106400151D01*
X163820356Y-106385645D01*
X163762492Y-106299704D01*
X163719956Y-106234261D01*
X163691054Y-106186304D01*
X163674090Y-106152820D01*
X163667367Y-106130795D01*
X163669190Y-106117217D01*
X163669236Y-106117131D01*
X163683586Y-106099297D01*
X163715323Y-106064817D01*
X163761010Y-106017268D01*
X163817204Y-105960222D01*
X163880468Y-105897255D01*
X163887602Y-105890227D01*
X163967330Y-105813020D01*
X164028857Y-105756330D01*
X164073421Y-105719110D01*
X164102257Y-105700315D01*
X164114958Y-105697889D01*
X164133494Y-105708471D01*
X164171961Y-105732916D01*
X164226386Y-105768612D01*
X164292798Y-105812947D01*
X164367225Y-105863311D01*
X164384601Y-105875160D01*
X164631297Y-106043626D01*
X164742706Y-105993062D01*
X164810457Y-105963595D01*
X164883183Y-105933959D01*
X164945703Y-105910330D01*
X164948457Y-105909358D01*
X164997360Y-105891457D01*
X165035057Y-105876320D01*
X165053425Y-105867210D01*
X165053456Y-105867184D01*
X165059285Y-105850717D01*
X165069192Y-105810219D01*
X165082195Y-105750242D01*
X165097309Y-105675340D01*
X165113552Y-105590064D01*
X165114881Y-105582875D01*
X165131175Y-105495014D01*
X165146133Y-105415260D01*
X165158791Y-105348681D01*
X165168186Y-105300347D01*
X165173354Y-105275325D01*
X165173444Y-105274943D01*
X165176589Y-105264299D01*
X165182704Y-105256262D01*
X165195453Y-105250467D01*
X165218500Y-105246547D01*
X165255509Y-105244135D01*
X165310144Y-105242865D01*
X165386067Y-105242371D01*
X165486944Y-105242286D01*
X165500000Y-105242286D01*
X165603910Y-105242348D01*
G37*
X165603910Y-105242348D02*
X165682454Y-105242778D01*
X165739298Y-105243942D01*
X165778105Y-105246207D01*
X165802538Y-105249940D01*
X165816262Y-105255506D01*
X165822940Y-105263273D01*
X165826236Y-105273605D01*
X165826556Y-105274943D01*
X165831562Y-105299079D01*
X165840829Y-105346701D01*
X165853392Y-105412741D01*
X165868287Y-105492128D01*
X165884551Y-105579796D01*
X165885119Y-105582875D01*
X165901410Y-105668789D01*
X165916652Y-105744696D01*
X165929861Y-105806045D01*
X165940054Y-105848282D01*
X165946248Y-105866855D01*
X165946543Y-105867184D01*
X165964788Y-105876253D01*
X166002405Y-105891367D01*
X166051271Y-105909262D01*
X166051543Y-105909358D01*
X166113093Y-105932493D01*
X166185657Y-105961965D01*
X166254057Y-105991597D01*
X166257294Y-105993062D01*
X166368702Y-106043626D01*
X166615399Y-105875160D01*
X166691077Y-105823803D01*
X166759631Y-105777889D01*
X166817088Y-105740030D01*
X166859476Y-105712837D01*
X166882825Y-105698921D01*
X166885042Y-105697889D01*
X166902010Y-105702484D01*
X166933701Y-105724655D01*
X166981352Y-105765447D01*
X167046198Y-105825905D01*
X167112397Y-105890227D01*
X167176214Y-105953612D01*
X167233329Y-106011451D01*
X167280305Y-106060175D01*
X167313703Y-106096210D01*
X167330085Y-106115984D01*
X167330694Y-106117002D01*
X167332505Y-106130572D01*
X167325683Y-106152733D01*
X167308540Y-106186478D01*
X167279393Y-106234800D01*
X167236555Y-106300692D01*
X167179448Y-106385517D01*
X167128766Y-106460177D01*
X167083461Y-106527140D01*
X167046150Y-106582516D01*
X167019452Y-106622420D01*
X167005985Y-106642962D01*
X167005137Y-106644356D01*
X167006781Y-106664038D01*
X167019245Y-106702293D01*
X167040048Y-106751889D01*
X167047462Y-106767728D01*
X167079814Y-106838290D01*
X167114328Y-106918353D01*
X167142365Y-106987629D01*
X167162568Y-107039045D01*
X167178615Y-107078119D01*
X167187888Y-107098541D01*
X167189041Y-107100114D01*
X167206096Y-107102721D01*
X167246298Y-107109863D01*
X167304302Y-107120523D01*
X167374763Y-107133685D01*
X167452335Y-107148333D01*
X167531672Y-107163449D01*
X167607431Y-107178018D01*
X167674264Y-107191022D01*
X167726828Y-107201445D01*
X167759776Y-107208270D01*
X167767857Y-107210199D01*
X167776205Y-107214962D01*
X167782506Y-107225718D01*
X167787045Y-107246098D01*
X167790104Y-107279734D01*
X167791967Y-107330255D01*
X167792918Y-107401292D01*
X167793240Y-107496476D01*
X167793257Y-107535492D01*
X167793257Y-107852799D01*
X167717057Y-107867839D01*
X167674663Y-107875995D01*
X167611400Y-107887899D01*
X167534962Y-107902116D01*
X167453043Y-107917210D01*
X167430400Y-107921355D01*
X167354806Y-107936053D01*
X167288953Y-107950505D01*
X167238366Y-107963375D01*
X167208574Y-107973322D01*
X167203612Y-107976287D01*
X167191426Y-107997283D01*
X167173953Y-108037967D01*
X167154577Y-108090322D01*
X167150734Y-108101600D01*
X167125339Y-108171523D01*
X167093817Y-108250418D01*
X167062969Y-108321266D01*
X167062817Y-108321595D01*
X167011447Y-108432733D01*
X167180399Y-108681253D01*
X167349352Y-108929772D01*
X167132429Y-109147058D01*
X167066819Y-109211726D01*
X167006979Y-109268733D01*
X166956267Y-109315033D01*
X166918046Y-109347584D01*
X166895675Y-109363343D01*
X166892466Y-109364343D01*
X166873626Y-109356469D01*
X166835180Y-109334578D01*
X166781330Y-109301267D01*
X166716276Y-109259131D01*
X166645940Y-109211943D01*
X166574555Y-109163810D01*
X166510908Y-109121928D01*
X166459041Y-109088871D01*
X166422995Y-109067218D01*
X166406867Y-109059543D01*
X166387189Y-109066037D01*
X166349875Y-109083150D01*
X166302621Y-109107326D01*
X166297612Y-109110013D01*
X166233977Y-109141927D01*
X166190341Y-109157579D01*
X166163202Y-109157745D01*
X166149057Y-109143204D01*
X166148975Y-109143000D01*
X166141905Y-109125779D01*
X166125042Y-109084899D01*
X166099695Y-109023525D01*
X166067171Y-108944819D01*
X166028778Y-108851947D01*
X165985822Y-108748072D01*
X165944222Y-108647502D01*
X165898504Y-108536516D01*
X165856526Y-108433703D01*
X165819548Y-108342215D01*
X165788827Y-108265201D01*
X165765622Y-108205815D01*
X165751190Y-108167209D01*
X165746743Y-108152800D01*
X165757896Y-108136272D01*
X165787069Y-108109930D01*
X165825971Y-108080887D01*
X165936757Y-107989039D01*
X166023351Y-107883759D01*
X166084716Y-107767266D01*
X166119815Y-107641776D01*
X166127608Y-107509507D01*
X166121943Y-107448457D01*
X166091078Y-107321795D01*
X166037920Y-107209941D01*
X165965767Y-107114001D01*
X165877917Y-107035076D01*
X165777665Y-106974270D01*
X165668310Y-106932687D01*
X165553147Y-106911428D01*
X165435475Y-106911599D01*
X165318590Y-106934301D01*
X165205789Y-106980638D01*
X165100369Y-107051713D01*
X165056368Y-107091911D01*
X164971979Y-107195129D01*
X164913222Y-107307925D01*
X164879704Y-107427010D01*
X164871035Y-107549095D01*
X164886823Y-107670893D01*
X164926678Y-107789116D01*
X164990207Y-107900475D01*
X165077021Y-108001684D01*
X165174029Y-108080887D01*
X165214437Y-108111162D01*
X165242982Y-108137219D01*
X165253257Y-108152825D01*
X165247877Y-108169843D01*
X165232575Y-108210500D01*
X165208612Y-108271642D01*
X165177244Y-108350119D01*
X165139732Y-108442780D01*
X165097333Y-108546472D01*
X165055663Y-108647526D01*
X165009690Y-108758607D01*
X164967107Y-108861541D01*
X164929221Y-108953165D01*
X164897340Y-109030316D01*
X164872771Y-109089831D01*
X164856820Y-109128544D01*
X164850910Y-109143000D01*
X164836948Y-109157685D01*
X164809940Y-109157642D01*
X164766413Y-109142099D01*
X164702890Y-109110284D01*
X164702388Y-109110013D01*
X164654560Y-109085323D01*
X164615897Y-109067338D01*
X164594095Y-109059614D01*
X164593133Y-109059543D01*
X164576721Y-109067378D01*
X164540487Y-109089165D01*
X164488474Y-109122328D01*
X164424725Y-109164291D01*
X164354060Y-109211943D01*
X164282116Y-109260191D01*
X164217274Y-109302151D01*
X164163735Y-109335227D01*
X164125697Y-109356821D01*
X164107533Y-109364343D01*
X164090808Y-109354457D01*
X164057180Y-109326826D01*
X164010010Y-109284495D01*
X163952658Y-109230505D01*
X163888484Y-109167899D01*
X163867497Y-109146983D01*
X163650499Y-108929623D01*
X163815668Y-108687220D01*
X163865864Y-108612781D01*
X163909919Y-108545972D01*
X163945362Y-108490665D01*
X163969719Y-108450729D01*
X163980522Y-108430036D01*
X163980838Y-108428563D01*
X163975143Y-108409058D01*
X163959826Y-108369822D01*
X163937537Y-108317430D01*
X163921893Y-108282355D01*
X163892641Y-108215201D01*
X163865094Y-108147358D01*
X163843737Y-108090034D01*
X163837935Y-108072572D01*
X163821452Y-108025938D01*
X163805340Y-107989905D01*
X163796490Y-107976287D01*
X163776960Y-107967952D01*
X163734334Y-107956137D01*
X163674145Y-107942181D01*
X163601922Y-107927422D01*
X163569600Y-107921355D01*
X163487522Y-107906273D01*
X163408795Y-107891669D01*
X163341109Y-107878980D01*
X163292160Y-107869642D01*
X163282943Y-107867839D01*
X163206743Y-107852799D01*
X163206743Y-107535492D01*
X163206914Y-107431154D01*
X163207616Y-107352213D01*
X163209134Y-107295038D01*
X163211749Y-107255999D01*
X163215746Y-107231465D01*
X163221409Y-107217805D01*
X163229020Y-107211389D01*
X163232143Y-107210199D01*
X163250978Y-107205980D01*
X163292588Y-107197562D01*
X163351630Y-107185961D01*
X163422757Y-107172195D01*
X163500625Y-107157280D01*
X163579887Y-107142232D01*
X163655198Y-107128069D01*
X163721213Y-107115806D01*
X163772587Y-107106461D01*
X163803975Y-107101050D01*
X163810959Y-107100114D01*
X163817285Y-107087596D01*
X163831290Y-107054246D01*
X163850355Y-107006377D01*
X163857634Y-106987629D01*
X163886996Y-106915195D01*
X163921571Y-106835170D01*
X163952537Y-106767728D01*
X163975323Y-106716159D01*
X163990482Y-106673785D01*
X163995542Y-106647834D01*
X163994736Y-106644356D01*
X163984041Y-106627936D01*
X163959620Y-106591417D01*
X163924095Y-106538687D01*
X163880087Y-106473635D01*
X163830217Y-106400151D01*
X163820356Y-106385645D01*
X163762492Y-106299704D01*
X163719956Y-106234261D01*
X163691054Y-106186304D01*
X163674090Y-106152820D01*
X163667367Y-106130795D01*
X163669190Y-106117217D01*
X163669236Y-106117131D01*
X163683586Y-106099297D01*
X163715323Y-106064817D01*
X163761010Y-106017268D01*
X163817204Y-105960222D01*
X163880468Y-105897255D01*
X163887602Y-105890227D01*
X163967330Y-105813020D01*
X164028857Y-105756330D01*
X164073421Y-105719110D01*
X164102257Y-105700315D01*
X164114958Y-105697889D01*
X164133494Y-105708471D01*
X164171961Y-105732916D01*
X164226386Y-105768612D01*
X164292798Y-105812947D01*
X164367225Y-105863311D01*
X164384601Y-105875160D01*
X164631297Y-106043626D01*
X164742706Y-105993062D01*
X164810457Y-105963595D01*
X164883183Y-105933959D01*
X164945703Y-105910330D01*
X164948457Y-105909358D01*
X164997360Y-105891457D01*
X165035057Y-105876320D01*
X165053425Y-105867210D01*
X165053456Y-105867184D01*
X165059285Y-105850717D01*
X165069192Y-105810219D01*
X165082195Y-105750242D01*
X165097309Y-105675340D01*
X165113552Y-105590064D01*
X165114881Y-105582875D01*
X165131175Y-105495014D01*
X165146133Y-105415260D01*
X165158791Y-105348681D01*
X165168186Y-105300347D01*
X165173354Y-105275325D01*
X165173444Y-105274943D01*
X165176589Y-105264299D01*
X165182704Y-105256262D01*
X165195453Y-105250467D01*
X165218500Y-105246547D01*
X165255509Y-105244135D01*
X165310144Y-105242865D01*
X165386067Y-105242371D01*
X165486944Y-105242286D01*
X165500000Y-105242286D01*
X165603910Y-105242348D01*
D12*
%TO.C,U2*%
X131600000Y-88390000D02*
X137610000Y-88390000D01*
X133850000Y-95210000D02*
X137610000Y-95210000D01*
X137610000Y-88390000D02*
X137610000Y-89650000D01*
X137610000Y-95210000D02*
X137610000Y-93950000D01*
%TO.C,R9*%
X131422500Y-104195276D02*
X131422500Y-104704724D01*
X130377500Y-104195276D02*
X130377500Y-104704724D01*
%TO.C,R8*%
X148777500Y-97854724D02*
X148777500Y-97345276D01*
X149822500Y-97854724D02*
X149822500Y-97345276D01*
D10*
%TO.C,J1*%
X169200000Y-91900000D02*
X168500000Y-91900000D01*
X169400000Y-91600000D02*
X169400000Y-91700000D01*
X166200000Y-91600000D02*
X166200000Y-91700000D01*
X166200000Y-88900000D02*
X166200000Y-89000000D01*
X169400000Y-89000000D02*
X169400000Y-88900000D01*
X167100000Y-91900000D02*
X166400000Y-91900000D01*
X166400000Y-88700000D02*
X169200000Y-88700000D01*
X169200000Y-88700000D02*
G75*
G02*
X169400000Y-88900000I0J-200000D01*
G01*
X166200000Y-88900000D02*
G75*
G02*
X166400000Y-88700000I200000J0D01*
G01*
X166400000Y-91900000D02*
G75*
G02*
X166200000Y-91700000I0J200000D01*
G01*
X169400000Y-91700000D02*
G75*
G02*
X169200000Y-91900000I-200000J0D01*
G01*
D12*
%TO.C,J2*%
X174170000Y-92270000D02*
X175500000Y-92270000D01*
X174170000Y-93600000D02*
X174170000Y-92270000D01*
X174170000Y-94870000D02*
X176830000Y-94870000D01*
X176830000Y-94870000D02*
X176830000Y-107630000D01*
X174170000Y-94870000D02*
X174170000Y-107630000D01*
X174170000Y-107630000D02*
X176830000Y-107630000D01*
%TO.C,JP1*%
X143600000Y-102100000D02*
X143600000Y-101500000D01*
X145700000Y-102800000D02*
X144300000Y-102800000D01*
X146400000Y-101500000D02*
X146400000Y-102100000D01*
X144300000Y-100800000D02*
X145700000Y-100800000D01*
X143600000Y-101500000D02*
G75*
G02*
X144300000Y-100800000I700000J0D01*
G01*
X144300000Y-102800000D02*
G75*
G02*
X143600000Y-102100000I0J700000D01*
G01*
X146400000Y-102100000D02*
G75*
G02*
X145700000Y-102800000I-700000J0D01*
G01*
X145700000Y-100800000D02*
G75*
G02*
X146400000Y-101500000I0J-700000D01*
G01*
%TO.C,U8*%
X154190000Y-101300000D02*
X154190000Y-103100000D01*
X157410000Y-103100000D02*
X157410000Y-100150000D01*
%TO.C,U4*%
X153510000Y-103100000D02*
X153510000Y-101300000D01*
X150290000Y-101300000D02*
X150290000Y-104250000D01*
%TO.C,C2*%
X149810000Y-102028733D02*
X149810000Y-102371267D01*
X148790000Y-102028733D02*
X148790000Y-102371267D01*
%TO.C,R7*%
X156222500Y-106345276D02*
X156222500Y-106854724D01*
X155177500Y-106345276D02*
X155177500Y-106854724D01*
%TO.C,C14*%
X157890000Y-102471267D02*
X157890000Y-102128733D01*
X158910000Y-102471267D02*
X158910000Y-102128733D01*
%TO.C,C3*%
X135263748Y-104940000D02*
X136686252Y-104940000D01*
X135263748Y-107660000D02*
X136686252Y-107660000D01*
%TO.C,C1*%
X162290000Y-90861252D02*
X162290000Y-90338748D01*
X163710000Y-90861252D02*
X163710000Y-90338748D01*
%TO.C,U7*%
X137300000Y-101800000D02*
X137300000Y-100800000D01*
X139500000Y-102800000D02*
X139500000Y-100800000D01*
%TO.C,L1*%
X136400000Y-102200000D02*
X136400000Y-100800000D01*
X136400000Y-95400000D02*
X136400000Y-96800000D01*
X136400000Y-102200000D02*
X135200000Y-102200000D01*
X136400000Y-95400000D02*
X135200000Y-95400000D01*
X130000000Y-95400000D02*
X131200000Y-95400000D01*
X130000000Y-95400000D02*
X130000000Y-96800000D01*
X130000000Y-102200000D02*
X130000000Y-100800000D01*
X130000000Y-102200000D02*
X131200000Y-102200000D01*
%TO.C,J4*%
X130870000Y-111330000D02*
X130870000Y-110000000D01*
X132200000Y-111330000D02*
X130870000Y-111330000D01*
X133470000Y-111330000D02*
X133470000Y-108670000D01*
X133470000Y-108670000D02*
X138610000Y-108670000D01*
X133470000Y-111330000D02*
X138610000Y-111330000D01*
X138610000Y-111330000D02*
X138610000Y-108670000D01*
%TO.C,C13*%
X138038748Y-99010000D02*
X138561252Y-99010000D01*
X138038748Y-97590000D02*
X138561252Y-97590000D01*
%TO.C,C12*%
X138038748Y-97110000D02*
X138561252Y-97110000D01*
X138038748Y-95690000D02*
X138561252Y-95690000D01*
%TO.C,C11*%
X141710000Y-100071267D02*
X141710000Y-99728733D01*
X140690000Y-100071267D02*
X140690000Y-99728733D01*
%TO.C,J3*%
X148850000Y-111430000D02*
X148850000Y-110100000D01*
X150180000Y-111430000D02*
X148850000Y-111430000D01*
X151450000Y-111430000D02*
X151450000Y-108770000D01*
X151450000Y-108770000D02*
X159130000Y-108770000D01*
X151450000Y-111430000D02*
X159130000Y-111430000D01*
X159130000Y-111430000D02*
X159130000Y-108770000D01*
%TO.C,U1*%
X149990000Y-91100000D02*
X149990000Y-94050000D01*
X153210000Y-92900000D02*
X153210000Y-91100000D01*
%TO.C,U6*%
X140070000Y-111430000D02*
X140070000Y-110100000D01*
X141400000Y-111430000D02*
X140070000Y-111430000D01*
X142670000Y-111430000D02*
X142670000Y-108770000D01*
X142670000Y-108770000D02*
X147810000Y-108770000D01*
X142670000Y-111430000D02*
X147810000Y-111430000D01*
X147810000Y-111430000D02*
X147810000Y-108770000D01*
%TO.C,U5*%
X168530000Y-95165000D02*
X168530000Y-94690000D01*
X161310000Y-101910000D02*
X161785000Y-101910000D01*
X161310000Y-101435000D02*
X161310000Y-101910000D01*
X161310000Y-94690000D02*
X161785000Y-94690000D01*
X161310000Y-95165000D02*
X161310000Y-94690000D01*
X168530000Y-101910000D02*
X168055000Y-101910000D01*
X168530000Y-101435000D02*
X168530000Y-101910000D01*
%TO.C,R6*%
X145454724Y-106777500D02*
X144945276Y-106777500D01*
X145454724Y-107822500D02*
X144945276Y-107822500D01*
%TO.C,R5*%
X157577500Y-89945276D02*
X157577500Y-90454724D01*
X158622500Y-89945276D02*
X158622500Y-90454724D01*
%TO.C,R4*%
X156777500Y-106345276D02*
X156777500Y-106854724D01*
X157822500Y-106345276D02*
X157822500Y-106854724D01*
%TO.C,R3*%
X155877500Y-89945276D02*
X155877500Y-90454724D01*
X156922500Y-89945276D02*
X156922500Y-90454724D01*
%TO.C,R2*%
X154495276Y-98672500D02*
X155004724Y-98672500D01*
X154495276Y-97627500D02*
X155004724Y-97627500D01*
%TO.C,R1*%
X160677500Y-90445276D02*
X160677500Y-90954724D01*
X161722500Y-90445276D02*
X161722500Y-90954724D01*
%TO.C,C10*%
X153690000Y-91753733D02*
X153690000Y-92096267D01*
X154710000Y-91753733D02*
X154710000Y-92096267D01*
%TO.C,C8*%
X157928733Y-94010000D02*
X158271267Y-94010000D01*
X157928733Y-92990000D02*
X158271267Y-92990000D01*
%TO.C,C7*%
X159410000Y-97171267D02*
X159410000Y-96828733D01*
X158390000Y-97171267D02*
X158390000Y-96828733D01*
%TO.C,C6*%
X145030000Y-93865000D02*
X145030000Y-89480000D01*
X142010000Y-93865000D02*
X145030000Y-93865000D01*
X142010000Y-89480000D02*
X142010000Y-93865000D01*
%TO.C,C5*%
X167671267Y-103290000D02*
X167328733Y-103290000D01*
X167671267Y-104310000D02*
X167328733Y-104310000D01*
%TO.C,C4*%
X147010000Y-91661252D02*
X147010000Y-91138748D01*
X145590000Y-91661252D02*
X145590000Y-91138748D01*
%TO.C,U2*%
D10*
X138138095Y-88452380D02*
X138138095Y-89261904D01*
X138185714Y-89357142D01*
X138233333Y-89404761D01*
X138328571Y-89452380D01*
X138519047Y-89452380D01*
X138614285Y-89404761D01*
X138661904Y-89357142D01*
X138709523Y-89261904D01*
X138709523Y-88452380D01*
X139138095Y-88547619D02*
X139185714Y-88500000D01*
X139280952Y-88452380D01*
X139519047Y-88452380D01*
X139614285Y-88500000D01*
X139661904Y-88547619D01*
X139709523Y-88642857D01*
X139709523Y-88738095D01*
X139661904Y-88880952D01*
X139090476Y-89452380D01*
X139709523Y-89452380D01*
%TO.C,R9*%
X132782380Y-104616666D02*
X132306190Y-104950000D01*
X132782380Y-105188095D02*
X131782380Y-105188095D01*
X131782380Y-104807142D01*
X131830000Y-104711904D01*
X131877619Y-104664285D01*
X131972857Y-104616666D01*
X132115714Y-104616666D01*
X132210952Y-104664285D01*
X132258571Y-104711904D01*
X132306190Y-104807142D01*
X132306190Y-105188095D01*
X132782380Y-104140476D02*
X132782380Y-103950000D01*
X132734761Y-103854761D01*
X132687142Y-103807142D01*
X132544285Y-103711904D01*
X132353809Y-103664285D01*
X131972857Y-103664285D01*
X131877619Y-103711904D01*
X131830000Y-103759523D01*
X131782380Y-103854761D01*
X131782380Y-104045238D01*
X131830000Y-104140476D01*
X131877619Y-104188095D01*
X131972857Y-104235714D01*
X132210952Y-104235714D01*
X132306190Y-104188095D01*
X132353809Y-104140476D01*
X132401428Y-104045238D01*
X132401428Y-103854761D01*
X132353809Y-103759523D01*
X132306190Y-103711904D01*
X132210952Y-103664285D01*
%TO.C,R8*%
X148322380Y-97766666D02*
X147846190Y-98100000D01*
X148322380Y-98338095D02*
X147322380Y-98338095D01*
X147322380Y-97957142D01*
X147370000Y-97861904D01*
X147417619Y-97814285D01*
X147512857Y-97766666D01*
X147655714Y-97766666D01*
X147750952Y-97814285D01*
X147798571Y-97861904D01*
X147846190Y-97957142D01*
X147846190Y-98338095D01*
X147750952Y-97195238D02*
X147703333Y-97290476D01*
X147655714Y-97338095D01*
X147560476Y-97385714D01*
X147512857Y-97385714D01*
X147417619Y-97338095D01*
X147370000Y-97290476D01*
X147322380Y-97195238D01*
X147322380Y-97004761D01*
X147370000Y-96909523D01*
X147417619Y-96861904D01*
X147512857Y-96814285D01*
X147560476Y-96814285D01*
X147655714Y-96861904D01*
X147703333Y-96909523D01*
X147750952Y-97004761D01*
X147750952Y-97195238D01*
X147798571Y-97290476D01*
X147846190Y-97338095D01*
X147941428Y-97385714D01*
X148131904Y-97385714D01*
X148227142Y-97338095D01*
X148274761Y-97290476D01*
X148322380Y-97195238D01*
X148322380Y-97004761D01*
X148274761Y-96909523D01*
X148227142Y-96861904D01*
X148131904Y-96814285D01*
X147941428Y-96814285D01*
X147846190Y-96861904D01*
X147798571Y-96909523D01*
X147750952Y-97004761D01*
%TO.C,J1*%
X168466666Y-92252380D02*
X168466666Y-92966666D01*
X168419047Y-93109523D01*
X168323809Y-93204761D01*
X168180952Y-93252380D01*
X168085714Y-93252380D01*
X169466666Y-93252380D02*
X168895238Y-93252380D01*
X169180952Y-93252380D02*
X169180952Y-92252380D01*
X169085714Y-92395238D01*
X168990476Y-92490476D01*
X168895238Y-92538095D01*
%TO.C,J2*%
X172852380Y-93833333D02*
X173566666Y-93833333D01*
X173709523Y-93880952D01*
X173804761Y-93976190D01*
X173852380Y-94119047D01*
X173852380Y-94214285D01*
X172947619Y-93404761D02*
X172900000Y-93357142D01*
X172852380Y-93261904D01*
X172852380Y-93023809D01*
X172900000Y-92928571D01*
X172947619Y-92880952D01*
X173042857Y-92833333D01*
X173138095Y-92833333D01*
X173280952Y-92880952D01*
X173852380Y-93452380D01*
X173852380Y-92833333D01*
%TO.C,JP1*%
X144166666Y-99452380D02*
X144166666Y-100166666D01*
X144119047Y-100309523D01*
X144023809Y-100404761D01*
X143880952Y-100452380D01*
X143785714Y-100452380D01*
X144642857Y-100452380D02*
X144642857Y-99452380D01*
X145023809Y-99452380D01*
X145119047Y-99500000D01*
X145166666Y-99547619D01*
X145214285Y-99642857D01*
X145214285Y-99785714D01*
X145166666Y-99880952D01*
X145119047Y-99928571D01*
X145023809Y-99976190D01*
X144642857Y-99976190D01*
X146166666Y-100452380D02*
X145595238Y-100452380D01*
X145880952Y-100452380D02*
X145880952Y-99452380D01*
X145785714Y-99595238D01*
X145690476Y-99690476D01*
X145595238Y-99738095D01*
%TO.C,U8*%
X156538095Y-98652380D02*
X156538095Y-99461904D01*
X156585714Y-99557142D01*
X156633333Y-99604761D01*
X156728571Y-99652380D01*
X156919047Y-99652380D01*
X157014285Y-99604761D01*
X157061904Y-99557142D01*
X157109523Y-99461904D01*
X157109523Y-98652380D01*
X157728571Y-99080952D02*
X157633333Y-99033333D01*
X157585714Y-98985714D01*
X157538095Y-98890476D01*
X157538095Y-98842857D01*
X157585714Y-98747619D01*
X157633333Y-98700000D01*
X157728571Y-98652380D01*
X157919047Y-98652380D01*
X158014285Y-98700000D01*
X158061904Y-98747619D01*
X158109523Y-98842857D01*
X158109523Y-98890476D01*
X158061904Y-98985714D01*
X158014285Y-99033333D01*
X157919047Y-99080952D01*
X157728571Y-99080952D01*
X157633333Y-99128571D01*
X157585714Y-99176190D01*
X157538095Y-99271428D01*
X157538095Y-99461904D01*
X157585714Y-99557142D01*
X157633333Y-99604761D01*
X157728571Y-99652380D01*
X157919047Y-99652380D01*
X158014285Y-99604761D01*
X158061904Y-99557142D01*
X158109523Y-99461904D01*
X158109523Y-99271428D01*
X158061904Y-99176190D01*
X158014285Y-99128571D01*
X157919047Y-99080952D01*
%TO.C,U4*%
X150238095Y-98702380D02*
X150238095Y-99511904D01*
X150285714Y-99607142D01*
X150333333Y-99654761D01*
X150428571Y-99702380D01*
X150619047Y-99702380D01*
X150714285Y-99654761D01*
X150761904Y-99607142D01*
X150809523Y-99511904D01*
X150809523Y-98702380D01*
X151714285Y-99035714D02*
X151714285Y-99702380D01*
X151476190Y-98654761D02*
X151238095Y-99369047D01*
X151857142Y-99369047D01*
%TO.C,C2*%
X148357142Y-102366666D02*
X148404761Y-102414285D01*
X148452380Y-102557142D01*
X148452380Y-102652380D01*
X148404761Y-102795238D01*
X148309523Y-102890476D01*
X148214285Y-102938095D01*
X148023809Y-102985714D01*
X147880952Y-102985714D01*
X147690476Y-102938095D01*
X147595238Y-102890476D01*
X147500000Y-102795238D01*
X147452380Y-102652380D01*
X147452380Y-102557142D01*
X147500000Y-102414285D01*
X147547619Y-102366666D01*
X147547619Y-101985714D02*
X147500000Y-101938095D01*
X147452380Y-101842857D01*
X147452380Y-101604761D01*
X147500000Y-101509523D01*
X147547619Y-101461904D01*
X147642857Y-101414285D01*
X147738095Y-101414285D01*
X147880952Y-101461904D01*
X148452380Y-102033333D01*
X148452380Y-101414285D01*
%TO.C,R7*%
X154752380Y-106666666D02*
X154276190Y-107000000D01*
X154752380Y-107238095D02*
X153752380Y-107238095D01*
X153752380Y-106857142D01*
X153800000Y-106761904D01*
X153847619Y-106714285D01*
X153942857Y-106666666D01*
X154085714Y-106666666D01*
X154180952Y-106714285D01*
X154228571Y-106761904D01*
X154276190Y-106857142D01*
X154276190Y-107238095D01*
X153752380Y-106333333D02*
X153752380Y-105666666D01*
X154752380Y-106095238D01*
%TO.C,C14*%
X160157142Y-102842857D02*
X160204761Y-102890476D01*
X160252380Y-103033333D01*
X160252380Y-103128571D01*
X160204761Y-103271428D01*
X160109523Y-103366666D01*
X160014285Y-103414285D01*
X159823809Y-103461904D01*
X159680952Y-103461904D01*
X159490476Y-103414285D01*
X159395238Y-103366666D01*
X159300000Y-103271428D01*
X159252380Y-103128571D01*
X159252380Y-103033333D01*
X159300000Y-102890476D01*
X159347619Y-102842857D01*
X160252380Y-101890476D02*
X160252380Y-102461904D01*
X160252380Y-102176190D02*
X159252380Y-102176190D01*
X159395238Y-102271428D01*
X159490476Y-102366666D01*
X159538095Y-102461904D01*
X159585714Y-101033333D02*
X160252380Y-101033333D01*
X159204761Y-101271428D02*
X159919047Y-101509523D01*
X159919047Y-100890476D01*
%TO.C,C3*%
X132533333Y-106657142D02*
X132485714Y-106704761D01*
X132342857Y-106752380D01*
X132247619Y-106752380D01*
X132104761Y-106704761D01*
X132009523Y-106609523D01*
X131961904Y-106514285D01*
X131914285Y-106323809D01*
X131914285Y-106180952D01*
X131961904Y-105990476D01*
X132009523Y-105895238D01*
X132104761Y-105800000D01*
X132247619Y-105752380D01*
X132342857Y-105752380D01*
X132485714Y-105800000D01*
X132533333Y-105847619D01*
X132866666Y-105752380D02*
X133485714Y-105752380D01*
X133152380Y-106133333D01*
X133295238Y-106133333D01*
X133390476Y-106180952D01*
X133438095Y-106228571D01*
X133485714Y-106323809D01*
X133485714Y-106561904D01*
X133438095Y-106657142D01*
X133390476Y-106704761D01*
X133295238Y-106752380D01*
X133009523Y-106752380D01*
X132914285Y-106704761D01*
X132866666Y-106657142D01*
%TO.C,C1*%
X164857142Y-90766666D02*
X164904761Y-90814285D01*
X164952380Y-90957142D01*
X164952380Y-91052380D01*
X164904761Y-91195238D01*
X164809523Y-91290476D01*
X164714285Y-91338095D01*
X164523809Y-91385714D01*
X164380952Y-91385714D01*
X164190476Y-91338095D01*
X164095238Y-91290476D01*
X164000000Y-91195238D01*
X163952380Y-91052380D01*
X163952380Y-90957142D01*
X164000000Y-90814285D01*
X164047619Y-90766666D01*
X164952380Y-89814285D02*
X164952380Y-90385714D01*
X164952380Y-90100000D02*
X163952380Y-90100000D01*
X164095238Y-90195238D01*
X164190476Y-90290476D01*
X164238095Y-90385714D01*
%TO.C,U7*%
X139888095Y-102652380D02*
X139888095Y-103461904D01*
X139935714Y-103557142D01*
X139983333Y-103604761D01*
X140078571Y-103652380D01*
X140269047Y-103652380D01*
X140364285Y-103604761D01*
X140411904Y-103557142D01*
X140459523Y-103461904D01*
X140459523Y-102652380D01*
X140840476Y-102652380D02*
X141507142Y-102652380D01*
X141078571Y-103652380D01*
%TO.C,L1*%
X133283333Y-103502380D02*
X132807142Y-103502380D01*
X132807142Y-102502380D01*
X134140476Y-103502380D02*
X133569047Y-103502380D01*
X133854761Y-103502380D02*
X133854761Y-102502380D01*
X133759523Y-102645238D01*
X133664285Y-102740476D01*
X133569047Y-102788095D01*
%TO.C,J4*%
X131866666Y-107452380D02*
X131866666Y-108166666D01*
X131819047Y-108309523D01*
X131723809Y-108404761D01*
X131580952Y-108452380D01*
X131485714Y-108452380D01*
X132771428Y-107785714D02*
X132771428Y-108452380D01*
X132533333Y-107404761D02*
X132295238Y-108119047D01*
X132914285Y-108119047D01*
%TO.C,C13*%
X140957142Y-97957142D02*
X140909523Y-98004761D01*
X140766666Y-98052380D01*
X140671428Y-98052380D01*
X140528571Y-98004761D01*
X140433333Y-97909523D01*
X140385714Y-97814285D01*
X140338095Y-97623809D01*
X140338095Y-97480952D01*
X140385714Y-97290476D01*
X140433333Y-97195238D01*
X140528571Y-97100000D01*
X140671428Y-97052380D01*
X140766666Y-97052380D01*
X140909523Y-97100000D01*
X140957142Y-97147619D01*
X141909523Y-98052380D02*
X141338095Y-98052380D01*
X141623809Y-98052380D02*
X141623809Y-97052380D01*
X141528571Y-97195238D01*
X141433333Y-97290476D01*
X141338095Y-97338095D01*
X142242857Y-97052380D02*
X142861904Y-97052380D01*
X142528571Y-97433333D01*
X142671428Y-97433333D01*
X142766666Y-97480952D01*
X142814285Y-97528571D01*
X142861904Y-97623809D01*
X142861904Y-97861904D01*
X142814285Y-97957142D01*
X142766666Y-98004761D01*
X142671428Y-98052380D01*
X142385714Y-98052380D01*
X142290476Y-98004761D01*
X142242857Y-97957142D01*
%TO.C,C12*%
X140957142Y-96757142D02*
X140909523Y-96804761D01*
X140766666Y-96852380D01*
X140671428Y-96852380D01*
X140528571Y-96804761D01*
X140433333Y-96709523D01*
X140385714Y-96614285D01*
X140338095Y-96423809D01*
X140338095Y-96280952D01*
X140385714Y-96090476D01*
X140433333Y-95995238D01*
X140528571Y-95900000D01*
X140671428Y-95852380D01*
X140766666Y-95852380D01*
X140909523Y-95900000D01*
X140957142Y-95947619D01*
X141909523Y-96852380D02*
X141338095Y-96852380D01*
X141623809Y-96852380D02*
X141623809Y-95852380D01*
X141528571Y-95995238D01*
X141433333Y-96090476D01*
X141338095Y-96138095D01*
X142290476Y-95947619D02*
X142338095Y-95900000D01*
X142433333Y-95852380D01*
X142671428Y-95852380D01*
X142766666Y-95900000D01*
X142814285Y-95947619D01*
X142861904Y-96042857D01*
X142861904Y-96138095D01*
X142814285Y-96280952D01*
X142242857Y-96852380D01*
X142861904Y-96852380D01*
%TO.C,C11*%
X143057142Y-100342857D02*
X143104761Y-100390476D01*
X143152380Y-100533333D01*
X143152380Y-100628571D01*
X143104761Y-100771428D01*
X143009523Y-100866666D01*
X142914285Y-100914285D01*
X142723809Y-100961904D01*
X142580952Y-100961904D01*
X142390476Y-100914285D01*
X142295238Y-100866666D01*
X142200000Y-100771428D01*
X142152380Y-100628571D01*
X142152380Y-100533333D01*
X142200000Y-100390476D01*
X142247619Y-100342857D01*
X143152380Y-99390476D02*
X143152380Y-99961904D01*
X143152380Y-99676190D02*
X142152380Y-99676190D01*
X142295238Y-99771428D01*
X142390476Y-99866666D01*
X142438095Y-99961904D01*
X143152380Y-98438095D02*
X143152380Y-99009523D01*
X143152380Y-98723809D02*
X142152380Y-98723809D01*
X142295238Y-98819047D01*
X142390476Y-98914285D01*
X142438095Y-99009523D01*
%TO.C,J3*%
X159966666Y-109552380D02*
X159966666Y-110266666D01*
X159919047Y-110409523D01*
X159823809Y-110504761D01*
X159680952Y-110552380D01*
X159585714Y-110552380D01*
X160347619Y-109552380D02*
X160966666Y-109552380D01*
X160633333Y-109933333D01*
X160776190Y-109933333D01*
X160871428Y-109980952D01*
X160919047Y-110028571D01*
X160966666Y-110123809D01*
X160966666Y-110361904D01*
X160919047Y-110457142D01*
X160871428Y-110504761D01*
X160776190Y-110552380D01*
X160490476Y-110552380D01*
X160395238Y-110504761D01*
X160347619Y-110457142D01*
%TO.C,U1*%
X149538095Y-88552380D02*
X149538095Y-89361904D01*
X149585714Y-89457142D01*
X149633333Y-89504761D01*
X149728571Y-89552380D01*
X149919047Y-89552380D01*
X150014285Y-89504761D01*
X150061904Y-89457142D01*
X150109523Y-89361904D01*
X150109523Y-88552380D01*
X151109523Y-89552380D02*
X150538095Y-89552380D01*
X150823809Y-89552380D02*
X150823809Y-88552380D01*
X150728571Y-88695238D01*
X150633333Y-88790476D01*
X150538095Y-88838095D01*
%TO.C,U6*%
X140638095Y-107452380D02*
X140638095Y-108261904D01*
X140685714Y-108357142D01*
X140733333Y-108404761D01*
X140828571Y-108452380D01*
X141019047Y-108452380D01*
X141114285Y-108404761D01*
X141161904Y-108357142D01*
X141209523Y-108261904D01*
X141209523Y-107452380D01*
X142114285Y-107452380D02*
X141923809Y-107452380D01*
X141828571Y-107500000D01*
X141780952Y-107547619D01*
X141685714Y-107690476D01*
X141638095Y-107880952D01*
X141638095Y-108261904D01*
X141685714Y-108357142D01*
X141733333Y-108404761D01*
X141828571Y-108452380D01*
X142019047Y-108452380D01*
X142114285Y-108404761D01*
X142161904Y-108357142D01*
X142209523Y-108261904D01*
X142209523Y-108023809D01*
X142161904Y-107928571D01*
X142114285Y-107880952D01*
X142019047Y-107833333D01*
X141828571Y-107833333D01*
X141733333Y-107880952D01*
X141685714Y-107928571D01*
X141638095Y-108023809D01*
%TO.C,U5*%
X162038095Y-102652380D02*
X162038095Y-103461904D01*
X162085714Y-103557142D01*
X162133333Y-103604761D01*
X162228571Y-103652380D01*
X162419047Y-103652380D01*
X162514285Y-103604761D01*
X162561904Y-103557142D01*
X162609523Y-103461904D01*
X162609523Y-102652380D01*
X163561904Y-102652380D02*
X163085714Y-102652380D01*
X163038095Y-103128571D01*
X163085714Y-103080952D01*
X163180952Y-103033333D01*
X163419047Y-103033333D01*
X163514285Y-103080952D01*
X163561904Y-103128571D01*
X163609523Y-103223809D01*
X163609523Y-103461904D01*
X163561904Y-103557142D01*
X163514285Y-103604761D01*
X163419047Y-103652380D01*
X163180952Y-103652380D01*
X163085714Y-103604761D01*
X163038095Y-103557142D01*
%TO.C,R6*%
X145033333Y-106452380D02*
X144700000Y-105976190D01*
X144461904Y-106452380D02*
X144461904Y-105452380D01*
X144842857Y-105452380D01*
X144938095Y-105500000D01*
X144985714Y-105547619D01*
X145033333Y-105642857D01*
X145033333Y-105785714D01*
X144985714Y-105880952D01*
X144938095Y-105928571D01*
X144842857Y-105976190D01*
X144461904Y-105976190D01*
X145890476Y-105452380D02*
X145700000Y-105452380D01*
X145604761Y-105500000D01*
X145557142Y-105547619D01*
X145461904Y-105690476D01*
X145414285Y-105880952D01*
X145414285Y-106261904D01*
X145461904Y-106357142D01*
X145509523Y-106404761D01*
X145604761Y-106452380D01*
X145795238Y-106452380D01*
X145890476Y-106404761D01*
X145938095Y-106357142D01*
X145985714Y-106261904D01*
X145985714Y-106023809D01*
X145938095Y-105928571D01*
X145890476Y-105880952D01*
X145795238Y-105833333D01*
X145604761Y-105833333D01*
X145509523Y-105880952D01*
X145461904Y-105928571D01*
X145414285Y-106023809D01*
%TO.C,R5*%
X159433333Y-89452380D02*
X159100000Y-88976190D01*
X158861904Y-89452380D02*
X158861904Y-88452380D01*
X159242857Y-88452380D01*
X159338095Y-88500000D01*
X159385714Y-88547619D01*
X159433333Y-88642857D01*
X159433333Y-88785714D01*
X159385714Y-88880952D01*
X159338095Y-88928571D01*
X159242857Y-88976190D01*
X158861904Y-88976190D01*
X160338095Y-88452380D02*
X159861904Y-88452380D01*
X159814285Y-88928571D01*
X159861904Y-88880952D01*
X159957142Y-88833333D01*
X160195238Y-88833333D01*
X160290476Y-88880952D01*
X160338095Y-88928571D01*
X160385714Y-89023809D01*
X160385714Y-89261904D01*
X160338095Y-89357142D01*
X160290476Y-89404761D01*
X160195238Y-89452380D01*
X159957142Y-89452380D01*
X159861904Y-89404761D01*
X159814285Y-89357142D01*
%TO.C,R4*%
X159252380Y-106766666D02*
X158776190Y-107100000D01*
X159252380Y-107338095D02*
X158252380Y-107338095D01*
X158252380Y-106957142D01*
X158300000Y-106861904D01*
X158347619Y-106814285D01*
X158442857Y-106766666D01*
X158585714Y-106766666D01*
X158680952Y-106814285D01*
X158728571Y-106861904D01*
X158776190Y-106957142D01*
X158776190Y-107338095D01*
X158585714Y-105909523D02*
X159252380Y-105909523D01*
X158204761Y-106147619D02*
X158919047Y-106385714D01*
X158919047Y-105766666D01*
%TO.C,R3*%
X154733333Y-89452380D02*
X154400000Y-88976190D01*
X154161904Y-89452380D02*
X154161904Y-88452380D01*
X154542857Y-88452380D01*
X154638095Y-88500000D01*
X154685714Y-88547619D01*
X154733333Y-88642857D01*
X154733333Y-88785714D01*
X154685714Y-88880952D01*
X154638095Y-88928571D01*
X154542857Y-88976190D01*
X154161904Y-88976190D01*
X155066666Y-88452380D02*
X155685714Y-88452380D01*
X155352380Y-88833333D01*
X155495238Y-88833333D01*
X155590476Y-88880952D01*
X155638095Y-88928571D01*
X155685714Y-89023809D01*
X155685714Y-89261904D01*
X155638095Y-89357142D01*
X155590476Y-89404761D01*
X155495238Y-89452380D01*
X155209523Y-89452380D01*
X155114285Y-89404761D01*
X155066666Y-89357142D01*
%TO.C,R2*%
X154583333Y-97172380D02*
X154250000Y-96696190D01*
X154011904Y-97172380D02*
X154011904Y-96172380D01*
X154392857Y-96172380D01*
X154488095Y-96220000D01*
X154535714Y-96267619D01*
X154583333Y-96362857D01*
X154583333Y-96505714D01*
X154535714Y-96600952D01*
X154488095Y-96648571D01*
X154392857Y-96696190D01*
X154011904Y-96696190D01*
X154964285Y-96267619D02*
X155011904Y-96220000D01*
X155107142Y-96172380D01*
X155345238Y-96172380D01*
X155440476Y-96220000D01*
X155488095Y-96267619D01*
X155535714Y-96362857D01*
X155535714Y-96458095D01*
X155488095Y-96600952D01*
X154916666Y-97172380D01*
X155535714Y-97172380D01*
%TO.C,R1*%
X160452380Y-90866666D02*
X159976190Y-91200000D01*
X160452380Y-91438095D02*
X159452380Y-91438095D01*
X159452380Y-91057142D01*
X159500000Y-90961904D01*
X159547619Y-90914285D01*
X159642857Y-90866666D01*
X159785714Y-90866666D01*
X159880952Y-90914285D01*
X159928571Y-90961904D01*
X159976190Y-91057142D01*
X159976190Y-91438095D01*
X160452380Y-89914285D02*
X160452380Y-90485714D01*
X160452380Y-90200000D02*
X159452380Y-90200000D01*
X159595238Y-90295238D01*
X159690476Y-90390476D01*
X159738095Y-90485714D01*
%TO.C,C10*%
X153757142Y-94657142D02*
X153709523Y-94704761D01*
X153566666Y-94752380D01*
X153471428Y-94752380D01*
X153328571Y-94704761D01*
X153233333Y-94609523D01*
X153185714Y-94514285D01*
X153138095Y-94323809D01*
X153138095Y-94180952D01*
X153185714Y-93990476D01*
X153233333Y-93895238D01*
X153328571Y-93800000D01*
X153471428Y-93752380D01*
X153566666Y-93752380D01*
X153709523Y-93800000D01*
X153757142Y-93847619D01*
X154709523Y-94752380D02*
X154138095Y-94752380D01*
X154423809Y-94752380D02*
X154423809Y-93752380D01*
X154328571Y-93895238D01*
X154233333Y-93990476D01*
X154138095Y-94038095D01*
X155328571Y-93752380D02*
X155423809Y-93752380D01*
X155519047Y-93800000D01*
X155566666Y-93847619D01*
X155614285Y-93942857D01*
X155661904Y-94133333D01*
X155661904Y-94371428D01*
X155614285Y-94561904D01*
X155566666Y-94657142D01*
X155519047Y-94704761D01*
X155423809Y-94752380D01*
X155328571Y-94752380D01*
X155233333Y-94704761D01*
X155185714Y-94657142D01*
X155138095Y-94561904D01*
X155090476Y-94371428D01*
X155090476Y-94133333D01*
X155138095Y-93942857D01*
X155185714Y-93847619D01*
X155233333Y-93800000D01*
X155328571Y-93752380D01*
%TO.C,C8*%
X160433333Y-93857142D02*
X160385714Y-93904761D01*
X160242857Y-93952380D01*
X160147619Y-93952380D01*
X160004761Y-93904761D01*
X159909523Y-93809523D01*
X159861904Y-93714285D01*
X159814285Y-93523809D01*
X159814285Y-93380952D01*
X159861904Y-93190476D01*
X159909523Y-93095238D01*
X160004761Y-93000000D01*
X160147619Y-92952380D01*
X160242857Y-92952380D01*
X160385714Y-93000000D01*
X160433333Y-93047619D01*
X161004761Y-93380952D02*
X160909523Y-93333333D01*
X160861904Y-93285714D01*
X160814285Y-93190476D01*
X160814285Y-93142857D01*
X160861904Y-93047619D01*
X160909523Y-93000000D01*
X161004761Y-92952380D01*
X161195238Y-92952380D01*
X161290476Y-93000000D01*
X161338095Y-93047619D01*
X161385714Y-93142857D01*
X161385714Y-93190476D01*
X161338095Y-93285714D01*
X161290476Y-93333333D01*
X161195238Y-93380952D01*
X161004761Y-93380952D01*
X160909523Y-93428571D01*
X160861904Y-93476190D01*
X160814285Y-93571428D01*
X160814285Y-93761904D01*
X160861904Y-93857142D01*
X160909523Y-93904761D01*
X161004761Y-93952380D01*
X161195238Y-93952380D01*
X161290476Y-93904761D01*
X161338095Y-93857142D01*
X161385714Y-93761904D01*
X161385714Y-93571428D01*
X161338095Y-93476190D01*
X161290476Y-93428571D01*
X161195238Y-93380952D01*
%TO.C,C7*%
X157827142Y-97166666D02*
X157874761Y-97214285D01*
X157922380Y-97357142D01*
X157922380Y-97452380D01*
X157874761Y-97595238D01*
X157779523Y-97690476D01*
X157684285Y-97738095D01*
X157493809Y-97785714D01*
X157350952Y-97785714D01*
X157160476Y-97738095D01*
X157065238Y-97690476D01*
X156970000Y-97595238D01*
X156922380Y-97452380D01*
X156922380Y-97357142D01*
X156970000Y-97214285D01*
X157017619Y-97166666D01*
X156922380Y-96833333D02*
X156922380Y-96166666D01*
X157922380Y-96595238D01*
%TO.C,C6*%
X143333333Y-95057142D02*
X143285714Y-95104761D01*
X143142857Y-95152380D01*
X143047619Y-95152380D01*
X142904761Y-95104761D01*
X142809523Y-95009523D01*
X142761904Y-94914285D01*
X142714285Y-94723809D01*
X142714285Y-94580952D01*
X142761904Y-94390476D01*
X142809523Y-94295238D01*
X142904761Y-94200000D01*
X143047619Y-94152380D01*
X143142857Y-94152380D01*
X143285714Y-94200000D01*
X143333333Y-94247619D01*
X144190476Y-94152380D02*
X144000000Y-94152380D01*
X143904761Y-94200000D01*
X143857142Y-94247619D01*
X143761904Y-94390476D01*
X143714285Y-94580952D01*
X143714285Y-94961904D01*
X143761904Y-95057142D01*
X143809523Y-95104761D01*
X143904761Y-95152380D01*
X144095238Y-95152380D01*
X144190476Y-95104761D01*
X144238095Y-95057142D01*
X144285714Y-94961904D01*
X144285714Y-94723809D01*
X144238095Y-94628571D01*
X144190476Y-94580952D01*
X144095238Y-94533333D01*
X143904761Y-94533333D01*
X143809523Y-94580952D01*
X143761904Y-94628571D01*
X143714285Y-94723809D01*
%TO.C,C5*%
X167933333Y-105657142D02*
X167885714Y-105704761D01*
X167742857Y-105752380D01*
X167647619Y-105752380D01*
X167504761Y-105704761D01*
X167409523Y-105609523D01*
X167361904Y-105514285D01*
X167314285Y-105323809D01*
X167314285Y-105180952D01*
X167361904Y-104990476D01*
X167409523Y-104895238D01*
X167504761Y-104800000D01*
X167647619Y-104752380D01*
X167742857Y-104752380D01*
X167885714Y-104800000D01*
X167933333Y-104847619D01*
X168838095Y-104752380D02*
X168361904Y-104752380D01*
X168314285Y-105228571D01*
X168361904Y-105180952D01*
X168457142Y-105133333D01*
X168695238Y-105133333D01*
X168790476Y-105180952D01*
X168838095Y-105228571D01*
X168885714Y-105323809D01*
X168885714Y-105561904D01*
X168838095Y-105657142D01*
X168790476Y-105704761D01*
X168695238Y-105752380D01*
X168457142Y-105752380D01*
X168361904Y-105704761D01*
X168314285Y-105657142D01*
%TO.C,C4*%
X146133333Y-94357142D02*
X146085714Y-94404761D01*
X145942857Y-94452380D01*
X145847619Y-94452380D01*
X145704761Y-94404761D01*
X145609523Y-94309523D01*
X145561904Y-94214285D01*
X145514285Y-94023809D01*
X145514285Y-93880952D01*
X145561904Y-93690476D01*
X145609523Y-93595238D01*
X145704761Y-93500000D01*
X145847619Y-93452380D01*
X145942857Y-93452380D01*
X146085714Y-93500000D01*
X146133333Y-93547619D01*
X146990476Y-93785714D02*
X146990476Y-94452380D01*
X146752380Y-93404761D02*
X146514285Y-94119047D01*
X147133333Y-94119047D01*
%TD*%
M02*
