M48
INCH,TZ
T1C0.0118
T2C0.0157
T3C0.0394
T4C0.0197
%
G90
G05
T1
X55079Y-40079
X56201Y-40059
X57874Y-40059
X58780Y-37717
X59094Y-41969
X59449Y-39094
X60197Y-39094
X60630Y-41969
X61299Y-37913
X61575Y-36339
X61575Y-37677
X61693Y-38307
X61732Y-39173
X61969Y-38150
X62244Y-36339
X63002Y-38269
X63031Y-38583
X63071Y-37597
X63091Y-35630
X63147Y-39593
X64429Y-36929
X64961Y-36890
X68248Y-39429
T2
X51378Y-43583
X51417Y-35197
X51417Y-35551
X51535Y-41988
X52520Y-41102
X52638Y-43780
X52677Y-42677
X52854Y-36516
X52854Y-37205
X52992Y-35079
X52992Y-35591
X53386Y-38701
X53642Y-35925
X53642Y-36319
X53937Y-37205
X54035Y-35925
X54035Y-36319
X54094Y-42677
X54567Y-39173
X54606Y-43701
X54724Y-41850
X54724Y-42205
X54724Y-42559
X54803Y-41024
X54843Y-43307
X55079Y-41732
X55079Y-42087
X55079Y-42441
X55118Y-37205
X55118Y-39646
X55197Y-39173
X55394Y-35984
X55394Y-36339
X55433Y-37953
X55433Y-38425
X55551Y-35315
X55709Y-41063
X55748Y-35984
X55748Y-36339
X56220Y-39488
X56339Y-42677
X56339Y-43819
X56417Y-38543
X56496Y-37500
X56575Y-41614
X57165Y-42677
X57165Y-43780
X57205Y-41181
X57283Y-37402
X57323Y-39449
X57362Y-38346
X57598Y-35000
X57874Y-41496
X57874Y-42756
X58169Y-37008
X58268Y-35591
X58386Y-42480
X58386Y-43661
X58543Y-36457
X58780Y-39390
X58799Y-41122
X58976Y-42441
X59291Y-38465
X59685Y-35039
X59685Y-37480
X59685Y-42756
X59724Y-43819
X59803Y-41457
X60039Y-38661
X60394Y-35118
X60630Y-37520
X60630Y-43780
X60669Y-42598
X61063Y-35118
X61319Y-39094
X61378Y-36811
X61575Y-37244
X61614Y-42795
X61614Y-43780
X62008Y-37638
X62362Y-41142
X62362Y-41654
X62402Y-42283
X62559Y-37323
X62559Y-38937
X62835Y-43661
X62874Y-35984
X62932Y-35313
X62953Y-39961
X63228Y-40748
X63425Y-41575
X63504Y-42835
X63543Y-36850
X63898Y-40512
X64094Y-37874
X64094Y-39528
X64646Y-41929
X64685Y-43701
X64929Y-38701
X64961Y-40866
X65000Y-35079
X65000Y-35433
X65000Y-35787
X65000Y-36142
X65118Y-36535
X65472Y-36260
X65472Y-42874
X65512Y-36654
X65591Y-41457
X65748Y-37874
X65748Y-39528
X66063Y-35079
X66063Y-35551
X66220Y-36929
X66457Y-36575
X66614Y-43583
X66654Y-37047
X66654Y-42402
X66693Y-36260
X66693Y-40866
X66772Y-38031
X66772Y-38465
X66772Y-41417
T3
X52047Y-43307
X53047Y-43307
X54047Y-43307
X55669Y-43346
X56669Y-43346
X57669Y-43346
X59126Y-43346
X60126Y-43346
X61126Y-43346
X62126Y-43346
X69094Y-36850
X69094Y-37850
X69094Y-38850
X69094Y-39850
X69094Y-40850
X69094Y-41850
T4
X67047Y-38780
X67047Y-39390
X67047Y-39961
T0
M30
