%TF.GenerationSoftware,KiCad,Pcbnew,(5.1.9)-1*%
%TF.CreationDate,2021-05-08T20:51:41+01:00*%
%TF.ProjectId,TSDZ2-ESP32-Alt,5453445a-322d-4455-9350-33322d416c74,A*%
%TF.SameCoordinates,Original*%
%TF.FileFunction,Profile,NP*%
%FSLAX46Y46*%
G04 Gerber Fmt 4.6, Leading zero omitted, Abs format (unit mm)*
G04 Created by KiCad (PCBNEW (5.1.9)-1) date 2021-05-08 20:51:41*
%MOMM*%
%LPD*%
G01*
G04 APERTURE LIST*
%TA.AperFunction,Profile*%
%ADD10C,0.200000*%
%TD*%
G04 APERTURE END LIST*
D10*
X172500000Y-91750000D02*
X172500000Y-97600000D01*
X172500000Y-91750000D02*
G75*
G02*
X173250000Y-91000000I750000J0D01*
G01*
X172500000Y-97600000D02*
G75*
G02*
X171600000Y-98500000I-900000J0D01*
G01*
X177750000Y-91000000D02*
X173250000Y-91000000D01*
X171600000Y-98500000D02*
X171400000Y-98500000D01*
X177750000Y-91000000D02*
G75*
G02*
X178500000Y-91750000I0J-750000D01*
G01*
X171400000Y-98500000D02*
G75*
G02*
X170500000Y-97600000I0J900000D01*
G01*
X178500000Y-108250000D02*
X178500000Y-91750000D01*
X170500000Y-97600000D02*
X170500000Y-89500000D01*
X178500000Y-108250000D02*
G75*
G02*
X177750000Y-109000000I-750000J0D01*
G01*
X169000000Y-88000000D02*
G75*
G02*
X170500000Y-89500000I0J-1500000D01*
G01*
X173250000Y-109000000D02*
X177750000Y-109000000D01*
X131000000Y-88000000D02*
X169000000Y-88000000D01*
X173250000Y-109000000D02*
G75*
G02*
X172500000Y-108250000I0J750000D01*
G01*
X129500000Y-89500000D02*
G75*
G02*
X131000000Y-88000000I1500000J0D01*
G01*
X172500000Y-108250000D02*
X172500000Y-102400000D01*
X129500000Y-110500000D02*
X129500000Y-89500000D01*
X171600000Y-101500000D02*
G75*
G02*
X172500000Y-102400000I0J-900000D01*
G01*
X131000000Y-112000000D02*
G75*
G02*
X129500000Y-110500000I0J1500000D01*
G01*
X171600000Y-101500000D02*
X171400000Y-101500000D01*
X169000000Y-112000000D02*
X131000000Y-112000000D01*
X170500000Y-102400000D02*
G75*
G02*
X171400000Y-101500000I900000J0D01*
G01*
X170500000Y-110500000D02*
G75*
G02*
X169000000Y-112000000I-1500000J0D01*
G01*
X170500000Y-102400000D02*
X170500000Y-110500000D01*
M02*
