%TF.GenerationSoftware,KiCad,Pcbnew,(5.1.9)-1*%
%TF.CreationDate,2021-05-08T20:51:41+01:00*%
%TF.ProjectId,TSDZ2-ESP32-Alt,5453445a-322d-4455-9350-33322d416c74,A*%
%TF.SameCoordinates,Original*%
%TF.FileFunction,Paste,Top*%
%TF.FilePolarity,Positive*%
%FSLAX46Y46*%
G04 Gerber Fmt 4.6, Leading zero omitted, Abs format (unit mm)*
G04 Created by KiCad (PCBNEW (5.1.9)-1) date 2021-05-08 20:51:41*
%MOMM*%
%LPD*%
G01*
G04 APERTURE LIST*
%ADD10R,2.000000X1.500000*%
%ADD11R,2.000000X3.800000*%
%ADD12R,0.650000X1.560000*%
%ADD13R,0.300000X0.850000*%
%ADD14R,5.700000X1.600000*%
G04 APERTURE END LIST*
D10*
%TO.C,U2*%
X132550000Y-89500000D03*
X132550000Y-94100000D03*
X132550000Y-91800000D03*
D11*
X138850000Y-91800000D03*
%TD*%
%TO.C,R9*%
G36*
G01*
X130662500Y-104875000D02*
X131137500Y-104875000D01*
G75*
G02*
X131375000Y-105112500I0J-237500D01*
G01*
X131375000Y-105612500D01*
G75*
G02*
X131137500Y-105850000I-237500J0D01*
G01*
X130662500Y-105850000D01*
G75*
G02*
X130425000Y-105612500I0J237500D01*
G01*
X130425000Y-105112500D01*
G75*
G02*
X130662500Y-104875000I237500J0D01*
G01*
G37*
G36*
G01*
X130662500Y-103050000D02*
X131137500Y-103050000D01*
G75*
G02*
X131375000Y-103287500I0J-237500D01*
G01*
X131375000Y-103787500D01*
G75*
G02*
X131137500Y-104025000I-237500J0D01*
G01*
X130662500Y-104025000D01*
G75*
G02*
X130425000Y-103787500I0J237500D01*
G01*
X130425000Y-103287500D01*
G75*
G02*
X130662500Y-103050000I237500J0D01*
G01*
G37*
%TD*%
%TO.C,R8*%
G36*
G01*
X149537500Y-97175000D02*
X149062500Y-97175000D01*
G75*
G02*
X148825000Y-96937500I0J237500D01*
G01*
X148825000Y-96437500D01*
G75*
G02*
X149062500Y-96200000I237500J0D01*
G01*
X149537500Y-96200000D01*
G75*
G02*
X149775000Y-96437500I0J-237500D01*
G01*
X149775000Y-96937500D01*
G75*
G02*
X149537500Y-97175000I-237500J0D01*
G01*
G37*
G36*
G01*
X149537500Y-99000000D02*
X149062500Y-99000000D01*
G75*
G02*
X148825000Y-98762500I0J237500D01*
G01*
X148825000Y-98262500D01*
G75*
G02*
X149062500Y-98025000I237500J0D01*
G01*
X149537500Y-98025000D01*
G75*
G02*
X149775000Y-98262500I0J-237500D01*
G01*
X149775000Y-98762500D01*
G75*
G02*
X149537500Y-99000000I-237500J0D01*
G01*
G37*
%TD*%
%TO.C,J1*%
G36*
G01*
X167300000Y-92200000D02*
X167300000Y-91450000D01*
G75*
G02*
X167450000Y-91300000I150000J0D01*
G01*
X168150000Y-91300000D01*
G75*
G02*
X168300000Y-91450000I0J-150000D01*
G01*
X168300000Y-92200000D01*
G75*
G02*
X168150000Y-92350000I-150000J0D01*
G01*
X167450000Y-92350000D01*
G75*
G02*
X167300000Y-92200000I0J150000D01*
G01*
G37*
G36*
G01*
X165800000Y-91242500D02*
X165800000Y-89357500D01*
G75*
G02*
X165957500Y-89200000I157500J0D01*
G01*
X166692500Y-89200000D01*
G75*
G02*
X166850000Y-89357500I0J-157500D01*
G01*
X166850000Y-91242500D01*
G75*
G02*
X166692500Y-91400000I-157500J0D01*
G01*
X165957500Y-91400000D01*
G75*
G02*
X165800000Y-91242500I0J157500D01*
G01*
G37*
G36*
G01*
X168750000Y-91242500D02*
X168750000Y-89357500D01*
G75*
G02*
X168907500Y-89200000I157500J0D01*
G01*
X169642500Y-89200000D01*
G75*
G02*
X169800000Y-89357500I0J-157500D01*
G01*
X169800000Y-91242500D01*
G75*
G02*
X169642500Y-91400000I-157500J0D01*
G01*
X168907500Y-91400000D01*
G75*
G02*
X168750000Y-91242500I0J157500D01*
G01*
G37*
%TD*%
D12*
%TO.C,U8*%
X155800000Y-103550000D03*
X156750000Y-103550000D03*
X154850000Y-103550000D03*
X154850000Y-100850000D03*
X155800000Y-100850000D03*
X156750000Y-100850000D03*
%TD*%
%TO.C,U4*%
X151900000Y-100850000D03*
X150950000Y-100850000D03*
X152850000Y-100850000D03*
X152850000Y-103550000D03*
X151900000Y-103550000D03*
X150950000Y-103550000D03*
%TD*%
%TO.C,C2*%
G36*
G01*
X149062500Y-102550000D02*
X149537500Y-102550000D01*
G75*
G02*
X149775000Y-102787500I0J-237500D01*
G01*
X149775000Y-103362500D01*
G75*
G02*
X149537500Y-103600000I-237500J0D01*
G01*
X149062500Y-103600000D01*
G75*
G02*
X148825000Y-103362500I0J237500D01*
G01*
X148825000Y-102787500D01*
G75*
G02*
X149062500Y-102550000I237500J0D01*
G01*
G37*
G36*
G01*
X149062500Y-100800000D02*
X149537500Y-100800000D01*
G75*
G02*
X149775000Y-101037500I0J-237500D01*
G01*
X149775000Y-101612500D01*
G75*
G02*
X149537500Y-101850000I-237500J0D01*
G01*
X149062500Y-101850000D01*
G75*
G02*
X148825000Y-101612500I0J237500D01*
G01*
X148825000Y-101037500D01*
G75*
G02*
X149062500Y-100800000I237500J0D01*
G01*
G37*
%TD*%
%TO.C,R7*%
G36*
G01*
X155462500Y-107025000D02*
X155937500Y-107025000D01*
G75*
G02*
X156175000Y-107262500I0J-237500D01*
G01*
X156175000Y-107762500D01*
G75*
G02*
X155937500Y-108000000I-237500J0D01*
G01*
X155462500Y-108000000D01*
G75*
G02*
X155225000Y-107762500I0J237500D01*
G01*
X155225000Y-107262500D01*
G75*
G02*
X155462500Y-107025000I237500J0D01*
G01*
G37*
G36*
G01*
X155462500Y-105200000D02*
X155937500Y-105200000D01*
G75*
G02*
X156175000Y-105437500I0J-237500D01*
G01*
X156175000Y-105937500D01*
G75*
G02*
X155937500Y-106175000I-237500J0D01*
G01*
X155462500Y-106175000D01*
G75*
G02*
X155225000Y-105937500I0J237500D01*
G01*
X155225000Y-105437500D01*
G75*
G02*
X155462500Y-105200000I237500J0D01*
G01*
G37*
%TD*%
%TO.C,C14*%
G36*
G01*
X158637500Y-101950000D02*
X158162500Y-101950000D01*
G75*
G02*
X157925000Y-101712500I0J237500D01*
G01*
X157925000Y-101137500D01*
G75*
G02*
X158162500Y-100900000I237500J0D01*
G01*
X158637500Y-100900000D01*
G75*
G02*
X158875000Y-101137500I0J-237500D01*
G01*
X158875000Y-101712500D01*
G75*
G02*
X158637500Y-101950000I-237500J0D01*
G01*
G37*
G36*
G01*
X158637500Y-103700000D02*
X158162500Y-103700000D01*
G75*
G02*
X157925000Y-103462500I0J237500D01*
G01*
X157925000Y-102887500D01*
G75*
G02*
X158162500Y-102650000I237500J0D01*
G01*
X158637500Y-102650000D01*
G75*
G02*
X158875000Y-102887500I0J-237500D01*
G01*
X158875000Y-103462500D01*
G75*
G02*
X158637500Y-103700000I-237500J0D01*
G01*
G37*
%TD*%
%TO.C,C3*%
G36*
G01*
X136875000Y-107400001D02*
X136875000Y-105199999D01*
G75*
G02*
X137124999Y-104950000I249999J0D01*
G01*
X137775001Y-104950000D01*
G75*
G02*
X138025000Y-105199999I0J-249999D01*
G01*
X138025000Y-107400001D01*
G75*
G02*
X137775001Y-107650000I-249999J0D01*
G01*
X137124999Y-107650000D01*
G75*
G02*
X136875000Y-107400001I0J249999D01*
G01*
G37*
G36*
G01*
X133925000Y-107400001D02*
X133925000Y-105199999D01*
G75*
G02*
X134174999Y-104950000I249999J0D01*
G01*
X134825001Y-104950000D01*
G75*
G02*
X135075000Y-105199999I0J-249999D01*
G01*
X135075000Y-107400001D01*
G75*
G02*
X134825001Y-107650000I-249999J0D01*
G01*
X134174999Y-107650000D01*
G75*
G02*
X133925000Y-107400001I0J249999D01*
G01*
G37*
%TD*%
%TO.C,C1*%
G36*
G01*
X163450001Y-90150000D02*
X162549999Y-90150000D01*
G75*
G02*
X162300000Y-89900001I0J249999D01*
G01*
X162300000Y-89249999D01*
G75*
G02*
X162549999Y-89000000I249999J0D01*
G01*
X163450001Y-89000000D01*
G75*
G02*
X163700000Y-89249999I0J-249999D01*
G01*
X163700000Y-89900001D01*
G75*
G02*
X163450001Y-90150000I-249999J0D01*
G01*
G37*
G36*
G01*
X163450001Y-92200000D02*
X162549999Y-92200000D01*
G75*
G02*
X162300000Y-91950001I0J249999D01*
G01*
X162300000Y-91299999D01*
G75*
G02*
X162549999Y-91050000I249999J0D01*
G01*
X163450001Y-91050000D01*
G75*
G02*
X163700000Y-91299999I0J-249999D01*
G01*
X163700000Y-91950001D01*
G75*
G02*
X163450001Y-92200000I-249999J0D01*
G01*
G37*
%TD*%
D13*
%TO.C,U7*%
X137650000Y-100850000D03*
X138150000Y-100850000D03*
X138650000Y-100850000D03*
X139150000Y-100850000D03*
X139150000Y-102750000D03*
X138650000Y-102750000D03*
X138150000Y-102750000D03*
X137650000Y-102750000D03*
%TD*%
D14*
%TO.C,L1*%
X133200000Y-96450000D03*
X133200000Y-101150000D03*
%TD*%
%TO.C,C13*%
G36*
G01*
X138750000Y-98750450D02*
X138750000Y-97849550D01*
G75*
G02*
X138999550Y-97600000I249550J0D01*
G01*
X139650450Y-97600000D01*
G75*
G02*
X139900000Y-97849550I0J-249550D01*
G01*
X139900000Y-98750450D01*
G75*
G02*
X139650450Y-99000000I-249550J0D01*
G01*
X138999550Y-99000000D01*
G75*
G02*
X138750000Y-98750450I0J249550D01*
G01*
G37*
G36*
G01*
X136700000Y-98750450D02*
X136700000Y-97849550D01*
G75*
G02*
X136949550Y-97600000I249550J0D01*
G01*
X137600450Y-97600000D01*
G75*
G02*
X137850000Y-97849550I0J-249550D01*
G01*
X137850000Y-98750450D01*
G75*
G02*
X137600450Y-99000000I-249550J0D01*
G01*
X136949550Y-99000000D01*
G75*
G02*
X136700000Y-98750450I0J249550D01*
G01*
G37*
%TD*%
%TO.C,C12*%
G36*
G01*
X138750000Y-96850450D02*
X138750000Y-95949550D01*
G75*
G02*
X138999550Y-95700000I249550J0D01*
G01*
X139650450Y-95700000D01*
G75*
G02*
X139900000Y-95949550I0J-249550D01*
G01*
X139900000Y-96850450D01*
G75*
G02*
X139650450Y-97100000I-249550J0D01*
G01*
X138999550Y-97100000D01*
G75*
G02*
X138750000Y-96850450I0J249550D01*
G01*
G37*
G36*
G01*
X136700000Y-96850450D02*
X136700000Y-95949550D01*
G75*
G02*
X136949550Y-95700000I249550J0D01*
G01*
X137600450Y-95700000D01*
G75*
G02*
X137850000Y-95949550I0J-249550D01*
G01*
X137850000Y-96850450D01*
G75*
G02*
X137600450Y-97100000I-249550J0D01*
G01*
X136949550Y-97100000D01*
G75*
G02*
X136700000Y-96850450I0J249550D01*
G01*
G37*
%TD*%
%TO.C,C11*%
G36*
G01*
X141437500Y-99550000D02*
X140962500Y-99550000D01*
G75*
G02*
X140725000Y-99312500I0J237500D01*
G01*
X140725000Y-98737500D01*
G75*
G02*
X140962500Y-98500000I237500J0D01*
G01*
X141437500Y-98500000D01*
G75*
G02*
X141675000Y-98737500I0J-237500D01*
G01*
X141675000Y-99312500D01*
G75*
G02*
X141437500Y-99550000I-237500J0D01*
G01*
G37*
G36*
G01*
X141437500Y-101300000D02*
X140962500Y-101300000D01*
G75*
G02*
X140725000Y-101062500I0J237500D01*
G01*
X140725000Y-100487500D01*
G75*
G02*
X140962500Y-100250000I237500J0D01*
G01*
X141437500Y-100250000D01*
G75*
G02*
X141675000Y-100487500I0J-237500D01*
G01*
X141675000Y-101062500D01*
G75*
G02*
X141437500Y-101300000I-237500J0D01*
G01*
G37*
%TD*%
D12*
%TO.C,U1*%
X151600000Y-90650000D03*
X150650000Y-90650000D03*
X152550000Y-90650000D03*
X152550000Y-93350000D03*
X151600000Y-93350000D03*
X150650000Y-93350000D03*
%TD*%
%TO.C,U5*%
G36*
G01*
X162655000Y-99745000D02*
X163225000Y-99745000D01*
G75*
G02*
X163475000Y-99995000I0J-250000D01*
G01*
X163475000Y-100565000D01*
G75*
G02*
X163225000Y-100815000I-250000J0D01*
G01*
X162655000Y-100815000D01*
G75*
G02*
X162405000Y-100565000I0J250000D01*
G01*
X162405000Y-99995000D01*
G75*
G02*
X162655000Y-99745000I250000J0D01*
G01*
G37*
G36*
G01*
X163975000Y-99745000D02*
X164545000Y-99745000D01*
G75*
G02*
X164795000Y-99995000I0J-250000D01*
G01*
X164795000Y-100565000D01*
G75*
G02*
X164545000Y-100815000I-250000J0D01*
G01*
X163975000Y-100815000D01*
G75*
G02*
X163725000Y-100565000I0J250000D01*
G01*
X163725000Y-99995000D01*
G75*
G02*
X163975000Y-99745000I250000J0D01*
G01*
G37*
G36*
G01*
X165295000Y-99745000D02*
X165865000Y-99745000D01*
G75*
G02*
X166115000Y-99995000I0J-250000D01*
G01*
X166115000Y-100565000D01*
G75*
G02*
X165865000Y-100815000I-250000J0D01*
G01*
X165295000Y-100815000D01*
G75*
G02*
X165045000Y-100565000I0J250000D01*
G01*
X165045000Y-99995000D01*
G75*
G02*
X165295000Y-99745000I250000J0D01*
G01*
G37*
G36*
G01*
X166615000Y-99745000D02*
X167185000Y-99745000D01*
G75*
G02*
X167435000Y-99995000I0J-250000D01*
G01*
X167435000Y-100565000D01*
G75*
G02*
X167185000Y-100815000I-250000J0D01*
G01*
X166615000Y-100815000D01*
G75*
G02*
X166365000Y-100565000I0J250000D01*
G01*
X166365000Y-99995000D01*
G75*
G02*
X166615000Y-99745000I250000J0D01*
G01*
G37*
G36*
G01*
X162655000Y-98425000D02*
X163225000Y-98425000D01*
G75*
G02*
X163475000Y-98675000I0J-250000D01*
G01*
X163475000Y-99245000D01*
G75*
G02*
X163225000Y-99495000I-250000J0D01*
G01*
X162655000Y-99495000D01*
G75*
G02*
X162405000Y-99245000I0J250000D01*
G01*
X162405000Y-98675000D01*
G75*
G02*
X162655000Y-98425000I250000J0D01*
G01*
G37*
G36*
G01*
X163975000Y-98425000D02*
X164545000Y-98425000D01*
G75*
G02*
X164795000Y-98675000I0J-250000D01*
G01*
X164795000Y-99245000D01*
G75*
G02*
X164545000Y-99495000I-250000J0D01*
G01*
X163975000Y-99495000D01*
G75*
G02*
X163725000Y-99245000I0J250000D01*
G01*
X163725000Y-98675000D01*
G75*
G02*
X163975000Y-98425000I250000J0D01*
G01*
G37*
G36*
G01*
X165295000Y-98425000D02*
X165865000Y-98425000D01*
G75*
G02*
X166115000Y-98675000I0J-250000D01*
G01*
X166115000Y-99245000D01*
G75*
G02*
X165865000Y-99495000I-250000J0D01*
G01*
X165295000Y-99495000D01*
G75*
G02*
X165045000Y-99245000I0J250000D01*
G01*
X165045000Y-98675000D01*
G75*
G02*
X165295000Y-98425000I250000J0D01*
G01*
G37*
G36*
G01*
X166615000Y-98425000D02*
X167185000Y-98425000D01*
G75*
G02*
X167435000Y-98675000I0J-250000D01*
G01*
X167435000Y-99245000D01*
G75*
G02*
X167185000Y-99495000I-250000J0D01*
G01*
X166615000Y-99495000D01*
G75*
G02*
X166365000Y-99245000I0J250000D01*
G01*
X166365000Y-98675000D01*
G75*
G02*
X166615000Y-98425000I250000J0D01*
G01*
G37*
G36*
G01*
X162655000Y-97105000D02*
X163225000Y-97105000D01*
G75*
G02*
X163475000Y-97355000I0J-250000D01*
G01*
X163475000Y-97925000D01*
G75*
G02*
X163225000Y-98175000I-250000J0D01*
G01*
X162655000Y-98175000D01*
G75*
G02*
X162405000Y-97925000I0J250000D01*
G01*
X162405000Y-97355000D01*
G75*
G02*
X162655000Y-97105000I250000J0D01*
G01*
G37*
G36*
G01*
X163975000Y-97105000D02*
X164545000Y-97105000D01*
G75*
G02*
X164795000Y-97355000I0J-250000D01*
G01*
X164795000Y-97925000D01*
G75*
G02*
X164545000Y-98175000I-250000J0D01*
G01*
X163975000Y-98175000D01*
G75*
G02*
X163725000Y-97925000I0J250000D01*
G01*
X163725000Y-97355000D01*
G75*
G02*
X163975000Y-97105000I250000J0D01*
G01*
G37*
G36*
G01*
X165295000Y-97105000D02*
X165865000Y-97105000D01*
G75*
G02*
X166115000Y-97355000I0J-250000D01*
G01*
X166115000Y-97925000D01*
G75*
G02*
X165865000Y-98175000I-250000J0D01*
G01*
X165295000Y-98175000D01*
G75*
G02*
X165045000Y-97925000I0J250000D01*
G01*
X165045000Y-97355000D01*
G75*
G02*
X165295000Y-97105000I250000J0D01*
G01*
G37*
G36*
G01*
X166615000Y-97105000D02*
X167185000Y-97105000D01*
G75*
G02*
X167435000Y-97355000I0J-250000D01*
G01*
X167435000Y-97925000D01*
G75*
G02*
X167185000Y-98175000I-250000J0D01*
G01*
X166615000Y-98175000D01*
G75*
G02*
X166365000Y-97925000I0J250000D01*
G01*
X166365000Y-97355000D01*
G75*
G02*
X166615000Y-97105000I250000J0D01*
G01*
G37*
G36*
G01*
X162655000Y-95785000D02*
X163225000Y-95785000D01*
G75*
G02*
X163475000Y-96035000I0J-250000D01*
G01*
X163475000Y-96605000D01*
G75*
G02*
X163225000Y-96855000I-250000J0D01*
G01*
X162655000Y-96855000D01*
G75*
G02*
X162405000Y-96605000I0J250000D01*
G01*
X162405000Y-96035000D01*
G75*
G02*
X162655000Y-95785000I250000J0D01*
G01*
G37*
G36*
G01*
X163975000Y-95785000D02*
X164545000Y-95785000D01*
G75*
G02*
X164795000Y-96035000I0J-250000D01*
G01*
X164795000Y-96605000D01*
G75*
G02*
X164545000Y-96855000I-250000J0D01*
G01*
X163975000Y-96855000D01*
G75*
G02*
X163725000Y-96605000I0J250000D01*
G01*
X163725000Y-96035000D01*
G75*
G02*
X163975000Y-95785000I250000J0D01*
G01*
G37*
G36*
G01*
X165295000Y-95785000D02*
X165865000Y-95785000D01*
G75*
G02*
X166115000Y-96035000I0J-250000D01*
G01*
X166115000Y-96605000D01*
G75*
G02*
X165865000Y-96855000I-250000J0D01*
G01*
X165295000Y-96855000D01*
G75*
G02*
X165045000Y-96605000I0J250000D01*
G01*
X165045000Y-96035000D01*
G75*
G02*
X165295000Y-95785000I250000J0D01*
G01*
G37*
G36*
G01*
X166615000Y-95785000D02*
X167185000Y-95785000D01*
G75*
G02*
X167435000Y-96035000I0J-250000D01*
G01*
X167435000Y-96605000D01*
G75*
G02*
X167185000Y-96855000I-250000J0D01*
G01*
X166615000Y-96855000D01*
G75*
G02*
X166365000Y-96605000I0J250000D01*
G01*
X166365000Y-96035000D01*
G75*
G02*
X166615000Y-95785000I250000J0D01*
G01*
G37*
G36*
G01*
X168032500Y-95425000D02*
X168707500Y-95425000D01*
G75*
G02*
X168770000Y-95487500I0J-62500D01*
G01*
X168770000Y-95612500D01*
G75*
G02*
X168707500Y-95675000I-62500J0D01*
G01*
X168032500Y-95675000D01*
G75*
G02*
X167970000Y-95612500I0J62500D01*
G01*
X167970000Y-95487500D01*
G75*
G02*
X168032500Y-95425000I62500J0D01*
G01*
G37*
G36*
G01*
X168032500Y-95925000D02*
X168707500Y-95925000D01*
G75*
G02*
X168770000Y-95987500I0J-62500D01*
G01*
X168770000Y-96112500D01*
G75*
G02*
X168707500Y-96175000I-62500J0D01*
G01*
X168032500Y-96175000D01*
G75*
G02*
X167970000Y-96112500I0J62500D01*
G01*
X167970000Y-95987500D01*
G75*
G02*
X168032500Y-95925000I62500J0D01*
G01*
G37*
G36*
G01*
X168032500Y-96425000D02*
X168707500Y-96425000D01*
G75*
G02*
X168770000Y-96487500I0J-62500D01*
G01*
X168770000Y-96612500D01*
G75*
G02*
X168707500Y-96675000I-62500J0D01*
G01*
X168032500Y-96675000D01*
G75*
G02*
X167970000Y-96612500I0J62500D01*
G01*
X167970000Y-96487500D01*
G75*
G02*
X168032500Y-96425000I62500J0D01*
G01*
G37*
G36*
G01*
X168032500Y-96925000D02*
X168707500Y-96925000D01*
G75*
G02*
X168770000Y-96987500I0J-62500D01*
G01*
X168770000Y-97112500D01*
G75*
G02*
X168707500Y-97175000I-62500J0D01*
G01*
X168032500Y-97175000D01*
G75*
G02*
X167970000Y-97112500I0J62500D01*
G01*
X167970000Y-96987500D01*
G75*
G02*
X168032500Y-96925000I62500J0D01*
G01*
G37*
G36*
G01*
X168032500Y-97425000D02*
X168707500Y-97425000D01*
G75*
G02*
X168770000Y-97487500I0J-62500D01*
G01*
X168770000Y-97612500D01*
G75*
G02*
X168707500Y-97675000I-62500J0D01*
G01*
X168032500Y-97675000D01*
G75*
G02*
X167970000Y-97612500I0J62500D01*
G01*
X167970000Y-97487500D01*
G75*
G02*
X168032500Y-97425000I62500J0D01*
G01*
G37*
G36*
G01*
X168032500Y-97925000D02*
X168707500Y-97925000D01*
G75*
G02*
X168770000Y-97987500I0J-62500D01*
G01*
X168770000Y-98112500D01*
G75*
G02*
X168707500Y-98175000I-62500J0D01*
G01*
X168032500Y-98175000D01*
G75*
G02*
X167970000Y-98112500I0J62500D01*
G01*
X167970000Y-97987500D01*
G75*
G02*
X168032500Y-97925000I62500J0D01*
G01*
G37*
G36*
G01*
X168032500Y-98425000D02*
X168707500Y-98425000D01*
G75*
G02*
X168770000Y-98487500I0J-62500D01*
G01*
X168770000Y-98612500D01*
G75*
G02*
X168707500Y-98675000I-62500J0D01*
G01*
X168032500Y-98675000D01*
G75*
G02*
X167970000Y-98612500I0J62500D01*
G01*
X167970000Y-98487500D01*
G75*
G02*
X168032500Y-98425000I62500J0D01*
G01*
G37*
G36*
G01*
X168032500Y-98925000D02*
X168707500Y-98925000D01*
G75*
G02*
X168770000Y-98987500I0J-62500D01*
G01*
X168770000Y-99112500D01*
G75*
G02*
X168707500Y-99175000I-62500J0D01*
G01*
X168032500Y-99175000D01*
G75*
G02*
X167970000Y-99112500I0J62500D01*
G01*
X167970000Y-98987500D01*
G75*
G02*
X168032500Y-98925000I62500J0D01*
G01*
G37*
G36*
G01*
X168032500Y-99425000D02*
X168707500Y-99425000D01*
G75*
G02*
X168770000Y-99487500I0J-62500D01*
G01*
X168770000Y-99612500D01*
G75*
G02*
X168707500Y-99675000I-62500J0D01*
G01*
X168032500Y-99675000D01*
G75*
G02*
X167970000Y-99612500I0J62500D01*
G01*
X167970000Y-99487500D01*
G75*
G02*
X168032500Y-99425000I62500J0D01*
G01*
G37*
G36*
G01*
X168032500Y-99925000D02*
X168707500Y-99925000D01*
G75*
G02*
X168770000Y-99987500I0J-62500D01*
G01*
X168770000Y-100112500D01*
G75*
G02*
X168707500Y-100175000I-62500J0D01*
G01*
X168032500Y-100175000D01*
G75*
G02*
X167970000Y-100112500I0J62500D01*
G01*
X167970000Y-99987500D01*
G75*
G02*
X168032500Y-99925000I62500J0D01*
G01*
G37*
G36*
G01*
X168032500Y-100425000D02*
X168707500Y-100425000D01*
G75*
G02*
X168770000Y-100487500I0J-62500D01*
G01*
X168770000Y-100612500D01*
G75*
G02*
X168707500Y-100675000I-62500J0D01*
G01*
X168032500Y-100675000D01*
G75*
G02*
X167970000Y-100612500I0J62500D01*
G01*
X167970000Y-100487500D01*
G75*
G02*
X168032500Y-100425000I62500J0D01*
G01*
G37*
G36*
G01*
X168032500Y-100925000D02*
X168707500Y-100925000D01*
G75*
G02*
X168770000Y-100987500I0J-62500D01*
G01*
X168770000Y-101112500D01*
G75*
G02*
X168707500Y-101175000I-62500J0D01*
G01*
X168032500Y-101175000D01*
G75*
G02*
X167970000Y-101112500I0J62500D01*
G01*
X167970000Y-100987500D01*
G75*
G02*
X168032500Y-100925000I62500J0D01*
G01*
G37*
G36*
G01*
X167607500Y-101350000D02*
X167732500Y-101350000D01*
G75*
G02*
X167795000Y-101412500I0J-62500D01*
G01*
X167795000Y-102087500D01*
G75*
G02*
X167732500Y-102150000I-62500J0D01*
G01*
X167607500Y-102150000D01*
G75*
G02*
X167545000Y-102087500I0J62500D01*
G01*
X167545000Y-101412500D01*
G75*
G02*
X167607500Y-101350000I62500J0D01*
G01*
G37*
G36*
G01*
X167107500Y-101350000D02*
X167232500Y-101350000D01*
G75*
G02*
X167295000Y-101412500I0J-62500D01*
G01*
X167295000Y-102087500D01*
G75*
G02*
X167232500Y-102150000I-62500J0D01*
G01*
X167107500Y-102150000D01*
G75*
G02*
X167045000Y-102087500I0J62500D01*
G01*
X167045000Y-101412500D01*
G75*
G02*
X167107500Y-101350000I62500J0D01*
G01*
G37*
G36*
G01*
X166607500Y-101350000D02*
X166732500Y-101350000D01*
G75*
G02*
X166795000Y-101412500I0J-62500D01*
G01*
X166795000Y-102087500D01*
G75*
G02*
X166732500Y-102150000I-62500J0D01*
G01*
X166607500Y-102150000D01*
G75*
G02*
X166545000Y-102087500I0J62500D01*
G01*
X166545000Y-101412500D01*
G75*
G02*
X166607500Y-101350000I62500J0D01*
G01*
G37*
G36*
G01*
X166107500Y-101350000D02*
X166232500Y-101350000D01*
G75*
G02*
X166295000Y-101412500I0J-62500D01*
G01*
X166295000Y-102087500D01*
G75*
G02*
X166232500Y-102150000I-62500J0D01*
G01*
X166107500Y-102150000D01*
G75*
G02*
X166045000Y-102087500I0J62500D01*
G01*
X166045000Y-101412500D01*
G75*
G02*
X166107500Y-101350000I62500J0D01*
G01*
G37*
G36*
G01*
X165607500Y-101350000D02*
X165732500Y-101350000D01*
G75*
G02*
X165795000Y-101412500I0J-62500D01*
G01*
X165795000Y-102087500D01*
G75*
G02*
X165732500Y-102150000I-62500J0D01*
G01*
X165607500Y-102150000D01*
G75*
G02*
X165545000Y-102087500I0J62500D01*
G01*
X165545000Y-101412500D01*
G75*
G02*
X165607500Y-101350000I62500J0D01*
G01*
G37*
G36*
G01*
X165107500Y-101350000D02*
X165232500Y-101350000D01*
G75*
G02*
X165295000Y-101412500I0J-62500D01*
G01*
X165295000Y-102087500D01*
G75*
G02*
X165232500Y-102150000I-62500J0D01*
G01*
X165107500Y-102150000D01*
G75*
G02*
X165045000Y-102087500I0J62500D01*
G01*
X165045000Y-101412500D01*
G75*
G02*
X165107500Y-101350000I62500J0D01*
G01*
G37*
G36*
G01*
X164607500Y-101350000D02*
X164732500Y-101350000D01*
G75*
G02*
X164795000Y-101412500I0J-62500D01*
G01*
X164795000Y-102087500D01*
G75*
G02*
X164732500Y-102150000I-62500J0D01*
G01*
X164607500Y-102150000D01*
G75*
G02*
X164545000Y-102087500I0J62500D01*
G01*
X164545000Y-101412500D01*
G75*
G02*
X164607500Y-101350000I62500J0D01*
G01*
G37*
G36*
G01*
X164107500Y-101350000D02*
X164232500Y-101350000D01*
G75*
G02*
X164295000Y-101412500I0J-62500D01*
G01*
X164295000Y-102087500D01*
G75*
G02*
X164232500Y-102150000I-62500J0D01*
G01*
X164107500Y-102150000D01*
G75*
G02*
X164045000Y-102087500I0J62500D01*
G01*
X164045000Y-101412500D01*
G75*
G02*
X164107500Y-101350000I62500J0D01*
G01*
G37*
G36*
G01*
X163607500Y-101350000D02*
X163732500Y-101350000D01*
G75*
G02*
X163795000Y-101412500I0J-62500D01*
G01*
X163795000Y-102087500D01*
G75*
G02*
X163732500Y-102150000I-62500J0D01*
G01*
X163607500Y-102150000D01*
G75*
G02*
X163545000Y-102087500I0J62500D01*
G01*
X163545000Y-101412500D01*
G75*
G02*
X163607500Y-101350000I62500J0D01*
G01*
G37*
G36*
G01*
X163107500Y-101350000D02*
X163232500Y-101350000D01*
G75*
G02*
X163295000Y-101412500I0J-62500D01*
G01*
X163295000Y-102087500D01*
G75*
G02*
X163232500Y-102150000I-62500J0D01*
G01*
X163107500Y-102150000D01*
G75*
G02*
X163045000Y-102087500I0J62500D01*
G01*
X163045000Y-101412500D01*
G75*
G02*
X163107500Y-101350000I62500J0D01*
G01*
G37*
G36*
G01*
X162607500Y-101350000D02*
X162732500Y-101350000D01*
G75*
G02*
X162795000Y-101412500I0J-62500D01*
G01*
X162795000Y-102087500D01*
G75*
G02*
X162732500Y-102150000I-62500J0D01*
G01*
X162607500Y-102150000D01*
G75*
G02*
X162545000Y-102087500I0J62500D01*
G01*
X162545000Y-101412500D01*
G75*
G02*
X162607500Y-101350000I62500J0D01*
G01*
G37*
G36*
G01*
X162107500Y-101350000D02*
X162232500Y-101350000D01*
G75*
G02*
X162295000Y-101412500I0J-62500D01*
G01*
X162295000Y-102087500D01*
G75*
G02*
X162232500Y-102150000I-62500J0D01*
G01*
X162107500Y-102150000D01*
G75*
G02*
X162045000Y-102087500I0J62500D01*
G01*
X162045000Y-101412500D01*
G75*
G02*
X162107500Y-101350000I62500J0D01*
G01*
G37*
G36*
G01*
X161132500Y-100925000D02*
X161807500Y-100925000D01*
G75*
G02*
X161870000Y-100987500I0J-62500D01*
G01*
X161870000Y-101112500D01*
G75*
G02*
X161807500Y-101175000I-62500J0D01*
G01*
X161132500Y-101175000D01*
G75*
G02*
X161070000Y-101112500I0J62500D01*
G01*
X161070000Y-100987500D01*
G75*
G02*
X161132500Y-100925000I62500J0D01*
G01*
G37*
G36*
G01*
X161132500Y-100425000D02*
X161807500Y-100425000D01*
G75*
G02*
X161870000Y-100487500I0J-62500D01*
G01*
X161870000Y-100612500D01*
G75*
G02*
X161807500Y-100675000I-62500J0D01*
G01*
X161132500Y-100675000D01*
G75*
G02*
X161070000Y-100612500I0J62500D01*
G01*
X161070000Y-100487500D01*
G75*
G02*
X161132500Y-100425000I62500J0D01*
G01*
G37*
G36*
G01*
X161132500Y-99925000D02*
X161807500Y-99925000D01*
G75*
G02*
X161870000Y-99987500I0J-62500D01*
G01*
X161870000Y-100112500D01*
G75*
G02*
X161807500Y-100175000I-62500J0D01*
G01*
X161132500Y-100175000D01*
G75*
G02*
X161070000Y-100112500I0J62500D01*
G01*
X161070000Y-99987500D01*
G75*
G02*
X161132500Y-99925000I62500J0D01*
G01*
G37*
G36*
G01*
X161132500Y-99425000D02*
X161807500Y-99425000D01*
G75*
G02*
X161870000Y-99487500I0J-62500D01*
G01*
X161870000Y-99612500D01*
G75*
G02*
X161807500Y-99675000I-62500J0D01*
G01*
X161132500Y-99675000D01*
G75*
G02*
X161070000Y-99612500I0J62500D01*
G01*
X161070000Y-99487500D01*
G75*
G02*
X161132500Y-99425000I62500J0D01*
G01*
G37*
G36*
G01*
X161132500Y-98925000D02*
X161807500Y-98925000D01*
G75*
G02*
X161870000Y-98987500I0J-62500D01*
G01*
X161870000Y-99112500D01*
G75*
G02*
X161807500Y-99175000I-62500J0D01*
G01*
X161132500Y-99175000D01*
G75*
G02*
X161070000Y-99112500I0J62500D01*
G01*
X161070000Y-98987500D01*
G75*
G02*
X161132500Y-98925000I62500J0D01*
G01*
G37*
G36*
G01*
X161132500Y-98425000D02*
X161807500Y-98425000D01*
G75*
G02*
X161870000Y-98487500I0J-62500D01*
G01*
X161870000Y-98612500D01*
G75*
G02*
X161807500Y-98675000I-62500J0D01*
G01*
X161132500Y-98675000D01*
G75*
G02*
X161070000Y-98612500I0J62500D01*
G01*
X161070000Y-98487500D01*
G75*
G02*
X161132500Y-98425000I62500J0D01*
G01*
G37*
G36*
G01*
X161132500Y-97925000D02*
X161807500Y-97925000D01*
G75*
G02*
X161870000Y-97987500I0J-62500D01*
G01*
X161870000Y-98112500D01*
G75*
G02*
X161807500Y-98175000I-62500J0D01*
G01*
X161132500Y-98175000D01*
G75*
G02*
X161070000Y-98112500I0J62500D01*
G01*
X161070000Y-97987500D01*
G75*
G02*
X161132500Y-97925000I62500J0D01*
G01*
G37*
G36*
G01*
X161132500Y-97425000D02*
X161807500Y-97425000D01*
G75*
G02*
X161870000Y-97487500I0J-62500D01*
G01*
X161870000Y-97612500D01*
G75*
G02*
X161807500Y-97675000I-62500J0D01*
G01*
X161132500Y-97675000D01*
G75*
G02*
X161070000Y-97612500I0J62500D01*
G01*
X161070000Y-97487500D01*
G75*
G02*
X161132500Y-97425000I62500J0D01*
G01*
G37*
G36*
G01*
X161132500Y-96925000D02*
X161807500Y-96925000D01*
G75*
G02*
X161870000Y-96987500I0J-62500D01*
G01*
X161870000Y-97112500D01*
G75*
G02*
X161807500Y-97175000I-62500J0D01*
G01*
X161132500Y-97175000D01*
G75*
G02*
X161070000Y-97112500I0J62500D01*
G01*
X161070000Y-96987500D01*
G75*
G02*
X161132500Y-96925000I62500J0D01*
G01*
G37*
G36*
G01*
X161132500Y-96425000D02*
X161807500Y-96425000D01*
G75*
G02*
X161870000Y-96487500I0J-62500D01*
G01*
X161870000Y-96612500D01*
G75*
G02*
X161807500Y-96675000I-62500J0D01*
G01*
X161132500Y-96675000D01*
G75*
G02*
X161070000Y-96612500I0J62500D01*
G01*
X161070000Y-96487500D01*
G75*
G02*
X161132500Y-96425000I62500J0D01*
G01*
G37*
G36*
G01*
X161132500Y-95925000D02*
X161807500Y-95925000D01*
G75*
G02*
X161870000Y-95987500I0J-62500D01*
G01*
X161870000Y-96112500D01*
G75*
G02*
X161807500Y-96175000I-62500J0D01*
G01*
X161132500Y-96175000D01*
G75*
G02*
X161070000Y-96112500I0J62500D01*
G01*
X161070000Y-95987500D01*
G75*
G02*
X161132500Y-95925000I62500J0D01*
G01*
G37*
G36*
G01*
X161132500Y-95425000D02*
X161807500Y-95425000D01*
G75*
G02*
X161870000Y-95487500I0J-62500D01*
G01*
X161870000Y-95612500D01*
G75*
G02*
X161807500Y-95675000I-62500J0D01*
G01*
X161132500Y-95675000D01*
G75*
G02*
X161070000Y-95612500I0J62500D01*
G01*
X161070000Y-95487500D01*
G75*
G02*
X161132500Y-95425000I62500J0D01*
G01*
G37*
G36*
G01*
X162107500Y-94450000D02*
X162232500Y-94450000D01*
G75*
G02*
X162295000Y-94512500I0J-62500D01*
G01*
X162295000Y-95187500D01*
G75*
G02*
X162232500Y-95250000I-62500J0D01*
G01*
X162107500Y-95250000D01*
G75*
G02*
X162045000Y-95187500I0J62500D01*
G01*
X162045000Y-94512500D01*
G75*
G02*
X162107500Y-94450000I62500J0D01*
G01*
G37*
G36*
G01*
X162607500Y-94450000D02*
X162732500Y-94450000D01*
G75*
G02*
X162795000Y-94512500I0J-62500D01*
G01*
X162795000Y-95187500D01*
G75*
G02*
X162732500Y-95250000I-62500J0D01*
G01*
X162607500Y-95250000D01*
G75*
G02*
X162545000Y-95187500I0J62500D01*
G01*
X162545000Y-94512500D01*
G75*
G02*
X162607500Y-94450000I62500J0D01*
G01*
G37*
G36*
G01*
X163107500Y-94450000D02*
X163232500Y-94450000D01*
G75*
G02*
X163295000Y-94512500I0J-62500D01*
G01*
X163295000Y-95187500D01*
G75*
G02*
X163232500Y-95250000I-62500J0D01*
G01*
X163107500Y-95250000D01*
G75*
G02*
X163045000Y-95187500I0J62500D01*
G01*
X163045000Y-94512500D01*
G75*
G02*
X163107500Y-94450000I62500J0D01*
G01*
G37*
G36*
G01*
X163607500Y-94450000D02*
X163732500Y-94450000D01*
G75*
G02*
X163795000Y-94512500I0J-62500D01*
G01*
X163795000Y-95187500D01*
G75*
G02*
X163732500Y-95250000I-62500J0D01*
G01*
X163607500Y-95250000D01*
G75*
G02*
X163545000Y-95187500I0J62500D01*
G01*
X163545000Y-94512500D01*
G75*
G02*
X163607500Y-94450000I62500J0D01*
G01*
G37*
G36*
G01*
X164107500Y-94450000D02*
X164232500Y-94450000D01*
G75*
G02*
X164295000Y-94512500I0J-62500D01*
G01*
X164295000Y-95187500D01*
G75*
G02*
X164232500Y-95250000I-62500J0D01*
G01*
X164107500Y-95250000D01*
G75*
G02*
X164045000Y-95187500I0J62500D01*
G01*
X164045000Y-94512500D01*
G75*
G02*
X164107500Y-94450000I62500J0D01*
G01*
G37*
G36*
G01*
X164607500Y-94450000D02*
X164732500Y-94450000D01*
G75*
G02*
X164795000Y-94512500I0J-62500D01*
G01*
X164795000Y-95187500D01*
G75*
G02*
X164732500Y-95250000I-62500J0D01*
G01*
X164607500Y-95250000D01*
G75*
G02*
X164545000Y-95187500I0J62500D01*
G01*
X164545000Y-94512500D01*
G75*
G02*
X164607500Y-94450000I62500J0D01*
G01*
G37*
G36*
G01*
X165107500Y-94450000D02*
X165232500Y-94450000D01*
G75*
G02*
X165295000Y-94512500I0J-62500D01*
G01*
X165295000Y-95187500D01*
G75*
G02*
X165232500Y-95250000I-62500J0D01*
G01*
X165107500Y-95250000D01*
G75*
G02*
X165045000Y-95187500I0J62500D01*
G01*
X165045000Y-94512500D01*
G75*
G02*
X165107500Y-94450000I62500J0D01*
G01*
G37*
G36*
G01*
X165607500Y-94450000D02*
X165732500Y-94450000D01*
G75*
G02*
X165795000Y-94512500I0J-62500D01*
G01*
X165795000Y-95187500D01*
G75*
G02*
X165732500Y-95250000I-62500J0D01*
G01*
X165607500Y-95250000D01*
G75*
G02*
X165545000Y-95187500I0J62500D01*
G01*
X165545000Y-94512500D01*
G75*
G02*
X165607500Y-94450000I62500J0D01*
G01*
G37*
G36*
G01*
X166107500Y-94450000D02*
X166232500Y-94450000D01*
G75*
G02*
X166295000Y-94512500I0J-62500D01*
G01*
X166295000Y-95187500D01*
G75*
G02*
X166232500Y-95250000I-62500J0D01*
G01*
X166107500Y-95250000D01*
G75*
G02*
X166045000Y-95187500I0J62500D01*
G01*
X166045000Y-94512500D01*
G75*
G02*
X166107500Y-94450000I62500J0D01*
G01*
G37*
G36*
G01*
X166607500Y-94450000D02*
X166732500Y-94450000D01*
G75*
G02*
X166795000Y-94512500I0J-62500D01*
G01*
X166795000Y-95187500D01*
G75*
G02*
X166732500Y-95250000I-62500J0D01*
G01*
X166607500Y-95250000D01*
G75*
G02*
X166545000Y-95187500I0J62500D01*
G01*
X166545000Y-94512500D01*
G75*
G02*
X166607500Y-94450000I62500J0D01*
G01*
G37*
G36*
G01*
X167107500Y-94450000D02*
X167232500Y-94450000D01*
G75*
G02*
X167295000Y-94512500I0J-62500D01*
G01*
X167295000Y-95187500D01*
G75*
G02*
X167232500Y-95250000I-62500J0D01*
G01*
X167107500Y-95250000D01*
G75*
G02*
X167045000Y-95187500I0J62500D01*
G01*
X167045000Y-94512500D01*
G75*
G02*
X167107500Y-94450000I62500J0D01*
G01*
G37*
G36*
G01*
X167607500Y-94450000D02*
X167732500Y-94450000D01*
G75*
G02*
X167795000Y-94512500I0J-62500D01*
G01*
X167795000Y-95187500D01*
G75*
G02*
X167732500Y-95250000I-62500J0D01*
G01*
X167607500Y-95250000D01*
G75*
G02*
X167545000Y-95187500I0J62500D01*
G01*
X167545000Y-94512500D01*
G75*
G02*
X167607500Y-94450000I62500J0D01*
G01*
G37*
%TD*%
%TO.C,R6*%
G36*
G01*
X144775000Y-107062500D02*
X144775000Y-107537500D01*
G75*
G02*
X144537500Y-107775000I-237500J0D01*
G01*
X144037500Y-107775000D01*
G75*
G02*
X143800000Y-107537500I0J237500D01*
G01*
X143800000Y-107062500D01*
G75*
G02*
X144037500Y-106825000I237500J0D01*
G01*
X144537500Y-106825000D01*
G75*
G02*
X144775000Y-107062500I0J-237500D01*
G01*
G37*
G36*
G01*
X146600000Y-107062500D02*
X146600000Y-107537500D01*
G75*
G02*
X146362500Y-107775000I-237500J0D01*
G01*
X145862500Y-107775000D01*
G75*
G02*
X145625000Y-107537500I0J237500D01*
G01*
X145625000Y-107062500D01*
G75*
G02*
X145862500Y-106825000I237500J0D01*
G01*
X146362500Y-106825000D01*
G75*
G02*
X146600000Y-107062500I0J-237500D01*
G01*
G37*
%TD*%
%TO.C,R5*%
G36*
G01*
X157862500Y-90625000D02*
X158337500Y-90625000D01*
G75*
G02*
X158575000Y-90862500I0J-237500D01*
G01*
X158575000Y-91362500D01*
G75*
G02*
X158337500Y-91600000I-237500J0D01*
G01*
X157862500Y-91600000D01*
G75*
G02*
X157625000Y-91362500I0J237500D01*
G01*
X157625000Y-90862500D01*
G75*
G02*
X157862500Y-90625000I237500J0D01*
G01*
G37*
G36*
G01*
X157862500Y-88800000D02*
X158337500Y-88800000D01*
G75*
G02*
X158575000Y-89037500I0J-237500D01*
G01*
X158575000Y-89537500D01*
G75*
G02*
X158337500Y-89775000I-237500J0D01*
G01*
X157862500Y-89775000D01*
G75*
G02*
X157625000Y-89537500I0J237500D01*
G01*
X157625000Y-89037500D01*
G75*
G02*
X157862500Y-88800000I237500J0D01*
G01*
G37*
%TD*%
%TO.C,R4*%
G36*
G01*
X157062500Y-107025000D02*
X157537500Y-107025000D01*
G75*
G02*
X157775000Y-107262500I0J-237500D01*
G01*
X157775000Y-107762500D01*
G75*
G02*
X157537500Y-108000000I-237500J0D01*
G01*
X157062500Y-108000000D01*
G75*
G02*
X156825000Y-107762500I0J237500D01*
G01*
X156825000Y-107262500D01*
G75*
G02*
X157062500Y-107025000I237500J0D01*
G01*
G37*
G36*
G01*
X157062500Y-105200000D02*
X157537500Y-105200000D01*
G75*
G02*
X157775000Y-105437500I0J-237500D01*
G01*
X157775000Y-105937500D01*
G75*
G02*
X157537500Y-106175000I-237500J0D01*
G01*
X157062500Y-106175000D01*
G75*
G02*
X156825000Y-105937500I0J237500D01*
G01*
X156825000Y-105437500D01*
G75*
G02*
X157062500Y-105200000I237500J0D01*
G01*
G37*
%TD*%
%TO.C,R3*%
G36*
G01*
X156162500Y-90625000D02*
X156637500Y-90625000D01*
G75*
G02*
X156875000Y-90862500I0J-237500D01*
G01*
X156875000Y-91362500D01*
G75*
G02*
X156637500Y-91600000I-237500J0D01*
G01*
X156162500Y-91600000D01*
G75*
G02*
X155925000Y-91362500I0J237500D01*
G01*
X155925000Y-90862500D01*
G75*
G02*
X156162500Y-90625000I237500J0D01*
G01*
G37*
G36*
G01*
X156162500Y-88800000D02*
X156637500Y-88800000D01*
G75*
G02*
X156875000Y-89037500I0J-237500D01*
G01*
X156875000Y-89537500D01*
G75*
G02*
X156637500Y-89775000I-237500J0D01*
G01*
X156162500Y-89775000D01*
G75*
G02*
X155925000Y-89537500I0J237500D01*
G01*
X155925000Y-89037500D01*
G75*
G02*
X156162500Y-88800000I237500J0D01*
G01*
G37*
%TD*%
%TO.C,R2*%
G36*
G01*
X155175000Y-98387500D02*
X155175000Y-97912500D01*
G75*
G02*
X155412500Y-97675000I237500J0D01*
G01*
X155912500Y-97675000D01*
G75*
G02*
X156150000Y-97912500I0J-237500D01*
G01*
X156150000Y-98387500D01*
G75*
G02*
X155912500Y-98625000I-237500J0D01*
G01*
X155412500Y-98625000D01*
G75*
G02*
X155175000Y-98387500I0J237500D01*
G01*
G37*
G36*
G01*
X153350000Y-98387500D02*
X153350000Y-97912500D01*
G75*
G02*
X153587500Y-97675000I237500J0D01*
G01*
X154087500Y-97675000D01*
G75*
G02*
X154325000Y-97912500I0J-237500D01*
G01*
X154325000Y-98387500D01*
G75*
G02*
X154087500Y-98625000I-237500J0D01*
G01*
X153587500Y-98625000D01*
G75*
G02*
X153350000Y-98387500I0J237500D01*
G01*
G37*
%TD*%
%TO.C,R1*%
G36*
G01*
X160962500Y-91125000D02*
X161437500Y-91125000D01*
G75*
G02*
X161675000Y-91362500I0J-237500D01*
G01*
X161675000Y-91862500D01*
G75*
G02*
X161437500Y-92100000I-237500J0D01*
G01*
X160962500Y-92100000D01*
G75*
G02*
X160725000Y-91862500I0J237500D01*
G01*
X160725000Y-91362500D01*
G75*
G02*
X160962500Y-91125000I237500J0D01*
G01*
G37*
G36*
G01*
X160962500Y-89300000D02*
X161437500Y-89300000D01*
G75*
G02*
X161675000Y-89537500I0J-237500D01*
G01*
X161675000Y-90037500D01*
G75*
G02*
X161437500Y-90275000I-237500J0D01*
G01*
X160962500Y-90275000D01*
G75*
G02*
X160725000Y-90037500I0J237500D01*
G01*
X160725000Y-89537500D01*
G75*
G02*
X160962500Y-89300000I237500J0D01*
G01*
G37*
%TD*%
%TO.C,C10*%
G36*
G01*
X153962500Y-92275000D02*
X154437500Y-92275000D01*
G75*
G02*
X154675000Y-92512500I0J-237500D01*
G01*
X154675000Y-93087500D01*
G75*
G02*
X154437500Y-93325000I-237500J0D01*
G01*
X153962500Y-93325000D01*
G75*
G02*
X153725000Y-93087500I0J237500D01*
G01*
X153725000Y-92512500D01*
G75*
G02*
X153962500Y-92275000I237500J0D01*
G01*
G37*
G36*
G01*
X153962500Y-90525000D02*
X154437500Y-90525000D01*
G75*
G02*
X154675000Y-90762500I0J-237500D01*
G01*
X154675000Y-91337500D01*
G75*
G02*
X154437500Y-91575000I-237500J0D01*
G01*
X153962500Y-91575000D01*
G75*
G02*
X153725000Y-91337500I0J237500D01*
G01*
X153725000Y-90762500D01*
G75*
G02*
X153962500Y-90525000I237500J0D01*
G01*
G37*
%TD*%
%TO.C,C8*%
G36*
G01*
X158450000Y-93737500D02*
X158450000Y-93262500D01*
G75*
G02*
X158687500Y-93025000I237500J0D01*
G01*
X159262500Y-93025000D01*
G75*
G02*
X159500000Y-93262500I0J-237500D01*
G01*
X159500000Y-93737500D01*
G75*
G02*
X159262500Y-93975000I-237500J0D01*
G01*
X158687500Y-93975000D01*
G75*
G02*
X158450000Y-93737500I0J237500D01*
G01*
G37*
G36*
G01*
X156700000Y-93737500D02*
X156700000Y-93262500D01*
G75*
G02*
X156937500Y-93025000I237500J0D01*
G01*
X157512500Y-93025000D01*
G75*
G02*
X157750000Y-93262500I0J-237500D01*
G01*
X157750000Y-93737500D01*
G75*
G02*
X157512500Y-93975000I-237500J0D01*
G01*
X156937500Y-93975000D01*
G75*
G02*
X156700000Y-93737500I0J237500D01*
G01*
G37*
%TD*%
%TO.C,C7*%
G36*
G01*
X159137500Y-96650000D02*
X158662500Y-96650000D01*
G75*
G02*
X158425000Y-96412500I0J237500D01*
G01*
X158425000Y-95837500D01*
G75*
G02*
X158662500Y-95600000I237500J0D01*
G01*
X159137500Y-95600000D01*
G75*
G02*
X159375000Y-95837500I0J-237500D01*
G01*
X159375000Y-96412500D01*
G75*
G02*
X159137500Y-96650000I-237500J0D01*
G01*
G37*
G36*
G01*
X159137500Y-98400000D02*
X158662500Y-98400000D01*
G75*
G02*
X158425000Y-98162500I0J237500D01*
G01*
X158425000Y-97587500D01*
G75*
G02*
X158662500Y-97350000I237500J0D01*
G01*
X159137500Y-97350000D01*
G75*
G02*
X159375000Y-97587500I0J-237500D01*
G01*
X159375000Y-98162500D01*
G75*
G02*
X159137500Y-98400000I-237500J0D01*
G01*
G37*
%TD*%
%TO.C,C6*%
G36*
G01*
X144445000Y-90355000D02*
X142595000Y-90355000D01*
G75*
G02*
X142345000Y-90105000I0J250000D01*
G01*
X142345000Y-89105000D01*
G75*
G02*
X142595000Y-88855000I250000J0D01*
G01*
X144445000Y-88855000D01*
G75*
G02*
X144695000Y-89105000I0J-250000D01*
G01*
X144695000Y-90105000D01*
G75*
G02*
X144445000Y-90355000I-250000J0D01*
G01*
G37*
G36*
G01*
X144444500Y-93605000D02*
X142595500Y-93605000D01*
G75*
G02*
X142345000Y-93354500I0J250500D01*
G01*
X142345000Y-92355500D01*
G75*
G02*
X142595500Y-92105000I250500J0D01*
G01*
X144444500Y-92105000D01*
G75*
G02*
X144695000Y-92355500I0J-250500D01*
G01*
X144695000Y-93354500D01*
G75*
G02*
X144444500Y-93605000I-250500J0D01*
G01*
G37*
%TD*%
%TO.C,C5*%
G36*
G01*
X167150000Y-103562500D02*
X167150000Y-104037500D01*
G75*
G02*
X166912500Y-104275000I-237500J0D01*
G01*
X166337500Y-104275000D01*
G75*
G02*
X166100000Y-104037500I0J237500D01*
G01*
X166100000Y-103562500D01*
G75*
G02*
X166337500Y-103325000I237500J0D01*
G01*
X166912500Y-103325000D01*
G75*
G02*
X167150000Y-103562500I0J-237500D01*
G01*
G37*
G36*
G01*
X168900000Y-103562500D02*
X168900000Y-104037500D01*
G75*
G02*
X168662500Y-104275000I-237500J0D01*
G01*
X168087500Y-104275000D01*
G75*
G02*
X167850000Y-104037500I0J237500D01*
G01*
X167850000Y-103562500D01*
G75*
G02*
X168087500Y-103325000I237500J0D01*
G01*
X168662500Y-103325000D01*
G75*
G02*
X168900000Y-103562500I0J-237500D01*
G01*
G37*
%TD*%
%TO.C,C4*%
G36*
G01*
X146750001Y-90950000D02*
X145849999Y-90950000D01*
G75*
G02*
X145600000Y-90700001I0J249999D01*
G01*
X145600000Y-90049999D01*
G75*
G02*
X145849999Y-89800000I249999J0D01*
G01*
X146750001Y-89800000D01*
G75*
G02*
X147000000Y-90049999I0J-249999D01*
G01*
X147000000Y-90700001D01*
G75*
G02*
X146750001Y-90950000I-249999J0D01*
G01*
G37*
G36*
G01*
X146750450Y-93000000D02*
X145849550Y-93000000D01*
G75*
G02*
X145600000Y-92750450I0J249550D01*
G01*
X145600000Y-92099550D01*
G75*
G02*
X145849550Y-91850000I249550J0D01*
G01*
X146750450Y-91850000D01*
G75*
G02*
X147000000Y-92099550I0J-249550D01*
G01*
X147000000Y-92750450D01*
G75*
G02*
X146750450Y-93000000I-249550J0D01*
G01*
G37*
%TD*%
M02*
